<?xml version="1.0" encoding="UTF-8"?>
<svg id="Layer_1" data-name="Layer 1" xmlns="http://www.w3.org/2000/svg" viewBox="0 0 97.06 120.35">
  <defs>
    <style>
      .cls-1 {
        fill: #1C1C1C;
        stroke-width: 0px;
      }
    </style>
  </defs>
  <path class="cls-1" d="M41.94,48.74c-.28-.12-.59-.22-.9-.28-.81-.16-1.72-.25-2.21-.87,0,.34-.25.5-.5.69-.19.12-.34.28-.34.5.25-.03.5-.03.78,0,.81.06,1.62.31,2.28.47.31.09.62.12.81.12-.84-.12-.09-.28.09-.62M55.63,65.06c-.03.65.34.72.41,1.19,1.28-.53,1.84,1,2.59.41-.84-.78-1.59-1.66-3-1.59M46.77,54.86c-.16-.03-.41.06-.44-.12-.47.22-1.53,0-1.59.47.75.59,1.65,1.03,3.21.5.97.28-1-.44-1.18-.84M44.18,53.58c-.12,0-.28-.03-.41-.03-.31,0-.65.03-1,.09.44,1.06,1.62,1.09,3.06.75-.37-.53-.97-.75-1.65-.81M33.61,78.23c.34-.5.44-.97-.03-1.25-.31.37-.72.84-1.06,1.31-.47.59-.87,1.19-.97,1.53.65-.19,1.59-.9,2.06-1.59M41.75,51.92c-.25-.03-.47-.06-.72-.09-.31.62.84.87,1.09,1.5.34-.19.72-.22,1.09-.22.28,0,.56.03.81.06.47.06.84.06.97-.34-.34-.09-.69-.22-1.03-.34-.75-.22-1.43-.44-2.21-.56M36.32,46.43c-.09-.25-.19-.47-.31-.65-.06.12-.09.28-.12.41-.19,1.03.37,2.37-.16,2.78.69-.31.91-1.56.59-2.53M36.82,48.15c.25-.06.44-.22.56-.41.5-.87-.06-2.81-.16-3.43-.12.56-.69.81-.81,1.4.69.28.62,1.28.5,2-.03.19-.06.34-.09.44M30.64,75.82c-.22-.16-1.37-.22-1.43.25.53-.28,1.25.4,1.43-.25M36.73,74.57c-.37.12-1.62.5-1.15.62.53-.12.94-.31,1.15-.62M27.4,99.63v.16c.03.65-.25,1.78.53,1.84-.06-.62.28-1,.37-1.53-.28,0-.41-.22-.62-.37-.06-.06-.15-.09-.28-.09M32.14,101.72c-.41-.09-.81-.22-1.28-.19.16.97.59,1.53,1.34,1.65-.09-.53-.28-1.16-.06-1.47M36.97,101.75c1.06-.16,1.62-.62,1.87-1.37-.31-.06-.56-.22-.87-.25-.03.78-.75,1.03-1,1.62M37.66,98.5c-.12.16-.34,1.09.34.78-.09-.31-.06-.78-.34-.78M40.53,50.8c-.37.03-.78.12-1.12.28.53.28,1.19.37,1.84.44.94.09,1.9.16,2.71.44-.75-.69-2.12-1.25-3.43-1.15M48.33,51.86c-.75-.72-3.31-.25-3.99-.16.9.5,2.68,1.09,3.99.16M43.25,50.21c.84,1.37,3.49.97,4.68.47-1.43-.65-2.87-.12-4.68-.47M28.52,93.98c0,.37-.94.97-.19,1.28.06-.22.25-.37.47-.47.09-.03.19-.06.28-.09,0-.03-.03-.09-.03-.12-.13-.28-.28-.53-.53-.59M29.42,45.25c0,.53.84,1.12.97.65-.5.03-.59-.53-.97-.65M39.22,49.37c-.41-.06-.78-.09-1.15-.16.09.62.56.72.81,1.12.31-.12.69-.16,1.06-.12.75.06,1.5.34,2.03.37.34.03.59-.03.65-.28-.44-.28-.9-.44-1.43-.59-.62-.15-1.28-.25-1.97-.34M10.27,1.82c.19-.03.41-.06.62-.09.03-.65-.16-.94-.41-1.19-.41-.25-1.59-.25-1.84.31.94-.25.88.94,1.62.97M3.12,45.75c-1.09-.28-3.12.59-2.46,1.47.9-.47,2.34-.12,2.46-1.47M.75,49.09c-.5.47-.87,1.03-.72,2,.69-.12.59-.78,1.31-.84-.15-.41.09-1.47-.59-1.15M38.44,98.13c-.34.06-.22-.53-.5-.53-.13.44.5,1.06.5.53M2.81,53.77c-.25-.31-.56-.53-.97-.69-.62.69-.44,2.03.59,2.21-.38-.87.56-.78.37-1.53M6.84,4.91c.25-.28.78-.41.9-.78-.78-.34-2.28-.59-2.65.47.87-.31,1,.41,1.75.31M12.2,14.27c.22-1.53-.16-3.12-.5-5.37,1.18.65,1.78,4.74.5,5.37M13.23,5.69c.22-.06.37,0,.44.12.65,2.37.97,4.43.97,6.96,0,.53.53,1.65-.31,1.93-.12-3.28-.16-5.96-1.09-9.02M16.91,18.67c.28.94-1.03.72-1.72.94-.12-.16-.28-.28-.31-.56.72-.53,1.03.19,2.03-.37M15.35,5.75c.19.06.41.12.47.34.47,3.03,1.15,6.21.84,8.64-.09-.31-.19-.65-.28-.97-.03-.12-.03-.22-.06-.34-.03-.09-.03-.19-.06-.28-.12-.69-.19-1.4-.25-2.12-.12-1.68-.19-3.49-.65-5.27M15.67,19.95c.81-.22,1.34-.03,1.9.09-.16.62-1.75.75-1.9-.09M18.01,21.44c-.87.22-1.62.28-1.78-.53.72,0,1.56-.19,1.78.53M18.97,22.1c-.06.78-1.84.72-1.9-.09.75-.12,1.31,0,1.9.09M14.39,24.75c0-.12.03-.25.09-.37.19-.41.72-.72,1.19-.62.09.03.16.06.25.09-.41.37-.81.78-1.53.9M18.97,24.6c-.03-.12-.03-.28-.06-.41.28-.03.53-.09.81-.12.31.59-.38.44-.75.53M20.53,23.94c-.06.25-.19.47-.53.5-.19-.41.22-.44.53-.5M21.31,24.84c.12.94-1.43.75-1.65.06.34.28,1.06,0,1.65-.06M7.31,5.28c-.19.31-.31.69-.37,1.06-.06.62.16,1.19.56,1.65.41.5.97.84,1.53,1.15.19.09,1.56.59,1.59.75.09.53.59.87.56,1.31,0,.06-.03.12-.06.19-.03.03-.03.06-.06.09-.37-.12-.5-.84-.87-.25.09,1.06.44,1.62.9,2.18.28.31.59.65.9,1.06-.09.59-.34,1.06-.56,1.56-.22-.78-1.81.37-1.81-.75.31-.06,1.68-.22,1-.37-.65.16-1.22.22-1.5-.16.09-.06.16-.09.22-.16.12-.09.25-.22.31-.34-.5.12-.97.22-1.25,0-1.37,2.9,2.12,4.49,4.02,5.18.12.03.25-.03.34-.09.37-.25.56-.84.81-.53-.03.47-.31.78-.72,1-1.56.81-5.05.12-4.65,1.81.5-.87,2.87-1.37,3.84-.87.19-.09.47-.28.75-.47.44-.28.9-.5,1.22-.28-.34.44-.97.72-1.65.9-.56.16-1.22.25-1.9.34-.09.25,1.09.16,2.21.06.84-.09,1.65-.16,1.93-.16-.16.25-.5.41-.9.5-.53.16-1.12.25-1.43.53.72.22,1.31.16,1.93-.06.34-.12.72-.28,1.12-.47-.22.28-.56.53-.97.81-1.19.84-2.74,1.72-1.53,2.96-.19-1.12.75-2.12,1.59-2.34.28-.06.53-.06.75.06-.56.25-1.22.69-1.62,1.22-.41.53-.59,1.15-.16,1.81.25-.31.44-1.59.84-1.19.06.62-.97,1.62.09,1.87-.37-2.37,2.65-1.81,3.59-2.93.09-.12.19-.28.25-.44-.44-.03-.47-.25-.31-.56.37.41,1.59-.41,1.75.34-.47.37-.94.69-1.28,1.06-.28.31-.47.65-.44,1.12.03.9.62,1.59,1.37,1.84s1.68.06,2.37-.81c-.59-.03-1.37.25-1.34-.59.56.16,1.4-.12,1.56.56,2.53-.87,4.55.65,6.46-.22.19-.09.37-.19.59-.34-2.18-1.15-3.65-3.43-5.49-5.15-1.09.25-1.4-.53-1.72-1.37-.94.22-1.5-1.34-2.25-2.12,0,.25-.19.34-.34.47-.03-.03-.06-.06-.09-.09-.03-.06-.09-.12-.12-.19-.28-.47-.53-1.31-.65-1.03-.03.19.12.5.16.75.03.16,0,.28-.19.31-.12-.25-.25-.5-.34-.78-1.34-3.25-.75-7.36-1.65-11.04-.41-.25-.9-.37-1.25-.69-.06-.03-.09-.06-.16-.12.03-.03.06-.03.06-.03.44-.25,1,.28.94-.16-.19-.62-1.15-.53-1.22-.72.25-.41.53-.87-.5-.65.09.22.16.44.25.65.56,1.65.87,3.81,1.06,5.8.22,2.21.94,4.68-.12,5.46,0-3.06-.28-6.83-1.31-10.05-.12-.06-1.15-.19-1.19-.28-.12-.34.87-.47.44-.81-.16-.09-1.22.19-.94-.31.06-.12,1.34-.41.5-.59-.47-.09-.97.19-1.47.19,0-.28.44-.34.62-.37,0,0,.09,0,.22-.03.22-.03.5-.12.31-.25-.59-.37-1.34.28-1.84.22h0c-.09,0-.16-.03-.22-.09-.03-.56,1-.37,1.12-.81-1.43.19-2.25.78-2.4,1.87.31,0,.59.09.84.22,1.12.47,1.75,1.68,2.74,2.34.12,1.53,1.96,5.93.78,8.24-.59-2.09-.34-5.83-1.09-7.55-.19.03-1.15.09-1.22-.16-.06-.19.44-.28.19-.47-.19-.16-.62.16-.9.03-.34-.28,1.12-.72.31-.84-.56-.09-1.25.78-1.75.41.03-.56,1.15-.47,1.06-1.09-.59-.12-1.09.62-1.68.56-.19-.03-.28-.06-.34-.12-.19-.22.65-.59.87-.65.22-.09.69-.16.28-.31-.12-.03-.37,0-.5,0-.16,0-.31.06-.47.12-.44.16-.69.25-.93.69M3.22,48.87c-.19-.06-.25-.22-.25-.37,0-.44.37-1.06.06-.62-.34.19-.28.62-.34,1.03-.03.25-.12.44-.34.53-.03,0-.06.03-.09.03-.37-.53.37-1.12-.22-1.22-.19.62-.72,1.65-.03,2.31.22-.25.53-.44.87-.59.84-.44,1.87-.72,2.12-1.59-.47-.59-.56.81-1.03.19-.37-.59.53-1.15,0-1.25-.34.41-.12,1.28-.75,1.56M7.43,14.64c.78-.28,1.15-1.81.41-2.59-.65.65-1,1.56-.41,2.59M4.56,46.75c.37-.09.75-.22,1.09-.31.75-.25,1.47-.53,2.12-.44.47.06-.84-.56-1.5-.16-.31.09-.94.87-1.19.41-.16-.28.72-.62.09-.65-.12.44-.78.47-.65,1.09,0,.03,0,.06.03.06M7.34,54.45c.16,1.43,1.87,1.5,2.37.44-.53-.53-1.81.03-2.37-.44M29.14,80.47c1.06-.53,2.06-1.09,2.71-1.9.34-.41.56-.84.69-1.4-.5.03-.75-.09-1.15-.12-.25-.03-.53,0-.94.06.06,1-1.28,1.93-1.03,2.46.59-.44,1.09-1.53,1.78-1.62h.25c-.12.37-.34.69-.59.97-.53.59-1.21,1-1.71,1.56M39.25,73.51c1.06-.09,1.87-.9,2.9-1.34.72-.28,2.03-.84,2.78-.9.9-.06,1.75.72,2.65.81,1.4.12,2.99-.44,4.34-.31,1.47.12,2.28.97,3.46.65-4.09-1.53-12.35-2.9-16.13,1.09M45.99,68.8c-.03-.12-.03-.28-.06-.41.47-.09.94-.16,1.43-.25.28.75-.94.41-1.37.66M37.16,72.17c-.37-.34-.28-1.25.81-1.4.72-1.53,3.12-1.84,4.52-2.87.84.37,1.93.47,3.03.53-2.65.22-7.02,1.19-8.36,3.74M39.13,72.7c-.37.03,0-.81.28-.87,0-.5-.9.28-.72-.5,1.34-1,3.31-1.59,5.05-2.31.22.12.19.62.56.56-2.22.66-4.65,1.22-5.18,3.12M35.2,74.2c-.5-.5.47-1.47,1.19-1.68-.28.65-.87,1.06-1.19,1.68M52.64,69.74c1.53.34,2.87,1.19,4.18,1.19-2.59-1.5-5.55-2.43-9.2-2.4.53-.9,1.75-.34,2.68-.25,2.65.25,4.93,1.06,6.36,1.62-2.65-1.5-5.77-2.56-9.05-2.65-.87-.03-1.96.47-3.06.53-1,.03-1.78-.22-2.71.03-2.93.81-5.21,2.96-7.05,5.15.84-2.84,3.93-4.12,6.55-5.71-.25-.06-.5-.03-.75.06-.22.09-.41.22-.62.28-.75.44-1.5,1.03-2.18.87,0-.09.06-.19.09-.25.44-1.03,2.46-.9,2.87-1.93-1.62.25-2.43,1.75-4.18,1.34.28.75-.41.78-.62,1.15-1.25.9-2.09,2.09-3.24,3.06-.37,1.72-2,2.53-3.37,3.52,3.96-1.03,4.43-5.4,7.83-6.33.09-.03.19-.06.31-.09-.78.78-1.37,1.65-2.56,2.12-.37,1.78-2.25,2.46-3.12,3.87,1.78.03,1.81-2.74,2.99-2-.56.65-1.06,1.31-1.53,1.93,1.65.06,3.21-.9,4.4-2.43.25.53-.34.47-.28.87.5.09.75-.87.97-.37.37.94-1.72,1.03-1.22,1.47,2.25-1.65,3.81-3.52,6.83-4.09,1.09-.22,1.62.12,2.53.19,1.59.12,3.46-.25,5.02-.03,1.75.25,3.31,1.43,4.8,1.06-2.37-.56-4.8-1.96-7.68-2.03-1.09-.03-2.65.84-3.59-.22,3.06-.16,5.34-.03,7.58.47M38.16,74.33c-.81.62-2.03,1.31-3.49,1.65-1.22.28-2.59.03-3.37.41-.12.06-.22.12-.28.22h.37c2.43-.06,6.58-.81,6.77-2.28M34.17,79.19c.09-.09.19-.16.28-.25.97-.84,1.9-1.68,2.56-2.74-.81.16-1.62.28-2.43.41-.03.62-.37,1.28-.44,1.9-.06.25-.06.47.03.69M23.78,50.18c-.09-.84.97-.87.97-1.62.66.53-.31,1.43-.97,1.62M12.33,48.15c.06-.34,2.74-.25,3.56.03-1,.72-2.43-.09-3.56-.03M11.39,53.77c-.03-.12-.03-.22-.03-.34,0-.81.5-1.31.19-2.34,0-.03,0-.06-.03-.06.16.06.25.22.34.44.12.31.19.69.19,1.09,0,.56-.22,1.09-.65,1.22M4.53,50.33c.28,0,.25.47.34.78-.5,0-.56-.47-.34-.78M35.35,39.6c-.31-.09-.47-.37-.53-.75.37.16.87.34.53.75M30.17,48.46c-.87-.84.87-1,0,0M27.55,51.39c.19.06.37.12.62.16l.06-.06c.47-.47.87-.97.62-1.93-.28-.53-1.09-.31-1.56-.56.62-.16.81-1.56,1.25-1.25-.59,1.25,1.84,2.46.31,3.87l-.06.06c.06,0,.12-.03.19-.03,1.43-.34.75-2.87-.31-3.09.16-.31.59-1.34.87-1-.25.69.31,1.62.56,2.53.12.5.16,1-.16,1.47-.03.06-.06.09-.09.16-.06.06-.12.16-.19.22.34-.06.56.06.69.31-.41.19-1.37-.03-1.4.44,2.87.65,1.59-2.84,2.9-3.84,1.06-.41,1.53.03,1.96.5-.44-1.62.97-1.78,1.43-2.56-.59.06-1.09.16-1.59.25-.75.19-1.47.41-2.43.62-.75-.59-2.31-1.19-2.59-2.9-.12-.75.09-1.47.47-2.18.22,1.84.9,3.09,2.03,3.21,2.9.34,3.68-3.18,3.74-5.02.59.72.56,2.4.16,3.34-.65,1.47-2.37,1.78-3.99,2.34,5.62.28,3.62-4.68,5.59-7.86,1-1.59,2.34-1.87,3.62-3.34-.94,1.75-2.43,2.12-3.34,3.71-1.47,2.53-.22,6.33-2.93,7.39,2.28-.62,2.46-2.68,2.99-4.49.28-.94.34-1.9.81-2.65.28-.41.65-.78,1.03-1.12.22-.19.44-.37.65-.56.56-.47,1.12-.97,1.5-1.59.34-.59.34-1.37.56-2.06.06-.22.12-.41.25-.59.31,2.74-1.68,4.24-3.12,5.9-.87,1-1.53,2.03-1.34,3.46.53-1.12.97-2.06,1.59-2.96.41-.59.9-1.15,1.59-1.78,2.28-2.09,1.68-3.74,2.06-6.21.41-2.59,3.71-3.52,4.02-5.93.12-.97-.31-1.62-.41-2.43-.12.53-.41.94-.75,1.25-.75.72-1.81,1.12-2.5,1.81-.56.56-1.56,1.97-1.81,2.84-.28.97.09,1.93,0,2.5-.44,2.96-3.15,5.12-5.59,6.61-.62-.44-.09-.84.25-1.09-1,.44-1.15.37-1.47,1.31-1.87-.03-2.96-.09-4.46-.28-1.87.75-2.21,2.65-3.56,3.74-.06.06-.12.09-.22.16-1.12.81-2.46,1.03-4.06,1.84.28,1.03-1.03.94-1.9,1.15-.75,1.22-2.31,1.19-3.84,2.12.25-.03.5-.03.47.34-1.22-.06-2.96.09-4.62.06-1.03-.03-2.03-.12-2.87-.41h-.03s-.03,0-.03-.03c-.16-.06-.34-.09-.5-.19,1.62-.56,4.43.62,6.24-.22-2.06-.09-4.18-.16-6.15-.41-.28.06-.12.37-.34.47-.47-.37-1.12-.5-1.72-.41-.72.12-1.34.56-1.47,1.37,2.12-1.62,3.09.28,5.27.16-.06.25-.12.5-.31.69-1.34-.03-2.18-.78-3.34-1.09-.87.16-1.12.75-1.22,1.47.47-.12.78-.09.87.28-.69.53-1.47,0-1.72.9-.22-.41.47-.75-.31-.56-.5.47-.37,1.4-.94,1.84-.16-.06-.22-.19-.25-.31h0c-.03-.41.37-1.03,0-1.09-.06.09-.12.25-.19.37-.22.56-.22,1.34.03,2,.03.06.03.16.06.22.06.12.12.22.19.34-.78.12-.56-1.22-1.25-1.25.09.47.16.94.25,1.43,1.56,1.22,3.28-.03,4.02-1.34.03-.06.09-.16.12-.22.06.03.09.09.12.12.19.22-.16.34.03.9,1.75-.06,3.18-2.06,4.49-.78-.19.5-.09,1.22-.28,1.72-.06.19-.19.34-.37.44-.06.03-.12.06-.19.09-.37-.53.44-1.22-.37-.97-.56.34-.53,1.12-.12,1.68,2.78.03,4.9-1.87,5.4-4.06.75.44.78,1.9,1.28,2.71.34-.56.25-1.43.37-2.12.03-.09.03-.16.06-.25.25.65.25,1.15.16,1.56-.16.69-.53,1.12-.25,1.59.62-.65,1.06-1.62,1.53-2.53.59-1.12,1.31-2.12,2.68-2.15.03.12.03.25.06.37.09.81-.03,1.25-.94,1.65h0c-.12-.5-.19-.97,0-1.25-.78.16-1.19.75-1.34,1.4-.31,1.5.84,3.46,2.78,2.12-.44.03-.97-.28-1.22-.65-.06-.12-.12-.22-.12-.34,0-.09,0-.19.06-.25,0,.84,1.37,1.09,1.59.78-1.22-.81-.78-2.62-.09-3.71.12-.19.25-.37.41-.53.06.22.09.41.09.56,0,.19-.06.34-.12.47.25-.03.41-.19.56-.37.34-.47.5-1.15.9-.94.19.59-.06.87-.44,1.09-.41.25-.97.41-1.12.84,1.68.12,3.15,1.96,4.84,1.28-.53-.09-1-.47-1.31-.97-.69-1.06-.75-2.62.62-3.09-.06.84-.69,1.28-.9,2.03.25.28.56.87.87,1.22.28.28.56.44.81.16-.06-.03-.09-.09-.16-.12-1.09-1-.94-3.31.41-3.28-.38,1-1.03,2.72.18,3.25M57.5,69.96c.16-.62.59-1.06.78-1.65.06-.19.09-.41.06-.62,0-.12-.03-.28-.06-.44,0-.03,0-.06-.03-.12-.28-.06-.53-.16-.78-.28s-.5-.25-.81-.31c-.19-.06-.37-.09-.62-.06,0,.53.25.75.53.87.25.12.53.19.75.37-.81.31,0,1.44.19,2.25M37.69,43.75c-.09.09-.12.22-.09.31.03-.09.06-.22.09-.31M25.87,98c-.25.41-.5,1.93.34,2.03,0-.78.87-1.81-.34-2.03M39.63,44.97c-1.06-.31.16-1.37.06-2.09,1.09.16-.28,1.37-.06,2.09M39.56,40.13c-1.15.9-1.59,2.56-1.87,3.62.16-.19.41-.31.47,0-.72,1.12.12,3.24-.19,4.21-.03.09-.03.16-.09.22.09-.03.16-.09.22-.16,1.34-1.12-.62-4.43,1.06-4.68-.34,1.19-.44,4.09,1.15,4.4-.12-1.09-.47-2.37.37-2.78-.25.97-.16,1.84.47,2.84h.28c.72-.06.87-.56,1.25-.87-.28-2.81-2.74-4.59-1.9-7.43-.47.13-.87.34-1.22.62M52.98,66.78c.62-.22.56.53,1.28.19-.12.5-1.31.4-1.28-.19M43.37,65.68c-.37-.22-1.87-.12-1.78.53,2.31-.44,4.96-.72,7.36-.47.25.03.5.06.75.12,1.12.19,2.18.47,3.09.97-.37,0-.69-.03-.97-.06-1.06-.09-1.75-.34-2.93-.75-1.53.03-4.71.59-6.18.31-.09-.03-.19-.03-.28-.06v.09c0,.41-1.12-.03-.97.5,1.65,1.03,3.87.06,5.87.06,2.74-.06,5.05.65,7.33,1.25.16.72.97,1.31,1.4.81.34-.22-.28-.44-.5-.78-.06-.09-.12-.22-.09-.37.22,0,.31.12.47.22.06.03.12.06.22.06-.03-.03-.06-.09-.09-.12-.34-.44-1.15-.94-1.31-.69,1.34.69-.19.34-.53.5.06-.31.22-.56.28-.87-2.9-1.31-7.18-3.09-11.14-1.25M4.09,46.62c-.03-.12-.03-.28-.06-.41-.25-.44-.94.25-.94.59.31-.06.65-.12,1-.19M80.87,62c-.03-.09-.03-.22-.06-.31v-.09c.12-.03.28-.03.41-.06,0,.06.03.12.03.19s.03.16.03.22c-.16.03-.28.03-.41.06M80.53,61.72c-.41.84-2.68,1.12-3.09,1.09-.19,0-.34-.06-.5-.09-.69-.16-1.25-.5-1.75-.78.62.28,2.43.25,4.18-.03.22-.06.47-.09.69-.12.19-.03.37-.09.53-.12,0,0-.03.03-.06.06M90.17,61.25c.09-1.25.75-2.09.44-3.65,1.47,2.18-.37,4.09-1.37,5.46-.56-.47.59-1.31.94-1.81M91.7,60.38c.12.87-.34,1.31-.97,1.62.41-.47.09-1.47.97-1.62M92.85,62c.31-.53.44-1.22.22-2.06-.12.22-.22.62-.37,1-.19.47-.44.87-.81.65.34-.22.56-.72.72-1.28.25-1.09.12-2.5-.62-3.12.03.53.16,1.12.16,1.65,0,.5-.09.94-.53,1.12.22-.37.19-1.19,0-1.93-.12-.5-.31-1-.53-1.28.03.16-.12.34-.28.5-.09.09-.19.16-.28.16-.03-.12-.06-.28-.12-.44-.16-.62-.37-1.37-.72-1.93-.31-.56-1.43-1.62-1-.87.53.62.94,1.56,1.22,2.53.62,2.31.37,5.05-1.68,5.71,1.4-1.31,1.56-4.06.87-6.43-.25-.94-.65-1.81-1.15-2.53-.81-.44-2.18-.78-3.52-.69-.28.03-.56.06-.84.12-.53.12-1.03.34-1.47.72.41-.03.9-.16,1.34-.22.5-.06.9-.03,1,.47-.41-.06-.9-.06-1.4.03-.97.16-1.93.56-2.15,1.22.16-.06.37-.16.62-.25,1.06-.34,2.71-.62,2.5.12-.87-.12-1.93.06-2.78.44-.56.25-1,.62-1.15,1.06.84-.34,1.65-.5,2.4-.5,2.56-.06,4.4,1.68,4.65,4.96-.41.87-.9,1.9-.81,2.65-.69-.75-1.75-1.03-2.81-1.28-.69-.16-1.4-.31-2.03-.56-.03,0-.06-.03-.09-.03,1.15-.34,2.56.25,3.12-.12-1.87-1.47-6.36.72-8.3-.22-.25-.12-.47-.31-.62-.56.53.28,1.28.37,2.15.34,2.06-.06,4.68-.78,5.96-.69-.65-.87-1.65-1.03-2.78-.9-2.09.22-4.59,1.37-6.24.78-.94-.34-.78-1.15-1.75-1.59-.09,2.68.75,3.77,2.12,4.12.25.06.5.09.75.12,1.65.12,3.74-.47,5.68-.65.84-.09,1.96.16,2.9.53.62.25,1.15.53,1.5.81.47.41.25,1.84.78,2.18.09-.9,0-1.9.16-2.74.59.72.59,1.9.31,2.96-.19.62-.44,1.19-.78,1.62-.12.16-.25.28-.37.41,0-.31-.09-.47-.22-.56-.19-.12-.47-.12-.75-.12-1.03,3.4-6.4,5.52-10.92,4.8.06.25.09.5.16.75.03.25.09.5.16.72.12.44.31.78.72.87-.09-.19-.25-.5-.34-.81-.09-.28-.09-.53.06-.72.06-.06.12-.09.22-.12.06.03.12.09.16.16.12.19.19.5.25.78.09.47.22.87.75.75-.03-.28-.12-.53-.19-.72-.12-.31-.22-.53-.03-.78.03-.06.09-.12.16-.16.03.06.06.09.09.16.12.22.22.53.31.81.16.5.37.97.97.9-.06-.22-.28-.56-.37-.9-.09-.28-.09-.56.09-.72.22.12.31.37.41.69.16.47.28.94.87.78,0-.31-.41-.56-.56-.81-.09-.19-.12-.34.12-.56.25.06.41.28.53.47.25.34.44.72.9.75.12-.37-.19-.65-.31-.87-.09-.12-.09-.25.09-.34.09.06.19.16.28.25.34.37.78.87,1.06.34-.12-.03-.28-.28-.37-.53-.09-.25-.12-.47,0-.44.06.12.16.25.25.34.44.53,1.22.94,1.53.19-.44.06-.72-.09-.87-.44-.03-.06-.06-.16-.09-.22.16-.06.31,0,.47.06.44.22.84.72,1.06.31-.12-.03-.5-.34-.5-.59,0-.09.03-.16.16-.19.03,0,.06,0,.09.03.37.12.9.84,1.19.19-.19-.03-.65-.25-.72-.5-.03-.09,0-.19.16-.25.09-.03.16-.03.22-.03.41.03.44.53,1.06.22.12-.69-.62-.09-.56-.69v-.03s.03,0,.06-.03c.47-.22,1.03.44,1.15-.19-.94-.78.59-.28.72-.75-1.15-.47.19-.34.34-.47.22-.22-.06-.56.06-.84.12-.28.44-.12.53-.53,0,.03-.31,0-.25-.16.19-.41.75-.65.87-1,.06-.19-.25-.65-.12-.81.03-.06.41-.03.41-.06.06-.25.03-.53.03-.81-.06-.75-.25-1.59.31-2.15,2.21.15,4.27-.22,5.05-1.53M82.71,62.94c.5.22,1.15.22,1.56.56.41.25.47,1.03.84,1.31,0-.69-.31-.94-.44-1.4-.44-.19-2.25-.87-1.96-.47M90.82,56.54c.09.03.19.12.28.22-.03-.09-.09-.19-.28-.22M86.61,66.24c-.47-.06-.72.9-.28.87-.06-.37.53-.34.28-.87M85.02,65.5c-.03.81.28,1,.31.56,0-.16-.28-1.19-.31-.56M48.02,90.42c.06.34.19,1.87.41,1.19-.06-.31-.19-1.84-.41-1.19M70.08,106.77c-.59.72-1.25,1.37-1.78,2.12-.41.56-.72,1.15-.87,1.87-.41-.69.16-1.62.81-2.25.19-.19.41-.37.59-.5.84-2.03,1.72-4.02,2.03-6.43.97,1.9-.94,3.28-.78,5.18M67.71,113.67c-.03-.19-.06-.41-.09-.59.53-.4.72.81.09.59M67.74,107.86c.06-.09.12-.19.16-.31,1.72-3.52,1.78-8.55.41-13.66.16-.06.28-.03.34.06.03.03.06.03.09.09,0,.03,0,.06.03.09.44,1.9.81,3.93,1,5.87.28,3.24-.06,6.27-1.78,8.08-.22.22-.44.44-.72.65.19-.28.31-.59.47-.87M64.62,110.42c-.78.78-1.62,1.72-2.56,2.12,1.34-2.03,3.43-3.52,5.18-5.27.31-1.34.97-2.43,1.25-3.77.25,0,.22.34.31.56-.47,2.71-2.22,4.43-4.18,6.36M66.77,93.51c-.19-.12-.41-.31-.56-.53-.12-.19-.19-.41-.06-.62.12.09.31.25.44.41.22.25.34.53.19.75M65.65,94.35c-.03-.09-.03-.22-.06-.31v-.09s.06,0,.09-.03c.09-.03.22-.03.31-.06.03.12.06.28.06.41-.13.03-.28.06-.41.09M64.74,90.3c.37.28.75.62.84,1.31-.37-.28-.72-.62-.84-1.31M64.96,95.29c-.34-.12-.41-.59-.59-.94.72-.28.87.59.59.94M59.66,80.07c.34-.12.41.09.47.34-.53,4.55,1.68,8.83,3.71,11.92-2.78-2.21-4.65-7.64-4.18-12.26M64.83,91.95c-1.81-1.84-3.43-5.21-3.74-8.36,1.06,3.59,2.43,5.46,3.74,8.36M47.27,12.46c.31,0,.19.59.5.53-.16.66-.9-.31-.5-.53M47.83,15.7s-.5-.62-.5-.53c-.03-.59.75.19.5.53M47.55,22.66c-.53-.69.16-2.03.12-2.96.97.47-.03,2.15-.12,2.96M46.9,13.99c1.06.34.47,1.22,0,0M47.02,8.53c-.12-.9.9-1.5,1.43-1.31.37.12.28.47.56.44.09,0,.28-.06.53-.22-.09.37-.34.62-.56.9-.19.22-.34.44-.41.72.37-.12.53-.41.69-.72.16-.31.25-.69.47-.94v-.03.03c.22.44.37.25.53.09.12-.12.22-.25.34.09,0,.03,0,.06.03.09t.06-.06c.34-.37,1.03-.78,1.15-.16.16-.19.25-.44.31-.69.41.03.47.53,1.09.22-1.09,1.87-5.89,3.87-6.24,1.53M45.4,7.53c-.22-.09-.28-.44-.69-.31-.06-.53.16-.84.69-.97,0,.37.28.37.25.16.65.28-.34.78-.25,1.12M44.46,7.06c-.22-.09-.41-.5-.44-.12-.62-.12-.09-.87-.22-1.22.5.69.28.78,1.09.22-.03.44-.31.75-.44,1.12M78.37,96.57c-.84.09-1.5-.06-1.96-.5.41-.78.87.44,1.65-.06-.69-.56-2.03-.16-1.97-1.75.94.81,1.97,1.43,3.9.81-.09-.37-.28-.62-.56-.84l-.12.03v-.12c-1.59-.97-5.24-.03-5.4-1.78-.16-1.34,2.09-2.09,3.18-.97-.84-1.72-3.21-.31-3.68.62.06-1.19.9-1.87,2.37-2.06-1.43-.5-3.31-.37-4.74-.87-.06-.41-.16-.81-.22-1.22.56-.12.69.41.78.9,1.03-.47,1.68-1.15,2.15-2,.03-.09.06-.19.06-.28-.56.12-1.96,2-2.71.69,1.19-.12,2.15-.37,2.31-1.22-2.09.94-4.46.53-5.05-1.43.19.12.34.25.5.37-.16-.19-.25-.44-.34-.72l-.03-.19c-1.22-1.37,2.21-2.56,3.12-1.31-.28-.62-.87-.78-1.43-1-1.03,0-1.31.5-1.96.75-.12-1.09,1.93-1.37,2.74-1.15.06-1.37-3.37.06-3.65-1.68,1.34.65,3.81.97,4.49-.75-.5.25-2.34.78-2.96-.12-.59-2.78,2.25-4.43,1.06-7.3-.37-.94-1.31-.78-1.81-2,.81-.06,1.9,1.9,2.06,1.09,1.22.62.09,1.87,1.31,2.71.75-2.81-2.12-5.3-2.87-8.3-1.28-.97-2.4-2.15-2.99-4.09-3.18-3.68-5.09-9.14-7.24-14.26-1.93.41-2.81.72-4.52.56-.41-.47-1.96-3.28,0-3.77.28.75-.69.59-.65,1.15.25.9.62,1.62,1.19,2.09,4.49-.03,2.25-5.18,1.09-7.08-.94.84-1.06,2.96-2.9,2.59.41-.97.94-1.84.94-3.09.03-.47-.44-.22-.5-.53.5-1.56-.37-2.65-.47-3.9-.22-3.03,2.9-4.59,2.74-7.18-.03-.5.06-1.37-.72-1.75,1.09-.84.56-2.84,1.68-3.65,0-.87.25-1.75-.12-3.12-.16-.62-.78-1.12-.94-1.72-.65-2.65.34-5.8-1.75-7.86-.12-.5.22-.69.22-1.09-1.22.09-2.78,2.75-4.46,2.03,0,1,.53,1.25.59,2.21-.62-.37-.81-1.37-1.19-2.09.69,2.71,4.34,6.43,1.84,9.55.06-1.19,0-3.9-1.09-5.27.62.12.9.75,1.09,1.5.09-2.4-2.28-3.49-2.71-6.02.53-.5,1.47-.25,2.46-.22,1.43-.9,2.65-1.93,3.9-2.96-1.87.06-3.52-1.25-5.18-.78-1.31.37-1.59,2.37-3.21,2-.44-.59-.06-1.09.59-1.37.25.53-.34.47-.28.87,1.43-.56,1.65-1.87,2.99-2.18,1.68-.41,3.68,1.28,5.93.47.12.75-.44,1-.56,1.56.9-.5,2.68-.75,3.49-.37-.12-1.09-2-1.87-3.96-1.19.41-.97,2.12-1,1.65-2.59-1.06.62-1.31,1.81-3.03,1.96,0-1.19,1.12-1.59.5-3.21-.81,1.65-1.9,2.06-3.46,3.09.75-1.03,1.53-2.34.56-4.09-.22.56-.16,1.34-.53,1.78-1.75.59-3.18,2.06-5.05,2.34-1.09.16-2.31-.87-3.09.31.62.16,1.9,1.28,1.9.09.65.16-.09.75.22,1.22-.94.03-1.22.59-2.21.59-.06.84,1.15-.09,1.15.65.28-.16-.12-.25-.09-.62.81.31,1-.09,1.75.34-.78.12-1.28.81-1.56.69-.37.53,1.03.72,1.59.78-2.18.97-3.28-1.78-4.99-2.28-1,.25-1.53.84-2.78.9-.31,1.43-1.37,2.37-1.87,3.68,1.31-.19,2.43-2.09,2.96-3.43,2.18,0,4.27.19,4.99,2.28-1.28-.78-2.31-1.96-4.27-1.78-1.09,1.37-1.78,3.03-3.52,3.96.56,1.15,1.4-.44,1.93-.97.72-.72,1.47-1.37,1.75-1.96,1.75.72,4.3.31,4.71,2.96.47-.37-.19-1.25-.28-1.62.72-.09.94.53,1.06,1.28.41-.34-.16-1.43-.16-2.06.75-.22.31,1.25.84,1.31.56-.47-.41-.94-.28-1.62.75-.16.75.81.87,1.53.47-.37-.41-1.72.06-2.09.53.09.81,1.34.53,1.81.56-.44.37-1.4.22-2.34.78-.25.44,1.06.69,1.56.41-.12-.09-.9.22-1.09.65.87,1.4,4.31,2.31,5.05-1.28.47-1.31-3.03-2.5-3.56-.25.12.44,1.03.65,1.34-.34.78-.69-.53-1.12-.44.16.87.69,1.22.78,2.15-.5-.34-.78-.87-1.15-1.9-.31,1.68,1.37,2.78,1.43,4.77-1-1.03-1.28-3.06-2.18-4.24.28,2.21,2.15,4.37,2.68,7.08-1.22-1.96-2.09-4.31-3.09-6.58-.16-.28-.16.12-.09.37.81,2.78,3.52,6.83,1.9,9.8.59,2.03.47,4.15-.56,5.33-.59.69-1.43.81-1.87,1.37-1.96,2.46,0,7.74-4.12,9.08,1.03.12,2.53-1.09,3.03-1.96.65-1.19.12-2.65.37-4.06.5-3.12,4.09-4.8,4.77-7.52-1.31-3.43,2.06-5.33,1.59-7.8-.28-1.62-1.84-1.68-2.12-3.84.81.16.53.97.9,1.53.65.97,1.56,1.31,1.72,2.62.22,1.9-1.65,3.31-2.09,4.96.47.56.31,2.21.37,3.49-.75,1.87-2.37,2.43-3.49,4.15-1.68,2.65-.12,7.05-3.56,8.55-.44,1.19-.28,3.31.41,4.74-.19-1.47-.62-2.99.25-4.65.41-.75,1.9-1.62,2.43-2.93,1.06-2.62-.22-4.99,1.56-6.77.56-.56,1.12-.56,1.53-.87-.9,1.03-1.78,2.06-2.37,3.34,1.87,5.02-3.46,6.33-3.09,10.17.16,1.43,1.68,3.21.87,5.09,1.4-.47.31-2.43.19-3.81-.25-2.53.56-4.84,2.34-5.83.31-1.34.94-2.43,1.25-3.77.81,3.06-3.06,4.99-2.96,8.46.06,2.12,1.56,4.74-1.09,5.83,2.9-.06,1.65-3.87,1.75-5.74.03-.97.37-2.43.9-3.31.25-.44.97-.69,1.28-1.06,1.59-2,.75-4.21,1.43-6.3.65-2,3.12-3.93,2.59-6.93,1.81,3.03-1.37,4.81-1.93,7.02-.22.9.25,1.96.09,2.93-.47,2.96-4.12,4.68-3.68,7.96.28-1.5,1.06-2.59,2.06-3.93.59-.81,1.75-1.81,1.84-2.62.12-.94-.09-2.06.09-3.15.65-3.59,3.93-4.87,1.96-9.33,1.25.87,1.25,3.9.69,5.34-.37.94-1.43,1.62-1.81,2.81-.5,1.56.06,3.37-.47,4.68-.37.94-1.19,1-1.34,1.9,3.59-1.22.94-6.83,3.99-8.42.47-1.56,1.4-2.53,1.19-4.18-.22-1.59-1.47-2.9-1.62-4.56-.25-2.68,1.31-4.12.41-7.39,1.68,1.12.28,3.62.25,5.18,1.81-2.09.75-5.9-.78-8.24.97.94,1.78,2.03,2.12,3.84.28-1.81-.81-3.9-1.5-5.18.65-.62.59.59.78.9.59,1,1.53,2.09,1.72,3.9.28,2.65-1.84,4.93-2.43,6.71.41.97.31,2.12.69,2.81.28.53.65.44.78.9.84,3.53-1.62,4.99-2.71,7.36-.22.5.34.94-.44,1.12.12,1.06.59,2.31.09,2.9.37.78,1.09.94,1.28,1.47,1.62,4.12-4.68,5.09-2.37,9.42.37-1.22.5-3.59,1.68-3.65.5.37-.25.87-.65,1.15,0,1.06-.5,1.81-.09,3.15.41.65,1.43.53,2.21.69.09.31-1.19.56-1.22.22-.56.28.53.22.34.78-1.25-.37-2.71-1.4-3.15-2.4-1.31-3.12,1.72-5.21,2.74-7.18-.03-1.31-.56-1.87-.9-2.78-.78,1.47-2.28,1.68-3.31,2.65-2.15,2-1.22,4.87-2.12,7.27.72.69,2.34.53,3.03.53-.53.94-2.43.53-3.12.12-.72.37-1.15.97-1.87,1.37,1.06.41,2.25-.12,3.09-.31.41,1.22,2.15.34,3.15.09-.03,1.25-2.96,1.12-3.46.59-1.62.41-2.71.12-3.81-.19.28,1.25,2.96,1.03,4.52.69.75.94,2.34.72,4.02.34-.56,1.15-1.84.5-2.96,1.12.87.81,2.65,1.03,4.06.34.44.65-.69.25-.5.72-2.34-.03-4.4,1-6.21.44-.22.81,3.21,1.59,3.56.03,1.06.59,2.5.65,3.9.81-2.12.34-4.62.53-6.86.34.81.94,2.4.78,3.9.78.44.03.34-.34.31-.69,1.25.59,2.53,1.15,4.34.94-1.28.97-2.87.19-3.81-.19-.72.25-1.9.78-2.65.44.72.78,2.15.47,3.59.22.56-.12.59.5.97.69.47-.25.65.31,1.12.44.72.19,1.87-.25,2.37.44-1.12.31-1.81.03-2.56-.19-2.93,1.59-4.34-1.03-6.77-.31.28,1.81,4.27.53,5.71,1.53.84,0,1.12-.41,1.81-.53.62.78,1.75.9,3.06.72-.62,1.15-2.43.22-3.15-.09-2.28.62-3.49-.28-5.3-.34.19,1.4,1.84.78,2.71,1.22.19-.03.12-.28.12-.44.72.41,2.74,1.43,3.4.25.72.06,1.19.5,1.81.75.56.22,1.75-.44,1.93.28-1.81.62-2.99-.78-5.05-.19.03.69,2,1.37,3.06.72.75.97,2.65.31,3.52,1.06-2.31.47-3.46-.65-5.52-.53.16,1.25,2.18,1.12,2.84.78.94.53,1.93.94,3.12,1.15-1.03.75-2.25-.34-3.06-.75-2.78.97-3.15-1.47-5.27-1.4.97,1.59,3.31,1.22,4.43,2.59.78-.25,1.06.19,1.87-.12.59,1,1.62,1.43,2.78,1.62-1.68.59-2.74-1.84-5.02-1.25-.84-.78-1.72-1.47-2.99-1.59.19,1.56,1.84,1.09,2.62,1.84-.12.41-.9-.37-1.5-.16.5,1.81,2.9.97,3.74,2.28-.09-1.56-1.93-.62-2.06-2.15.59.5,1.28.9,2.06,1.12.53-.28-.37-.5.06-.84.72.59,1,1.78,1.84,2.18,0,.44-.9.22-.72.75.25,1.43,1.43,1.53,2.09,2.37-.87-.09-1.31-.84-2.09-1.12.16,1.75.97,2.5,2.15,2.78-.87.81-1.78-.53-2.12-1.31-.75.31-.47,1.34-.94,1.84,1.47-.81,1.84,1.65,3.4,1.5-.97.62-2.31-.44-2.74-1.4-.44.22.12,1.15.06,1.65.25-.12.09-.53.06-.84.53.84,1.37,1.25,2,1.96.56.37,1.81-.22,2.18.47-1.56.5-2.21-.22-3.21-.5.87,1.19,2.87,1.9,4.59,1.09-.87,1.34-2.99.72-3.96.06.25.72.78,1.09,1.12,1.68.87-.34,2.71.22,3.62-.81.03.97-1.84,1.34-2.74,1.09-.19.81,2.43,1.09,3.4.25.59.41-.65.94-.87,1-2.15.59-4.87-1.87-5.34-4.34-.75,3.77-2.9,6.52-2.25,11.29,1.28-1.31,0-4.4,1.09-5.83-.03,1.78-.03,4.62.5,6.61,1.03,3.81,4.09,6.68,4.9,10.26.16.72-.34,1.43.56,2,.75-.37-.06-1.81-.03-2.71,1.62.53.09,3.4,1.37,4.37.12-.47.31-1.28.25-2.12-.06-1.03-.87-2.5-.12-3.12-.34.69.37.97.47,1.59.31,1.62-.5,3.37-.06,4.62-.31.12-.37-.12-.65-.09.31,1.19.12,2,.06,2.93.28-.41.5-.84.37-1.53.69.19.19,2.15-.16,2.74.94-.09.75-2.21,1.09-3.4-.03.09-.09.22-.16.31-.65-.81.31-1.4.44-2.37.25-1.84-.72-3.9-.97-5.68,1.56,2.09,1.68,5.27.84,7.43.81,3.43-1.68,6.36-4.21,8.46-.97.09-.31-.56-1.22.22.12.28.25-.12.62-.09-.47,1.09-1.47,1.81-2.28,2.68-.41,1.47-.03,3.81.19,4.77-.31.12-.37-.12-.65-.09.34.44.94.5,1.56.56-.09-4.24,2.4-6.65,4.96-9.02,0,1.06-.97,1.47-1.53,2.15-.16,1.03-.37,2-.06,3.37-.69-.22-.75-1.75-.62-2.4-1.28.75.34,2.87-.65,3.46-.12-.69-.22-1.34-.34-2.03-1.03.81.65,2.68.34,3.28-.69.03-.69-.87-1.06-1.28-.53.62.47,1.19.34,2.03-.44.19-.34-.34-.69-.31,2.15,3.43,5.43-.9,5.27-3.4.5-.06.19.69.12.81,2.37-1.03.75-4.84,3.43-5.62-.06-.34-.12-.69-.19-1.03,2.12.78-.03,2.09.25,3.93,0,.47.62.12.72.5,2.65-.34,3.09-4.74.72-5.55,1.03-1.25,3.21-.09,3.56,1.28,2.37-1.37-.16-4.4-.06-6.49,1.96-.56,3.21.9,2.96,2.65.87-.53,1.28-1.34,1-2.68-1.25-.44-2.9-.25-3.77-1.25,0-.9-.53-1.09-.56-2,.84.34.72,2.03,1.81,2-.53-.41-.94-1.72-.37-2.25.28.87.53,2.87,2.34,2.74.06-.44-1.62-.53-1.4-2.06.87.62,1.09,2.15,2.96,1.37-.41-.65-1.72-.09-1.87-1.15.03-.9,1.12.65,1.78.53.78-.34.94-1.12,1.15-1.87-.85.25-3.41.56-3.75-1.25M52.67,56.35c-.5-.56-2.09-.9-2.96-.12.97-.06,2.09.94,2.96.12M73.35,72.67c.03.22.09.44.16.65.12.41.34.75.65.9-.09-.25-.12-.5-.16-.75s-.03-.47-.03-.65c0-.56-.06-1-.69-1.15,0,.31,0,.65.06,1M76.53,63.59c-1.31.19-2-.56-2.9-.97.25,1.15,2.09,1.4,2.9.97M48.05,8.34c0,.25-.28.53.09.59-.03-.22.28-.5-.09-.59M93.38,61.75c.12.34-.84.78-.28.87.03-.25,1-.69.28-.87M91.98,63.72c-1.25.34-2.93-.09-3.65.37.41.31,1.09.56,1.84.69,1.47.25,3.03,0,2.65-1.47-.25.22-.53.31-.84.41M85.39,57.88c-.31-.22-1.28-.16-1.19.41.34.12.81.03.75.72.69-.31,1.12.34,1.19-.41-.56-.12-1.56-.06-.75-.72M91.79,16.42s-.06.09-.06.16c.34-.19,1.25.03,1.19-.41-.16.09-.44.06-.69.09-.19.03-.35.06-.44.16M90.7,17.82c-1.15.19-1.96-.09-2.78-.34-.47.41.78.56.65,1.34-.97-.25-1.75-1.5-1.5-2.68.56-.25,1.25.56,1.28.19.78.22-.37.69-.56.31.47,1.06,2.28.31,2.9,1.19M91.7,22.47c-.9-.9-1.43-2.34-2.59-2.9.97-.34,2.68,1.72,2.59,2.9M91.98,22.82c-.31.22.22,1-.47.94-.03-.25-.09-.47-.12-.72-.03-.09-.03-.22-.06-.31.12.06.25.09.37.09.09.03.19.03.28,0M85.61,15.11c.47.28,1.03.37,1.22,1.06-.5-.19-1.18-.16-1.22-1.06M93.6,13.77c-.34.06-.69.25-1,.56-.06-.25.56-.87.06-.84-2.31,1.06-4.46.25-5.59-.72-.94-.81-1.28-2.21-2.59-2.9-.65-.34-1.28-.12-1.84-.47-.16-.09-.28-.22-.41-.41.06,0,.12,0,.19-.03-.53-.06-1-.16-1.43.03-.06.03-.19.09-.31.16-.37.22-.87.56-1,.69-.06.03-.06.09-.12.16-1.53,1.65-1.19,4.99-2.28,6.55,1.84-.78,1.62-3,2.18-4.68.28-.87.81-1.59,1.93-1.87.16.65.22,1.22-.16,1.5-.69-.12-.06-.53-.56-.75-.9,1.03-1.06,2.59-1.5,3.96-.37,1.15-.97,2.18-2.43,2.56-.56-.06-1.78-.5-2.09-.06,2.56,1.62,5.34-1.03,5.77-3.09.31.34.65.59,1,.87-.12-.31-.37-.9-.5-1.5s-.12-1.19.22-1.4c.22.65.37,1.15.53,1.72.16.56.34,1.19.53,2.09.44.34.9.69,1.34,1.03,2.31,1.72,4.71,3.34,6.68,5.55.09.28.16,1.31.31,1.5.03.06.09.03.16-.12v-.09c-.19-3.03-1.9-3.56-3.34-4.77-.84-.72-2.15-1.62-1.72-2.65,1.59,2.53,4.87,3.49,5.59,6.8.06.31.12.65.16,1.03,2.43-.19,2.18-6.15-.5-6.61.22-.06.16-.28.03-.44-.06-.06-.09-.12-.16-.16.06.03.12.06.19.09.47.25.65.28,1.12.31-.16-.41-.5-.56-.9-.62-.84-.09-2.03.25-2.43-.5,2.03.09,2.84-1.53,3.93-1.5.09.34-1.03,1-.06.84.19-.03.41-.03.59-.03.9.03,1.87.34,2.28.5-.09-.09-.09-.28.06-.34.69.62,1.03,1.75,1.5,2.68.31-2.28-1.65-4.96-3.43-4.62M86.46,60.41c-.06-.41-.12-.81-.22-1.22-.22.03-.41.06-.62.12.19.5.47.87.84,1.09M88.42,64.68c.03.16.06.28.09.44.06.34.06.62-.09.84.81-.28,2.21-.09,2.62-.65-.69,0-1.34-.09-1.9-.28-.25-.12-.47-.22-.72-.34M83.52,56.73c-.12.25-.44.37-.72.5-.31.16-.59.34-.53.75.06-.03.12-.06.16-.09,1-.53,1.62.65,2.4-.75-1.37.34-1.22.19-1.31-.4M81.46,59.04c2.21,0,3.15,1.87,4.62,2.93.03-2.37-2.12-3.93-3.99-3.71-.62.06-1.25.37-1.72.9.41-.09.75-.12,1.09-.12M81.21,57.98c.72-.22.78-.87,1.25-1.25-.72.19-1.03.69-1.25,1.25M50.89,59.38c.72.59,1.68.81,2.68,1-.22-1.12-1.87-1.56-2.68-1M45.9,86.62c1.34.78,2.81,1.43,3.65,2.93-.22-2.22-2.53-2.84-3.65-2.93M59.53,65.87c-.12-.19-.97-1.06-.53-.53-.09.4.4,1.22.53.53M55.94,82.81c.06-1,.44-2.71.65-3.46.53-1.84,1.81-3.31,2.06-5.02.06-.37.06-.78,0-1.19-.12.25-.25.5-.41.72-2,3.59-3.71,6.68-3.4,11.45.16,2.21.94,4.55.97,6.96v.37c0,.75-.09,1.62-.84,2.09.09-.34.16-.69.19-1.06.25-2.28-.59-5.09-.81-7.43-.37-3.81.34-6.8,1.56-9.27.62-1.25,1.62-2.37,2.15-3.68.19-.5.31-1,.31-1.56-.16.28-.31.56-.5.84-1.93,3.18-4.93,6.49-4.59,11.14.09,1.53,1.09,4.06.47,5.34-.03.09-.09.19-.16.28-.06-.81-.16-1.53-.31-2.18-.06-.25-.09-.5-.16-.72-.16-.69-.31-1.31-.37-1.96-.34-3.24.62-6.18,1.87-8.46.44-.81.9-1.53,1.34-2.12.44-.59.94-1.19,1.43-1.81,1.22-1.56,2.31-3.34,1.47-5.59.56,2.21-.62,3.37-1.34,4.43-.09.12-.16.25-.22.41-.19.41-.31.84-.56,1.22-.72,1.03-1.84,1.84-2.5,2.78-.03.06-.09.12-.12.19-1.43,2.25-1.68,5.12-1.68,8.46,0,1.03-.22,2.21-.12,2.96.09.65.62,1.31.75,1.96.62,2.81.59,5.4.34,8.11,1.06-1.4.28-4.09.5-6.08.03-.34.09-.65.19-.94.5,1.12.28,3.24.41,4.74.03.41.06.75.16,1.03.75-.9,1.37-2.18,1.72-3.56.19-.72.28-1.47.25-2.21,0-2.65-.84-4.9-.69-7.17M53.76,75.01c-.87-.12-1.84-.03-2.81,0-.62.03-1.25.03-1.81-.06.03.44.03.87.16,1.28.09.25.19.5.37.75.09-.37.16-.75.28-1.09.09-.28.22-.53.47-.72.03.06.03.12.03.19.06.72-.59,1.56.16,2.09-.34-2.06,2.34-1.59,3.15-2.43M72.42,114.32c.75-.25.84-.97.97-1.62-.41.06-.81.12-1.22.22.09.47.16.94.25,1.4M41.78,91.92c-.41-1,.9-2.34.12-4.21.9-.16.84,1.37.75,1.96.41-.25.19-.94.41-1.34,1.31,1.09-.97,2.5-1.28,3.59M40.13,91.98c.72-.94,1.34-1.9,1.56-3.18.31.97-.03,2.96-1.56,3.18M40.69,90.42c.03.5-.56.56-.69.94-.62-.22.25-.87.69-.94M39.38,96.32c.25.03.47.19.5.53-.25-.06-.44-.19-.5-.53M36.04,95.01c-.47-.65.56-.87.84-1.19,1.03-1.22,1.53-2.9,1.93-4.52.44.16.06,1.25-.16,1.5.59.41.75-1,1.5-1.09-1.4,1.75-2.12,3.96-4.12,5.3M38.75,92.64c-.03-.12-.03-.28-.06-.41.19,0,.19-.12.16-.25.4-.12.47.91-.09.66M38.5,93.54c-.12-.44.06-.69.5-.72-.19.22.06.75-.5.72M38.04,94.45c-.37-.09-.09-.37-.09-.62.38.09.06.37.09.62M33.76,95.17c.34-1.09,1.53-1.19,2.18-1.84.97-.94,1.15-2.12,1.78-3.24.03-.09.09-.16.12-.25.12-.03.19-.03.22-.03.19.03.03.19.03.41-.9,2.06-1.47,4.34-4.34,4.96M40.84,90.21c-.37-.09-.09-.37-.09-.62.41.09.09.37.09.62M41.4,84.87c.19,1.15-.65,1.56-.84,2.43-.31-.5.22-2,.84-2.43M41.22,81.34c.87.47-.5.78,0,0M40.34,79.82c-.09-1.56,2.43-3.56,4.27-4.49.87-.47,1.96-.62,2.99-.94,0,1.03-1,.62-1.53.87-2.31,1.15-4.37,2.81-5.74,4.56M41.06,76.76c-.09.62-.28.28-.78.34,0-.5.47-.56.78-.34M39.38,76.63c-.97,1.09-2.12,3.03-3.74,3.77,1.34-2.03,2.96-4.06,4.59-4.96.59.62-.53.84-.84,1.19M43.65,73.39c-.06.84-1.12,1-2.09,1.19.12-.72,1.53-1.31,2.09-1.19M46.96,73.23c.03.19.06.41.09.62-1.93.47-3.21,1.43-4.87,2.09-.22-.56.75-1.25,1.12-.81.69-1.03,2.22-1.43,3.65-1.9M43.18,87.9c-.47,0-.25-1-.44-1.37.81.06.28.78.44,1.37M31.23,95.2c-.09-.81,1.03-.75,1.15-.62.09.62-.44.28-1.15.62M31.76,93.42c.16.53-.16.72-.72.75-.12-.53.34-.59.72-.75M35.07,81.1c-.09.44-.19.97-.12,1.43v.09s-.03,0-.03-.03c-.5-.28-.31-1.53-.56-2.18.22-.19.44-.06.59,0s.25.12.22-.16c.06.12-.03.44-.09.84M48.36,88.71c-.37-.44-1.06-.78-1.68-1.15-.75-.44-1.37-.84-1.28-1.5-1.09,0-1.75-1.28-1.93-2.59-.12-.87-.06-1.78.25-2.34.06.31.25,1.31.5,2.06.22.59.5,1.06.84.84-.25-.25-.44-.53-.56-.84-.56-1.4.31-3.03.78-4.02-1.62.65-1.5,2.5-3.49,2.9,1.53-1.65,2.87-4.4,5.71-4.52-.22-.81,1.96-.87.97-1.62-.87.62-1.87.62-2.74,1.09-1.75.94-2.74,2.87-4.27,3.24.5-.87,1.37-1.81,2.31-2.5.25-.19.56.03.81-.12,1.06-.69,1.9-1.62,3.03-2,.37-.12,1.28.22,1.19-.41.56-.62-1.59-.9-1.09-1.5,1.5,1.25,4.52.34,6.61.75-1.65-2.06-6.02.16-7.39-1.65,1.22.44,2.87.03,4.43.09,1.59.03,3.37,1.28,3.81.19-2.34-.84-5.43-.59-8.27-.69-.62.47-2.56,1.5-3.21.78.65-.56,2.06-.56,2.5-1.28-.75.06-1.9.19-2.65.44-4.12,1.47-5.62,5.18-8.89,6.99-.19.09-.34.19-.53.28.65,2.31-.34,4.4.65,6.36.16-.75-.19-1.84.22-2.4.06-.06.09-.12.19-.19.16.37.19.75.12,1.06-.09.81-.5,1.5-.03,2.03.34-.41.41-1,.47-1.59.06-.62.09-1.28.44-1.68-.03.41-.06,1,.09,1.5.12.37.31.69.72.87-.03-.22-.03-.5-.03-.78-.06-1.37-.06-3.18-.65-3.28-.56-.06.31.94-.28.87-1.5-1,.97-1.65,1.68-2.37.75-.75,1.06-2.56,2.15-2.03-.87,1.28-1.93,2.46-2.93,3.65,1.43.37,1.62-1.56,3.06-1.78-.19.94-1.25,1.25-1.53,2.15,1.15.62,2.06-1.4,2.74-1.09.03.69-1,.59-.81,1.4.19.28.78-.09.87.28-1.81.81.31,4.4-1.65,5.09-.03-.69.31-1.09.56-1.56-.31-1.09.12-3.43-.62-3.68-.12,1.81.41,5.05-.97,5.4.41-1.25.84-3.43-.03-5.02.19,1.56-.06,2.68-.31,3.71-.09.41-.22.81-.31,1.19-.19.81-.03,1.59-.25,2.15-.12.31-.56.22-.75.53-.03.06-.06.16-.09.25-.06.28-.03.62-.16.84-.81,1.56-2.59,2.9-4.09,2.99,1.28-1.03,3.21-2.18,3.84-3.62.16-.34.22-.69.19-1.06-.34.37-.72.97-1.12,1.53-.9,1.31-2,2.62-3.31,1.93.87-.41,1.59-.9,2.21-1.47.47-.44.9-.9,1.28-1.43-2.06,1.22-6.24,1.43-6.27,3.81,0,.31.03.62.19,1-.94-.19.19,2.21-.19,2.56-.78-.03-.62-1.5-.56-2-1.22.28.25,2.43-.28,3.18-.62.19-.53-1.9-.84-1.31.06.62.19,1.22.41,1.68.06.12.09.22.16.31.72-.19.87.44,1.53.37-.09-.37-.16-.75-.16-1.09,0-1.9,1.47-3.18,2.71-3.52-1,.94.19,2.4-.47,3.43-.69-.34-.12-1.87-.56-2-.53.87.72,2.43.31,3.09-.78-.09-.59-1.53-1.15-1.9,0,.72.22,1.15.44,1.53.22.34.47.62.62,1.03-.69.22-.72-.5-1.15-.65.19.65.59,1,1.06,1.28,3.43-.06,3.34-3.43,5.27-4.68.44-.28,1.03-.44,1.62-.56.41-.09.81-.19,1.15-.34.44.72-.9.19-.47.9.12.34.84,1.15.44,1.4-.53.16-.53-.44-.62-.87-.06-.25-.16-.44-.44-.41,0,.5.16.75.28,1,.12.22.22.44.22.78-.22.03-.34.06-.47.16-.28.22-.31.62-.37,1.03,5.3.78,2.25-6.83,6.86-7.68.09-.22.09-.47.09-.69-.09-.78-.72-1.47-.69-1.75.94.22,1.12,1.06,1.09,1.93-.03.94-.28,1.93-.19,2.31.25-.62.41-1.28.53-1.96.06-.41.12-.84.19-1.28.59.84.37,1.65.06,2.43-.37.9-.94,1.78-.44,2.65,0-1.06.75-1.9,1.09-2.9.06-.22.12-.44.16-.65.09-.59-.81-1.59.31-1.93.25.65.25,1.28.16,1.84-.12.78-.44,1.4-.37,1.78,1-.47.87-1.43.65-2.43-.22-.9-.5-1.84,0-2.28.28,0,.59.34.87.56.22.19.37.28.5.06-.09-.03-.16-.06-.19-.12-.19-.19-.22-.6-.37-.78M37.79,86.96c.09-.31.16-.62.22-.94.16-1.12.09-2.43-.19-3.87-.22.03-.41.06-.62.09.44,1,.25,2.03.16,2.87-.06.75-.06,1.37.44,1.84M47.21,84.5c-.19-1.09.22-2.34-.34-2.99-.16-.19-.34-.31-.65-.41-.22.59-.34,1.06-.41,1.31-.81-.65.12-1.22.09-1.9-1.43-.09-1.37,1.62-.72,2.96.37.78.94,1.43,1.5,1.53-.12-.53.19-.75.53-.5M48.49,79.69c-.06-.28-.12-.5-.22-.65-.19-.41-.41-.62-.75-1.28-.75.25-1.47.5-1.68,1.12,1.28-.5,1.59.34,2.25.69.13.06.25.09.41.12M47.8,80.03c-.34-.59-1.12-.94-2.06-.53.31.72.78,1.25,1.34,1.62.22.12.44.25.65.34.34-.47.31-1,.06-1.43M48.92,77.29c-.25.03-.47.09-.72.12-.09.03-.19.03-.31.06.12.19.22.41.34.59.28.5.56,1,.84,1.5,0-.72.1-1.37-.15-2.28M62.15,110.64c-1.19.47-1.56,1.5-2.56,2.12.03-.78,1.56-1.4,1.15-1.87-.59.69-2.06,1.65-1.9,2.37,0-.25.5-.72.59-.25-.41.37-.69,1.78-.03,2.31-.47-2.31,2.46-4.12,2.74-4.68M59.84,114.38c.28.56-.19.59-.03,1.06.69.19.37-1.15.03-1.06M65.24,118.91c-.41.06-.81.12-1.22.22-.06,1.28,1.53,1.53,2.25.87-.5-.16-.84-.5-1.03-1.09M57.47,84.43c-.28-4.27,2.53-7.24,1.9-11.01-.34,1.96-1.09,3.65-1.87,5.3-.28.62-.59,1.22-.87,1.84-.12,1.22-.09,2.5-.06,3.74v.25c.09,2.18.34,4.4.34,6.43.16.84.12.03.41-.06.28-1.43.34-2.68.28-4.02-.03-.75-.06-1.56-.13-2.47M61.15,118.35c-.44-.06-.72-.31-1.12-.44,0,1.19.65,2.74,1.4,2.06-.65-.25-.06-1.09-.28-1.62M66.33,104.49c-.22,2.03-2.74,3.4-3.18,4.74,1.31-1.15,3.56-3.68,3.18-4.74M58.06,114.88c-.28.9-.87,2.43.28,2.87-.53-1.22.53-1.28.47-2.18-.34-.06-.13-.97-.75-.69M60,91.95c.62.5.75,1.72,1,2.74.19.87.5,1.59,1.22,1.68-.03-.47-.12-.78-.22-1.06-.12-.37-.22-.69-.16-1.19-.87-.34-1-1.75-1.84-2.18M58.03,90.21c.06.34.12.69.19,1.03.75.34,1,1.37,1.31,2.34.28.84.59,1.59,1.28,1.81-.06-.31-.16-.59-.25-.87-.53-1.59-1.37-2.78-2.06-4.18-.09-.16-.25-.22-.47-.12M57.82,91.67c-.16,1.06.84,2.06,1.53,2.5-.31-.69-.5-1.59-.94-2.15-.16-.22-.34-.41-.59-.5v.16M58.6,84.87c-.22.75-.28,1.43-.22,2.09.19,2.15,1.59,3.87,2.81,5.65.59.84,1.12,1.72,1.47,2.65.03.09.06.22.09.31.03.09.03.16.03.22.12.81-.06,1.5,1.09,1.75.25-3.28-1.78-4.71-2.81-6.65-1-1.87-1.5-4.21-2.46-6.02M57.28,15.98c.09.87.62,1.5,1.19,1.9.56.37,1.15.56,1.53.56-.59-.19-1.09-.5-1.56-.94-.44-.44-.81-.94-1.16-1.53M57.07,36.76c.28,2.62,1.47,3.96,2.43,5.65-.56-1.97-2.21-4.18-2.43-5.65M57.88,14.42c-.06.78.44,1.65,1.15,2.12.22.16.47.25.72.28-.12-.16-.22-.31-.31-.5-.41-.84-.62-1.87-1.56-1.9M54.91,30.21c1.12-.31,1.59-3.46,1-3.93.09,1.59-.28,2.9-1,3.93M59.16,45.19c.59-2.62-1.68-4.37-2.4-6.83-.06-.22-.12-.47-.16-.69-.03-.12,0-.19-.03-.31v-.03c-.19-2.37,1.28-3.46.84-5.9-.78.62-.44,1.56-.62,2.4-.28,1.12-.84,2.06-.65,3.46.06.41.19.81.31,1.22.44,1.15,1.15,2.28,1.62,3.4.28.69.47,1.34.44,2.03-.03.56-.19,1.09-.56,1.65.19.62.53-.47,1.22-.41M55.97,25.41c.09-2.37,2.06-3.43.97-6.64.56,2.25-1.4,4.87-.97,6.64M57.16,23.07c-.12.22-.22.47-.31.65-.25.53-.41.97-.34,1.37,0,.06.03.16.06.22.53-1.75,3.06-3.68,1.06-6.05.28.94.22,1.78,0,2.5-.09.5-.28.93-.47,1.31M35.63,8.15c-.87.16-1.47.53-1.93.97.5.16,1.09.16,1.53.37-.09-.62.44-.78.4-1.34M56.75,16.48c.62-1.59,1.25-4.52-.47-5.15,1.19,1.62-.47,3.71.47,5.15M57.47,26.06c.16.59.53,1.15,1.15,1.4-.03-.5-.34-1-.59-1.43-.19-.37-.34-.69-.25-.94.34.25.56.69.75,1.15.25.65.5,1.37,1,1.68,0-.25-.06-.5-.12-.78-.28-1.09-.87-2.12-.69-2.87.84.5.84,2.12,1.25,3.25.16.47.37.84.75,1.03-.41-1.22-.62-2.78-1.06-3.96-.12-.28-.22-.56-.37-.81.25-.09.37-.03.47.03.16.12.25.34.62.19-.09-.25-.16-.5-.28-.72-.25-.56-.56-.97-1.09-1.12-.12.28-.19.59-.03,1.06-1.25.37-1.78,1.72-1.5,2.84M59.41,36.98c-.65-.06-.84-.84-1.43-1-.44.84,1.03,1.47,1.43,1M60.25,24.69c.16.47.22,2.34.5,1.81-.12-.5-.22-2.37-.5-1.81M57.97,29.68c.12.75.25,1.5.37,2.25-.06.47-.28,1-.5,1.53-.22.59-.41,1.15-.25,1.53.09-.37.22-.75.34-1.12.25-.69.5-1.37.56-2.18-.22-.59-.03-1.78-.53-2M42.96,4.41c.62-.03,3.43.44,3.68-.62-.62-.16-4.74.69-3.68.62M41.9,4.38c-.75.03-1.03.34-1.12.81.28-.25,1.5-.72,1.12-.81M59.75,36.48c-.65-.09-.84-.81-1.25-1.22-.06-.06-.16-.16-.25-.19.03.34.22.69.47.94.38.41.84.65,1.03.47M53.82,9.03c.62-1.25,2.93-1.12,4.12-1.56-1.5-.34-3.81.12-4.12,1.56M42.56,6.47c-.22-.16-.94-.47-1.09-.34-.12.09-.12.56-.03.81.34-.09,1.03-.16,1.12-.47M40.91,7.06c-.19-.72.28-1.06-.19-1.03.03.44-.9.22-.72.75.44-.06.37.5.9.28M61.34,36.01c-1.34-.06-2.06-1-2.65-2.06,0,1.75,1.56,2.68,2.65,2.06M61.43,22.41c-.31-.87-1.62-1.47-2.37-1.09.72.28,1.06,1.03,1.53,1.68.16.25.34.5.56.69.37-.44.4-.87.28-1.28M56.29,8.56c-.25,0-.53.06-.84.22.34-.03.65.03.94.16,1.4.62,2.06,2.81,3.46,2.43-1.19-.72-2.03-2.81-3.56-2.81M57.97,12.52c.56,1.9,1.96,3.93,3.03,4.31-1.34-.97-1.34-3.84-3.03-4.31M59.5,18.98c-.09-.03-.19-.06-.28-.09-.62-.25-1.22-.53-1.62-1.09.65,1.56,2.15,1.9,3.49,2.46.34.16.69.31,1,.53-.41-.87-1.15-1.28-1.93-1.59-.22-.03-.44-.12-.65-.22M62.03,22.91c.09.37.25-.34,0-1.25-.19-.16-.37-.31-.56-.47-.78-.59-1.62-1.06-2.65-1.31.06,1.12,1.68.69,2.56,1.43.06.06.12.12.16.19.31.47.37.91.5,1.4M58.19,11.55c.25.09.47.19.69.19-.19-.06-.37-.19-.53-.31-1.09-.84-2-2.65-3.31-2.4-.25.06-.5.16-.75.34,1.47,1.9,1.12,5.37,1.68,7.46.34-2.65-.16-5.37-.87-7.58.06.09.16.16.25.25.81.78,1.93,1.65,2.84,2.06M80.56,22.26c1.06.53,1.75-.65,2.46-.75.12,0,.25,0,.34.06.06-.12.09-.28.12-.44h-.28c-.09,0-.16-.03-.19-.12.62-.94.72-3.15-.47-3.9.65,2.62-.12,4.28-2,5.15M71.17,34.77c-.09-.03-.19-.06-.25-.09-.25-.06-.5-.12-.78-.16-.16-.03-.34-.06-.5-.12.06-.12.19-.19.34-.22.22-.06.5,0,.75.12.22.09.4.25.44.47M65.9,25.81c.03.44.81.78.25,1.4.78.22.78,1.59,1.06,2.53.47.03.78.12,1.06.28.37.19.59.47.84.78.19.25.41.53.72.78-.12.03-.25,0-.41-.03-.25-.06-.5-.19-.72-.31-.44-.25-.81-.41-.81.06.16.47.59.5,1.06.56.22.03.47.06.69.16.22.09.44.28.56.56-.09,0-.19,0-.31-.03-.22-.03-.5-.12-.72-.22-.41-.12-.75-.25-.9-.06.31,0,.28.47.34.78.25.09.59.09.9.09.25,0,.5,0,.69.06.28.06.5.22.59.5-.09.06-.19.09-.28.09-.25.03-.53-.06-.75-.16-.5-.25-.87-.56-.84-.03.34.94.81,1.72,1.28,2.5.31-.09.59-.09.84-.09.22,0,.44.03.65.06.25.03.5.06.78.06-.22-.72-.65-.72-1.09-.69-.22.03-.44.06-.62.06-.31-.03-.59-.16-.78-.62.16.06.31.09.5.12.22.03.47.03.72.06.25,0,.5.03.72.09-5.27-7.96-5.9-22.53,2.81-25.18,1.56-.47,2.84-.22,3.96-.06.22-.12.41-.25.56-.41.28-.25.56-.5.97-.65.22-.09.47-.16.75-.16-.78-.84-2.18-.78-3.15-1.34-8.3.72-12.7,7.68-12.04,15.26.12,1.37.06,2.53.12,3.18M83.02,23.1c-.41.16-1.87.94-2.21.28-.03-.03-.06-.06-.06-.09,1.22,0,2.21-.65,2.65-1.72-.65-.16-.62.84-1.28,1.06-.16.06-.34.09-.5.12-1.03.12-2-.25-2.03-.31.06.28.31.25.47.41.06.06.09.16.06.28v.03c-1.59.19-1.59-2.4-1.56-3.09-2.12,2.68,2.34,5.68,4.46,3.03M83.37,27.65c-.06-.41-.12-.81-.22-1.22,0-.19.5-.37.53-.5.03-.09.06-.19.09-.28.53-1.53.59-3.4,1.59-4.62.09,1.81-1.22,3.56-1.62,5.12-.19.72-.16,1.4.31,2.03,0-.25-.12-.56.09-.65.12.75.16,1.62.72,1.75-.69-1.93,1.22-2.71.56-4.09.41.03.72-.19.97-.53.81-1.15.69-3.93-.41-4.81.78,2.96-.59,4.37-1.47,6.15-.12.28-.25.56-.37.87-.03.06-.03.12-.06.19.03-2.78,2.56-3.78,1.47-7.36-.25.03-.31-.22-.65-.09-.47-.28-.31-1.4-1.06-1.28.94,1.37.16,3.15-.44,4.93-.5,1.56-.91,3.12-.03,4.4M86.61,25.84c1.53.41,2.43,0,2.84-.72.84-1.47-.28-4.27-2.28-4.62.56,1.87.22,3.09-.19,4.24-.13.37-.25.72-.38,1.09M93.69,13.33c1.5.44,2.9-2.87,2.4-3.15-.31,1.03-1.31,1.59-2.37,2.09.16.47-.28.5-.03,1.06M83.65,8.72s.03.03.06.03v-.06c-.03-.19-.06-.37-.09-.56,1.22-.25,5.62-1.68,4.27-4.27.12,2.96-3.9,2.96-5.46,4.71.53-.41.78-.19,1.22.16M84.21,52.21c.62.19,1.15-.56.5-.72.16.47-.53.34-.5.72M92.63,7.03c-.03,1.15-.62,1.93-1.43,2.56,1.5,0,2.25-1.5,1.43-2.56M85.49,8.25c1.59.31,3.87-2.28,3.03-3.03-.12,1.62-1.84,2.12-3.03,3.03M91.17,12.65c.37.28.75.44,1.12.37.34-.06.69-.31,1-.9-2.03.25-3.34-1.87-4.52-1.93.59.53,1.5,1.84,2.4,2.46M87.2,10.34c1.09,1.09,2,2.43,3.52,2.87-.62-.69-1.37-1.65-2.25-2.56-.94-.97-1.96-1.81-3.12-2.06-.09-.03-.19-.03-.25-.06-.81-.12-1.34.47-1.59.47-.09,0-.16,0-.22.03,2.84.44,3.77,4.37,6.4,4.18-1.96-1.15-3.21-3.37-5.34-4.34.47.03.87.16,1.25.31.59.25,1.12.65,1.59,1.15M74.38,38.04c.06.06.19.12.31.09-.03-.09-.06-.19-.06-.28-.06-.31,0-.56.09-.78-.53.03-.62.72-.34.97M54.85,38.26c.12-.94.06-1.84-.22-2.34.12.56.09,1-.09,1.34-.03.03-.03.09-.06.12-.31-.84-.41-1.59-.41-2.25.06-2.84,2.5-4.27,2.71-6.68.03-.47,0-.94-.12-1.47.09.5.06.94,0,1.28-.03.16-.06.31-.12.44-.41,1.12-1.47,1.68-2.03,2.84-.34.69-.47,1.43-.53,2.25-.03.28-.03.56-.03.87.03,2.34.56,4.9-.65,6.96.84-.53,1.37-2,1.56-3.37M72.79,45.37c-.03-.09-.12-.16-.16-.22-.44-.59-1-1-1.62-1.12-1-.22-2.06.09-2.65,1.09,1.78-.87,2.62.41,4.43.25M58.16,44.31c-.62-1.96-1.53-4.06-2.06-6.02-.47-1.78-.65-3.46-.03-4.93-1,1.4-.84,3.09-.37,4.8.75,2.62,2.28,5.34,1.81,7.3.37-.28.34-.84.65-1.15M53.73,31.86c-.41.75-.9,2.34-.28,3.18-.19-1.12.5-2.59.28-3.18M72.73,36.39c-.28.22-.53.28-.78.28-.22,0-.44-.06-.65-.12-.28-.09-.56-.19-.87-.16.09.87.97.47.65,1.34.19-.12.65-.03.87-.16.09-.03.12-.09.09-.22-.06,0-.16,0-.25.03-.19.03-.37.03-.41-.12.03-.12.12-.16.22-.19.16-.06.34-.03.53,0,.34.06.72.09.84-.28-.15-.06-.25-.16-.25-.41M57.38,28.74c-.03.25-.12.47-.19.69-.78,2-3.24,3.4-2.21,5.99-.37-2.34,1.78-3.4,2.4-5.02.19-.47.22-1,0-1.65M79.4,47.37c-.12.03-.28.03-.41.06-.03-.16-.03-.28-.06-.41.12-.03.28-.03.41-.06.03.16.03.28.06.41M77.31,47.34c-.06-.47.56.16,1.03-.19-.06.72-.59.25-1.03.19M77.6,33.05c-1.12,1.09-2.09,2.34-2.93,3.65.06.31.47.12.5.47v.09c-.78,3.68,2.18,5.87,3.99,7.49-2.25-.47-3.46-2.34-4.37-4.71-.06-.34-.12-.69-.19-1.03-.03-.75-.41-.22-.16.25.16,3.06,1.72,4.15,2.87,5.8.75-.16,1.15.22,1.4.81-1.68-.31-4.21-1.15-5.71-.03-.19.12-.34.28-.5.47,1.31-.22,2.37-.09,3.28.25.28.09.53.22.78.34.16.09.34.19.5.28-.22-.09-.5-.19-.84-.25-.06,0-.12-.03-.16-.03-2.12-.41-5.9-.19-4.74,2.31.75-4.4,4.9-.72,8.11-1.59.25.56.65.9,1.06,1.28.09-.25.12-.56.25-.78.09-.19.25-.31.47-.41.09-.03.19-.03.31-.03-.03.12-.06.22-.12.34-.09.19-.22.37-.34.56-.25.37-.47.69-.28.9.28.19.31-.25.47-.69.06-.22.19-.37.34-.5.12-.06.25-.12.44-.09-.03.16-.09.28-.19.44-.09.16-.22.34-.34.5-.31.47-.56.94.06,1.22.06-.19.16-.5.28-.78.09-.19.19-.37.31-.53.19-.22.37-.31.62-.16-.03.22-.16.41-.28.62-.12.16-.25.31-.34.47-.28.37-.47.72-.22,1.15.22.09.34-.28.53-.69.09-.19.22-.34.37-.47.19-.12.41-.22.75-.19-.12.22-.28.41-.44.59-.12.16-.28.31-.41.47-.25.28-.44.62-.47,1.03.34-.03.53-.34.72-.62.12-.19.25-.37.41-.5s.31-.16.53,0c-.09.16-.19.28-.28.44-.12.19-.28.34-.44.5-.25.25-.47.5-.65.78.41.16.65-.03.9-.31.16-.16.28-.34.47-.5.19-.19.44-.34.72-.37-1.56-2.84-5.12-6.08-3.37-9.89-4.06-.81-3.06-6.74.28-6.96,1.68-.09,2.37,1.37,3.06,3.24,1.25-4.06-2.62-6.52-6.49-4.96-.03.25-.06.5-.12.72-.37,1.25-1.4,2.03-2.15,3.03.47,1.09.22,2.46.62,3.65.5,1.47,1.9,2.09,1.96,2.99-2.15-1.4-3.34-4.55-2.65-7.05.28-1.03.87-1.96,1.84-2.62.03-.28.81-.53-.03-.41M74.85,48.8c.25-.28.78-.41.9-.78-.62-.09-1.31,1.28-.9.78M72.23,39.6c.12.25.59.5,1,.56.41.06.78-.09.65-.65-.28.09-.47.12-.65.12-.34,0-.59-.13-1-.03M73.04,73.79c-.34-.97-.03-2.84-1.09-2.74.25,1.09.19,2.62,1.09,2.74M73.66,38.32v-.06c.03-.81-.81-1.56-.97-.62.25,0,.56-.12.65.09,0,.19-.12.31-.28.41l-.06.06c-.16-.06-.47-.12-.78-.19-.44-.06-.87-.09-.9.06.31.78.56.12,1.12.44-.22.12-.44.28-.53.5.34.09.72.09,1.12.09h.78c.09-.65-.5-.31-.94-.25-.19.03-.34.03-.37-.16,0-.12.03-.22.06-.28.16-.28.59.06,1.09-.09M67.33,45.25c.47-.53.94-.97,1.47-1.31.47-.28.97-.47,1.59-.47,1.53-.06,2.28,1.65,3.34,1.12-.94-1.4-3.24-1.81-5.02-1.25,1.96-1.62,4.8-.25,5.68,1.34,1-.47,1.9.5,2.31.03-1.4-1.06-2.03-3.24-3.59-4.09-.34-.19-.72-.31-1.12-.34-2.25.09-3.34,1-4.74,1.65-.22,1.09-1.4,2.46-.62,3.68.09-.59.41-1.03.81-1.37.31-.25.69-.47,1.15-.62-.16.16-.41.47-.65.78-.47.5-.81,1.03-.59.84M68.49,30.74s.09-.06.09-.12h-.16c-.41-.03-.47-.56-.97-.44,0,.47.75.78,1.03.56M44.43,16.17c.03.34.12.72.25,1.06v.03c.44,1.06,1.22,2.06,1.37,2.93.22,1.31-.16,2.4-.84,3.34-.65.9-1.62,1.65-2.59,2.28-.34.53.16.47.19-.03,0-.06.9-.47,1-.53.37-.25.72-.53,1-.84.16-.16.31-.31.44-.5.41-.5.75-1.06.97-1.68.69-1.78.22-3.43-.56-5.05-.12-.28-.28-.5-.37-.81-.12-.41-.25-1.4-.56-1.4-.34-.03.12.84.28,1.22.09.22.09.47.19.69.19.5,1.22,1.81.69,2-.25.03-1.09-2.87-1.44-2.68M24.06,34.64c-.09.94-1.25,1.15-2.03,1.59.84.37,2.71-.87,2.03-1.59M25.99,34.95c-.19.41-.37.78-.62,1.15s-.53.72-.9,1c1.12-.12,2.15-.47,3.18-.87,1.96-.81,3.96-1.9,6.77-2.28.41-.97,1.03-1.78,1.19-2.93-4.09-.09-4.84,5.06-9.61,3.93M18.41,28.68c.09.94-.03,1.81.78,2.15-.25-.78.22-1.03.44-1.5.06-.12.09-.28.06-.47-.16.06-.25.03-.34,0-.28-.09-.37-.44-.94-.19M23.65,29.9c.5.47,1.78-.16,2,.72-1,.19-1.75.09-2-.72M22.9,29.18c.62-.06,1.19,0,1.68.12-.06.81-1.53.5-1.68-.12M26.27,31.74c.5.09,1.62-.87,1.81-1.56-2.68-.28-4.21-1.75-7.14-1.12-.19.03-.37.09-.56.12-.37.28-1.12,1.22-.56,1.56.06-.56.78-1.59,1.5-1.09-.78.62.62,1.31.44,2.65.25-.09.5-.16.78-.19,1.25-.09,2.56.5,2.84-.65-.41-.03-.87.06-.9-.47,0-.12,0-.25.16-.25.41.34,1.22.12,1.56.56-.28.09-.56.72.09.44M20.19,35.3c1.12-1.81,2.81-1.59,4.49-1.22,1,.22,2,.47,2.9.37,3.21-.31,3.84-3.21,6.83-4.09.94-.12,1.84.56,1.75-.72-4.52-.75-6.15,5.68-11.48,3.84.03-.84-.25-.72-1.22-1.06,0,.25.12.56.03.75-.03.03-.03.09-.09.09-2.9-.12-4.02,2.37-5.09,2.12.28.44,1.28-.12,1.87-.09M25.34,34.83c-.22.09-.41.22-.56.34-.62.5-.97,1.22-1.59,1.68.65-.19,1.19-.41,1.56-.75.34-.31.56-.72.59-1.28M36.29,15.8s-.41.28-.44.75c.19-.06.37-.09.59-.12l-.16-.62ZM38.29,15.61l-.44.75h.62l-.19-.75ZM25.49,14.08s0,.03,0,0t0,0s0,.03,0,0M34.23,25.56c.87.28,2.34-.31,3.49-.37-.87-.13-2.68-.28-3.49.37M44.09,17.17c0,.28.25.78.28.37,0-.28-.25-.75-.28-.37M43.46,19.6c.31-.12-.22-1.19-.44-1.4-.16.22-.28,1.69.44,1.4M43.87,18.26c.06.31.22,1.68.37.97-.06-.28-.22-1.65-.37-.97M25.93,38.29c-1.25.06-1.81.65-2.06,1.4.47-.5,2-1.19,2.06-1.4M40.41,18.85c0-.06-.03-.19-.06-.31-.09-.31-.22-.69-.25-.25v.16c0,.66.28.81.31.41M33.14,16.02c.19-.09.34-.19.47-.25h0c.06-.03.12-.03.19-.06.5-.19.97-.37,1.4-.5.5-.12,1.31-.31,2.09-.5.87-.19,1.78-.34,2.34-.34h.19c.72.03,1.12.12,1.25.16,0-.09-.03-.22-.03-.31-.22-.16-.62-.28-1.31-.28h-.47c-.94.09-1.34.37-2.09.62-.12.03-.25.06-.37.09-1.03.25-1.12.31-1.72.47-.28.06-.75.16-1.28.22h-.09c-.41.03-.87.06-1.34.03-1.68-.03-3.12-.44-3.74-1.96,0-.03-.03-.03-.03-.06h.03c.47-.03.41.75.9.69-.44-.94,1.03-1.15.34-1.75-1.72,0-3.71.81-3.84,2.12-.25,3.12,4.46,3.03,7.11,1.62M14.51,2.13c.62-1.5-1.19-2.56-2-1.96,1.03.12.9,1.9,2,1.96M36.88,12.58c-.25.16-.5.31-.75.44.03.06.06.12.12.16.03.06.25.31.41.5.12.16.25.28.25.22s-.03-.19-.06-.41c-.03-.22-.06-.5,0-.84t.03-.06M35.48,14.27c.06-.22.16-.78.22-1-.19.09-.41.16-.59.22h0c.03.44.34.87.38.78M38.22,23.22c2.12-.28,2.15-2.06,2.78-3.4-.34.09-.65.06-.84-.06.09,1.68-.75,2.68-1.93,3.46M42.59,11.99c-.81-1.28-2.46-1.43-3.9-1.84.03.69-1.37,1.28-.97,1.62.97-1.22,2.4-.65,3.52-.19,0,.09.03.22.03.34.22,1.78,1.22,4.12.03,4.9-1.06.22-3.43-.12-4.68.16-.34.06-.59.16-.72.34-.03,0-.09.12-.12.22-.03.09-.25.62-.22,1.75,0,.12.16.47.37-1.53.03-.16.09-.28.12-.28.31,0,.03,1.75.22,1.75.09.03.16-.28.19-.65.03-.5.06-1.09.19-1.12.19,0,.22.56.22,1.03,0,.34.03.62.09.59.09,0,.09-.31.12-.65.03-.47.03-1,.22-1.06.16.03.06.69.28.65.19-.03,0-.62.34-.65.09,0,.06.5.06.94,0,.41.03.78.25.53.09-.03.06-.28.06-.56,0-.37.03-.78.34-.81.06,0,.06.47.09.84,0,.25.03.5.12.5s.12-.22.16-.5c.03-.34.09-.78.25-.81.16,0,.16.44.16.84,0,.44.03.84.28.65.09-.06.09-.31.06-.56-.03-.34-.09-.75.09-.94.09-.06.44.25.62.69.12.31.19.78.34.75.22-.03-.06-1.12.12-1.15.12,0,.25.31.41.56.06.12.19.19.19-.03,0-.25.03-.44.12-.44.12.03.25.31.41.69.12.44.25.78.34.37-.59-1.25.84-1.06.72-2-.34-.25-.84-.28-1.09-.65-.06-.09,0-.19.09-.19.53,0,.94.16,1.34.37,0-.62-1.15-1-.75-1.31.25-.12.59.44,1.03.44.06-1.09-.78-.87-1.06-1.47-.03-.09,0-.16.09-.16h.03c.06,0,.12.03.19.03.12.03.25.06.37.09.19.03.37.03.56.03-.12-1.25-1.34-.94-1.93-1.56.25-.18.44-.34.56-.56M38.57,35.08c-.47.22-1.47.97-1.06,1.22.62-1,1.87-1.43,2.46-2.71.72-1.56.44-4.12,1.12-5.65.25-.5,1.15-1.12,1.03-1.43-2.65,1.84-2.03,5.96-3.56,8.58M25.96,27.4c-1.25-1.19-4.59-.03-6.43.62-.12.03-.22.09-.34.12.12.03.22.06.34.09,2.68.75,6.18-.9,7.71,1.65.69-.34,1.68-.47,1.65-1.34-2.31-.65-5.15-.94-7.8-.34,1.15-1.12,3.18-.87,4.87-.81M41.84,19.88c-.72-.69-.81,1.15-.41,1.31-.34.22-.62.5-.81.81-.03.06-.09.16-.16.22-.47.78-.65,1.65-1.19,2.28-.87,1.06-2.09,1.62-4.06,1.96-2.34.37-5.3.53-5.59,2.84.65-1.19,3.46-3.12,5.12-1.93-3.15.12-4.4,1.78-5.55,3.06-.5.56-1.22.84-1.22,1.47,1.81-1.56,4.74-4.87,8.21-3.49-4.74-.5-6.08,4.02-10.7,4.77,5.3.56,6.15-5.02,11.01-4.18.5-1.06.78-1.81,1.65-2.59,1.15-1.03,2.99-1.25,4.02-2.15.78-.72.72-1.96,1.47-2.34-.34,1.56-.72,2.15-1.4,2.75-.87.78-1.72.59-2.9,1.34-3.06,1.9-2.31,6.08-4.49,8.08-1.4,1.31-3.59,1.12-5.49,2.18,2.96-.59,4.74-.72,6.15-2.09,1.87-1.87.69-5.43,3.24-6.83-1.87,3.68-1.12,7.3-5.43,8.67-1.43.47-3.84.53-5.12,1.09-.56.25-.9.62-.78,1.19.22-.37.5-.62.81-.84,1.47-.94,3.71-.44,5.4-.87,1.25-.31,2.46-1.25,2.99-1.96,2.12-2.84.5-7.86,4.96-9.02.12,0,.25,0,.25.16-.44.22-1,.37-1.34.65-3.03,4.46-1.28,9.73-7.36,10.89-1.12.22-2.28-.22-3.74.22-1.22.37-1.9,1.12-2.46,1.96s-.94,1.78-1.59,2.5c.78-.34,1.22-1.03,1.68-1.72.65-.97,1.31-2.03,2.84-2.4.72-.19,1.59.09,2.31.03,4.46-.5,5.49-2.81,7.11-4.99-.31-2.4.22-4.12,1.34-5.68,1.28-1.81,3.59-2.87,4.68-4.68.41-.69.65-1.5.59-2.5h-.28c-1.65-.06-3.09.62-3.99.75-.03-.31,1.34-.93.22-.9M37.69,18.92c0-.28-.25-.78-.28-.37,0,.28.28.75.28.37M26.4,27.53c1.12.03,1.93.47,3.03.53.62-1.4,2.53-1.59,3.99-2.37.41-.22.72-.62,1.12-.81,1.62-.78,3.68.34,4.62-1.22-.34.09-.65.19-.97.22-.65.09-1.25.12-1.81.09-.9-.03-1.75-.09-2.59.19-1.84.59-2.78,2.71-4.9,3.15-.87.19-1.37-.37-2.5.22M33.11,23.88c1.19-.47,2.53-.06,3.87-.65-3.59-.94-6.27,1.34-7.8,3.43,1.75-.12,2.37-2.15,3.93-2.78M34.04,9.9c.34-.06.22.56.5.53.03-.28.22-.44.06-.84-.12.03-.28.03-.41.06-.09.03-.22.09-.15.25"/>
</svg>