<?xml version="1.0" encoding="UTF-8"?>
<svg id="Layer_1" data-name="Layer 1" xmlns="http://www.w3.org/2000/svg" viewBox="0 0 79.02 115.01">
  <defs>
    <style>
      .cls-1 {
        fill: #1C1C1C;
        stroke-width: 0px;
      }
    </style>
  </defs>
  <path class="cls-1" d="M74.66,50.61c-.28,2.06-.28,2.12-.41,2.12-.03,0-.06,0-.09-.03-.12-.09-.16-1.06-.16-1.06,0-.47.03-.81.06-1.09l.03-.22c.03-.59.06-1.03.03-1.62,0-.16,0-.34-.03-.56,0-.37,0-.78-.06-1.06-.06-.5-.09-.81-.09-1.31,0-.06.03-.12.09-.12s.12.03.12.09c.22.84.47,1.87.5,3.28.06.47.06,1.03,0,1.59M72.88,62.74c-.72,1.75-1.78,3.12-2.65,4.21-.31.41-.59.75-.81,1.09,0,.03-.03.03-.03.03,0,0-.03.03-.06.03-.12.09-.25.19-.34.19-.06,0-.09-.03-.16-.06-.06-.06-.06-.16-.03-.28t.03-.03c.28-.41.62-.87.97-1.31.87-1.15,1.87-2.43,2.56-4.09.44-1.06.37-2.37-.22-3.93-.22-.56-.31-.78-.59-1.31-.09-.16-.19-.41-.28-.62-.12-.31-.25-.65-.37-.84-.03-.06-.03-.12.03-.16.03-.03.09-.06.16-.03.31.16.59.78.81,1.34.09.22.19.41.25.53l.09.19c.41.72.75,1.31.91,2.15.19,1.09.09,2.06-.25,2.9M67.11,74.38c-.03.12-.09.25-.09.34-.03.25-.03.41-.03.65v.09c.03.31-.06.5-.16.75l-.03.06c-.06.16-.06.31-.09.47,0,.16-.03.31-.06.47-.09.37-.25.72-.34,1.06l-.09.22c-.16.41-.34.81-.87.94-.03,0-.09.03-.12.03-.16,0-.37-.06-.53-.34-.37-.62-.22-1.59-.12-2.31.03-.09.03-.19.03-.28.16-1.19.41-2.37.66-3.56l.06-.25c.09-.47.19-.94.28-1.31.12-.69.16-1.5.06-2.43-.03-.28-.12-.59-.19-.87-.09-.41-.22-.84-.22-1.22,0-.09-.03-.22-.06-.34-.03-.22-.09-.47-.03-.62h0c.03-.06.09-.09.16-.06.06.03.09.06.09.12s.09.25.12.41c.09.22.12.34.16.44.06.41.12.75.16,1.06.03.16.06.28.12.44.03.09.06.16.09.25.16.5.25.84.25,1.34s-.03,1.03-.16,1.65c-.09.41-.19.84-.28,1.31l-.09.41c-.06.34-.16.72-.22,1.06l-.03.16c-.03.19-.06.34-.12.53-.03.06-.06.16-.09.22-.06.12-.09.25-.12.37v.41c0,.16,0,.34-.03.53-.06.41-.09.72-.12,1.03v.12c-.03.37-.06.84.09,1.15.03.03.03.06.03.06.22-.06.41-.34.53-.62.03-.03.06-.09.06-.16.06-.09.09-.19.12-.25s.03-.12.03-.19,0-.16.03-.25.09-.16.12-.22c.03-.03.06-.06.06-.09.03-.09.03-.19.06-.28,0-.06,0-.12.03-.19.03-.22.09-.47.12-.69.06-.37.12-.78.22-1.15.09-.41.19-.9.37-1.37.03-.06.06-.09.12-.09s.09.03.12.09c.13.28.03.59-.06.9M78.84,43.93c.03-.56.06-1.12.03-1.68-.03-1.09-.19-2.18-.44-3.24-.06-.31-.12-.59-.19-.9l-.06-.31c-.03-.16-.12-.31-.22-.47-.06-.09-.12-.19-.16-.28-.09-.19-.16-.34-.22-.53-.06-.16-.12-.34-.19-.5-.37-.84-.84-1.68-1.53-2.78-.09-.19-.22-.34-.31-.5-.19-.28-.37-.56-.53-.87-.16-.28-.25-.53-.31-.81s-.09-.56-.12-.84c-.03-.62,0-1.25.12-1.96-.06.12-.12.28-.19.44-.25.59-.44,1.15-.53,1.68-.06.28-.06.59-.06.84l.03.9v.59c-.03.53-.03,1.12.12,1.5.03.09.09.25.09.37.03.16-.03.22-.06.28-.03.03-.03.09-.03.16,0,.09.03.28.06.41.03.09.03.19.03.25.03.28.06.59.12.87l.12.9c.09.72.16,1.31.16,1.87,0,.47-.06,1.09-.28,1.68,0,.03.03.06,0,.09-.03.06-.03.09,0,.16l.03.19c.06.28.12.59.19.9,0,.03.03.03.03.06,0,.06-.06.12-.12.12h0s-.06,0-.09-.03c-.12-.16-.25-.25-.28-.31-.06,0-.09-.06-.09-.12,0-.44-.31-.81-.62-1.15l-.06-.09c-.12-.12-.22-.25-.34-.37-.09-.09-.16-.19-.25-.25-.19-.22-.37-.44-.56-.65-.34-.44-.72-.94-1.03-1.47-.16-.28-.28-.56-.34-.87-.09-.28-.16-.56-.19-.87-.03-.19-.06-.41-.09-.59-.09.44-.16.87-.19,1.4-.06.9-.03,1.75.16,2.5.09.44.22.81.41,1.15.09.16.19.31.28.5l.37.62c.25.44.5.87.69,1.28.06.09.12.22.19.31.16.22.28.47.31.72.16.12.22.47.25.9,0,.09.03.16.03.22.12.5.19,1.03.19,1.59.03.44,0,.9-.06,1.34-.03.22-.06.44-.12.65l-.03.16c-.03.16-.06.31-.09.47-.16.84-.25,1.68-.25,2.53,0,.41,0,.81.03,1.28,0,.22.03.41.06.62,0,.06.03.12.03.19.03.12.03.25.03.37l.03.03s.03.03.03.06c.06.56.19,1.12.37,1.68t.03.06c0,.06-.06.12-.12.12-.03,0-.09-.03-.12-.06-.56-1-1.22-1.97-1.87-2.9l-.19-.25c-.12-.19-.28-.37-.41-.59-.19-.28-.34-.56-.47-.84-.28-.59-.5-1.22-.59-1.84-.09-.56-.16-1.19-.16-1.9,0-.37,0-.75.03-1.09-.28.47-.56,1-.75,1.59-.12.41-.22.81-.25,1.22-.03.37-.03.78.03,1.25.06.5.16,1,.31,1.56.03.06.03.16.06.22.03.19.09.41.16.56.03.06.06.12.09.19.06.09.12.19.19.34.03.09-.03.16-.03.19s-.03.03-.03.06c0,0,.09.09.12.16.09.12.12.19.16.22.09.19.06.31.03.41-.03.06-.03.12-.03.22.03.12.06.25.09.37.06.16.09.34.12.5.09.81.16,1.65.16,2.62s-.06,1.78-.16,2.62c-.12.94-.31,1.81-.62,2.59-.16.44-.34.84-.56,1.22-.19.34-.34.69-.44,1.06v.09s-.03.06-.03.09c-.03.28-.09.59-.12.97,0,.06-.06.09-.12.12-.06,0-.12-.03-.12-.09l-.03-.06c-.19-.56-.37-1.12-.53-1.72-.16-.53-.28-1.12-.41-1.75v-.06c-.09-.59-.19-1.15-.34-1.75-.03-.12-.03-.28-.03-.44,0-.12,0-.25-.03-.31s-.06-.12-.09-.19c-.06-.06-.09-.16-.12-.25-.03-.16-.03-.34-.03-.5s.03-.28,0-.41c-.06-.25-.16-.53-.28-.78l-.03-.06c-.12-.28-.25-.56-.41-.81-.03-.06-.09-.12-.16-.22l-.03-.03c.06.65.12,1.31.09,2,0,.84-.12,1.78-.31,2.84-.09.44-.19.9-.31,1.4-.09.37-.12.78-.09,1.34.03.44.06.9.09,1.34.06.5.09,1,.12,1.5.06,1.09-.06,2.06-.31,2.9-.06.25-.16.47-.25.69-.06.16-.16.34-.25.5l-.09.16c-.19.37-.34.81-.47,1.28-.22.81-.28,1.72-.28,2.71.03.69.09,1.34.22,1.96.41,1.12.66,2.15.78,3.12.12-.03.25-.03.37-.06.25-.06.5-.16.75-.25.47-.22.94-.53,1.34-.94l.16-.16c.06-.03.09-.09.12-.16.09-.09.16-.19.25-.31.16-.22.28-.44.37-.69.19-.44.31-.94.41-1.59.09-.56.12-1.09.16-1.65l.03-.44c.03-.25.03-.53.06-.78,0-.12.06-.28.09-.41.03-.12.06-.22.09-.34.06-.56.12-1.09.22-1.62.06-.44.06-.87.03-1.37.03-.34,0-.69,0-1v-.06s0-.06-.03-.09c-.03-.16-.06-.34-.06-.44,0-.06.06-.12.12-.12.19,0,.5.62.66.94l.03.12c.03.09.03.19.03.28.03.19.03.34.06.53.03-.06.06-.12.09-.16.12-.25.31-.56.5-.84.12-.19.31-.41.5-.59.09-.09.16-.16.22-.25.16-.19.34-.34.53-.53.12-.12.25-.22.34-.31.28-.28.53-.56.78-.87.28-.31.53-.65.84-.94.62-.62,1.06-1.43,1.31-2.34.12-.47.37-1.65.22-2.46t-.03-.06c-.03-.06-.06-.12-.03-.22,0-.09.06-.16.09-.19l.03-.03c0-.12-.06-.28-.12-.41-.03-.09-.06-.16-.09-.25-.06-.16-.06-.28-.09-.44,0-.09,0-.16-.03-.25-.16-.75-.37-1.53-.72-2.28-.03-.06,0-.12.06-.16s.12,0,.16.03c.22.34.47.65.75.9.09.09.34.47.5.81,0-.03.03-.03.03-.03.16-.22.28-.44.41-.72l.09-.16c.19-.34.41-.72.47-1.09v-.12c0-.09,0-.19.06-.28.06-.06.12-.09.19-.12.03,0,.06-.03.09-.03.03-.06.03-.19.03-.31,0-.09,0-.22.03-.34.19-.75.28-1.53.28-2.31,0-.31-.03-.62-.03-.9-.03-.31-.06-.62-.03-.97,0-.31-.09-.62-.19-.97-.06-.19-.09-.34-.12-.5-.03-.22-.09-.44-.12-.65-.06-.31-.12-.62-.19-.94-.03-.37-.03-.75,0-1.09v-.72c0-.31-.03-.62-.09-.9-.03-.31-.09-.62-.09-.97v-.06l.03-.03s.06-.06.12-.06c.03,0,.09.03.09.06.03.09.09.22.12.31,0,0,.34,1.03.41,1.47,0,.16.03.31.06.47.03-.03.03-.09.06-.12.03-.12.09-.22.12-.31.09-.34.19-.69.25-1.03.16-.69.25-1.4.34-2.09.03-.31.06-.65.09-.97.03-.31.06-.59.09-.9.03-.28,0-.56-.03-.84-.03-.25-.06-.53-.03-.78.03-.37-.06-.81-.19-1.34-.06-.25-.12-.56-.19-.9-.12-.65-.06-.72-.03-.75s.06-.03.09-.03c.09,0,.12.09.16.12.06.22.16.47.22.75.19.65.31,1.31.37,2,.09.69.12,1.4.12,2.12,0,.41,0,.78-.06,1.15-.03.19-.03.31-.03.44v.31c0,.22-.09.41-.16.59l-.03.03c-.06.19-.09.44-.12.65-.03.16-.03.34-.06.5-.09.44-.22.9-.34,1.34-.03.09-.09.25-.16.41-.12.28-.31.69-.28.84.06.28.12.53.19.81.03.19.09.41.12.59.06-.12.12-.22.19-.34.22-.47.44-.97.62-1.43.09-.25.16-.5.22-.72.09-.31.19-.62.31-.94.03-.03.03-.09.09-.12.09-.16.19-.31.06-.56-.03-.03-.03-.06,0-.09.03-.09.09-.19.16-.25.06-.06.09-.12.12-.19v-.09c0-.06-.03-.12-.03-.22-.03-.09-.03-.19-.03-.28,0-.19.03-.34.06-.53-.21-.06-.21-.15-.18-.25M31.76,24.81s-.03,0,0,0c-.12-.03-.25-.06-.34-.06h-.03c-.09-.06-.19-.09-.28-.16-.03,0-.03-.03-.06-.03s-.06-.03-.09-.03l-.06-.06c-.09-.06-.22-.12-.34-.16s-.22-.09-.34-.16c-.06-.03-.12-.03-.16-.06l-.03-.03s-.03-.03-.06-.03c-.56-.34-1.03-.78-1.4-1.28-.44-.53-.72-1.15-.81-1.75-.09-.59-.03-1.22.16-1.9.25-.84.66-1.65,1.06-2.4.16-.31.31-.62.47-.9.19-.41.34-1,.12-1.56-.28-.69-.75-.84-1.43-1.06l-.06-.03c-.06-.03-.09-.06-.09-.12s.03-.09.09-.12c.06-.03.09-.03.16-.03h.06c.12.06.25.09.41.06.03,0,.09,0,.12.03.03.06.09.06.19.06h.09c.41.22.75.59.94,1,.12.31.19.65.16,1-.03.31-.09.62-.25.97-.09.25-.22.47-.34.69l-.47.94c-.22.47-.5,1.03-.66,1.62-.19.59-.25,1.15-.16,1.65.09.5.31,1.03.66,1.53.34.44.75.84,1.25,1.19.44.31.97.62,1.56.9.09.06.12.16.09.25,0,.03-.07.06-.1.06M18.54,14.45c.03.09.03.16.12.22.06.06.16.09.22.12.09.03.16.06.22.12l.09.06c.12.09.16.12.31.16.06,0,.09.03.16.03.12.03.25.06.37.12.06.03.12.09.16.12.06.06.09.09.16.12.19.09.34.19.5.28.41.25.72.47.94.75.25.31.47.69.53,1.12.09.37.12.75.12,1.09l.09,1.15c.03.41.03.78.03,1.12,0,.12-.03.25-.03.37-.03.19-.06.34-.03.5.03.12.03.28.03.41v.19c.03.56.09.75.09.81.03.06.03.09.06.16.06.12.09.22.12.41.03.19.12.56.16.72.12.53.34.75.66,1.12.06.09.16.19.25.28.22.28.47.53.75.78l.12.03s.06.03.06.06h0c.16.03.28.09.37.16.09.06.19.09.31.12.41.06.78.19,1.22.44.66.34,1.4.62,2.12.94.28.12.56.22.81.34.03,0,.06.03.09.03s.09,0,.12.03c.34.41.97.62,1.53.81.16.06.31.12.47.19.31.12.53.25.72.34.31.16.56.28,1.09.41.03,0,.06.03.09.06.06.06.47.28.59.28.03,0,.06-.03.09-.03.12,0,.25.09.31.12,0,0,.03,0,.03.03.25-.44.41-1,.47-1.62.06-.59.06-1.25-.03-1.93-.16-1.19-.5-2.43-1.09-3.84-.12-.31-.28-.62-.41-.94l-.12-.28c-.09-.22-.22-.44-.31-.65-.31-.72-.5-1.37-.59-2.03-.12-.75-.06-1.43.12-2.06,0-.03.03-.03.03-.06.09-.28.25-.5.37-.65.09-.16.19-.28.25-.47t.03-.03c.22-.22.44-.41.69-.56.03-.03.06-.03.09-.03h.06s.06.03.09.09c0,.03,0,.09-.03.12-.12.16-.25.31-.37.47l-.25.25-.03.03-.03.03s-.03.06-.03.06c0,0,0,.03-.03.03-.16.25-.28.5-.37.78-.19.56-.19,1.22-.06,1.9.09.59.31,1.22.62,1.87.09.19.19.41.28.59.06.09.12.22.16.31.06.12.12.28.16.41s.09.25.12.37c.03.06.03.09.03.16l.03.03s.06.03.09.09c.31.34.47.94.62,1.43.03.12.06.28.12.37.22.72.41,1.4.5,2.09.12.78.16,1.47.09,2.12-.06.72-.22,1.34-.47,1.87.56.22,1.06.41,1.53.56.31.09.62.19.91.25.16-1.37.06-2.87-.31-4.43-.19-.87-.41-1.53-.59-2.12-.03-.06-.03-.09-.06-.12s-.06-.09-.06-.16c-.25-.72-.53-1.43-.87-2.25-.12-.25-.25-.53-.37-.78-.22-.47-.47-.97-.66-1.5-.19-.56-.31-1.06-.41-1.62l-.06-.34c-.09-.53-.06-1.15.16-1.78.12-.44.37-.81.66-1.15.69-.78,1.62-1.09,2.28-1.22.06,0,.12.03.16.09s-.03.12-.09.16c-.47.16-.87.37-1.22.65-.34.19-.59.41-.81.62-.25.28-.44.62-.56,1-.03.12-.06.28-.09.41-.03.12-.03.22-.06.34-.03.06-.03.12-.06.19-.03.09-.06.16-.03.28l.03.12c.03.19.09.37.12.56.06.5.22,1,.44,1.59.12.34.28.72.47,1.12l.06.09c.16.34.34.65.5,1,.78,1.68,1.34,3.24,1.68,4.68.41,1.65.53,3.21.37,4.68.03.03.09.03.12.06.06.03.09.06.16.06s.12,0,.19-.03.12-.03.22-.03h.06c.09,0,.16.06.25.09.06.03.09.06.12.06.22.06.59.03.94.03.09,0,.19-.03.28-.03.47-.03.97-.09,1.47-.19.19-.16.34-.34.53-.62.16-.22.31-.5.47-.81.25-.53.47-1.09.72-1.78.19-.53.34-1.09.53-1.59l.06-.25c.09-.25.12-.5.22-.78.09-.34.19-.72.31-1.09.12-.37.28-.69.44-.94.09-.16.19-.31.31-.44.09-.12.22-.25.37-.41.19-.16.34-.25.5-.34.12-.09.28-.16.41-.28l.03-.03c.12-.12.28-.22.37-.25.03,0,.09-.03.12-.03.06-.03.12-.03.22-.06.06,0,.16-.06.22-.09.06-.03.12-.06.19-.09.09-.03.16-.06.25-.09s.22-.06.31-.09c.34-.09.66-.19,1-.28l.16-.03c.59-.16,1.19-.31,1.75-.56.34-.16.66-.31.97-.47.16-.09.28-.16.44-.25.12-.06.25-.12.34-.19.16-.09.41-.28.47-.41.16-.31.28-.37.53-.47l.06-.03c.16-.06.19-.19.25-.31.06-.12.12-.28.31-.41l.09-.06q.12-.06.16-.22c.12-.37.28-.75.44-1.09.22-.47.44-.97.53-1.5.12-.62.16-1.22.09-1.78-.06-.56-.25-1.15-.56-1.68-.09-.19-.19-.34-.25-.53l-.16-.31c-.06-.12-.12-.19-.22-.28.09.16.16.31.22.47l.03.09c.06.16.12.31.16.47v.47s.03.09.06.12c.03.06.09.16.09.28,0,.09-.03.16-.03.22-.03.06-.03.09-.03.12,0,.06.03.12.06.22.03.09.06.19.09.28.03.25-.03.53-.06.75l-.03.12c-.09.56-.22,1.12-.44,1.65-.25.69-.62,1.28-1.06,1.75-.47.5-1.09.9-1.75,1.12-.62.22-1.28.31-2,.31h-.22c-.5,0-.97-.03-1.47-.03h-.28c-.72,0-1.34.03-1.9.09-.72.06-1.31.19-1.81.34-.12.03-.25.03-.34.03h-.28c-.12.03-.28.12-.41.25-.03.03-.09.06-.12.09-.03.03-.09.06-.16.09-.09.06-.28.19-.31.22-.09.12-.12.19-.19.28-.06.12-.12.22-.28.37-.19.19-.28.37-.41.56-.06.09-.09.16-.16.25-.19.31-.37.65-.59,1.06-.06.12-.12.22-.22.34-.12.19-.22.34-.28.53-.03.12-.06.22-.12.31l-.03.09c-.12.28-.19.53-.28.81-.03.09-.03.19-.06.25-.37,1.28-.44,2.65-.47,3.71,0,.06-.06.12-.12.12h-.19c-.06,0-.12-.06-.12-.12-.03-.59-.06-1.22-.03-1.93.03-.62.09-1.19.19-1.68-.06-.16-.12-.34-.19-.53-.12-.28-.28-.56-.5-.94-.19-.31-.37-.59-.56-.9-.19-.31-.41-.62-.59-.94s-.37-.65-.59-1.09c-.03-.03-.03-.06-.06-.12-.06-.09-.12-.19-.16-.31,0-.09,0-.16.03-.19.03-.06.03-.09,0-.12l-.03-.03c-.06-.03-.12-.06-.16-.16s-.03-.19-.03-.25v-.22c-.03-.25-.03-.53,0-.81.09-.41.19-.78.31-1.12.16-.37.37-.72.62-1.03.25-.28.56-.56.94-.78.47-.28,1-.5,1.65-.65.28-.09.59-.09.87-.12s.53-.03.78-.09l.03-.03s.06-.06.12-.06c.03,0,.09-.03.12-.03h.06c.28-.06.47-.09.75-.09.75-.06,1.53-.09,2.28-.06.19,0,.41,0,.59.03.56.03,1.12.03,1.56,0,.31-.03.62-.12.94-.25.16-.06.28-.12.44-.22s.25-.16.37-.25c.41-.37.56-.94.69-1.47.03-.09.06-.22.09-.31.03-.12.03-.22,0-.31-.03-.06-.03-.16-.03-.28,0-.16.03-.25.09-.34.03-.12.06-.19,0-.34-.16-.44-.19-.72-.25-1.06-.03-.12-.03-.25-.06-.41-.03-.09-.03-.31-.06-.53-.03-.12-.03-.25-.03-.31s-.03-.12-.06-.22c-.03-.03-.03-.09-.06-.12-.06-.16-.09-.31-.16-.47-.09-.25-.16-.47-.25-.72-.12-.37-.22-.72-.31-1.09-.16-.72-.28-1.5-.16-2.28.09-.44.28-.78.44-1.09.03-.06.06-.12.09-.16-.03,0-.03.03-.06.03-.25.25-.44.47-.56.72-.03.03-.03.09-.06.12-.03.06-.06.12-.09.19-.03.06-.09.09-.12.12l-.09.09s-.03.09-.03.12c0,.06,0,.12-.03.19s-.06.16-.09.22c-.03.09-.09.19-.09.28,0,.06,0,.12.03.19,0,.12.03.22.03.34-.03.62,0,1.31.12,2,.19.84.22,1.56.12,2.18-.09.75-.41,1.47-.87,2.06-.12.16-.25.28-.37.44l-.12.12-.06.06c-.22.19-.34.28-.62.41-.06.03-.09.06-.16.09-.03.03-.06.06-.12.09-.06.06-.16.06-.22.09-.03,0-.09.03-.12.03s-.03.03-.06.06-.09.09-.19.12c-.09.03-.22.03-.28,0-.03,0-.09-.03-.12-.03-.06,0-.09,0-.12.03s-.06.03-.12.06c-.28.12-.62.12-.84.12h-.72c-.56,0-1.12-.06-1.68-.09l-.75-.06c-1.22-.09-2.47-.19-3.68-.16-.81.03-1.47.09-2.03.25-.72.19-1.37.53-1.87.84l-.12.09c-.25.16-.5.28-.75.47-.28.19-.5.41-.72.65-.41.47-.72,1.09-.84,1.75-.16.62-.16,1.31-.06,2,.09.56.25,1.09.47,1.59.03.03,0,.06,0,.09-.03.03-.06.06-.09.06s-.03,0-.06.03-.09.03-.12,0c-.03,0-.03-.03-.06-.03s-.06-.03-.06-.06c-.56-1.25-.72-2.56-.5-3.77.03-.19.09-.37.16-.59.12-.56.28-1.31.31-2.09,0-.41-.03-.75-.09-1.09-.03-.19-.12-.41-.22-.59-.03-.09-.06-.16-.09-.25q-.03-.12-.09-.12s-.06-.03-.09-.03c-.19-.22-.44-.41-.72-.53-.19-.09-.41-.16-.62-.22-.09-.03-.19-.06-.28-.09-.12-.03-.31-.03-.5-.03-.16,0-.31.03-.44,0s-.28-.03-.44-.03c-.37,0-.72.06-1.09.12-.31.06-.66.12-1,.12h-.12c-.47,0-1.15-.09-1.59-.37l-.09-.06c-.16-.09-.28-.19-.41-.34-.06-.12-.16-.22-.25-.31-.09-.09-.19-.19-.25-.28-.25-.34-.25-.65-.25-.97v-.31c0-.09-.03-.12-.06-.22-.03-.06-.09-.16-.09-.28-.03-.28,0-.56.06-.84-.06.09-.16.22-.22.34-.31.56-.44,1.09-.56,1.78,0,.06-.03.12-.03.19-.03.09-.06.19-.06.28,0,.06.03.12.06.19.03.09.06.19.06.31v.19c0,.16,0,.19.09.37.19.34.37.56.66.78.31.28.75.5,1.34.69.69.25,1.37.41,2.15.62.25.06.44.19.66.28.06.03.12.06.19.09.06.03.12.06.19.06.09.03.19.06.25.12.19.12.22.19.22.31,0,.03,0,.06.03.12,0,.03.03.03.06.06s.09.03.16.09c.19.19.22.59.12,1.28s-.41,1.28-.66,1.68c-.12.19-.22.41-.31.59-.06.12-.12.25-.19.37-.03.06-.09.12-.12.19-.09.16-.22.31-.19.47.03.19,0,.31-.03.47-.03.12-.03.22-.03.34,0,.16.09.41.19.59.03.06.06.12.09.19.12.34.31.69.53,1,.28.41.62.81,1.06,1.22.34.34.75.69,1.25,1.06.09.06.16.12.25.19.28.25.56.47.91.62l.22.09c.25.09.5.22.72.31.09.03.34.16.31.31s-.19.16-.25.16h-.03c-.12,0-.25-.06-.37-.09-.03-.03-.09-.03-.12-.03-.25-.09-.5-.19-.78-.25l-.19-.06c-.16-.06-.34-.12-.5-.19-.06-.03-.16-.09-.22-.12-.09-.06-.16-.09-.25-.12-.03,0-.09-.03-.16-.03-.09,0-.19-.03-.28-.06-.06-.03-.12-.09-.19-.16s-.09-.09-.19-.12c-.12-.06-.28-.12-.41-.19-.37-.16-.75-.31-1.09-.56-.19-.12-.37-.25-.56-.34-.16-.09-.37-.25-.56-.41l-.06-.03c-.34-.28-.5-.41-.72-.87-.09-.19-.19-.47-.25-.72-.06-.25-.12-.5-.22-.65-.03-.03-.03-.06-.03-.09-.03-.09-.09-.19-.09-.34s-.03-.28-.09-.41c0-.06-.03-.12-.03-.19-.03-.16-.03-.31,0-.47,0-.09.03-.19.03-.28,0-.16-.06-.44-.12-.62-.03-.06-.06-.12-.09-.19-.06-.09-.12-.19-.12-.28,0-.03-.03-.12-.03-.19,0-.09-.03-.22-.03-.28-.09-.25-.22-.62-.34-.84-.22-.47-.5-.75-1-1.03-.03-.03-.09-.03-.12-.06-.06-.03-.16-.06-.25-.12-.03-.03-.09-.06-.12-.12l-.09-.09c-.5-.28-1.12-.37-1.65-.47-.28-.06-.5-.12-.72-.19-.09-.03-.22-.09-.34-.16s-.22-.12-.31-.22c-.16-.12-.31-.25-.41-.41,0,.03.03.09.03.12.19.28.19.34.19.4M50.58,25.12c-.22.09-.44.19-.66.28,0,0-.06.03-.06.06-.34.12-.66.34-1,.62-.44.34-.87.81-1.31,1.37-.37.47-.72,1-1.06,1.59-.16.28-.31.56-.47.84-.16.28-.28.59-.41.84-.03.09-.09.12-.19.12h-.03s-.06-.03-.09-.06-.03-.06-.03-.09c0-.06.03-.09.03-.16v-.03c.09-.19.19-.41.22-.69.19-.41.37-.72.53-1.03.34-.62.72-1.15,1.09-1.65.47-.59.91-1.06,1.37-1.43.62-.5,1.25-.78,1.84-.87.09,0,.16.03.19.09.03.03.03.06.03.12.06.03.03.06,0,.06M56,23.21c-.37.25-.69.41-1,.47-.12.03-.25.06-.37.12-.19.06-.34.12-.53.16h-1.09s-.06.03-.09.03c-.06.03-.16.09-.31.09-.09,0-.16-.03-.22-.06s-.12-.06-.22-.06c-.41-.03-.87-.03-1.31-.03-.66,0-1.37.16-2.06.44-.37.12-.69.28-.97.47-.25.16-.53.37-.84.62-.44.37-.87.81-1.4,1.37-.06.25-.16.5-.25.75-.06.22-.16.41-.22.62-.16.41-.28.81-.44,1.22-.22.53-.47,1.19-.78,1.81-.19.34-.34.62-.53.87-.03.06-.09.12-.12.19.47-.12,1-.31,1.53-.53.66-.25,1.34-.56,2.18-1,.28-.12.53-.22.78-.31.34-.12.66-.25,1-.44.09-.03.19-.09.31-.16s.28-.12.37-.19c.03-.03.06-.03.06-.06.09-.59.28-1.15.62-1.75.06-.09.09-.19.16-.28.19-.34.37-.69.69-.94.12-.09.25-.16.37-.22.09-.03.19-.06.25-.12.06-.03.09-.06.16-.09.12-.09.28-.19.47-.25.06-.03.16-.03.22-.06l.37-.09c.34-.09.66-.19,1-.28.78-.25,1.4-.5,1.93-.78.47-.25.84-.5,1.15-.81.09-.09.19-.19.31-.25.19-.12.34-.28.47-.44.09-.12.16-.28.22-.44.03-.12.09-.22.12-.34.03-.06.09-.16.12-.22.09-.16.19-.34.25-.5.28-.65.41-1.31.44-1.96,0-.41-.03-.78-.12-1.12,0,.06-.03.16-.03.22-.09.41-.16.75-.25,1.12-.22.72-.59,1.43-1.09,2.06-.25.31-.53.59-.81.84-.19.09-.34.19-.5.31M40.31,20.47v-.09s0-.09-.03-.09-.09,0-.12-.06c-.06-.09-.12-.22-.16-.31-.03-.09-.09-.19-.12-.28-.19-.25-.31-.44-.44-.72-.22-.44-.37-.81-.5-1.15-.06.06-.12.09-.16.16-.22.22-.37.5-.53.81-.12.28-.22.62-.31.97-.06.28-.03.59.03.94.16.65.47,1.31.81,1.93.16.31.34.62.53.94s.37.65.56.97c.16.28.31.62.47.97l.16-.44c.12-.31.22-.59.34-.9s.25-.62.41-.87c-.09-.53-.22-.94-.34-1.31-.06-.19-.16-.37-.25-.56-.16-.34-.28-.59-.34-.87M30.42,82.33l.44.53c.16-.03.28-.03.47-.06l-.37-.53c-.19.03-.38.06-.53.06M31.86,82.74c.16-.03.34-.03.5-.06l-.41-.5c-.16.03-.34.03-.5.06l.41.5ZM29.14,82.02c.06,0,.12-.03.19-.03-.09-.03-.19-.09-.28-.12.03.06.06.09.06.16h.03M29.89,82.99c.12-.03.28-.03.41-.06l-.44-.53c-.16.03-.28.03-.37.03l.41.56ZM34.95,82.46c.19-.03.37-.03.59-.03l-.41-.47c-.19,0-.34.03-.53.03l.34.47ZM29.21,83.08c.06,0,.12,0,.19-.03l-.34-.47c-.03.12-.03.31.16.5M36.1,82.37c.12,0,.28-.03.41-.03l-.28-.5c-.16,0-.34.03-.5.03l.37.5ZM33.39,81.06c-.16.12-.47.41-.91.62.62-.06,1.31-.12,2.03-.16-.53-.16-.93-.37-1.12-.47M33.98,82.52c.16-.03.31-.03.47-.03l-.34-.5c-.16,0-.34.03-.5.03l.37.5ZM38.75,80.37c-.47.47-.91.75-1.37.97.31-.03.62-.03.94-.03.56-.03,1.09-.03,1.62-.03-.56-.31-.97-.69-1.18-.9M32.89,82.65c.19-.03.34-.03.53-.06l-.37-.5c-.19.03-.37.03-.53.03l.37.53ZM42.18,109.73v.12c-.03.16-.03.31-.06.44-.06.28-.12.56-.25.84-.28.65-.59,1.09-.97,1.37l-.09.09s-.09.06-.12.09c-.06.03-.09.09-.12.16s-.06.09-.12.16c-.12.12-.34.22-.5.31l-.09.03c-.53.25-1.09.44-1.62.5-.12.03-.25.03-.41.03-.22,0-.44-.03-.66-.03-.22-.03-.44-.03-.66-.03-.12,0-.25-.03-.37-.06-.09-.03-.19-.03-.28-.03-.19,0-.37-.03-.62-.09-.44-.12-.81-.28-1.19-.5-.72-.41-1.31-1.03-1.78-1.78-1.25-2.12-1.15-5.21-.59-6.64,0-.03.03-.06.06-.06.09-.03.12-.12.09-.22v-.09c.31-.65.62-1.4.91-2.21.09-.22.22-.41.31-.59.09-.16.16-.31.25-.47.03-.06.09-.09.16-.06.06.03.09.06.09.12-.03.47-.19.94-.34,1.37,0,.03-.03.06-.03.06-.03.03-.06.09-.06.12v.03l-.03.03c-.03.09-.06.19-.09.28v.19c-.22.56-.44,1.06-.66,1.5-.37.75-.44,1.72-.47,2.46,0,1.25.22,2.4.66,3.34.03.06.06.12.09.22.03.06.03.12.06.19,0,.03.03.06.06.09l.09.09c.78,1.28,2.28,2.12,4.06,2.18h.37c.94,0,1.72-.16,2.37-.5.34-.19.62-.37.87-.62l.12-.12c.25-.25.47-.47.56-.81.06-.19.12-.28.22-.34.06-.06.09-.12.16-.19.06-.09.09-.22.09-.34.03-.09.03-.19.06-.28.03-.06.03-.09.06-.16.03-.09.09-.19.09-.28v-.06s0-.09.03-.16l.03-.03h0c.06-.03.12-.06.19,0,.06.03.06.12,0,.19.06,0,.06.12.06.15M33.6,108.95c.19.69.5,1.28.91,1.68.19.22.44.37.69.53.19.16.37.25.66.34.03,0,.03.03.06.03q.12.12.31.16h.09c.09,0,.19-.03.28,0,.03,0,.06.03.09.06.03.03.12.06.16.06.06,0,.16,0,.22.03.12,0,.28,0,.47.09h.06s.09.03.09.06c.03.03.03.09,0,.12-.06.09-.12.12-.25.12h-.37c-.19,0-.37,0-.56-.06-.06-.03-.16-.03-.22-.06-.16-.06-.31-.12-.47-.09h-.09c-.66-.19-1.22-.53-1.65-1-1.53-1.62-1.31-4.3-1.28-4.62,0-.06.03-.12.09-.19.03-.03.09-.03.12-.03.06.03.09.06.06.12,0,.19,0,.37.03.53,0,.06,0,.12.03.19,0,.09.03.19.03.28.03.37.03.72.16,1.06,0,.03.03.06.06.09.03.03.06.06.03.12-.03.06,0,.19.09.22.06.06.1.09.1.12M29.05,107.04c-.03.06-.06.09-.12.12h-.09c-1.56-.72-3.93-2.99-3.09-6.86.09-.47.22-.97.31-1.43.09-.41.16-.75.25-1.09.06-.25.06-.5.03-.78,0-.16-.03-.34-.03-.5.03-.37.12-.75.22-1.09.03-.16.09-.28.12-.44.06-.25.06-.47-.03-.75-.12-.41-.03-.78.03-1.15.03-.09.03-.19.06-.28v-.34c-.03-.25-.03-.53.06-.69.03-.03.06-.06.09-.06.19,0,.28.75.28.78,0,.16-.03.28-.03.41-.03.12-.03.22-.03.34,0,.19,0,.37.03.56,0,.31.03.62,0,.94-.03.34-.06.65-.09,1-.03.19-.03.37-.06.56-.16,1.5-.37,2.87-.66,4.15-.84,3.93,1.97,5.74,2.53,6.08l.03.03c.06.06.09.16.16.25.03.06.06.15.03.25M42.9,106.89c-.06-.19-.19-.37-.28-.59l-.06-.12c-.12-.25-.28-.5-.44-.78-.12-.22-.25-.44-.37-.65-.31-.56-.53-1.09-.66-1.62-.12-.5-.22-1.03-.25-1.72-.03-.37-.03-.72-.03-1.09v-.56c0-.56-.03-1.12-.06-1.65v-.94c-.06-.44-.09-.87-.16-1.28-.03-.34-.06-.72-.12-1.06-.06-.47-.12-1.03-.25-1.59-.03-.19-.09-.37-.16-.56,0,.28-.06.56-.09.84-.09.47-.19.9-.28,1.34l-.19.75c-.22.9-.44,1.81-.59,2.74-.09.59-.19,1.12-.22,1.62,0,.09-.03.19-.03.28,0,.12,0,.28-.03.41,0,.06-.03.09-.03.12-.03.06-.03.09-.03.19v.41c.03.06.03.12,0,.19v.12s.03.06.06.09c.03.03.06.09.09.16.03.06.03.16.03.22s0,.09.03.16c.06.25.12.53.19.78.16.53.34,1.06.5,1.56l.16.41c.12.37.28.75.41,1.15.19.56.34,1.12.31,1.78-.06.59-.31,1.22-.78,1.75-.44.5-.97.87-1.56,1.06-.34.09-.66.16-1,.12-.31-.03-.66-.12-.97-.28-.28-.16-.53-.34-.75-.59-.06-.06-.09-.12-.16-.19l-.06-.09s-.06-.06-.06-.09c-.09-.12-.16-.25-.22-.41-.16-.28-.25-.59-.28-.84-.03-.09-.03-.16-.06-.25,0-.06-.03-.09-.03-.16-.03-.12-.06-.28-.09-.41-.09-.5-.12-1.03-.12-1.68,0-.97.09-2.03.25-3.31.16-1.19.37-2.31.56-3.28l.09-.56c.06-.34.12-.72.22-1.06.09-.5.09-1.03.09-1.59-.03-.94-.22-1.93-.56-3.18-.09-.34-.19-.65-.28-1-.06-.19-.12-.41-.19-.59-.06-.25-.16-.53-.19-.84-.03-.12-.06-.28-.06-.47v-.44l.03-.25c-.03.12-.09.22-.12.34-.16.47-.28.97-.37,1.5l-.03.09c-.03.19-.06.37-.12.56l-.03.09c-.06.19-.12.41-.09.59,0,0,.03.03.03.06.03.03.06.09.06.19s0,.19-.03.28c-.06.22-.03.31.03.5l.03.06c.06.19.06.41.06.59v.25c.03.53.03,1.12.03,1.72-.03.59-.09,1.15-.22,1.72-.12.5-.28,1.03-.53,1.62-.16.44-.34.84-.59,1.34-.03.06-.06.12-.09.19-.06.16-.16.31-.25.47-.03.06-.09.12-.16.19s-.09.09-.12.16c0,.03-.03.06-.03.09s0,.09-.03.16c-.03.09-.12.16-.19.19-.03.03-.06.03-.06.06-.06.09-.09.22-.09.34-.03.12-.03.25-.09.37-.09.19-.19.37-.28.59-.06.12-.12.25-.19.37-.12.25-.25.5-.34.72-.12.25-.19.44-.25.65-.03.06-.06.09-.12.09h-.06s-.09-.03-.09-.03c-.03-.03-.03-.06-.03-.09.03-.16.06-.34.09-.5.03-.22.09-.41.09-.62,0-.09.03-.19,0-.28,0-.03-.03-.09-.06-.12s-.03-.03-.03-.06h0c-.12-.06-.22-.12-.31-.22l-.06-.06c-.25-.22-.44-.41-.62-.62-.34-.44-.62-.94-.84-1.5-.34-.94-.53-2-.5-3.24,0-.28.03-.53.03-.81l.06-.78c.03-.53.06-1.03.09-1.56.06-1.06.03-2.12,0-3.09-.12-2.37-.56-4.3-1.34-5.96-.12-.25-.22-.47-.34-.69-.06-.12-.16-.25-.22-.37-.06-.09-.12-.19-.19-.28-.28-.5-.53-.97-.75-1.4-.22-.47-.41-1-.56-1.5l-.06-.25c-.03-.12-.06-.25-.09-.34,0,.37,0,.75.06,1.09.03.28.09.59.19.84,0,.03.03.06.03.12.03.06.06.16.06.22v.22c0,.06-.03.12,0,.16,0,.03.06.09.09.12.06.03.09.09.12.19.03.09.06.19.09.31,0,.06.03.12.03.19l.03.16c.09.34.22.72.31,1.06.28.97.44,1.75.53,2.5.12,1.31.03,2.74-.28,4.24-.19.87-.44,1.78-.75,2.65-.12.37-.31.72-.47,1.06-.16.34-.34.69-.47,1.06-.03.09-.09.19-.12.31-.09.19-.16.37-.19.56l-.03.19c-.09.47-.19,1.03-.12,1.47.03.31.06.62.09.97l.03.37c.03.37.16.72.25,1.09.09.31.19.62.22.97,0,.09,0,.16.03.25,0,.12,0,.22.06.37.12.25.28.47.41.69.25.41.5.81.66,1.25.03.09.06.19.09.25.06.22.12.34.34.5.34.25.75.53,1.09.84.5.44,1.06.78,1.65,1.06.31.12.62.25.94.34.09.03.19.06.25.06,0-.03.03-.06.03-.06,0-.03.03-.09.03-.12-.03-.03-.03-.12,0-.37v-.19l.09-.84s.03-.06.06-.09c.03-.03.06-.03.09-.03h.03c.06,0,.12.03.12.09l.03.34c.03.19.03.34.03.37.03.16.09.31.12.5.09.34.16.65.28,1,0,.03.09.09.12.12l.03.03.03.03c.03.09.06.19.06.25s.03.12.06.19c.22.47.44.81.69,1.22l.16.06s.06.03.09.09l.06.19v.06h0v.06c0,.06.03.09.03.16.03.09.09.22.12.31.09.22.22.44.37.62.28.41.62.75,1.06,1.06.75.53,1.68.87,2.84,1.03,1.22.12,2.22.09,3.06-.12,1-.25,1.87-.75,2.53-1.47.62-.69,1.09-1.62,1.37-2.65.25-1.03.28-2.09.09-3.06-.06-.31-.16-.56-.22-.75M39.59,84.05c2.74,0,5.24.22,7.42.65.66-.5.37-1.19.25-1.4-6.11-1.5-17.13.09-18.03.25-.19.16-.31.34-.34.56-.03.34.19.72.31.87.81-.16,5.3-.94,10.39-.94M53.88,95.38c-.41.62-.91,1.28-1.53,1.93-.25.25-1.4,1.47-1.9,1.47-.06,0-.12-.03-.19-.06l-.03-.03c-.16-.25.25-.53.69-.84.12-.09.25-.19.31-.25.37-.34.72-.69,1-1.03.28-.31.56-.65.78-.97l.06-.09c.09-.12.19-.22.22-.34l.03-.09c.06-.16.16-.34.25-.47.06-.06.09-.12.12-.16.09-.09.12-.12.19-.31v-.12c0-.06,0-.16.03-.25s.09-.12.12-.19.09-.09.09-.12c.03-.03.03-.09.03-.16s0-.12.03-.16c.28-1.25.19-2.37-.28-3.52-.03-.06-.06-.16-.09-.22v-.06c0-.06-.03-.12-.06-.16l-.03-.03c-.03-.06-.03-.09-.06-.16v-.03c0-.06-.03-.09-.03-.12l-.03-.03c-1.03-3.03-.84-5.05-.5-6.24,0-.03.03-.06.06-.06.06-.06.09-.12.12-.19s.03-.12,0-.19c-.03-.03-.03-.06,0-.09.19-.41.31-.59.34-.62,0,0,0-.03.03-.03.03-.03.09-.06.12-.03.06,0,.09.06.09.12,0,.44-.12.87-.25,1.31-.03.09-.06.19-.09.28-.19.62-.22,1.22-.16,1.81,0,.03,0,.06.03.09.09.16.09.47.09.75v.53c0,.12,0,.5.09.56.06,0,.09.06.09.12v.06c.03.19.22.97.25,1.06.12.44.31.9.5,1.37.31.75.47,1.53.5,2.25.09,1.15-.28,2.43-1.06,3.71M55.88,89.82c-.16-.44-.34-.9-.62-1.43s-.5-1.03-.69-1.53c-.19-.56-.31-1.09-.37-1.62-.06-.5-.06-1.03-.03-1.65v-.12c0-.22.03-.47.06-.72.03-.28.09-.56.16-.81.03-.22.09-.44.16-.65s.12-.44.16-.69c.03-.19.06-.34.06-.53s.03-.37.06-.53.09-.28.16-.41c.06-.09.09-.22.12-.34.09-.47.16-1.03.12-1.53-.06-.47-.19-.9-.31-1.28v.31c-.03.56-.12,1.09-.31,1.65-.19.53-.44,1.03-.66,1.5-.12.25-.25.47-.34.72-.12.25-.28.5-.41.72l-.12.22c-.25.41-.47.78-.66,1.15-.22.47-.37.97-.47,1.47-.09.47-.09,1-.06,1.56.03.5.12,1,.25,1.56.03.12.06.25.09.37s.06.28.09.41c.06.25.12.53.16.81l.03.09c.09.5.19,1.06.19,1.56,0,.12-.03.19-.06.28-.03.03-.03.09-.03.12,0,.09,0,.22.03.31s.03.19.03.28c0,.16-.03.28-.06.41-.03.06-.03.16-.03.22-.16,1.09-.47,2.15-.94,3.18-.41.87-.91,1.75-1.65,2.78t-.03.06h0s-.03.12-.03.16v.16l-.03.22c0,.06-.06.09-.09.09-.06,0-.09-.03-.12-.06-.03-.06-.06-.12-.09-.16-.09-.19-.22-.41-.28-.62,0-.03-.03-.06-.03-.06l-.03-.03c-.19-.65-.41-1.22-.66-1.68-.19-.41-.47-.78-.81-1.19-.16-.19-.34-.41-.47-.59-.16-.22-.28-.47-.41-.69-.22-.44-.34-.9-.41-1.5-.06-.47-.09-.94-.06-1.53,0-.44.03-.9.09-1.5l.03-.44c-.12.25-.22.53-.37.78-.12.25-.28.47-.44.65-.16.22-.28.41-.41.59-.47.81-.62,1.81-.41,2.74v.06c.06.25.09.47.22.65.03.06.09.12.12.16.06.09.12.16.16.37.03.16.09.37.16.5.03.03.03.09.06.12.03.09.09.19.12.28.09.09.12.25.19.34.03.06.06.12.09.19l.03.06c.22.41.44.84.62,1.31.25.59.34,1.09.31,1.56,0,.5-.16,1-.44,1.56-.03.03-.03.09-.06.12-.09.19-.19.41-.34.56-.06.06-.12.09-.19.12-.09.06-.16.09-.22.22-.06.19-.16.34-.25.53-.03.09-.09.16-.12.25-.09.19-.19.28-.28.41l-.03.03c-.28.31-.47.87-.59,1.31-.03.12-.06.22-.09.31-.16.44-.31.9-.41,1.4-.06.22-.09.47-.12.72-.03.09-.03.16-.06.22,0,.03.03.03.03.06.12.25.22.53.28.87.03.19.09.41.12.62,2.43-1.4,3.87-3.49,4.15-5.99.03-.25.06-.37.09-.47.03-.12.06-.22.03-.56,0-.03-.03-.06-.03-.09-.03-.06-.09-.22,0-.31,0-.16-.03-.31-.03-.47-.03-.19-.03-.34-.03-.53,0-.06.03-.12.09-.12s.12.03.12.09c.31,1.19.41,2.09.25,3.09-.16,1.06-.56,2.06-1.12,2.96-.37.59-.84,1.12-1.4,1.62-.28.28-.62.53-.97.78-.03.03-.19.09-.34.19-.22.12-.62.37-.75.47.03.19.03.41.03.62.03,0,.09-.03.12-.03.22-.06.44-.12.66-.22.41-.16.84-.34,1.28-.59.59-.34,1.09-.78,1.56-1.22.28-.25.59-.53.91-.78.12-.09.19-.22.25-.37.06-.09.12-.22.19-.31l.19-.19c.09-.06.16-.12.19-.19v-.25c.03-.22.09-.41.16-.59.03-.09.06-.19.09-.28.09-.31.16-.62.19-.9.09-.59.06-1.25,0-1.96-.03-.25-.06-.5-.12-.72-.03-.41-.06-.9.31-1.15.03,0,.03-.03.06-.03.12-.12.41-.34.97-.69.06-.03.09-.06.09-.06.12-.09.34-.25.44-.34.19-.19.53-.34.75-.44.19-.09.22-.12.28-.25.03-.03.03-.06.06-.12.16-.25.31-.41.5-.56l.09-.06c.47-.44.91-.94,1.28-1.4.69-.87,1.12-1.78,1.31-2.71.09-.5.12-1,.09-1.5-.06-.53-.19-1.03-.34-1.53M22.03,96.16c-.06.03-.12.06-.19.06-.09,0-.19-.03-.25-.12-.78-.94-1.47-2.09-2.18-3.65-.53-1.15-.97-2.31-1.25-3.43-.19-.65-.31-1.34-.37-2v-.09c-.09-.62-.19-1.31-.03-1.9,0-.03.03-.09.03-.12.03-.06.03-.12.03-.19v-.12c0-.28,0-.59.06-.9l.06-.28c.03-.25.09-.47.16-.69.03-.06.03-.12.03-.19.03-.22.06-.47.28-.62.03-.03.09-.03.12,0s.06.06.06.12c.03.34-.03.56-.09.84l-.03.16c-.06.22-.06.47-.09.75,0,.12,0,.25-.03.34-.06.72-.06,1.47,0,2.21.09,1.31.41,2.65.87,4.02.62,1.81,1.53,3.49,2.62,5.02.09.12.19.25.28.34.06.06.06.12.06.22-.06.1-.09.16-.16.22M23.9,94.5l-.16-.16c-.09-.12-.19-.28-.28-.44-.12-.28-.28-.56-.41-.9-.25-.62-.5-1.25-.69-1.87-.19-.62-.37-1.25-.53-1.93,0-.06-.03-.12-.06-.19-.03-.12-.06-.25-.09-.34,0-.12,0-.22.03-.31.03-.09.03-.19.03-.25,0-.03-.03-.06-.06-.09-.03-.03-.06-.09-.09-.19-.03-.03-.06-.06-.06-.09,0-.16-.03-.25-.06-.37t-.03-.06s-.03-.09-.06-.19c-.22-1.19-.37-2.46-.5-3.77-.06-.75-.12-1.5-.12-2.28,0-.41,0-.78.03-1.15,0-.09.03-.19.03-.28.03-.19.03-.34,0-.53s0-.34.03-.53c.03-.09.03-.16.03-.25.03-.31.06-.62.09-.94,0-.12.03-.25.06-.41.06-.34.12-.72.03-1-.03-.06-.03-.09,0-.12-.03-.16.03-.22.06-.28l.03-.03c.06-.12.03-.34.03-.5v-.22c0-.34-.03-.72-.09-1.06-.09-.65-.28-1.31-.53-1.96-.22-.56-.53-1.12-.87-1.68-.25-.41-.56-.81-.87-1.22l-.28-.34c-.09-.12-.19-.25-.28-.44-.09-.16-.16-.31-.25-.47-.12-.28-.25-.62-.37-.94-.09-.28-.16-.62-.22-.97v-.03c-.03.41-.03.84.03,1.31.09.65.25,1.37.5,2.25.22.65.47,1.37.81,2.18l.12.28c.12.28.22.56.34.84.12.41.25.78.34,1.15.19.84.22,1.65.12,2.43-.09.75-.31,1.56-.69,2.37-.25.56-.56,1.09-.84,1.59-.09.16-.19.34-.28.5l-.03.06c-.34.65-.72,1.31-.91,1.96-.19.62-.28,1.31-.28,2.15,0,.19.03.37.06.56.03.16.03.34.03.5s-.03.31-.06.44c-.03.16-.09.31-.06.44.03.09.06.19.12.28.06.09.16.22.19.34.03.16,0,.28-.03.41s-.03.25,0,.34c.03.06.06.12.09.22s.09.16.12.25c.03.16.06.34.09.5,0,.09.03.19.03.28.12.75.34,1.43.62,2.15.5,1.34,1.28,2.65,2.28,3.93.47.59.97,1.15,1.53,1.72.28.28.56.56.84.78.03.03.09.06.12.09.06-.44.37-1.09.37-1.12.09-.16.19-.31.28-.47.19-.25.34-.5.44-.81-.06-.1.13-.91.16-1.12M15.35,81.09s-.06.06-.09.06h-.03s-.06-.03-.09-.03c-.03-.03-.03-.06-.03-.22v-.03c-.09-.03-.16-.12-.16-.22-.03-.09-.34-2.25-2-4.34-.47-.59-.78-1.06-1.03-1.53-.03-.06-.06-.12-.09-.19-.12-.19-.25-.41-.28-.59h0c-.06-.22-.09-.37-.12-.44h0c-.06-.03-.09-.09-.06-.16.06-.09.03-.16-.06-.28-.03-.06-.09-.16-.12-.25-.09-.31-.12-.65-.19-.94-.09-.53-.12-1.09-.16-1.87s0-1.43.06-2.06c.03-.19.03-.37.16-.5.03-.03.06-.06.12-.03.03,0,.09.03.09.09v.03s.03.06.03.12c.12.5.12,1.09.12,1.62v.53c0,.78.06,1.4.12,1.96.16,1.03.47,1.96.94,2.78.28.47.62.94.91,1.31.12.16.22.25.37.41s.22.31.28.47c.03.06.03.12.06.19.06.16.16.28.25.44.06.12.12.22.19.34.25.47.44.94.59,1.4.12.34.12.44.16.65,0,.09.03.19.03.31.03-.06.12.78.03.94M8.36,65.27c-.09.09-.25.12-.34.12h0s-.06-.03-.09-.03c-.59-.62-1.43-1.72-2.25-3.21-.19-.37-.41-.78-.59-1.22v-.09c.03-.12,0-.28-.12-.34-.03,0-.06-.03-.06-.06s-.03-.06-.03-.09l-.03-.09v-.06c0-.09-.03-.19-.09-.25,0,0-.03-.03-.03-.06-1.09-2.99-1.37-6.3-.87-9.77.09-.69.31-1.31.66-2l.03-.03s.03-.03.03-.06c.28-.34.5-.78.75-1.31,0-.03.03-.06.03-.09l.09-.09c.09-.12.19-.22.25-.34.03-.06.03-.12.03-.16,0-.06.03-.09.06-.12s.06-.03.09-.06l.03-.03s.09-.09.16-.06c.03,0,.03.03.06.03.06,0,.09.06.09.12v.06c-.09.53-.41,1-.72,1.53-.44.72-.91,1.53-1.09,2.71s-.25,2.37-.25,3.56c0,.03,0,.06-.03.06-.09.12-.09.31,0,.41.03.03.03.06.03.09.25,5.52,2.78,9.05,4.24,10.67t.03.06c0,.12-.03.19-.06.22M2.75,47.61s-.06.06-.09.06h-.09s-.09,0-.12-.03c-.16-.19-.28-.37-.41-.53l-.09-.09s-.03-.03-.06-.06c-.37-.97-.66-2.06-.91-3.21s-.37-2.31-.37-3.37v-.16c0-.28,0-.56.03-.81l.03-.12c.03-.19.09-.37.06-.56v-.09c0-.12-.03-.25,0-.37s.06-.28.09-.41c.03-.09.03-.16.06-.25s.09-.19.16-.31c.03-.06.12-.19.12-.25v-.03s.03-.03.03-.06c.03-.03.06-.03.09-.03h0c.06,0,.12.06.12.12h0c.03.53-.03,1.06-.09,1.56l-.03.19c-.03.19-.03.41-.03.62,0,.31,0,.62-.06.9-.03.06-.03.12-.06.16q-.03.06-.03.12c.03.06.03.09.03.16.03.12.06.25.06.44,0,.22.03.44.06.65l.03.19c.16,1.34.47,2.71.94,4.12.16.47.31.9.5,1.34.03,0,.06.06.03.12M17.07,80.03c-.03-.06-.06-.09-.06-.12-.03-.09-.06-.22-.09-.31,0-.06-.03-.09-.03-.16-.06-.31-.12-.62-.22-.9-.19-.65-.44-1.19-.72-1.65-.03-.06-.06-.09-.12-.16-.06-.06-.12-.16-.16-.22l-.03-.09c-.06-.12-.12-.25-.19-.34-.06-.09-.09-.09-.19-.12-.06-.03-.16-.06-.25-.16s-.19-.22-.25-.34c-.06-.09-.12-.19-.19-.28-.06-.06-.12-.09-.22-.16-.09-.06-.22-.09-.28-.19-.25-.28-.47-.56-.66-.84-.03-.09-.09-.16-.12-.25l-.12-.25c-.06-.16-.12-.31-.19-.47-.12-.28-.22-.59-.34-.94-.19-.62-.34-1.28-.41-1.93-.09-.62-.12-1.25-.12-1.96,0-.53.03-1.06.06-1.59l.03-.34c.03-.31.03-.62.03-.94v-.94c0-.65,0-1.31.03-1.93.03-.9.06-1.78.09-2.68l.03-1.22c0-.31.03-.59.03-.87s-.03-.56-.06-.9c-.09-.56-.22-1.19-.44-1.81-.19-.62-.44-1.22-.72-1.75-.12-.22-.22-.41-.31-.56.09.34.16.72.19,1.09.09.72.16,1.43.22,2.28.06.69.03,1.47-.09,2.31-.09.69-.25,1.43-.44,2.25-.03.16-.06.31-.09.47-.19.81-.37,1.62-.75,2.37-.03.06-.09.06-.12.06-.06,0-.09-.06-.09-.12v-.31c0-.28.03-.47-.19-.69-.34-.31-.59-.72-.81-1.12l-.06-.12c-.28-.5-.56-1.03-.81-1.59-.53-1.19-.91-2.31-1.09-3.4-.09-.56-.16-1.15-.16-1.78v-.37c0-.47-.03-.97.06-1.4.03-.09.06-.19.09-.31s.09-.25.09-.37v-.72c0-.47.09-.97.16-1.43.03-.19.06-.41.09-.59l.09-.62c.28-2.03.59-4.15.72-6.21.09-1.22.09-2.34.03-3.4-.03-.59-.09-1.15-.19-1.68-.03-.28-.09-.56-.16-.78,0,.06-.03.12-.03.19l-.12,1.12c-.09.78-.22,1.53-.34,2.21-.31,1.62-.72,3.03-1.25,4.34-.19.44-.37.87-.56,1.25-.03.03-.03.09-.06.16-.16.34-.37.84-.78.78-.06,0-.09-.06-.12-.09v-.31l-.06-.06s-.09-.06-.12-.12c-.06-.09-.12-.22-.19-.34-.09-.22-.19-.44-.28-.69-.16-.44-.25-.87-.34-1.4-.12-.87-.19-1.78-.12-2.81.03-.56.09-1.09.16-1.62l.03-.16c.03-.34.12-.69.19-1,.06-.34.16-.69.25-1.06.03-.12.03-.25.03-.37,0-.16.03-.34.09-.5.03-.12.09-.22.16-.31.06-.12.12-.25.16-.41.22-.97.34-1.84.34-2.65.03-.94-.09-1.81-.37-2.59-.06-.19-.12-.41-.22-.62-.09-.22-.19-.44-.25-.65-.12-.41-.22-.84-.28-1.37-.06-.41-.09-.81-.09-1.22-.03.06-.06.12-.09.19-.06.12-.12.28-.19.41s-.12.25-.16.34c-.12.28-.19.5-.19.72-.03.34.09.69.22,1.03.06.16.12.34.16.53.09.28.16.59.19.87v.03c0,.06.03.16.03.22,0,.81-.34,1.4-.72,2.03-.06.09-.12.22-.19.31l-.16.28c-.22.37-.47.78-.66,1.19-.56,1.03-.97,2.09-1.22,3.09-.28,1.03-.41,2.15-.41,3.28,0,1.06.12,2.15.34,3.31.22,1.06.53,2.15.94,3.21.22.53.44,1.06.66,1.56.12.25.25.5.37.75l.12.25s.03,0,.03.03l.03-.03.03-.03s.09-.03.12-.03c.03.03.06.06.06.12,0,.19-.03.37-.06.59v.03l-.06.28c-.03.09-.03.19-.06.28-.06.41-.09.84-.09,1.37,0,1.53.19,2.99.44,4.4.12.65.25,1.43.44,2.15.19.72.41,1.4.66,2.09.53,1.37,1.22,2.68,2.06,3.87.44.59.87,1.15,1.37,1.68.25.28.53.53.78.78l.34.31s.03-.06.06-.09t.03-.09s.03-.06.03-.06c0,0,0-.12.03-.16,0-.06,0-.12.03-.16.03-.16.09-.28.16-.44.03-.03.06-.06.12-.06h.09c.06,0,.09.06.09.12v.94c-.09.65-.12,1.22-.12,1.78-.03,1.4.12,2.9.41,4.46.12.72.31,1.43.5,2.18.22.81.44,1.5.69,2.12.59,1.47,1.34,2.71,2.28,3.77.5.56,1.03,1.06,1.59,1.5.28.22.59.44.91.59.03.03.09.03.12.06.06.03.12.06.19.09.03-.69.16-1.28.34-1.84.12-.34.28-.72.5-1.15.19-.34.37-.69.59-1.06l-.09-.06ZM28.89,79.9s-.03,0,0,0c0-.06,0-.09.03-.16.03-.12,0-.25-.06-.34-.06-.09-.16-.16-.25-.19h-.09c-.22,0-.41.19-.47.41-.06.28.06.56.31.62h.09c.16,0,.34-.13.44-.34M46.96,85.17c-2.15-.44-4.65-.65-7.39-.65-5.27,0-9.89.84-10.39.94-.19.12-.28.25-.28.34,0,.12.12.22.22.28,2.87-.62,6.11-.94,9.61-.94,4.3,0,7.67.5,8.3.59.09-.06.16-.16.16-.25,0-.12-.13-.25-.22-.31M27.08,77.9l.97,1-.03-1.25c0-.09.06-.16.12-.16s.12.06.16.12l.16,1.15h.19l.47-.97c.03-.09.16-.12.25-.09s.12.12.09.22l-.37,1.03.09.09,1.09-.59c.06-.03.16,0,.19.06s.03.12-.03.19l-1.03.78c.03.06.03.16.03.22l.5.06c.09,0,.16.09.16.19s-.06.12-.16.16l-.59.03c-.03.06-.06.12-.09.19.16.06.62.22.87.12.62-.25.31-.9.28-.94-.03-.09.03-.22.12-.28.06-.03.5-.34.31-.78-.09-.28-.25-.28-.47-.37-.06-.03-.37-.03-.41-.06-.16-.19-.03-.59-.28-.72-.22-.09-.56-.06-.66.09-.03.06-.12.19-.19.19-.09,0-.16-.25-.19-.31-.12-.22-.41-.41-.59-.34-.44.09-.41.53-.41.59,0,.09.03.25-.06.28-.09.03-.28-.12-.34-.19-.12-.12-.44-.22-.62-.12-.12.09-.22.25-.25.44,0,.12,0,.22.03.31.09.25,1.19,1.65,1.4,1.06-.31-.37-.59-.75-.91-1.12-.06-.06-.03-.16.03-.22,0-.12.09-.09.16-.06M61.93,83.8c-.12.62-.34,1.25-.62,1.84-.03.06-.06.12-.09.19-.09.19-.19.41-.34.56l-.03.03c-.28.28-.53.5-.72.5-.03,0-.09-.03-.12-.06s-.03-.09,0-.12c1.03-1.68,1.47-3.09,1.5-4.52,0-.5-.06-1-.12-1.5-.03-.22-.09-.47-.19-.72-.12-.41-.25-.84-.22-1.25,0-.06.06-.09.12-.12.06,0,.12.03.12.09l.09.34c.09.34.22.65.31.94.5,1.19.59,2.5.31,3.81M62.15,78.75c-.34-1.03-.75-2.03-1.22-3.12l-.06-.19c-.19-.47-.37-.94-.53-1.43-.03-.12-.09-.28-.12-.44-.03-.12-.03-.25-.06-.34v-.09c-.03-.31-.06-.59-.09-.87v-.09c-.03-.5-.06-1-.03-1.53v-.84c-.03.09-.09.22-.12.34-.16.41-.31.81-.44,1.25-.22.87-.34,1.75-.37,2.59,0,.16-.03.31-.03.47-.03.22-.06.47-.03.65.03.34.12.62.22.94.03.16.09.34.12.5.06.22.12.44.19.62.06.22.16.44.22.65.12.47.25.94.31,1.37,0,.06.03.09.03.16.03.16.06.31.06.5,0,.09-.03.16-.06.25s-.06.19-.03.28c.03.06.03.12.06.19.03.12.09.25.06.47,0,.34-.03.65-.09,1-.06.44-.16.9-.28,1.37-.06.22-.12.41-.19.62l-.12.37c-.03.12-.09.25-.12.34-.19.47-.41.87-.66,1.25-.22.34-.47.75-.75,1.15-.25.37-.5.75-.78,1.12l-.41.56s-.06.06-.09.12c-.06.09-.16.25-.34.31.03.09.09.22.12.31.28.72.44,1.5.44,2.25.03,0,.03-.03.06-.03.25-.12.47-.25.72-.37.47-.28.91-.59,1.31-.94.81-.69,1.53-1.5,2.12-2.43.25-.41.5-.81.69-1.22.06-.12.12-.25.16-.37.03-.09.06-.19.12-.28.03-.09.09-.16.12-.22.06-.09.12-.19.16-.28v-.19c0-.09,0-.19.03-.25.03-.09.06-.16.12-.25.06-.09.09-.16.09-.25.16-1.06.22-1.96.16-2.81-.03-.93-.25-1.96-.65-3.18M33.39,14.14c.56-.31,1.22-.69,2-.9.62-.19,1.31-.28,2.15-.31h.81c.47-.37.91-.78,1.25-1.22.44-.53.81-1.09,1.12-1.65.31-.59.56-1.22.72-1.87.19-.65.28-1.34.31-1.96.03-.53-.06-1.03-.16-1.53-.03-.22-.06-.44-.09-.65-.03-.12-.03-.19-.09-.25-.03-.03-.06-.09-.09-.16-.06-.09-.06-.22-.09-.31,0-.09-.03-.19-.06-.25-.09-.16-.25-.31-.41-.47-.28-.28-.59-.62-.59-1.06l-.06-.06-.03-.03c-.06,0-.09-.03-.09-.09-.03-.09-.06-.19-.12-.28l-.06-.12c-.09-.22-.19-.62-.28-.94h0v.94c0,.16.06.28.12.44.06.12.09.25.12.41,0,.09.03.16.03.25.03.19.03.41.12.56.03.06.06.12.09.19.09.19.22.37.28.59.34.94.44,1.87.22,2.68-.12.44-.31.84-.56,1.22-.12.16-.25.34-.41.53l-.22.25c-.09.09-.16.19-.25.25-.31.25-.62.44-.97.62l-.16.09c-.37.19-.75.41-1.09.65-.34.22-.66.44-1.03.69-.16.12-.31.25-.47.37l-.25.19c-.06.06-.16.12-.22.19-.03.03-.09.09-.12.16-.06.06-.12.16-.19.22-.06.06-.16.09-.22.09-.03,0-.06.03-.09.03-.09.03-.09.09-.12.19-.03.06-.03.16-.09.25-.12.19-.25.31-.41.41s-.19.25-.22.41c-.03.09-.03.22-.09.34-.09.19-.16.37-.25.53-.12.25-.25.5-.34.75.16-.09.28-.19.44-.25l.22-.09ZM45.87,81.99l.41.62c.19.03.41.06.59.12l-.5-.69c-.16-.03-.31-.03-.5-.06M52.67,57.31s-.47.53-1.68,1.06-2.28,1.65-2.28,1.65c-2.34-2-5.37-2.9-5.37-2.9,0,0,2.56-.72,4.96-.25,2.4.44,4.37.44,4.37.44M37.78,87.14c-.75,0-1.43.03-2.09.03-5.15,0-6.36-.44-6.65-.59h0l-.06-.03c-.06-.03-.5-.28-.5-.72,0-.22.09-.44.31-.62-.16-.25-.41-.69-.34-1.15.03-.28.16-.53.37-.72-.31-.41-.22-.84-.09-1.06-.12-.25-.34-.78-.53-1.5v-.06c-.34-.12-.56-.47-.59-.87h-.03c-.06-.03-1.25-.72-1.65-1.78v-.03c-.06-.22-.06-.69.44-.97.28-.16.62-.06.84.06.09-.28.31-.56.72-.65.22-.03.41.03.56.16l.09-.53c-.78-.03-1.34-.31-1.34-.34t-.03-.06s0-.06.03-.06c1.31-.78,1.87-2.9,2-3.46-.12.03-.28.03-.44.03-.5,0-.94-.12-.94-.16-.03,0-.06-.03-.06-.06s.03-.06.06-.06c1.43-.62,2.06-2.5,2.22-2.93h-.03c-.53,0-1.15-.34-1.19-.34s-.03-.03-.03-.06.03-.06.03-.06c2.22-1.28,2.56-3.62,2.56-3.65s.03-.06.06-.06c1.22-.12,2-.56,2.37-.84-.44.06-1.15.12-1.93.12-.66,0-1.56-.06-2.22-.28-3.49-1.22-5.34-4.84-5.34-4.87v-.09s.03-.03.06-.03c.12,0,.28.03.41.03.84,0,1.81-.25,2.84-.53,1.12-.28,2.4-.62,3.78-.69,2.37-.09,4.4,1.75,4.99,2.37-.22-1.31-1.72-1.93-1.75-1.93s-.03-.03-.06-.06c0-.03,0-.06.03-.06.66-.44.97-.9.94-1.4-.06-.65-.81-1.34-2-1.81-1.28-.5-4.84-.62-7.71-.72-1.5-.06-2.78-.09-3.49-.19-.09,0-.19-.03-.28-.03-1.25-.16-3.84-.47-6.18-1.84-.47-.28-.91-.59-1.31-.94h0c-.16-.22-.37-.37-.56-.53-.12-.12-.25-.25-.37-.41-.03-.06-.06-.12-.12-.16h0s0-.06,0,0c0-.16-.09-.25-.25-.28-1.15-1.56-1.72-3.52-1.72-5.9,0-4.74,2.5-7.11,4.59-8.24,2.28-1.25,4.55-1.34,4.59-1.34s.06.03.09.06c0,.03,0,.06-.03.09-.03.03-3.53,1.5-4.84,3.96-.16.06-.22.22-.19.37v.03s-.03.06-.03.09c-.16.06-.22.28-.12.44-.22.87-.12,1.75.25,2.62.44,1,1.62,1.22,2.53,1.22,1.47,0,3.18-.53,4.12-1.06.03-.03.09,0,.09.03.03.03.03.09,0,.09-.03.03-3.71,3.31-3.4,6.02.12,1.06.87,1.72,1.97,1.72.66,0,1.37-.22,2.06-.62.47-.28.87-.84,1.31-1.47.84-1.19,1.78-2.53,3.49-2.53.03,0,.06.03.09.06,0,.03,0,.06-.03.09-.03,0-.78.56-1.34,1.59-.25.25-.37.59-.47.94-.03.09,0,.16.03.22-.16.69-.12,1.5.19,2.4.56,1.62,2.68,1.84,3.21,1.87-.16-.47-.62-2.25.59-4.3,1.4-2.37,3.28-2.68,3.34-2.68.03,0,.06,0,.09.03,0,.03,0,.06-.03.09-.47.41-.87.9-1.19,1.43-.12.22-.16.5-.25.75-.31.72-.28,1.43-.19,2.18.22,2.25.94,2.68,1.15,2.74.19-.53,1.31-3.74,3.93-4.62.03,0,.06,0,.09.03.03.03.03.06,0,.09-.03.03-2.87,3.34-1.22,5.18.62.69,1.09,1.15,1.47,1.53.56.56.91.87,1.09,1.34.22-.44.53-.75,1.12-1.31.37-.37.87-.81,1.53-1.47.47-.5.62-1.15.56-1.81-.03-.25-.03-.62-.09-.87-.06-.22-.25-.34-.34-.56-.06-.16-.06-.31-.16-.47-.28-.5-.59-1.03-.97-1.5-.03-.03-.03-.06,0-.09.03-.03.06-.03.09-.03,2.56.94,3.59,4.21,3.74,4.74.78-.41.94-1.22,1.22-1.87.19-.47.03-.94.06-1.31.03-.22.03-.47.03-.65s-.06-.28-.09-.44c-.31-1.75-1.43-2.78-1.47-2.81s-.03-.06-.03-.09c.03-.03.06-.06.09-.03.09.03,1.9.37,3.24,2.81,1.15,2.12.59,3.87.41,4.34.53,0,2.65-.12,3.28-1.75.31-.81.41-1.65.25-2.46,0-.12.09-.37-.06-.47-.09-.56-.31-1.09-.72-1.5-.03-.03-.09-.06-.12-.09-.22-.25-.44-.47-.72-.69-.03-.03-.03-.06-.03-.09s.03-.06.09-.06c1.72.06,2.62,1.43,3.4,2.62.41.62.81,1.22,1.25,1.53.72.47,1.47.72,2.15.72,1.03,0,1.78-.62,1.93-1.62.12-.84-.12-1.75-.53-2.59.06-.16,0-.37-.19-.44-.12-.34-.31-.65-.59-.9,0-.03-.03-.03-.03-.03-.87-1.25-1.81-2.15-1.81-2.15-.03-.03-.03-.06,0-.09.03-.03.06-.03.09-.03,1,.59,2.78,1.22,4.3,1.22.84,0,1.9-.19,2.37-1.12.5-1.03.59-2.09.19-3.15-1-2.74-4.8-4.52-4.84-4.52-.03-.03-.06-.06-.03-.09,0-.03.06-.06.09-.06s2.31.19,4.55,1.53c.09.06.19.12.28.19h0c.41.37.5.44.94.78.03.12.25.12.44.34.16.12.25.37.41.37,1.31,1.43,2.31,3.56,2.18,6.71-.12,3.74-1.72,6.46-4.65,8.08-2.37,1.31-4.99,1.53-6.24,1.62-.09,0-.22.03-.28.03-.56.06-1.53.06-2.5.06h-.72s-.09-.06-.16-.06-.12.03-.16.03c-.06-.06-.22-.22-.25-.12-.03.16-.19.06-.25.12h-.59c-2.78,0-5.49.06-6.58.47-1.22.47-2,1.12-2.06,1.81-.03.37.12.65,1.03.97l.06.03c1.87.69,3.37,1.43,4.55,2.31,3.81,2.78,5.55,3.24,7.92,3.93.31.09.66.19,1.03.28.78.22,1.34.65,1.62,1.28.62,1.31-.12,2.99-.19,3.06-.03.03-.06.06-.09.06-.41-.06-.84-.09-1.31-.09-.78,0-1.43.09-1.75.12,1.28,1.03,1.09,2.78,1.09,2.81s-.03.06-.03.06h-.06s-.5-.22-3.09-1.06c-.72-.25-1.47-.34-2.31-.34-.72,0-1.43.09-2.09.16-.66.09-1.28.16-1.9.16-.22,0-.41,0-.62-.03-2.22-.22-4.8-.62-7.14-2.81-1.84-1.72-1.84-3.52-1.84-4.49,0-.25,0-.47-.03-.56-.19-.41-1.34-1.28-2.87-1.4-.34-.03-.78-.03-1.25-.03-.84,0-1.68.06-2.15.09.44.12,1.28.34,2.43.47,1.81.19,3.18,1,3.18,1,.03.03.03.06.03.09s-.31,2.53,2,5.3c1.03,1.22,2.56,1.75,3.65,2.15.91.31,1.56.53,1.53,1.03,0,.12-.09.25-.5.25-.09,0-.19,0-.25-.03.31.31.91.87.91,1.22,0,.09-.03.25-.34.25-.19,0-.41-.06-.62-.12.34.31.84.72.87.75l.03.03c.25.62.62,1.34.94,1.9.19.37.37.69.47.94.19.44.97,1.31,1.34,1.68.22-.34.59-.47.91-.47,0-.34.09-.75.44-.9.44-.19.81-.03,1.06.16.19-.25.53-.59.94-.5.44.09.66.41.72.69.25-.09.56-.19.87-.09.5.19.5.72.41,1.03-.41,1.15-1.59,1.75-1.65,1.75h-.03c0,.41-.28.78-.66.87-.06.03-.12.03-.22.03h-.09c-.09.31-.28.84-.62,1.43.12.31.16.59.06.84-.06.16-.16.28-.28.34.22.47.34,1.22-.28,1.78.09.12.22.28.22.5,0,.25-.12.5-.44.69l-.09.06h-.03c-.34-.19-2.12.5-9.39.62M44.49,102.11c.06-.09.12-.16.16-.25.09-.16.16-.25.25-.37l.03-.06s.03-.09.06-.16.03-.09.06-.16c.06-.12.19-.22.28-.28.09-.06.16-.12.19-.22.12-.16.22-.37.31-.56l.06-.12c.25-.47.41-.87.41-1.28.03-.41-.03-.84-.25-1.34-.16-.44-.34-.84-.56-1.25l-.19-.37c-.16-.34-.34-.72-.5-1.09-.22-.5-.37-1-.44-1.47-.09-.56-.19-1.19-.06-1.81.09-.41.25-.72.47-1.03l.09-.19c.12-.19.25-.41.44-.65.16-.19.28-.37.37-.59.16-.28.25-.56.37-.84.06-.16.16-.34.22-.5l.06-.09s.03-.03.03-.06c.03-.03.06-.06.12-.09.09-.03.16-.03.22,0s.06.06.09.09q.03.06.03.09c0,.06.03.09.03.16v.37l-.06.78c-.03.59-.06,1.06-.06,1.47,0,.56.03,1.03.09,1.47.09.56.22.97.41,1.37.16.31.59,1.09,1.12,1.47.19.12.19.16.25.31l.03.06c.06.19.19.34.28.53.09.12.16.28.25.44,0,.03.03.06.06.09.19.37.31.62.37.81.19-.28.37-.53.56-.78.28-.44.56-.9.78-1.37.5-.97.81-1.96.97-2.96.16-1.06.16-2.06,0-3.12-.03-.25-.09-.5-.16-.78-.03-.12-.06-.25-.09-.37-.03-.12-.06-.25-.09-.41-.12-.56-.22-1.09-.25-1.62-.03-.62-.03-1.15.06-1.65.09-.53.25-1.09.5-1.59.19-.41.44-.81.69-1.22l.12-.22c.12-.19.25-.44.37-.69.09-.22.22-.44.37-.72.25-.44.47-.94.62-1.43s.25-1.03.28-1.53c0-.25,0-.53-.03-.78v-.12s0-.09.06-.19c.03-.06.09-.09.12-.09.03-.03.09-.03.09-.03h.06c.06,0,.09.03.12.06l.12.12c.12.12.19.28.25.41.12.25.22.5.28.78.03.12.06.28.09.41v.06c.03.12.06.25.06.37.06.59-.03,1.15-.12,1.65-.03.22-.09.41-.12.62-.06.28-.12.56-.16.84-.03.34-.12.72-.22,1.06-.06.22-.12.44-.16.62-.06.31-.09.56-.12.78s-.03.44-.03.62v.16c-.03.62,0,1.09.06,1.56.06.5.19,1,.37,1.5.16.47.41.9.69,1.4.06.12.12.22.19.34.03-.03.06-.06.06-.09l.41-.56c.25-.37.5-.72.75-1.09.47-.72.97-1.5,1.31-2.28.03-.09.09-.19.09-.28l.09-.31c.03-.06.03-.12.06-.19.03-.12.06-.25.12-.37.03-.09.09-.16.12-.22.06-.09.12-.19.12-.25.03-.09,0-.16,0-.25s-.03-.19,0-.28c.03-.16.06-.34.12-.5.03-.06.03-.12.06-.16.03-.16.03-.41,0-.62,0-.12-.03-.25-.03-.34,0-.41-.03-.84-.09-1.25-.06-.41-.12-.84-.25-1.28-.06-.22-.12-.41-.19-.62s-.12-.47-.19-.69c-.06-.28-.12-.47-.22-.72-.09-.19-.06-.31-.06-.44v-.22c0-.06-.03-.09-.03-.16,0-.09-.03-.19-.03-.31-.03-.44.06-.9.12-1.34.03-.16.03-.31.06-.44.09-.62.22-1.28.41-1.87.31-1.03.72-1.81,1.19-2.5l.19-.28s.09-.06.12-.06c.06,0,.09.06.09.12l.09,2.03v.5c0,.28-.03.53.03.78.09.41.16.81.22,1.22.03.16.06.28.09.41.03.12.06.25.09.37.16.47.37.9.59,1.37l.06.16c.16.34.31.65.47,1,0-.56.03-1.15.12-1.68.06-.28.12-.59.22-.87.09-.28.16-.56.22-.87.03-.25.22-.53.37-.78.09-.16.19-.28.25-.44.09-.19.19-.41.25-.62.25-.78.34-1.65.34-2.71,0-.47-.06-.97-.09-1.47-.03-.44-.06-.9-.09-1.37,0-.41,0-.94.12-1.47.12-.47.22-.9.31-1.37.25-1.28.37-2.43.34-3.49-.03-.56-.06-1.12-.12-1.68l-.06-.69c0-.06.03-.09.06-.12.06-.03.12,0,.16.03l.19.22c.41.5.75,1,1.03,1.5.16.31.31.65.47,1l.03.12c.06.12.09.28.12.44.03.09.03.19,0,.25,0,.09,0,.16.03.22.03.06.06.16.09.22.06.09.09.19.12.31.06.31.12.59.19.9.03.19.06.34.09.53.06.41.12.81.22,1.22.09.53.22,1.03.34,1.5.06-.12.12-.25.19-.34.19-.37.37-.75.53-1.15.28-.75.5-1.53.62-2.43.12-.78.19-1.65.19-2.56,0-.25-.03-.47-.09-.72-.03-.16-.06-.28-.09-.47-.03-.16.03-.31.06-.47.03-.09.06-.19.06-.25.03-.16,0-.34-.03-.53l-.03-.12c-.03-.34-.16-.69-.25-1.03l-.19-.62c-.09-.25-.16-.53-.25-.78-.22-.75-.44-1.65-.56-2.56-.06-.47-.06-.94-.03-1.34.03-.44.16-.87.28-1.31.31-.87.78-1.62,1.25-2.34h0s.12-.22.12-.22c.03-.06.09-.06.12-.06.06,0,.09.06.09.12v.65c.03,1.09.03,2.21.28,3.24.12.59.34,1.15.62,1.68.12.25.28.53.47.78.12.19.28.41.44.59l.12.16c.12.16.25.31.34.47v-.12c-.03-.44-.03-.87-.03-1.34.03-.84.12-1.75.28-2.62.03-.22.09-.44.12-.65s.06-.41.09-.62c.06-.44.09-.84.06-1.25-.03-.81-.19-1.62-.47-2.46-.25-.69-.59-1.43-1.09-2.31l-.41-.65c-.09-.16-.19-.31-.25-.47-.19-.41-.34-.84-.44-1.28-.03-.09-.06-.22-.09-.31-.09-.22-.16-.44-.12-.65,0-.09.03-.12.09-.19.03-.06.06-.09.06-.12,0-.06-.03-.09-.06-.12-.06-.06-.09-.12-.06-.28.03-.12.03-.25.06-.41.03-.19.06-.34.06-.53.03-.47.12-.9.22-1.31.12-.5.25-.9.41-1.28l.16-.37c.03-.06.06-.09.12-.09s.09.06.09.12l.06.41c.06.59.16,1.15.28,1.68.06.25.12.53.22.81.06.25.19.47.34.72.28.5.69.97,1,1.34.19.22.37.44.59.62.06.09.16.16.22.25.09.09.22.22.31.31.06-.28.09-.59.12-.97.03-.53,0-1.09-.09-1.75l-.12-.9c-.03-.31-.06-.62-.09-.9-.06-.59-.09-1.22-.09-1.84,0-.25,0-.47-.03-.72-.66-.81-1.4-1.53-2.18-2.12-1-.75-2.12-1.37-3.4-1.87-.47-.19-.94-.34-1.4-.5-.16-.03-.31-.09-.47-.12-.25-.06-.53-.12-.78-.25-.06-.03-.12-.06-.16-.12-.03-.03-.06-.06-.09-.06-.06-.03-.16-.03-.22,0h-.12c-.06,0-.16,0-.25-.06-.06-.03-.09-.06-.12-.09-.03-.03-.06-.03-.06-.06h0s-.06,0-.12.03c-.09.03-.19.06-.28.03-1.09-.28-2.37-.34-3.59-.34h-.09c-1.28,0-2.56.12-3.81.41-1.22.25-2.43.62-3.78,1.15l-.19.06c-.22.09-.44.16-.62.28-.12.06-.25.09-.37.12-.09.03-.19.03-.28.06-.69.37-1.4.72-2.18,1.09l-.66.31c-.97.47-2,.97-3.03,1.37-.47.19-.91.34-1.31.47-.22.06-.47.12-.72.19-.09.03-.19.06-.28.12-.09.03-.16.09-.28.12-.09.03-.25.03-.37,0h-.16c-.25,0-.62,0-.94.09-.22.06-.41.06-.66.03h-.47c-.09,0-.22,0-.34-.03-.22-.06-.47-.12-.78-.19-.59-.09-1.19-.25-1.84-.47-1.31-.44-2.59-1-3.78-1.53-.53-.25-1.03-.5-1.56-.72-.69-.34-1.4-.65-2.09-1-2-.94-4.68-2.06-7.49-2.62-.37-.06-.75-.12-1.15-.19-.03,0-.06-.03-.09-.06l-.09-.09c-.28-.06-.56-.09-.78-.09h-.59s-.06,0-.09-.03c-.06-.06-.19-.06-.25,0-.03.03-.09.06-.12.03-.03,0-.06-.03-.09-.03l-.53-.06s-.09.03-.12.06-.06.03-.09.03c-1.28,0-2.56.16-3.81.41-1.25.28-2.5.65-3.78,1.19-1.4.56-2.65,1.34-3.65,2.25-.03.03-.06.03-.12.06t-.06.03s-.03.06-.06.09c-.03.03-.03.09-.06.12-.06.09-.12.16-.22.22-.03.03-.09.06-.12.12-.19.22-.37.44-.59.65-.12.16-.28.34-.41.53v.31c0,.84-.12,1.78-.34,2.78-.09.44-.19.87-.34,1.34-.12.44-.22.87-.31,1.31-.19.9-.28,1.81-.34,2.68-.03.94,0,1.84.12,2.65.09.47.19.87.31,1.28.06.22.16.41.25.59.03.09.06.16.12.22.22-.44.44-.87.62-1.34.53-1.28.94-2.68,1.25-4.24.12-.72.25-1.43.34-2.18l.12-1.19c.03-.34.09-.72.25-1.09l.09-.25c.03-.06.06-.09.12-.09s.09.03.12.09l.09.25c.44,1.15.62,2.4.72,3.43.09,1.09.12,2.21.09,3.49-.09,2.09-.34,4.21-.59,6.24l-.09.75c-.12,1.09-.25,2.21-.34,3.34-.06,1.25-.09,2.31.12,3.34.19,1,.53,2.06,1.03,3.18.06.16.09.31.16.44.03.12.06.25.12.37s.16.22.25.34c.09.09.19.22.25.31.16.25.28.47.44.72l.03.03c.03-.12.09-.22.12-.34.09-.25.16-.5.22-.72l.09-.34c.16-.59.28-1.09.34-1.72.12-.84.16-1.56.09-2.21-.03-.84-.09-1.56-.19-2.25-.09-.81-.28-1.53-.5-2.15,0-.03-.03-.03-.03-.06-.03-.03-.06-.09-.06-.16l-.06-.19c-.03-.06,0-.12.03-.16s.12-.03.16,0l.09.06s.03.03.03.03l.19.19c.56.47.94,1.09,1.22,1.59.09.19.19.41.28.59.09.19.16.34.25.5.41.81.62,1.72.78,2.59.06.44.06.87.06,1.28v.09c0,.22,0,.41.03.62s.03.44.03.65c0,.75-.03,1.5-.03,2.25,0,.22-.03.44-.06.65-.03.25-.06.5-.06.72,0,.12.03.25.06.37.03.06.03.12.03.22.03.19.03.37.03.56v.28c0,.16,0,.31.03.47,0,.16.03.31.03.5,0,.25-.03.5-.03.75,0,.12-.03.25-.03.41-.03.22,0,.41.03.59.03.16.03.31.03.5v.12c0,.81,0,1.56.12,2.37.09.62.22,1.22.41,1.78.09.28.19.56.31.87.03.09.06.22.06.31.03.12.03.22.09.31l.12.12c.06.03.12.09.16.16.06.06.09.12.16.22.03.09.09.16.16.22.25.28.53.56.81.81.59.53,1.03,1.03,1.37,1.56.31.53.59,1.12.81,1.87.06.19.12.37.16.59.16-.25.28-.5.37-.72.34-.72.59-1.4.69-2.09.06-.47.09-.97.03-1.5,0-.12-.03-.25-.03-.41l-.03-.22c0-.09-.03-.19-.06-.25-.03-.09-.06-.16-.09-.28v-.44s-.06-.06-.09-.12c-.16-.22-.25-.53-.31-.81-.03-.12-.06-.22-.09-.31-.03-.06-.06-.12-.06-.19-.06-.12-.09-.25-.12-.41-.03-.12-.09-.31-.16-.47-.03-.09-.09-.22-.12-.31-.12-.34-.22-.65-.28-1-.12-.5-.25-1-.34-1.47-.03-.06,0-.16,0-.22v-.12c-.22-1.06-.12-2.09.22-2.96,0-.03.03-.09.09-.22.03-.06.06-.06.12-.09.06,0,.09.03.12.09l.06.22c.06.22.12.44.16.65.03.09.03.22.06.31.09.37.16.65.25.94.09.31.22.59.37.87.09.16.16.28.22.41.09.12.19.25.28.37l.25.31c.31.41.66.81.94,1.25.41.59.72,1.19,1,1.78.5,1.19.78,2.56.75,3.96,0,.34-.03.69-.06,1l-.09.97c-.06.62-.09,1.28-.12,1.93-.03.53-.03,1-.03,1.4,0,.16,0,.28.03.44,0,.25.03.5,0,.75-.03.28.03.62.06.94,0,.12.03.22.03.34.12,1.31.34,2.62.56,3.84l.03.12c.06.37.12.78.22,1.15.03.06.03.16.03.25.03.12.03.25.06.34,0,.03.06.09.09.12.06.06.12.16.12.28,0,.06,0,.16-.03.19,0,.06-.03.09,0,.12,0,.03.03.09.06.12.03.06.09.12.12.22.03.09.03.19.03.25,0,.09.03.19.03.25.03.12.09.25.16.41.03.09.06.16.09.22.19.5.37.97.56,1.43.12.28.25.53.37.78.12-.41.22-.78.31-1.22.31-1.4.44-2.78.37-3.99-.03-.59-.12-1.19-.28-2-.09-.47-.22-.97-.34-1.34-.06-.19-.12-.37-.22-.56-.09-.19-.16-.37-.22-.56-.03-.16-.03-.31-.03-.44v-.28c-.03-.12-.03-.25-.06-.37-.03-.16-.06-.34-.06-.5-.06-.69-.03-1.4.12-2.15l.03-.25c0-.06.03-.09.09-.09s.09,0,.12.06l.12.22c.22.41.37.84.5,1.25l.09.25c.16.5.34.97.59,1.4.22.41.47.84.78,1.34.06.09.12.19.16.25.09.12.19.25.25.41.12.22.25.47.41.72.44.9.81,1.9,1.09,3.03.22,1,.37,2.03.47,3.15.09,1,.09,2.06.06,3.18-.03.53-.03,1.03-.09,1.59l-.06.78c-.03.25-.03.5-.03.75-.03,1.15.12,2.09.47,2.9.19.47.41.87.72,1.25.16.19.31.34.5.5l.09.09.06.06c.09-.19.19-.37.31-.56l.12-.22c.5-.94,1.03-1.9,1.43-2.93.47-1.15.72-2.12.75-3.06.03-.59.03-1.15,0-1.78,0-.5-.03-1,0-1.53.03-.81.09-1.53.25-2.15.16-.69.41-1.22.75-1.84l.12-.28c.16-.28.31-.62.62-.78.03,0,.03-.03.06-.03s.03,0,.06.03.06.06.06.09c0,.19.03.37.03.59.03.41.09.81.03,1.22v.12c0,.09-.03.19-.03.25,0,.12.03.25.03.37.06.28.12.53.19.78.06.22.12.44.19.65.09.31.19.62.25.94.22.9.37,1.62.47,2.31.03.16.03.31.03.47,0,.19.03.37.06.56.09.53-.03,1.09-.09,1.62l-.03.09c-.06.34-.12.65-.19.97-.03.22-.09.44-.12.65-.19.94-.41,2.06-.59,3.24-.19,1.28-.28,2.31-.28,3.24,0,.59.03,1.12.09,1.62.03.12.03.25.06.41.03.12.06.25.12.37.09.28.22.5.34.69.28.41.69.75,1.09.9s.87.19,1.34.03c.44-.12.84-.41,1.15-.78.34-.37.53-.81.56-1.25.03-.47-.09-1-.25-1.47-.09-.37-.25-.72-.34-1.09l-.16-.47c-.31-.97-.66-2.09-.75-3.31-.03-.56-.03-1.12.06-1.72.06-.53.16-1.09.28-1.65.22-1.09.5-2.15.75-3.21.12-.53.25-1.06.34-1.62.03-.25.09-.5.09-.78v-.66c0-.09,0-.19.06-.28.03-.03.06-.09.12-.16.06-.03.12-.06.19-.06.03,0,.06,0,.12.03.09.03.16.09.19.12.09.09.12.19.16.25.09.16.12.31.19.41.09.25.19.53.25.84.12.56.22,1.12.28,1.65.03.28.09.59.12.87,0,.09.03.19.06.31s.06.22.06.34v.25c0,.09-.03.19,0,.28.06.19.09.31.09.53,0,.78.03,1.53.09,2.34v.03c0,.19.03.41.03.59.03.34.03.72.06,1.06.06.62.16,1.12.28,1.56.12.47.34.94.62,1.4.12.22.28.44.41.69.09.12.19.28.28.44,0-.03,0-.06.03-.09.12-.5.28-1,.44-1.47.19-.5.41-1,.66-1.47.13-.16.19-.25.25-.34M47.52,81.74h.03-.03M46.99,82.12l.47.69s.06-.09.09-.16c.03-.12.03-.28-.03-.47-.12,0-.28-.03-.53-.06M46.58,79.06c.09.06.44.12.12.28-.03.03-.16.25-.12.5.03.06.03.09.06.16.06.09.16.16.28.22.25.09.75.03.94-.06-.03-.06-.06-.09-.09-.16l-.47-.12-.16-.03c-.12,0-.09-.25.03-.25l.5-.06c0-.06,0-.12.03-.19l-.97-.75c-.12-.09.03-.28.16-.19l1.03.53.09-.09-.31-1.03c-.09-.25.16-.34.25-.09l.5.94h.16l.19-1.12c.03-.22.28-.22.25.03l.03,1.22.97-.9c.16-.19.41-.03.22.16l-.87,1.12s.09.12.12.16c.25-.16.97-.69,1.25-1.5.03-.06.09-.34-.12-.47-.31-.19-.59-.06-.75.06-.06.06-.16.22-.25.19-.09-.03-.03-.25,0-.34,0-.06-.09-.37-.53-.47-.19-.03-.5.19-.59.37-.03.06-.09.28-.19.28s-.16-.22-.19-.28c-.03-.03-.31-.25-.72-.06-.19.09-.25.41-.22.59.03.06.06.25,0,.31s-.28-.06-.37-.06c-.06-.03-.53.03-.69.47-.19.38.44.66.44.66M39.97,82.21h.5l-.28-.5h-.56l.34.5h0M36.6,78.59c.09.06.22.03.16.12-.03.12-.12.47.03.65.31.37.81.37,1.03.22.09-.12.16-.22.19-.28l-.06-.06-.75.06c-.09,0-.16-.06-.16-.12s.03-.12.09-.16l.59-.19h0c0-.06-.03-.09-.03-.16l-1-.47c-.06-.03-.09-.12-.06-.19s.09-.09.19-.09l.97.28c.03-.06.03-.09.06-.16l.03-.03-.62-.94c-.03-.06-.03-.12.03-.19.06-.03.12-.03.16.03l.78.81c.09-.06.16-.09.25-.09h.06l-.12-1.09c0-.09.03-.16.12-.16.06,0,.12.03.16.09l.31,1.15h.06l.5-.84c.03-.06.12-.09.19-.03.06.03.06.09.06.16l-.34,1,.09.09.81-.22c.06-.03.16.03.16.09.03.06,0,.12-.06.16l-.72.34c.03.06.03.16.03.22l.47.25c.06.03.09.12.06.19-.03.06-.09.06-.12.06l-.5-.09c-.06.09-.09.19-.19.25.03.06.09.16.16.25h.06c.06,0,.72.16.91-.37.09-.25-.16-.41-.12-.62,0-.09.44-.31.31-.75-.09-.28-.41-.37-.66-.41-.03-.47.25-.62-.09-.94-.28-.28-.72.19-.91.03-.22-.16-.28-.56-.66-.5-.41.06-.47.65-.5.69-.06.16-.84-.56-1,.19-.06.31.12.47.12.62,0,.12-.25.09-.44.16-.28.12-.34.5-.22.75.03.13.12.22.12.22M43.9,62.24c.06,0,.09-.03.16-.03.28,0,.53.22.62.5.09.34-.09.72-.44.78-.03,0-.09.03-.12.03-.28,0-.56-.22-.62-.5-.12-.34.09-.69.41-.78M44.09,64.02c.09,0,.16,0,.25-.03.56-.16.94-.75.78-1.34-.12-.5-.56-.84-1.06-.84-.09,0-.19,0-.25.03-.59.16-.94.75-.78,1.34.12.5.56.84,1.06.84M31.08,81.8c1.25-.22,2.15-1.09,2.18-1.12.06-.06.16-.06.25-.03.12.09,2.74,1.84,5.15-.69.03-.03.09-.06.16-.06s.09.03.12.06c.06.06.84,1.06,2.12,1.25.28,0,.56,0,.84.03.56-.06,1.19-.28,1.9-.75.06-.03.16-.03.22,0,.03,0,2.03,1.47,3.78.78h.03c.09-.19.16-.37.22-.53-.25.19-.69.37-1.37.37-.12,0-.28,0-.44-.03-1.22-.12-1.93-.78-2.25-1.12-.37.37-1.31,1.09-2.43,1.03-1.34-.06-2.15-.94-2.47-1.47-.03,0-.06,0-.06.03-.09.03-.16.03-.25.03s-.19-.03-.28-.03c-.19.34-.75,1.15-2.18,1.4-1.47.25-2.53-.41-2.96-.72-.34.37-1.28,1.22-2.53,1.22-.59,0-1.28-.19-2.03-.72h0s-.06,0-.09.03c.06.22.12.44.19.62.62.41,1.25.53,1.78.5.1-.06.25-.06.41-.09M39.19,78.37s0-.03-.03-.06c-.09-.16-.25-.25-.47-.25-.03,0-.09,0-.12.03-.12.03-.25.12-.31.25s-.09.25-.06.41c.06.28.37.47.66.37.28-.06.47-.34.37-.62t-.03-.06v-.06M48.61,79h-.09c-.12.03-.22.09-.25.22-.06.12-.09.25-.03.41.03.16.12.25.22.34h.03s.09.03.12.06c.03,0,.06.03.09.03h.09c.25-.06.37-.34.31-.62-.09-.25-.28-.44-.5-.44M36.76,81.84l.28.5c.19,0,.34-.03.53-.03l-.25-.5c-.22,0-.41,0-.56.03M41,82.21h.5l-.28-.53h-.53l.31.53ZM38.69,81.74l.22.47v.03h.5l-.34-.5v-.03c-.09,0-.25.03-.37.03M42.81,81.77l.34.53c.16,0,.28.03.44.03l-.34-.53c-.16-.03-.28-.03-.44-.03M37.82,81.77l.25.5h.37l-.25-.5h-.37M44.15,82.37c.12,0,.25.03.41.03l-.37-.56c-.12,0-.25-.03-.37-.03l.34.56ZM41.78,81.74l.28.5c.19,0,.34,0,.5.03l-.31-.47s0-.03-.03-.03c-.12-.03-.28-.03-.44-.03M45.65,82.55l-.37-.59c-.16,0-.34-.03-.53-.03l.37.56c.19,0,.37.03.53.06M43.87,80.87c-.28.19-.56.34-.81.44.09,0,.19,0,.28.03h.12c.53.03,1.06.06,1.5.12-.53-.22-.91-.47-1.09-.59"/>
</svg>