<?xml version="1.0" encoding="UTF-8"?>
<svg id="Layer_1" data-name="Layer 1" xmlns="http://www.w3.org/2000/svg" viewBox="0 0 136.96 102.07">
  <defs>
    <style>
      .cls-1 {
        fill: #1C1C1C;
        stroke-width: 0px;
      }
    </style>
  </defs>
  <path class="cls-1" d="M98.34,33.48h-.31c.37.53,1.12,1.56,1.93,1.43.16-.03.28-.12.41-.28v-.22c.16-.59.19-1.19.06-1.65-.56.41-1.25.66-2.09.72M78.43,39.47c-.59.47-1.78.37-2.59.59-.25.06-.44.28-.65.31-.78.19-1.56,0-2.21.12-.5.09-1.22.5-1.84.81-1.47.75-3.09,1.68-3.62,3.34-.69,2.09.19,5.15-.81,7.71,2.25-1.62,5.8-.84,8.33-1.96,1.34-.59,2.25-1.43,3.24-2.34.62-2.87-.78-5.8.22-8.52,0-.03,0-.06-.06-.06M105.2,37.45c.12-.41.12-.84,0-1.25-.16-.47-.37-.87-.65-1.25-.09.06-.19.09-.28.16-.59.47-1.4.75-2.43.84.56,1,1.97,1.59,3.37,1.5M18.62,33.61c2.59.62,5.65.72,8.3.28.65-1.9.94-4.27,1.93-5.93,0-.06,0-.12-.06-.12-4.15,1.9-8.55,3.52-13.7,4.27,1.06.59,2.18,1.12,3.46,1.5.03-.03.06,0,.06,0M6.49,40.97c2.87,1.19,5.93,1.96,9.58,2.15,1.22-2.5,2.59-5.02,4.52-6.65.19-.16.5-.31.78-.5.22-.16.65-.47.53-.56-2.15,1.12-4.71,1.43-6.83,2.4-.28.12-.59.19-.9.31-.03,0-.06.03-.09.06-.28.12-.5.41-.78.53-1.65.72-3.37,1.19-5.21,1.4-.59.06-1.25.28-1.81.5.22,0,.37.03.47.16-.22-.09-.22.03-.25.19M59.34,22.1c-.12.09-.44.28-.19.47.03-.16.34-.31.19-.47M131.25,19.2c-.97-1.68-2.78-3.03-4.62-4.18-.5-.31-1.09-.69-1.53-.84-1.5-.5-3.28-.47-4.8-.47-2.37,0-4.68.56-6.86.69.25-.53,1.09-.62,1.65-.81,1.84-.65,4.59-1.34,6.77-1.28,2.74.06,5.27,1.53,6.99,2.99.28.25.65.44.84.62.53.53.87,1.4,1.37,1.96.16.16.37.22.5.37.28.37.31.94.62,1.28-.56,0-.34-.62-.93-.34M127.57,23.75c-3.15,0-4.99-1.53-6.71-2.93-.41-.34-.87-.62-1.28-.97-.81-.62-1.68-1.47-2.59-1.9-1.09-.53-2.5-.81-3.71-1-2.09-.31-4.12.44-6.18.59.16-.5.81-.59,1.25-.78,1.87-.72,4.65-1.75,7.46-1,.87.22,1.97.75,2.84,1.19,1.34.69,2.25,1.56,3.43,2.59,1.06.94,1.68,1.84,2.84,2.68.34.25.78.56,1.06.65,1.65.53,3.12-.28,4.46-.09-.53.72-1.75.97-2.87.97M93.66,36.29c.72.25.94.97,1.28,1.53,2.87,1.22,5.58,2.68,8.64,3.84,1.5.56,2.96,1.15,4.34,1.93,1.81,1.03,3.21,2.43,5.62,2.53.28,0,.75-.28.9.16-.19.47-.81.28-1.25.34s-.94.31-1.34.25c-.47-.06-1.75-.94-2.25-1.25-1.59-.9-2.99-1.37-4.71-2.25-.75-.37-1.47-.81-2.21-1.19-1.62-.78-3.49-.87-4.9-1.9-1.25-.28-2.15-.87-3.31-1.22-.19-.37.06-.59-.03-.9-.16-.65-1.16-.9-.78-1.87M83.77,24.41c-.56-.31-1.5-.56-2.53-.53-2.46.06-4.87,1.65-7.33,2.09-2.46.41-4.84-.41-6.55-1.25-2.18-1.09-3.9-2.68-5.71-4.18-.47-.37-.87-.78-1.34-1.12-.69-.53-1.5-.81-2.03-1.53-1.19-.97-4.4-1.28-4.9-2.96-.12-.44,0-.9-.22-1.37.41-1.87,2.46-1.72,4.55-2.03,1.78-.28,3.31-.69,4.43-1.62-.56-.62-1.56-.81-1.84-1.68,4.06,1,7.27-2.09,10.89-2.56,1.37-.19,2.34.31,3.49.69-.31-1.09.03-2.59,1.19-2.78.44.22-.12.59-.06,1.12.06.5,1.12,1.15,1.65,1.56,1.25.9,2.06,1.47,3.09,2.59.44.47.97.87,1.22,1.25.34.5.53,1.15.81,1.56.25.44.78.69.94,1.22-.56,0-.9-.53-1.25-.81-.97-.94-1.81-2.15-2.93-3.06-2.9-2.31-8.45-2.09-11.45-.44-1.09.59-2.28,1.4-3.46,2.09-.37.22-.72.53-1.06.72-2.46,1.34-5.96,1.65-9.02,2.25-.59.37-.47,1.28.03,1.65,3.09.59,5.33,1.87,7.39,3.43.81.62,1.5,1.22,2.28,1.87,1.4,1.12,2.9,2.46,4.84,3.18,3.21,1.22,7.11-.22,9.89-.9.78-.19,2.09-.47,3.21-.22.37.09,1,.47,1.34.72.37.25.81.69,1.22,1s.94.75.87,1.22c-.81-.03-1.06-.84-1.65-1.15M81.52,27.56c-.53.84-2.25,1.75-3.68,1.84-.78.03-1.87.03-2.31-.65.09-.28.31-.06.59-.09.22,0,.19-.28.44-.28.28-.03.62,0,.94-.06,1.19-.28,2.71-1.75,3.03-2.81.12-.37,0-.81.34-1.12.78.72,1.37,2.03.65,3.18M64.77,18.82c-.9-.09-1.19-1.78-.37-1.96.87-.22,1.4.72,2.03.97.22-.06.19-.41.37-.53,2.46-1.25,5.15.97,6.33,2.31,2.15-.59,4.68-1.81,7.49-1.34.97.16,1.87.56,2.62,1,.69.44,1.59.9,1.84,1.75-1.4-.34-2.34-1.4-3.93-1.56-3.18-.31-6.21,1.03-8.55,1.9-1.03-.94-2.46-3.4-4.43-3.28-.69.03-.81.78-.81,1.56-.37.06-.44-.41-.69-.62-.47-.44-1.15-.81-1.87-.84-.28.19.31.44-.03.65M84.36,12.58c.37.03.25.53.5.69,3.12-.69,7.21.59,7.89,3.4.47,1.93-1.06,3.4-3.15,3.12-.03-.16-.09-.31-.16-.47,1.72-.62.59-3.65-.37-4.52-1.06-.97-2.56-1.12-3.9-1.06.31.53.65,1.15,1.28,1.59.69.53,1.97.47,2.12,1.47-.69.16-1.19-.41-1.72-.56-.69-.19-1.5-.22-2.15-.22-1.4-.03-2.9-.16-4.02-.9-.94-.62-1.22-1.65-2.59-1.72.22,1.22,1.03,1.84,1.43,2.84-.78-.28-1.31-1.03-2.15-1.4-1.59-.72-3.59-.84-4.9-1.9.28,1.37,1.53,1.81,2.18,2.84-.41.06-.65-.34-1.03-.53-1.37-.72-3.34-1.19-5.12-.9.65.53,1.84.53,2.21,1.28-.69-.03-1.56-.37-2.37-.41-1.22-.03-2.59.47-3.77.25-.59-.12-1.37-.44-1.81-.75-.34-.22-.9-.69-.81-1.22,1.06.78,2.65.9,4.21.69-.25-.75-1.25-1.56-1.09-2.65.41.06.44.47.65.69,1.37.84,3.52.97,5.33,1.37-.5-.87-.53-2.78.44-3.46.9,1.87,2.93,2.75,5.3,3.28-.03-1.62.65-2.4,1.31-3.25h.19c.5,1.15,1.31,2.28,2.28,3.18,1.06.97,2.65,1.5,4.68,1.59-.21-.78-1.24-1.37-.9-2.34M131.88,10.93c.12,1.03.97,1.4,1.53,2.03.62-.53,2.5-.72,2.93.19-.5.12-1.75.22-1.56,1.06.09.37.65.16.78.62-.37.53-1.34.41-1.9.75-.53-.75-1.06-1.4-1.65-2.03-.94-1-2.09-1.65-3.37-2.28-1.37-.65-2.81-1.22-4.55-1.47-1.75-.25-3.68-.03-5.3.22-.94.16-1.93.19-2.68.41-.84.22-1.62.65-2.43.94-1.78.65-3.18,1.03-4.71,1.9-1.47.84-2.74,1.62-3.96,2.59-.47.41-1.03.65-1.43,1-.09.06-.34.22-.25.41.72.03,1.65-.65,2.03.09-.41.34-1.06.16-1.53.22-1.59.25-3.21,1.06-4.55,1.75-1.37.72-2.62,1.65-3.93,2.46-1.34.84-2.56,1.84-3.71,2.78-.25.62-.78.81-1.15,1.25-1.03,1.19-1.96,2.78-2.46,4.37-.22.75-.25,1.62-.53,2.53-.09.31-.41.81-.62,1.22-.22.37-.5,1.03-.9.72.81-1.28,1.37-2.81,1.62-4.77.22-2.03,1.15-3.43,2.12-4.74.94-1.25,1.81-2.28,2.93-3.18,1.15-.9,2.4-1.56,3.68-2.25.62-.34,1.34-.69,2.03-.97,1.31-.56,2.53-.84,3.18-2.03-2.71-.19-3.93-1.62-5.68-2.93-1.28-.97-2.59-2.09-4.24-2.4-.87-.16-1.96.16-2.96-.03-.09-.31.34-.22.47-.28.62-.22,1.31-.44,2.06-.56,2.74-.41,5.3-.87,7.99-1.22.59-.06,1.19-.28,1.68-.28,1.15.03,2.18-.37,3.37-.5,1.09-.12,2.25.03,3.28-.31.37-1.06-.16-1.9-.72-2.4-.53-.5-1.4-.87-2.21-1-2.9-.44-6.24.87-8.58,1.56-1.34.37-2.53,1.09-3.93.81-.44-.09-1.19-.37-1.19-.78.53-.03,1.28.34,1.78.25,1.72-.28,2.96-1.15,4.37-2,1.25-.72,2.56-1.12,3.68-1.72-2.31-1.65-6.27-1.25-9.02-.78-1.78.28-3.4.37-5.21.06-.5-.09-1.47-.28-1.47-.84,2.21.22,4.18.03,5.55-.75-1.56-.31-3.12-.37-4.9-.47-.78-.03-1.65-.22-2.31-.09-.41.06-.87.44-1.31.59-3.99,1.4-8.05,3.34-13.79,2.59-2.18-.28-4.06-.62-6.21-1.25.06.5.59.72.94,1.06.78.81,1.62,1.68,2.74,2.15.34.12.94.06,1.03.53-1.59.47-3.62.87-5.21,1.12-.5.06-1,.25-1.47.28-.41.03-.81-.06-1.22,0-1.81.25-3.71.72-5.62.9-1.28.12-2.5-.16-3.84,0,1.37.94,3.24,1.62,5.24,1.9.37.06,1-.12,1.09.34-.62.44-1.43.53-2.18.78-.87.28-1.72.65-2.59.81-.94.25-1.87.59-2.87.9-.78.31-1.59.56-2.4.78-.75.22-1.5.44-2.25.59-1.19.25-2.43.59-3.59.72-.56.06-1.03-.06-1.47.28,2.03,1.28,5.4,1.56,7.92,1.87.84.09,1.78-.16,2.43.06.44-.97,1.37-1.81,1.96-2.62.19-.25.44-.94.9-.44-.28.28-.12,1.06,0,1.37-.25.37-.65.59-.97.97-1,1.25-1.4,2.81-2.06,4.4-.22.53-.59.94-.59,1.34,2.59.16,4.55.94,7.02.87,1.31-.28,2.56-.59,3.74-1,.19-.44.78-.47,1.12-.72.25-.19.41-.72.78-.56.41.37-.09.69-.28.87-.69.75-1.47,1.72-1.65,2.93-.22,1.4.09,2.31.25,3.15.03.16-.06.31-.03.47.12.78.59,1.59.59,2.21,0,.75-.34,1.47-.56,2.03.72-.19,1.28-.78,2.12-.97,1.68-.37,3.74-.09,5.43-.5.47-.12.81-.47,1.31-.41,1.03-.84,1.87-1.9,3.03-2.65,0,.59-.47.78-.69,1.15-.78,1.22-1.12,2.96-1.03,5.05.06,1.31.65,2.68.69,3.84.06,1.28-.44,1.93-.65,2.68.44-.34,1-.56,1.43-.87.94-.19,1.96-.41,3.06-.56,3.12-.47,6.11-1.15,6.61-4.18.31,1.03.62,2.21.19,3.56-.19.62-.69,1.22-.84,1.78-.22.75-.06,1.84.06,2.78.09.9.37,1.84.34,2.74-.06,1.62-.31,2.74-.72,4.06,1.87-1.84,4.9-1.87,7.11-3.21.37-.22.87-.65,1.31-1,.81-.65,1.62-1.56,1.93-2.62.16-.56-.06-1.56.53-1.68.59,1.43-.12,3.28-.72,4.27-.97,1.68-2.84,2.9-4.52,3.52-1,2.81-1.15,7.08-.56,9.86.12.62.12,1.37.56,1.75.44-2.25,1.31-4.06,2.15-6.12.65-1.62,1.62-3.21,2.68-4.43,2.28-2.56,4.93-4.87,8.7-5.15,1.43-.12,2.71.09,3.84.53,1.47.47,2.96,1.31,3.9,2.53.03.03.09.06.12.12.06.12.12.25.19.37.06.09.12.16.16.25,0,0,0,.03.03.06.41.69.87,1.34.78,2.28.97-.44,2.43,0,3.49-.31.65-.19,1.62-1.09,1.72-1.81.03-.44-.28-.62-.03-.97,1.09.69,1.22,2.71.56,3.99-.34.69-1.06,1.09-1.12,1.78.65-.53,1.4-.94,2.21-1.31,2.43-1.12,4.8-4.49,3.9-7.92-.87-.44-1.78-.34-2.62-.72-.41-.19-.78-.56-1.19-.75-.47-.22-.9-.59-1.31-.72-.28-.09-.62-.03-.9-.09-.31-.06-.72-.25-1.03-.41-1.53-.69-2.74-1.34-4.21-1.96-3.24-1.43-6.43-3.09-9.36-4.77-.59-.81-1.43-1.4-2.15-2.12-.12-.19-.25-.41-.37-.59-.25-.19-.47-.41-.65-.65-.09-.06-.19-.12-.31-.19-.25,1.53.28,2.53.72,3.28.12.22.16.5.25.65.22.37.9.53.75,1.09-.47-.03-.81-.53-1.25-.9-.37-.31-1-.69-1.22-1.06-.16-.28-.16-.75-.34-1.19-.25-.62-.65-1.03-.56-1.87-2.06,1.28-1.72,5.18-2.09,7.64-.59-.34-.34-.78-.34-1.37,0-.9-.44-2.12-.87-2.65-.12-.16-.34-.19-.37-.37-.03-.12.16-.44.03-.53.09-.16.37-.12.47-.28,2.06-3.52,4.68-6.86,7.36-9.89,1.31-1.5,2.99-2.59,5.02-3.43,1.4-.59,2.96-1.22,4.71-1.5.47-.06,1.34-.34,1.65.31-.97.16-1.9.31-2.53.81,3.12.22,5.37,1.12,7.96,2.21,2.06.87,4.18,1.56,6.21,2.25,1.37.47,2.62,1,4.18,1.22,3.43.44,5.68-.69,7.21-2.68.37-.5.9-1.65.75-2.34,1.75-.94,2.87-2.87,2.87-5.55.19-.16.41.12.53-.09.9-1.22,1.62-2.71,1.78-4.77-1.62-.06-3.4.25-5.08.28M106.04,9.84c-1.93.06-4.3.12-5.9.78,1.93.41,3.62,1,5.3,1.62.65-.31,1.09-1.65.59-2.4M109.22,7.56c-.03.47-.28.81-.16,1.19.12.41,1.09.9,1.56,1.03.41.09.9-.16,1.09.28-.84.59-2.15.19-2.9-.16-.44-.19-.75-.5-.97-.47.19,1.53-.37,2.56-.84,3.28.09.06.25.06.22.25,2.21-.9,4.21-2.12,6.46-3.06,1.9-.81,4.02-1.03,6.33-1.47-1.75-.31-3.59-.16-5.15,0-.62.06-1.62.31-2.03.19-.41-.09-.97-1.03-1.34-1.5-.72-.87-1.4-1.56-2.15-2.37-.62-.69-1.03-1.19-2.21-1.12,1.12.93,2.22,2.09,2.09,3.93M94,10.9c1.93.97,4.02,3.25,6.18,4.37.47.25,1.09.44,1.56.5,1.37.12,1.9-.53,2.78-1.12.5-.34,1.06-.5,1.37-1-3.59-1.15-7.24-3.43-11.89-2.75M111.1,37.6c-.41.03-.78.06-1.12.16-.56.37-1.19.75-1.9,1-.12.09-.25.22-.37.34.78.72,2.03,1.09,3.43,1.06.37-.78.15-1.9-.03-2.56M116.93,26.93c.34.03.65.34.97.34.53,0,.9-.47,1.4-.41-.19-.5-.59-.84-1.12-1.06-.81.19-1.47-.19-2.25-.47-1.62-.59-3.06-1.34-4.62-1.87-2.28-.75-4.34-2-6.74-1.96h-.06c-1.47.09-2.93.81-3.99,1.28,1.72.34,2.62,1.43,2.99,3.06,1.43-.65,2.99-1.47,4.93-.9.37.09.97.47,1.31.72.28.19.41.47.72.5.41.06.81-.22,1.19-.25,1.43-.09,2.5.75,3.18,1.4.69-.22,1.34-.5,2.09-.37M107.04,29.46s.06-.03.06-.06c.06-.06.09-.16.16-.22.03-.03.03-.06.06-.12.12-.22.25-.47.41-.65.12-.16.28-.34.41-.5.22-.31.41-.65.53-1.03-.59-1.12-3.28-1.25-4.12-.31.37,1.43,1.28,2.31,2.5,2.9M100.71,27.84c.06-.09.12-.19.22-.28.03-.03.06-.06.12-.09.41-.47.84-.87,1.31-1.28-.12-1.56-2.03-2.59-3.59-1.78-.75,1.78.28,3.49,1.37,4.27.09-.16.22-.31.31-.47.03-.06.06-.09.09-.16.06-.09.13-.15.16-.22M113,29.34c.06,0,.09,0,.16-.03.03-.03.06-.06.09-.12.25-.37.56-.81.94-1.15-.56-.53-1.34-.84-2.34-.94.16.44.59,2.25,1.15,2.25M124.79,30.96c-.09.41-.31.75-.47,1.09-.09.19-.16.37-.25.53-.06.12-.06.28-.09.41.69-.28,1.34-.78,2-1.5.47-.53.87-1.19,1.25-1.93.22-.56.37-1.19.41-1.87-.81.03-1.62,0-2.37.06-.25,1.12-.22,2.25-.47,3.21M119.46,30.58c.31-.12.84-.41,1.4-.75.22-.12.44-.31.65-.5.34-.59.84-1.12.75-2-1.5-.25-2.84.22-3.96.59.56.65.65,1.75.84,2.74.09-.03.19-.03.31-.09M57.34,24.03h-.06c-1.31.25-3.09.09-4.87-.06-.97.53-1.87,1.31-2.43,2.31-.44.78-.84,1.9-.94,2.96-.06.94.09,1.93.09,2.9,0,1.37-.34,2.59-.75,3.74,2-1.15,5.21-.72,7.27-1.62.59-.25,2.03-1.31,2.28-1.84.47-.97.25-2.74,0-3.96-.22-1.09-.59-2.06-.62-3.06,0-.53.22-.84.03-1.37M26.08,35.86c.25-.41.59-.84.47-1.22h-.06c-.65.37-1.4.47-2,.78s-1.09.97-1.68,1.34c-.44.28-.97.41-1.37.72-1.96,1.37-2.62,4.18-3.93,6.27-.19.28-.44.5-.62.75-.16.22-.41.44-.37.75,2.28-.44,5.4.72,7.42-.19.31-3.09,1.28-5.46,2.93-7.02-1.15-.22-2.06.97-2.81.41,1-.53,1.43-1.62,2.03-2.59M21.03,52.3c.25-.5.9-.84,1-1.31-.41.09-.78.22-1.22.25,0-.19-.16-.25-.28-.31,1.4-.87,2.18-2.46,2.87-4.18-3.4-.03-8.55-1.43-10.05,1.4-.25-1.03.34-2.21,1-2.78-3.52.87-3.52,5.74-4.96,8.99,1.28-.22,2.87.06,4.21.16,3.15.19,5.56-.81,7.43-2.22M13.13,44.19c-.69-.19-1.59-.19-2.25-.41-3.03,2.74-6.43,5.37-10.89,6.3,1.84,1.78,4.77,2.53,8.39,2.65.16-.69.56-1.34.5-2.06.47-1.28.75-2.46,1.37-3.49.75-1.25,1.84-2.09,2.87-2.99M19.97,56.63c0-.65.19-1.59-.03-1.78-1.9,1.03-4.8,1.31-7.67.87-2.34.81-1.4,4.55-1.72,7.27,1.68-1,4.24-.56,6.27-1.19.69-.22,1.53-.62,2.03-.97.34-.25,1-.81,1.15-1.25.22-.69,0-1.81-.03-2.96M42.18,62.66c1.12-2.93-.97-5.77-.25-8.83h-.12c-1.12.75-2.99.94-4.46,1.43-1.03.34-2.21.84-2.96,1.4-.78.59-1.9,1.96-2.12,3.09-.44,2.4.06,5.4-.87,7.83,2.34-1.53,6.08-.97,8.52-2.43.44-.28,1-.75,1.34-1.12.28-.31.78-.88.94-1.37M40.09,67.02s0-.06-.06-.06c-.31.16-.69.34-1.06.44-1.37.31-3.21.28-4.55.56-1.09.22-1.68,1-2.46,1.65-.59.5-1.22,1.06-1.53,1.59-1.56,2.74.72,6.12-.5,9.45,1.65-.81,4.15-.5,5.96-.97,1.06-.28,1.84-1,2.53-1.65.62-.59,1.47-1.37,1.62-2.28.47-2.72-1.25-5.81.06-8.74M29.64,60.88c-2.53.78-7.14.62-8.74,2.37-1.75,1.9-.53,5.62-.81,8.74,1.59-.65,3.49-.53,5.15-.87,1.53-.34,3.24-1,4.02-2.12,1.37-1.93.97-5.55,1.25-8.52-.28.09-.56.31-.87.4M52.88,74.79c-.94,1.12-2.46,1.65-3.99,2.06-1.43.37-3.28.31-4.49.78-2.06.81-3.43,3.31-3.34,5.99.06,1.59.78,2.99.47,4.99,1.78-.5,4.15-.06,5.9-.59.47-.16,1.12-.5,1.65-.81,1.93-1.09,3.87-3.09,3.96-5.74.09-2.12-1.15-4.56-.16-6.68M56.91,35.2c-.53.12-.62.41-1,.53-.47.16-1,.09-1.53.16-.56.09-1.12.16-1.62.22-1.56.16-2.59.56-3.59,1.19-.97.59-2.12,1.5-2.43,2.56-.41,1.37-.56,2.93-.5,4.3.09,1.72.5,4.06-.31,5.43,1.34-1,3.12-1.19,4.77-1.62,1.56-.41,3.18-1.25,4.27-2.15.44-.37,1.28-1.47,1.5-2.06.56-1.65-.28-3.77-.28-5.59,0-1.03.37-1.93.78-2.87-.03-.03-.03-.09-.06-.09M54.04,51.92c-.03-1.5.47-2.84.75-3.87,0-.03,0-.06-.06-.06-.03.09-.09.09-.12.16-.78.09-1.43.65-2.12.84-1.37.34-2.56.31-3.62.53-1,.22-2,.78-2.84,1.4-1.4,1.03-2.74,2.71-2.68,5.21.03,1.28.62,2.56.69,3.93.03,1-.22,1.84-.53,2.74,1.62-1.37,4.93-1.06,7.18-1.96.59-.22,1-.65,1.56-.87.87-.94,1.72-2.18,1.93-3.93.12-1.31-.09-2.71-.13-4.12M45.33,23.28c1.25-1.34,1.75-3.49,2.78-5.15-.09,0-.12-.03-.16-.06-.53.41-1.84.41-2.74.41-.72,0-1.37-.31-2.03-.16-.69.19-1.68,1.12-2.09,1.68-.9,1.25-1.84,3.31-2.03,4.93-.09.9,0,1.81-.16,2.4-.09.34-.47.56-.44.94,2.09-.31,4.18.59,6.15.28.59-.09,1.31-.28,1.87-.5.59-.25,1.53-.72,1.9-1.22.31-.41.37-.97.65-1.4.44-.69,1.15-1.03,1.4-1.78-1.62-.28-3.34-.28-4.65.12-.41.12-.81.62-1.15.19-.03-.38.47-.47.69-.69M115.75,39.69c-.12-.19-.25-.34-.44-.5,0,0-.03-.03-.06-.03-.22-.03-.44.16-.65.41-.06.06-.12.16-.19.25-.41.56-.75,1.31-1.03,1.53.44.44,1.09.9,1.93.81.44-.35.69-1.72.44-2.47M35.07,42.5c-.47.16-1,.12-1.47.28-.37.12-.84.65-1.15.19,1.12-1.34,2.74-2.4,2.9-5.02h-.12c-.72.19-1.37.53-2.18.56-.69.03-1.47,0-2.18-.09-.34-.06-.65-.22-.97-.16-.19.03-.44.25-.72.37-1.03.5-1.84,1.03-2.4,1.9-1.06,1.65-.9,3.9-1.31,6.15-.44,1-.9,1.97-1.47,2.84,1.28-.06,2.43.25,3.59.28,2.09.06,3.68-.94,5.08-1.84.16-2.25,1.09-3.84,2.15-4.99.03-.12.28-.31.25-.47M31.7,56.32c1.06-1.09,1.31-4.65.84-6.05-1.65.75-3.56.84-5.43.75-.65-.03-1.5-.25-2.09-.16-.47.06-1.28.65-1.56.87-.9.75-2,2.59-2.09,4.09-.12,1.72.62,3.37.06,5.02.97-.75,2.46-.47,3.81-.59,1.56-.16,2.99-.53,4.18-1.22.87-.53,1.68-1.09,2.4-1.72.19-.16.5-.41.5-.69-.37.09-.9.37-1.28.28.03-.41.41-.34.66-.59M37.91,24.09c.28-2.74,1.72-4.52,2.9-6.08-2.4,1.43-4.9,2.93-7.71,3.96-1.9.69-3.96,1.09-5.93,1.78,3.43,1.31,7.3,1.03,10.73.34M37.38,25.81c-.06,0-.06-.06-.12-.06-2.68.47-4.37-.09-5.93,1.31-1,.94-1.93,2.59-2.28,4.15-.22,1.03-.16,2.15-.5,3.24-.12.37-.34.75-.5,1.09-.16.37-.41.72-.56,1.09,2.5-.41,6.68,1.53,7.96-.5.25-.37.41-.87.47-1.53.72-2.31,2.31-3.65,3.84-5.09-.72-.03-1.34-.19-2.03-.16-.78.06-1.56.75-1.96.16.66-1.06,2.03-2.12,1.62-3.71M51.16,73.98c.34-.25.81-.69,1.03-1.09.94-1.68-.16-3.49-.59-4.84-.56-1.72-.94-3.87-.09-5.8,0-.03,0-.06-.06-.06,0,.06-.06.06-.12.06-2.03.94-4.43.9-6.27,1.78-1.28.59-2.81,2.09-3.34,3.4-1.34,3.21.56,6.21.16,9.61,2.15-1.96,6.86-1.22,9.3-3.06M58.84,70.21c1.12-.37,2.53-.81,3.21-1.56.5-.59.97-2.25,1.06-3.09.28-2.46-1.09-4.99-.34-7.83,0-.03,0-.06-.06-.06-.41.16-1.06.41-1.53.47-2.15.22-4.27.16-5.74,1.37-1.31,1.12-2.71,3.31-2.74,5.8-.06,2.93,2.25,4.4,1.56,7.58,1.09-1.25,2.68-2.03,4.59-2.68M58.87,83.34h-.12c-1.09.37-2.15.69-3.06,1.22-1.43.81-2.43,1.56-3.09,3.12-.22.5-.53,1-.65,1.43-.28,1.03-.22,2.59-.09,3.62.34,3.28,1.75,6.77,3.24,9.02.06.06.06.37.28.31-.16-3.06.78-5.21,1.78-7.3.37-.75.81-1.65,1.37-2.4.44-.59,1.62-1.59,1.65-2.15.03-.34-.37-1.06-.5-1.5-.56-1.75-.69-3.34-.81-5.37M42.71,51.27c.59-.53,1.31-1.28,1.65-2.12.84-2.09.06-4.52.37-6.96.06-.53.28-1.09.06-1.4h-.06c-.59.31-1.25.56-1.9.81-.59.22-1.19.5-1.78.62-.78.19-1.65.09-2.5.25-1.12.22-2.31,1.09-2.99,1.87-.72.84-1.22,2.06-1.37,3.37-.28,2.37.62,5.21-.59,7.68,2.75-1.84,6.71-1.97,9.11-4.12M119.52,40.25l-.12.12c-.65.62-1.43,1.09-2.43,1.34-.9,1.25.69,2.03,2.12,2,1.56-1.53,2.87-3.4,3.18-6.36-.25.03-.47.16-.69.34-.65.9-1.28,1.81-2.06,2.56M64.89,44.4c-1.62.65-3.49.34-4.84.84-2.78.97-4.46,3.18-4.55,6.9-.03,1.78.62,3.65-.09,5.55.87-.44,1.72-.94,2.9-1.09,1.53-.22,3.62-.12,4.62-.84.41-.28.81-.9,1.15-1.37.41-.5.78-1,1.06-1.56.56-1.19,1-2.9.9-4.4-.09-1.4-.41-3.28.16-4.68-.47.16-.87.47-1.31.66M67.48,32.14c-2,.69-4.9.09-6.55,1-.44.25-1.15.84-1.56,1.28-.37.37-.56.84-.81,1.37-.19.44-.53.87-.62,1.22-.72,2.31.59,5.46-.5,8.08,1.96-1.9,5.9-1.28,8.17-2.46,1.65-.87,2.93-2.71,2.74-5.49-.12-1.59-.97-3.09-.87-4.99M73.41,64.28c1.22-1.03,2.34-2.31,2.46-4.55-1.96.22-3.28,1.22-4.4,2.28-.28.25-.47.9-.97.72-.31-.65.31-1.12.47-1.56,1.03-2.62-.22-5.59.28-8.39-1.37,0-2.71.37-3.71.94-.59.34-1.65,1.22-2.06,1.68-.78.94-1.22,2.5-1.34,3.77-.28,2.84,1.06,5.77.12,8.42,1.43-1.31,3.96-1.15,6.05-1.72,1.19-.34,2.25-.87,3.09-1.59M61.05,82.5c-.47,4.06.94,6.8,2.31,9.33.12-5.65,2.31-9.02,4.55-12.26-.25-.53-.34-1.19-.62-1.68-1.56,2.15-3.65,3.65-6.24,4.62M66.86,68.18c-1.03.34-2.28.72-3.24,1.31-.41.25-.72.72-1.15,1-.94.65-2.15,1.22-3.21,1.62-1.03.41-2.53.78-3.31,1.5-.78.69-1.28,2-1.4,3.06-.28,2.09,1.09,4.21.31,6.24,1.34-.87,2.99-1.28,4.59-1.75,1.56-.44,3.09-1.09,4.27-2,1.06-.78,2.84-2.68,3.06-4.3.09-.87-.16-2.09-.09-3.24.06-1.12.22-2.46.28-3.43-.03,0-.03-.03-.09,0M82.55,56.35c-1.25,1.28-2.74,2.25-4.59,2.81-.28,1.53-.84,3.06-.9,4.71-.12,2.43.94,4.71,1.56,6.52.09-4.24,1.22-6.96,2.93-9.33.28-.41,1.22-1.53,1.31-1.9.06-.25-.09-.69-.12-1.12-.06-.69.03-1.44-.19-1.68M68.98,67.87c-.9,5.09-.09,10.2,1.65,13.7.25-6.08,2.56-10.36,5.33-13.82-.34-.9-.31-2.12-.62-3.06-1.81,1.4-3.65,2.78-6.36,3.18M78.93,52.58c-.06.34.25.65-.09.87-.81-.59-.75-2.03-1.03-3.12-1.22.9-2.4,1.81-4.21,2.06-1.56,1.5-.37,4.21-.47,6.43,2.9-1.22,6.36-1.15,8.27-3.46,1.09-1.31,1.47-3.24,1.81-5.52h-.12c-1.34.31-3.9,1.5-4.15,2.74M47.67,29.09c-.97.47-2.81,1-4.12,1-.5,0-1.03-.22-1.62-.12-.59.09-1.09.69-1.5,1-.44.37-1.06.69-1.37,1.12-.22.28-.41.75-.62,1.15-.22.37-.47.81-.62,1.22-.81,2.03-.72,4.93-1.87,6.49,1.09-.28,2.46.09,3.71,0,.78-.06,1.5-.59,2.09-.31,1.09-.41,2.12-.97,3.09-1.75.69-.56,2-1.78,2.31-2.62.12-.31.09-.69.16-1.06.09-.44.34-.81.41-1.22.22-1.5-.19-3.15,0-4.8.03-.09,0-.12-.03-.09"/>
</svg>