<?xml version="1.0" encoding="UTF-8"?>
<svg id="Layer_1" data-name="Layer 1" xmlns="http://www.w3.org/2000/svg" viewBox="0 0 208.08 155.07">
  <defs>
    <style>
      .cls-1 {
        fill: #1C1C1C;
        stroke-width: 0px;
      }
    </style>
  </defs>
  <path class="cls-1" d="M149.41,50.87h-.47c.57.81,1.71,2.37,2.94,2.18.24-.05.43-.19.62-.43v-.33c.24-.9.28-1.8.09-2.51-.85.62-1.9,1-3.18,1.09M119.17,59.97c-.9.71-2.7.57-3.93.9-.38.09-.66.43-1,.47-1.19.28-2.37,0-3.37.19-.76.14-1.85.76-2.8,1.23-2.23,1.14-4.69,2.56-5.5,5.07-1.04,3.18.28,7.82-1.23,11.71,3.41-2.46,8.82-1.28,12.66-2.99,2.04-.9,3.41-2.18,4.93-3.56.95-4.36-1.19-8.82.33-12.94,0-.05,0-.1-.1-.1M159.84,56.9c.19-.62.19-1.28,0-1.9-.24-.71-.57-1.33-1-1.9-.14.09-.28.14-.43.24-.9.71-2.13,1.14-3.7,1.28.85,1.52,2.99,2.42,5.12,2.28M28.3,51.06c3.93.95,8.58,1.09,12.61.43,1-2.89,1.42-6.49,2.94-9.01,0-.09,0-.19-.09-.19-6.3,2.89-12.99,5.36-20.81,6.49,1.61.9,3.32,1.71,5.26,2.28.05-.05.09,0,.09,0M9.86,62.25c4.36,1.8,9.01,2.99,14.55,3.27,1.85-3.79,3.93-7.63,6.87-10.1.28-.24.76-.47,1.19-.76.33-.24,1-.71.81-.85-3.27,1.71-7.16,2.18-10.38,3.65-.43.19-.9.28-1.38.47-.05,0-.09.05-.14.09-.43.19-.76.62-1.19.81-2.51,1.09-5.12,1.8-7.92,2.13-.9.09-1.9.43-2.75.76.33,0,.57.05.71.24-.33-.14-.33.05-.38.29M90.16,33.57c-.19.14-.66.43-.28.71.05-.24.52-.47.28-.71M199.42,29.16c-1.47-2.56-4.22-4.6-7.01-6.35-.76-.47-1.66-1.04-2.32-1.28-2.27-.76-4.98-.71-7.3-.71-3.6,0-7.11.85-10.43,1.04.38-.81,1.66-.95,2.51-1.23,2.8-1,6.97-2.04,10.29-1.94,4.17.09,8.01,2.32,10.62,4.55.43.38,1,.66,1.28.95.81.81,1.33,2.13,2.09,2.99.24.24.57.33.76.57.43.57.47,1.42.95,1.94-.85,0-.52-.95-1.42-.52M193.82,36.08c-4.79,0-7.58-2.32-10.19-4.46-.62-.52-1.33-.95-1.94-1.47-1.23-.95-2.56-2.23-3.93-2.89-1.66-.81-3.79-1.23-5.64-1.52-3.18-.47-6.26.66-9.39.9.24-.76,1.23-.9,1.9-1.19,2.84-1.09,7.06-2.65,11.33-1.52,1.33.33,2.99,1.14,4.31,1.8,2.04,1.04,3.41,2.37,5.21,3.93,1.61,1.42,2.56,2.8,4.31,4.08.52.38,1.19.85,1.61,1,2.51.81,4.74-.43,6.78-.14-.81,1.09-2.65,1.47-4.36,1.47M142.3,55.14c1.09.38,1.42,1.47,1.94,2.32,4.36,1.85,8.49,4.08,13.13,5.83,2.27.85,4.5,1.75,6.59,2.94,2.75,1.56,4.88,3.7,8.53,3.84.43,0,1.14-.43,1.38.24-.28.71-1.23.43-1.9.52s-1.42.47-2.04.38c-.71-.09-2.65-1.42-3.41-1.9-2.42-1.38-4.55-2.09-7.16-3.41-1.14-.57-2.23-1.23-3.37-1.8-2.46-1.19-5.31-1.33-7.44-2.89-1.9-.43-3.27-1.33-5.02-1.85-.28-.57.09-.9-.05-1.38-.24-.99-1.76-1.37-1.19-2.84M127.27,37.08c-.85-.47-2.28-.85-3.84-.81-3.75.09-7.39,2.51-11.14,3.18-3.75.62-7.35-.62-9.95-1.9-3.32-1.66-5.93-4.08-8.67-6.35-.71-.57-1.33-1.19-2.04-1.71-1.04-.81-2.28-1.23-3.08-2.32-1.8-1.47-6.68-1.94-7.44-4.5-.19-.66,0-1.38-.33-2.09.62-2.84,3.75-2.61,6.92-3.08,2.7-.43,5.02-1.04,6.73-2.46-.85-.95-2.37-1.23-2.8-2.56,6.16,1.52,11.04-3.18,16.54-3.89,2.09-.28,3.56.47,5.31,1.04-.47-1.66.05-3.93,1.8-4.22.66.33-.19.9-.09,1.71.09.76,1.71,1.75,2.51,2.37,1.9,1.38,3.13,2.23,4.69,3.93.66.71,1.47,1.33,1.85,1.9.52.76.81,1.75,1.23,2.37.38.66,1.19,1.04,1.42,1.85-.85,0-1.38-.81-1.9-1.23-1.47-1.42-2.75-3.27-4.46-4.64-4.41-3.51-12.85-3.18-17.4-.66-1.66.9-3.46,2.13-5.26,3.18-.57.33-1.09.81-1.61,1.09-3.75,2.04-9.05,2.51-13.7,3.41-.9.57-.71,1.94.05,2.51,4.69.9,8.11,2.84,11.23,5.21,1.23.95,2.28,1.85,3.46,2.84,2.13,1.71,4.41,3.75,7.35,4.83,4.88,1.85,10.81-.33,15.03-1.38,1.19-.28,3.18-.71,4.88-.33.57.14,1.52.71,2.04,1.09.57.38,1.23,1.04,1.85,1.52s1.42,1.14,1.33,1.85c-1.23-.05-1.61-1.28-2.51-1.75M123.86,41.87c-.81,1.28-3.41,2.65-5.59,2.8-1.19.05-2.84.05-3.51-1,.14-.43.47-.09.9-.14.33,0,.28-.43.66-.43.43-.05.95,0,1.42-.09,1.8-.43,4.12-2.65,4.6-4.27.19-.57,0-1.23.52-1.71,1.19,1.09,2.09,3.08,1,4.83M98.41,28.6c-1.38-.14-1.8-2.7-.57-2.99,1.33-.33,2.13,1.09,3.08,1.47.33-.09.28-.62.57-.81,3.75-1.9,7.82,1.47,9.62,3.51,3.27-.9,7.11-2.75,11.38-2.04,1.47.24,2.84.85,3.98,1.52,1.04.66,2.42,1.38,2.8,2.65-2.13-.52-3.56-2.13-5.97-2.37-4.83-.47-9.43,1.56-12.99,2.89-1.56-1.42-3.75-5.17-6.73-4.98-1.04.05-1.23,1.19-1.23,2.37-.57.09-.66-.62-1.04-.95-.71-.66-1.75-1.23-2.84-1.28-.43.28.47.66-.05,1M128.17,19.12c.57.05.38.81.76,1.04,4.74-1.04,10.95.9,11.99,5.17.71,2.94-1.61,5.17-4.79,4.74-.05-.24-.14-.47-.24-.71,2.61-.95.9-5.55-.57-6.87-1.61-1.47-3.89-1.71-5.93-1.61.47.81,1,1.75,1.94,2.42,1.04.81,2.99.71,3.22,2.23-1.04.24-1.8-.62-2.61-.85-1.04-.28-2.28-.33-3.27-.33-2.13-.05-4.41-.24-6.12-1.38-1.42-.95-1.85-2.51-3.93-2.61.33,1.85,1.56,2.8,2.18,4.31-1.19-.43-1.99-1.56-3.27-2.13-2.42-1.09-5.45-1.28-7.44-2.89.43,2.09,2.32,2.75,3.32,4.31-.62.09-1-.52-1.56-.81-2.09-1.09-5.07-1.8-7.77-1.38,1,.81,2.8.81,3.37,1.94-1.04-.05-2.37-.57-3.6-.62-1.85-.05-3.93.71-5.74.38-.9-.19-2.09-.66-2.75-1.14-.52-.33-1.38-1.04-1.23-1.85,1.61,1.19,4.03,1.38,6.4,1.04-.38-1.14-1.9-2.37-1.66-4.03.62.09.66.71,1,1.04,2.09,1.28,5.36,1.47,8.11,2.09-.76-1.33-.81-4.22.66-5.26,1.38,2.84,4.46,4.17,8.06,4.98-.05-2.46,1-3.65,1.99-4.93h.28c.76,1.75,1.99,3.46,3.46,4.83,1.61,1.47,4.03,2.28,7.11,2.42-.33-1.18-1.89-2.08-1.37-3.55M200.36,16.6c.19,1.56,1.47,2.13,2.32,3.08.95-.81,3.79-1.09,4.46.28-.76.19-2.65.33-2.37,1.61.14.57,1,.24,1.19.95-.57.81-2.04.62-2.89,1.14-.81-1.14-1.61-2.13-2.51-3.08-1.42-1.52-3.18-2.51-5.12-3.46-2.09-1-4.27-1.85-6.92-2.23-2.65-.38-5.59-.05-8.06.33-1.42.24-2.94.28-4.08.62-1.28.33-2.46,1-3.7,1.42-2.7,1-4.83,1.56-7.16,2.89-2.23,1.28-4.17,2.46-6.02,3.93-.71.62-1.56,1-2.18,1.52-.14.09-.52.33-.38.62,1.09.05,2.51-1,3.08.14-.62.52-1.61.24-2.32.33-2.42.38-4.88,1.61-6.92,2.65-2.09,1.09-3.98,2.51-5.97,3.75-2.04,1.28-3.89,2.8-5.64,4.22-.38.95-1.19,1.23-1.75,1.9-1.56,1.8-2.99,4.22-3.75,6.64-.33,1.14-.38,2.46-.81,3.84-.14.47-.62,1.23-.95,1.85-.33.57-.76,1.56-1.38,1.09,1.23-1.94,2.09-4.27,2.46-7.25.33-3.08,1.75-5.21,3.22-7.2,1.42-1.9,2.75-3.46,4.46-4.83,1.75-1.38,3.65-2.37,5.59-3.41.95-.52,2.04-1.04,3.08-1.47,1.99-.85,3.84-1.28,4.83-3.08-4.12-.28-5.97-2.46-8.63-4.46-1.94-1.47-3.93-3.18-6.45-3.65-1.33-.24-2.99.24-4.5-.05-.14-.47.52-.33.71-.43.95-.33,1.99-.66,3.13-.85,4.17-.62,8.06-1.33,12.14-1.85.9-.09,1.8-.43,2.56-.43,1.75.05,3.32-.57,5.12-.76,1.66-.19,3.41.05,4.98-.47.57-1.61-.24-2.89-1.09-3.65-.81-.76-2.13-1.33-3.37-1.52-4.41-.66-9.48,1.33-13.04,2.37-2.04.57-3.84,1.66-5.97,1.23-.66-.14-1.8-.57-1.8-1.19.81-.05,1.94.52,2.7.38,2.61-.43,4.5-1.75,6.64-3.03,1.9-1.09,3.89-1.71,5.59-2.61-3.51-2.51-9.53-1.9-13.7-1.19-2.7.43-5.17.57-7.92.09-.76-.14-2.23-.43-2.23-1.28,3.37.33,6.35.05,8.44-1.14-2.37-.47-4.74-.57-7.44-.71-1.19-.05-2.51-.33-3.51-.14-.62.09-1.33.66-1.99.9-6.07,2.13-12.23,5.07-20.95,3.93-3.32-.43-6.16-.95-9.43-1.9.09.76.9,1.09,1.42,1.61,1.19,1.23,2.46,2.56,4.17,3.27.52.19,1.42.09,1.56.81-2.42.71-5.5,1.33-7.92,1.71-.76.09-1.52.38-2.23.43-.62.05-1.23-.09-1.85,0-2.75.38-5.64,1.09-8.53,1.38-1.94.19-3.79-.24-5.83,0,2.09,1.42,4.93,2.46,7.96,2.89.57.09,1.52-.19,1.66.52-.95.66-2.18.81-3.32,1.19-1.33.43-2.61,1-3.93,1.23-1.42.38-2.84.9-4.36,1.38-1.19.47-2.42.85-3.65,1.19-1.14.33-2.28.66-3.41.9-1.8.38-3.7.9-5.45,1.09-.85.09-1.56-.09-2.23.43,3.08,1.94,8.2,2.37,12.04,2.84,1.28.14,2.7-.24,3.7.09.66-1.47,2.09-2.75,2.99-3.98.28-.38.66-1.42,1.38-.66-.43.43-.19,1.61,0,2.09-.38.57-1,.9-1.47,1.47-1.52,1.9-2.13,4.27-3.13,6.68-.33.81-.9,1.42-.9,2.04,3.93.24,6.92,1.42,10.67,1.33,1.99-.43,3.89-.9,5.69-1.52.28-.66,1.19-.71,1.71-1.09.38-.28.62-1.09,1.19-.85.62.57-.14,1.04-.43,1.33-1.04,1.14-2.23,2.61-2.51,4.46-.33,2.13.14,3.51.38,4.79.05.24-.09.47-.05.71.19,1.19.9,2.42.9,3.37,0,1.14-.52,2.23-.85,3.08,1.09-.28,1.94-1.19,3.22-1.47,2.56-.57,5.69-.14,8.25-.76.71-.19,1.23-.71,1.99-.62,1.56-1.28,2.84-2.89,4.6-4.03,0,.9-.71,1.19-1.04,1.75-1.19,1.85-1.71,4.5-1.56,7.68.09,1.99,1,4.08,1.04,5.83.09,1.94-.66,2.94-1,4.08.66-.52,1.52-.85,2.18-1.33,1.42-.28,2.99-.62,4.64-.85,4.74-.71,9.29-1.75,10.05-6.35.47,1.56.95,3.37.28,5.4-.28.95-1.04,1.85-1.28,2.7-.33,1.14-.09,2.8.09,4.22.14,1.38.57,2.8.52,4.17-.09,2.46-.47,4.17-1.09,6.16,2.84-2.8,7.44-2.84,10.81-4.88.57-.33,1.33-1,1.99-1.52,1.23-1,2.46-2.37,2.94-3.98.24-.85-.09-2.37.81-2.56.9,2.18-.19,4.98-1.09,6.49-1.47,2.56-4.31,4.41-6.87,5.36-1.52,4.27-1.75,10.76-.85,14.98.19.95.19,2.09.85,2.65.66-3.41,1.99-6.16,3.27-9.29,1-2.46,2.46-4.88,4.08-6.73,3.46-3.89,7.49-7.39,13.22-7.82,2.18-.19,4.12.14,5.83.81,2.23.71,4.5,1.99,5.93,3.84.05.05.14.09.19.19.09.19.19.38.28.57.09.14.19.24.24.38,0,0,0,.05.05.09.62,1.04,1.33,2.04,1.19,3.46,1.47-.66,3.7,0,5.31-.47,1-.28,2.46-1.66,2.61-2.75.05-.66-.43-.95-.05-1.47,1.66,1.04,1.85,4.12.85,6.07-.52,1.04-1.61,1.66-1.71,2.7,1-.81,2.13-1.42,3.37-1.99,3.7-1.71,7.3-6.83,5.93-12.04-1.33-.66-2.7-.52-3.98-1.09-.62-.28-1.19-.85-1.8-1.14-.71-.33-1.38-.9-1.99-1.09-.43-.14-.95-.05-1.38-.14-.47-.09-1.09-.38-1.56-.62-2.32-1.04-4.17-2.04-6.4-2.99-4.93-2.18-9.76-4.69-14.22-7.25-.9-1.23-2.18-2.13-3.27-3.22-.19-.28-.38-.62-.57-.9-.38-.28-.71-.62-1-1-.14-.09-.28-.19-.47-.28-.38,2.32.43,3.84,1.09,4.98.19.33.24.76.38,1,.33.57,1.38.81,1.14,1.66-.71-.05-1.23-.81-1.9-1.38-.57-.47-1.52-1.04-1.85-1.61-.24-.43-.24-1.14-.52-1.8-.38-.95-1-1.56-.85-2.84-3.13,1.94-2.61,7.87-3.18,11.61-.9-.52-.52-1.19-.52-2.09,0-1.38-.66-3.22-1.33-4.03-.19-.24-.52-.28-.57-.57-.05-.19.24-.66.05-.81.14-.24.57-.19.71-.43,3.13-5.36,7.11-10.43,11.19-15.03,1.99-2.28,4.55-3.93,7.63-5.21,2.13-.9,4.5-1.85,7.16-2.28.71-.09,2.04-.52,2.51.47-1.47.24-2.89.47-3.84,1.23,4.74.33,8.15,1.71,12.09,3.37,3.13,1.33,6.35,2.37,9.43,3.41,2.09.71,3.98,1.52,6.35,1.85,5.21.66,8.63-1.04,10.95-4.08.57-.76,1.38-2.51,1.14-3.56,2.65-1.42,4.36-4.36,4.36-8.44.28-.24.62.19.81-.14,1.38-1.85,2.46-4.12,2.7-7.25-2.46-.09-5.16.38-7.72.43M161.12,14.94c-2.94.09-6.54.19-8.96,1.19,2.94.62,5.5,1.52,8.06,2.46,1-.47,1.66-2.51.9-3.65M165.95,11.48c-.05.71-.43,1.23-.24,1.8.19.62,1.66,1.38,2.37,1.56.62.14,1.38-.24,1.66.43-1.28.9-3.27.28-4.41-.24-.66-.28-1.14-.76-1.47-.71.28,2.32-.57,3.89-1.28,4.98.14.09.38.09.33.38,3.37-1.38,6.4-3.22,9.81-4.64,2.89-1.23,6.12-1.56,9.62-2.23-2.65-.47-5.45-.24-7.82,0-.95.09-2.46.47-3.08.28-.62-.14-1.47-1.56-2.04-2.28-1.09-1.33-2.13-2.37-3.27-3.6-.95-1.04-1.56-1.8-3.37-1.71,1.71,1.42,3.37,3.17,3.18,5.97M142.82,16.56c2.94,1.47,6.12,4.93,9.39,6.64.71.38,1.66.66,2.37.76,2.09.19,2.89-.81,4.22-1.71.76-.52,1.61-.76,2.09-1.52-5.45-1.75-11-5.22-18.06-4.17M168.79,57.13c-.62.05-1.19.09-1.71.24-.85.57-1.8,1.14-2.89,1.52-.19.14-.38.33-.57.52,1.19,1.09,3.08,1.66,5.21,1.61.57-1.19.24-2.89-.05-3.89M177.66,40.92c.52.05,1,.52,1.47.52.81,0,1.38-.71,2.13-.62-.28-.76-.9-1.28-1.71-1.61-1.23.28-2.23-.28-3.41-.71-2.46-.9-4.64-2.04-7.01-2.84-3.46-1.14-6.59-3.03-10.24-2.99h-.09c-2.23.14-4.46,1.23-6.07,1.94,2.61.52,3.98,2.18,4.55,4.64,2.18-1,4.55-2.23,7.49-1.38.57.14,1.47.71,1.99,1.09.43.28.62.71,1.09.76.62.09,1.23-.33,1.8-.38,2.18-.14,3.79,1.14,4.83,2.13,1.04-.33,2.04-.76,3.17-.57M162.63,44.76s.09-.05.09-.09c.09-.09.14-.24.24-.33.05-.05.05-.09.09-.19.19-.33.38-.71.62-1,.19-.24.43-.52.62-.76.33-.47.62-1,.81-1.56-.9-1.71-4.98-1.9-6.26-.47.57,2.18,1.94,3.51,3.79,4.41M153.01,42.29c.09-.14.19-.28.33-.43.05-.05.09-.09.19-.14.62-.71,1.28-1.33,1.99-1.94-.19-2.37-3.08-3.93-5.45-2.7-1.14,2.7.43,5.31,2.09,6.49.14-.24.33-.47.47-.71.05-.09.09-.14.14-.24.09-.14.19-.24.24-.33M171.69,44.57c.09,0,.14,0,.24-.05.05-.05.09-.09.14-.19.38-.57.85-1.23,1.42-1.75-.85-.81-2.04-1.28-3.56-1.42.24.66.9,3.41,1.75,3.41M189.6,47.03c-.14.62-.47,1.14-.71,1.66-.14.28-.24.57-.38.81-.09.19-.09.43-.14.62,1.04-.43,2.04-1.19,3.03-2.28.71-.81,1.33-1.8,1.9-2.94.33-.85.57-1.8.62-2.84-1.23.05-2.46,0-3.6.09-.38,1.71-.33,3.41-.71,4.88M181.5,46.47c.47-.19,1.28-.62,2.13-1.14.33-.19.66-.47,1-.76.52-.9,1.28-1.71,1.14-3.03-2.27-.38-4.31.33-6.02.9.85,1,1,2.65,1.28,4.17.14-.05.29-.05.47-.14M87.12,36.51h-.09c-1.99.38-4.69.14-7.39-.09-1.47.81-2.84,1.99-3.7,3.51-.66,1.19-1.28,2.89-1.42,4.5-.09,1.42.14,2.94.14,4.41,0,2.09-.52,3.93-1.14,5.69,3.03-1.75,7.92-1.09,11.04-2.46.9-.38,3.08-1.99,3.46-2.8.71-1.47.38-4.17,0-6.02-.33-1.66-.9-3.13-.95-4.64,0-.81.33-1.28.05-2.09M39.63,54.48c.38-.62.9-1.28.71-1.85h-.09c-1,.57-2.13.71-3.03,1.19s-1.66,1.47-2.56,2.04c-.66.43-1.47.62-2.09,1.09-2.99,2.09-3.98,6.35-5.97,9.53-.28.43-.66.76-.95,1.14-.24.33-.62.66-.57,1.14,3.46-.66,8.2,1.09,11.28-.28.47-4.69,1.94-8.3,4.46-10.67-1.75-.33-3.13,1.47-4.27.62,1.52-.81,2.18-2.47,3.08-3.94M31.95,79.46c.38-.76,1.38-1.28,1.52-1.99-.62.14-1.19.33-1.85.38,0-.28-.24-.38-.43-.47,2.13-1.33,3.32-3.75,4.36-6.35-5.17-.05-12.99-2.18-15.26,2.13-.38-1.56.52-3.37,1.52-4.22-5.36,1.33-5.36,8.72-7.54,13.65,1.94-.33,4.36.09,6.4.24,4.79.28,8.44-1.23,11.28-3.37M19.96,67.13c-1.04-.28-2.42-.28-3.41-.62-4.6,4.17-9.76,8.15-16.54,9.57,2.8,2.7,7.25,3.84,12.75,4.03.24-1.04.85-2.04.76-3.13.71-1.94,1.14-3.75,2.09-5.31,1.14-1.9,2.8-3.18,4.36-4.55M30.34,86.05c0-1,.28-2.42-.05-2.7-2.89,1.56-7.3,1.99-11.66,1.33-3.56,1.23-2.13,6.92-2.61,11.04,2.56-1.52,6.45-.85,9.53-1.8,1.04-.33,2.32-.95,3.08-1.47.52-.38,1.52-1.23,1.75-1.9.33-1.04,0-2.75-.05-4.5M64.09,95.19c1.71-4.46-1.47-8.77-.38-13.41h-.19c-1.71,1.14-4.55,1.42-6.78,2.18-1.56.52-3.37,1.28-4.5,2.13-1.19.9-2.89,2.99-3.22,4.69-.66,3.65.09,8.2-1.33,11.9,3.56-2.32,9.24-1.47,12.94-3.7.66-.43,1.52-1.14,2.04-1.71.43-.48,1.19-1.33,1.42-2.09M60.91,101.83s0-.09-.09-.09c-.47.24-1.04.52-1.61.66-2.09.47-4.88.43-6.92.85-1.66.33-2.56,1.52-3.75,2.51-.9.76-1.85,1.61-2.32,2.42-2.37,4.17,1.09,9.29-.76,14.36,2.51-1.23,6.3-.76,9.05-1.47,1.61-.43,2.8-1.52,3.84-2.51.95-.9,2.23-2.09,2.46-3.46.71-4.13-1.9-8.82.1-13.27M45.03,92.49c-3.84,1.19-10.85.95-13.27,3.6-2.65,2.89-.81,8.53-1.23,13.27,2.42-1,5.31-.81,7.82-1.33,2.32-.52,4.93-1.52,6.12-3.22,2.09-2.94,1.47-8.44,1.9-12.94-.43.14-.85.47-1.33.62M80.34,113.63c-1.42,1.71-3.75,2.51-6.07,3.13-2.18.57-4.98.47-6.83,1.19-3.13,1.23-5.21,5.02-5.07,9.1.09,2.42,1.19,4.55.71,7.58,2.7-.76,6.3-.09,8.96-.9.71-.24,1.71-.76,2.51-1.23,2.94-1.66,5.88-4.69,6.02-8.72.14-3.22-1.75-6.92-.24-10.14M86.46,53.48c-.81.19-.95.62-1.52.81-.71.24-1.52.14-2.32.24-.85.14-1.71.24-2.46.33-2.37.24-3.93.85-5.45,1.8-1.47.9-3.22,2.28-3.7,3.89-.62,2.09-.85,4.46-.76,6.54.14,2.61.76,6.16-.47,8.25,2.04-1.52,4.74-1.8,7.25-2.46,2.37-.62,4.83-1.9,6.49-3.27.66-.57,1.94-2.23,2.28-3.13.85-2.51-.43-5.74-.43-8.49,0-1.56.57-2.94,1.19-4.36-.05-.05-.05-.14-.1-.14M82.1,78.89c-.05-2.28.71-4.31,1.14-5.88,0-.05,0-.09-.09-.09-.05.14-.14.14-.19.24-1.19.14-2.18,1-3.22,1.28-2.09.52-3.89.47-5.5.81-1.52.33-3.03,1.19-4.31,2.13-2.13,1.56-4.17,4.12-4.08,7.92.05,1.94.95,3.89,1.04,5.97.05,1.52-.33,2.8-.81,4.17,2.46-2.09,7.49-1.61,10.9-2.99.9-.33,1.52-1,2.37-1.33,1.33-1.42,2.61-3.32,2.94-5.97.19-1.99-.14-4.12-.19-6.26M68.87,35.37c1.9-2.04,2.65-5.31,4.22-7.82-.14,0-.19-.05-.24-.09-.81.62-2.8.62-4.17.62-1.09,0-2.09-.47-3.08-.24-1.04.28-2.56,1.71-3.18,2.56-1.38,1.9-2.8,5.02-3.08,7.49-.14,1.38,0,2.75-.24,3.65-.14.52-.71.85-.66,1.42,3.18-.47,6.35.9,9.34.43.9-.14,1.99-.43,2.84-.76.9-.38,2.32-1.09,2.89-1.85.47-.62.57-1.47,1-2.13.66-1.04,1.75-1.56,2.13-2.7-2.46-.43-5.07-.43-7.06.19-.62.19-1.23.95-1.75.28-.05-.57.71-.71,1.04-1.04M175.86,60.31c-.19-.28-.38-.52-.66-.76,0,0-.05-.05-.09-.05-.33-.05-.66.24-1,.62-.09.09-.19.24-.28.38-.62.85-1.14,1.99-1.56,2.32.66.66,1.66,1.38,2.94,1.23.66-.52,1.04-2.61.66-3.75M53.28,64.57c-.71.24-1.52.19-2.23.43-.57.19-1.28,1-1.75.28,1.71-2.04,4.17-3.65,4.41-7.63h-.19c-1.09.28-2.09.81-3.32.85-1.04.05-2.23,0-3.32-.14-.52-.09-1-.33-1.47-.24-.28.05-.66.38-1.09.57-1.56.76-2.8,1.56-3.65,2.89-1.61,2.51-1.38,5.93-1.99,9.34-.66,1.52-1.38,2.99-2.23,4.31,1.94-.09,3.7.38,5.45.43,3.18.09,5.59-1.42,7.73-2.8.24-3.41,1.66-5.83,3.27-7.58.05-.19.43-.47.38-.71M48.16,85.57c1.61-1.66,1.99-7.06,1.28-9.2-2.51,1.14-5.4,1.28-8.25,1.14-1-.05-2.28-.38-3.18-.24-.71.09-1.94,1-2.37,1.33-1.38,1.14-3.03,3.93-3.18,6.21-.19,2.61.95,5.12.09,7.63,1.47-1.14,3.75-.71,5.78-.9,2.37-.24,4.55-.81,6.35-1.85,1.33-.81,2.56-1.66,3.65-2.61.28-.24.76-.62.76-1.04-.57.14-1.38.57-1.94.43.05-.62.62-.52,1-.9M57.59,36.61c.43-4.17,2.61-6.87,4.41-9.24-3.65,2.18-7.44,4.46-11.71,6.02-2.89,1.04-6.02,1.66-9.01,2.7,5.21,1.99,11.09,1.56,16.31.52M56.79,39.21c-.09,0-.09-.09-.19-.09-4.08.71-6.64-.14-9.01,1.99-1.52,1.42-2.94,3.93-3.46,6.3-.33,1.56-.24,3.27-.76,4.93-.19.57-.52,1.14-.76,1.66-.24.57-.62,1.09-.85,1.66,3.79-.62,10.14,2.32,12.09-.76.38-.57.62-1.33.71-2.32,1.09-3.51,3.51-5.55,5.83-7.73-1.09-.05-2.04-.28-3.08-.24-1.19.09-2.37,1.14-2.99.24,1-1.61,3.08-3.22,2.46-5.64M77.74,112.4c.52-.38,1.23-1.04,1.56-1.66,1.42-2.56-.24-5.31-.9-7.35-.85-2.61-1.42-5.88-.14-8.82,0-.05,0-.09-.09-.09,0,.09-.09.09-.19.09-3.08,1.42-6.73,1.38-9.53,2.7-1.94.9-4.27,3.18-5.07,5.17-2.04,4.88.85,9.43.24,14.6,3.27-2.99,10.43-1.85,14.13-4.64M89.4,106.67c1.71-.57,3.84-1.23,4.88-2.37.76-.9,1.47-3.41,1.61-4.69.43-3.75-1.66-7.58-.52-11.9,0-.05,0-.09-.09-.09-.62.24-1.61.62-2.32.71-3.27.33-6.49.24-8.72,2.09-1.99,1.71-4.12,5.02-4.17,8.82-.09,4.46,3.41,6.68,2.37,11.52,1.66-1.9,4.08-3.08,6.97-4.08M89.45,126.62h-.19c-1.66.57-3.27,1.04-4.64,1.85-2.18,1.23-3.7,2.37-4.69,4.74-.33.76-.81,1.52-1,2.18-.43,1.56-.33,3.93-.14,5.5.52,4.98,2.65,10.29,4.93,13.7.09.09.09.57.43.47-.24-4.64,1.19-7.92,2.7-11.09.57-1.14,1.23-2.51,2.09-3.65.66-.9,2.46-2.42,2.51-3.27.05-.52-.57-1.61-.76-2.28-.85-2.65-1.04-5.07-1.23-8.15M64.89,77.89c.9-.81,1.99-1.94,2.51-3.22,1.28-3.18.09-6.87.57-10.57.09-.81.43-1.66.09-2.13h-.09c-.9.47-1.9.85-2.89,1.23-.9.33-1.8.76-2.7.95-1.19.28-2.51.14-3.79.38-1.71.33-3.51,1.66-4.55,2.84-1.09,1.28-1.85,3.13-2.09,5.12-.43,3.6.95,7.92-.9,11.66,4.17-2.8,10.19-2.99,13.84-6.26M181.59,61.16l-.19.19c-1,.95-2.18,1.66-3.7,2.04-1.38,1.9,1.04,3.08,3.22,3.03,2.37-2.32,4.36-5.17,4.83-9.67-.38.05-.71.24-1.04.52-1,1.37-1.94,2.75-3.13,3.88M98.59,67.47c-2.46,1-5.31.52-7.35,1.28-4.22,1.47-6.78,4.83-6.92,10.48-.05,2.7.95,5.55-.14,8.44,1.33-.66,2.61-1.42,4.41-1.66,2.32-.33,5.5-.19,7.01-1.28.62-.43,1.23-1.38,1.75-2.09.62-.76,1.19-1.52,1.61-2.37.85-1.8,1.52-4.41,1.38-6.68-.14-2.13-.62-4.98.24-7.11-.71.24-1.32.71-1.99,1M102.53,48.84c-3.03,1.04-7.44.14-9.95,1.52-.66.38-1.75,1.28-2.37,1.94-.57.57-.85,1.28-1.23,2.09-.28.66-.81,1.33-.95,1.85-1.09,3.51.9,8.3-.76,12.28,2.99-2.89,8.96-1.94,12.42-3.75,2.51-1.33,4.46-4.12,4.17-8.34-.19-2.42-1.47-4.69-1.33-7.58M111.53,97.66c1.85-1.56,3.56-3.51,3.75-6.92-2.99.33-4.98,1.85-6.68,3.46-.43.38-.71,1.38-1.47,1.09-.47-1,.47-1.71.71-2.37,1.56-3.98-.33-8.49.43-12.75-2.09,0-4.12.57-5.64,1.42-.9.52-2.51,1.85-3.13,2.56-1.19,1.42-1.85,3.79-2.04,5.74-.43,4.31,1.61,8.77.19,12.8,2.18-1.99,6.02-1.75,9.2-2.61,1.8-.52,3.41-1.33,4.69-2.42M92.76,125.34c-.71,6.16,1.42,10.33,3.51,14.17.19-8.58,3.51-13.7,6.92-18.63-.38-.81-.52-1.8-.95-2.56-2.37,3.27-5.55,5.55-9.48,7.02M101.58,103.58c-1.56.52-3.46,1.09-4.93,1.99-.62.38-1.09,1.09-1.75,1.52-1.42,1-3.27,1.85-4.88,2.46-1.56.62-3.84,1.19-5.02,2.28-1.19,1.04-1.94,3.03-2.13,4.64-.43,3.18,1.66,6.4.47,9.48,2.04-1.33,4.55-1.94,6.97-2.65,2.37-.66,4.69-1.66,6.49-3.03,1.61-1.19,4.31-4.08,4.64-6.54.14-1.33-.24-3.18-.14-4.93.09-1.71.33-3.75.43-5.21-.05,0-.05-.05-.14,0M125.42,85.62c-1.9,1.94-4.17,3.41-6.97,4.27-.43,2.32-1.28,4.64-1.38,7.16-.19,3.7,1.42,7.16,2.37,9.91.14-6.45,1.85-10.57,4.46-14.17.43-.62,1.85-2.32,1.99-2.89.09-.38-.14-1.04-.19-1.71-.1-1.04.05-2.18-.28-2.56M104.8,103.11c-1.38,7.73-.14,15.5,2.51,20.81.38-9.24,3.89-15.74,8.11-21-.52-1.38-.47-3.22-.95-4.64-2.75,2.13-5.55,4.22-9.67,4.83M119.93,79.88c-.09.52.38,1-.14,1.33-1.23-.9-1.14-3.08-1.56-4.74-1.85,1.38-3.65,2.75-6.4,3.13-2.37,2.28-.57,6.4-.71,9.76,4.41-1.85,9.67-1.75,12.56-5.26,1.66-1.99,2.23-4.93,2.75-8.39h-.19c-2.04.47-5.93,2.27-6.3,4.17M72.43,44.19c-1.47.71-4.27,1.52-6.26,1.52-.76,0-1.56-.33-2.46-.19-.9.14-1.66,1.04-2.28,1.52-.66.57-1.61,1.04-2.09,1.71-.33.43-.62,1.14-.95,1.75-.33.57-.71,1.23-.95,1.85-1.23,3.08-1.09,7.49-2.84,9.86,1.66-.43,3.75.14,5.64,0,1.19-.09,2.28-.9,3.18-.47,1.66-.62,3.22-1.47,4.69-2.65,1.04-.85,3.03-2.7,3.51-3.98.19-.47.14-1.04.24-1.61.14-.66.52-1.23.62-1.85.33-2.28-.28-4.79,0-7.3.05-.14,0-.19-.05-.14"/>
</svg>