<?xml version="1.0" encoding="UTF-8"?>
<svg id="Layer_1" data-name="Layer 1" xmlns="http://www.w3.org/2000/svg" viewBox="0 0 113.73 114.53">
  <defs>
    <style>
      .cls-1 {
        fill: #1C1C1C;
        stroke-width: 0px;
      }
    </style>
  </defs>
  <path class="cls-1" d="M8.3,58.95c-.09.09-.22.22-.31.34l-.03.03c-.56.28-1.9,1.09-1.9,2.46,0,.22.09.56.28.72.19-.09.28-.25.37-.44.03-.06.09-.16.16-.22.03-.06.12-.16.19-.25.16-.19.37-.44.62-.59l.06-.06c.12-.09.25-.19.37-.25.22-.16.41-.28.66-.37.34-.69.59-1.72.25-2.53-.06.53-.37.84-.72,1.15M21.15,73.05c-.19.28-.37.56-.56.81-.22.31-.41.59-.62.87-.06.09-.12.19-.19.28-.09.12-.19.25-.28.37-.12.75-.34,2.09.03,2.74.22-1.03.78-1.68,1.34-2.31.09-.09.19-.19.25-.31.37-.59.84-1.96.03-2.46h0ZM7.24,47.87c.47.03,1.03-.03,1.12.31.25-.31-.03-.37.19-.75-.59.03-1.15,0-1.31.44M15.01,77.57c-.28.06-.56.12-.84.16-.41.41-.87,1-.91,1.9.47-.34.97-.69,1.59-.94l.22-.06c1.28-.31,2.62-.62,2.74-2.09-.19.09-.41.16-.59.25-.22.09-.44.19-.66.25-.53.22-1.03.4-1.56.53M5.02,74.3c-.44-.56-.91-1.12-1.31-1.72h0c-.12,0-.28-.03-.41-.03-.22-.03-.44-.06-.62-.03.56.25.91.72,1.22,1.19.34.47.66.9,1.25,1.15.12.06.28.12.47.16-.19-.22-.34-.44-.53-.65l-.06-.06M2.43,69.87c-.06-.12-.12-.25-.19-.37-.09-.19-.12-.37-.19-.53-.06-.22-.12-.41-.22-.53-.19-.31-.62-.47-1.03-.62.28.41.44.87.59,1.34.28.84.56,1.65,1.43,1.9-.06-.5-.22-.81-.41-1.19M7.27,49.4c.34.31,1.43.41,1.53-.06.06-.22-.19-.5-.16-.78-.41.34-.75.75-1.37.84M.66,60.91c.03-.28,0-.62-.03-1-.03-.22-.03-.47-.03-.69v-.62c0-.84.03-1.4-.59-1.53.22.47.19,1.09.12,1.68-.06.84-.09,1.68.53,2.15M6.77,42.88c.31.03.59.03.91.06.03-.19-.09-.22-.06-.37-.34.03-.63.12-.84.31M.5,64.38c-.03.87.28,1.56.87,1.9-.16-.84-.28-1.72-.41-2.59l-.06-.44c-.16-.19-.41-.41-.72-.56.03.09.06.19.12.31.09.25.22.53.25.84,0,.09,0,.19-.03.28,0,.12-.03.19-.03.25M7.86,44.07c-.25.19-.62.22-.97.31h0s-.09.03-.16.03c.22.37,1.15.31,1.37.06-.22-.03-.06-.37-.25-.4M6.77,45.5c.47.03.94.06,1.37.09.03-.25-.12-.28-.09-.5-.53,0-.97.15-1.28.4M6.83,46.44c.47.19.94.37,1.5.47,0-.22.03-.41.03-.62-.59-.03-1.12-.03-1.53.16M6.68,43.66c.41.03.91-.03,1,.28.22-.25-.03-.31.16-.59-.5-.03-1.03-.06-1.15.31M7.83,76.45l-.09-.03s-.06.06-.12.06h-.06c-.12-.09-.28-.12-.41-.12-.44,0-.84.37-1.03.59h.06c.34,0,.66.03,1.03.09.06,0,.12.03.19.03,0,0,.03,0,.03.03.44.44,1.34.72,2.25.72.47,0,.91-.09,1.22-.22-1.06-.22-1.93-.59-2.74-1-.09-.06-.22-.12-.31-.16M28.8,67.09c-.66-.09-1.06-.41-1.62-.59-.44.84-1.06,1.5-2.28,1.43,1.06,1.12,3.84,1.47,3.9-.84M30.08,82.28c.16-.69.41-1.28.69-1.87-.56-.5-1.9-.47-2.4-.06-.47.59-1.03,1.28-1.09,2.21.53-.62,1.87-.72,2.81-.28M34.44,78.32c-.06-.56-.56-1-1-1.22-1.03-.5-2.31.22-2.99.81,1.4-.09,2.4.53,3.06,1.22.34-.22.59-.56.94-.81M28.8,86.9c-.09-.34-.12-.69-.12-1.03v-.16c0-.37,0-.72-.09-1.06-1.68.25-2.59,2.4-1.81,4.09.31-1,1-1.62,2.03-1.84M98.77,94.11s-.03.03-.06.03c0,0-.03,0-.03-.03-.03-.03-.03-.06,0-.09,1.9-2.25,3.56-4.52,4.96-6.86,4.12-6.93,5.99-14.35,5.52-22.09-.06-1.15-.22-2.37-.41-3.59,0-.06-.03-.16-.03-.22-.06-.34-.12-.69-.19-1.03-.09-.44-.19-.9-.28-1.34-.69-2.99-1.75-6.08-3.12-9.08-1.84-4.06-4.9-8.05-8.39-10.98.47.94,1.03,1.78,1.62,2.68.37.56.78,1.15,1.12,1.78,2.93,5.02,4.96,10.92,5.83,17.07,0,.03-.03.06-.06.06s-.06-.03-.09-.06c-1.37-6.08-2.9-11.98-6.08-17.03-.28-.44-.59-.87-.91-1.31-.81-1.12-1.65-2.28-1.93-3.71t.03-.06s.03-.03.06-.03c.06,0,.16.03.22.06,1.09.28,1.93,1.25,2.68,2.12l.16.16c3.93,4.52,10.48,14.13,10.23,27.36-.28,12.6-5.65,20.31-10.86,26.21M103.55,55.55h0s-.06,0-.06-.03c-.34-.81-.62-1.68-.84-2.59,0-.03,0-.06.03-.06h.03s-.03,0-.03-.03c-.37-.41-.53-1.03-.66-1.65v-.06s0-.06.03-.06h.03s-.03-.03-.03-.03c-4.3-9.14-10.76-18.78-25.77-21.06.81.69,1.78,1.12,2.81,1.56.5.22,1.03.47,1.53.72,3.59,1.9,6.36,3.77,8.49,5.74,1.72,1.59,3.18,3.15,4.74,4.84l.03.03s.03.03,0,.06c0,.03-.03.03-.06.03h-.09c-.37,0-.66-.41-.94-.78-.09-.16-.22-.31-.34-.47-.62-.69-1.37-1.37-2.09-2.06-.81-.75-1.62-1.53-2.31-2.28-3.9-2.93-8.58-5.34-12.64-7.39-.03,0-.03-.03-.03-.03t.03-.06c.19-.25.56-.34,1.09-.37h.12c.47,0,.97.09,1.34.12l.16.03c1.4.22,2.74.53,4.09,1,3.78,1.28,7.39,3.52,11.08,6.96,3.93,3.62,7.08,8.36,8.89,13.35,0,.03,0,.06-.03.09h-.03s.03,0,.03.03c.34.44.5,1.03.66,1.62l.03.06s0,.06-.03.06h-.03s.03,0,.03.03c.44.65.72,1.5.84,2.62-.03.03-.06.06-.09.06M92.75,42.6h-.03c-.72-.47-1.43-1.12-2.12-1.78-.25-.25-.5-.47-.75-.69-6.71-5.99-13.82-9.24-22.34-10.14,5.49,1.84,11.61,4.27,15.97,8.36.03.03.03.06,0,.09-.03.03-.06.03-.09,0-4.43-3.46-9.39-5.99-14.76-7.52-.09-.03-.22-.06-.31-.09-.66-.19-1.47-.37-1.93-.97,0-.03-.03-.03,0-.06,0-.03.03-.03.06-.03.56-.06,1.15-.09,1.75-.09,5.09,0,10.33,2.5,14.29,4.68,3.62,2,7.11,4.71,10.36,8.14.03.03.03.06,0,.09q-.06,0-.09,0M82.74,38.51c-4.77-3.28-10.64-6.8-19.41-7.21,4.68,2.34,9.52,4.96,13.2,8.58.03.03.03.06,0,.09,0,.03-.03.03-.06.03h-.03c-2.4-1.9-6.08-4.71-10.14-6.83-.56-.28-1.15-.5-1.75-.72-.78-.28-1.59-.56-2.31-1.06-.03,0-.03-.03-.03-.06s0-.03.03-.06c.28-.28.81-.41,1.62-.41h.22c6.27.19,12.57,2.74,18.75,7.55.03.03.03.06,0,.09,0,.03-.06.03-.09,0M76.5,40.51s-.09.03-.12.03-.09-.03-.12-.03c-.09-.03-.19-.06-.28-.12-.22-.12-.47-.31-.69-.5-.09-.09-.19-.16-.28-.22-3.4-2.53-8.02-5.62-13.66-6.9,2.4,2.06,5.09,4.55,7.11,7.77.03.03,0,.06,0,.06,0,.03-.03.03-.06.03h-.03c-.5-.19-.78-.72-1.03-1.22-.12-.25-.25-.47-.37-.65-1.06-1.43-2.53-2.68-3.93-3.87-.84-.72-1.72-1.43-2.47-2.21,0-.03-.03-.03-.03-.06s.03-.03.03-.03c.31-.16.66-.25,1.03-.25,1,0,2.09.5,3.06.9.19.09.41.19.59.25,4.74,2,8.77,4.87,11.29,6.93.03,0,.03.03.03.06-.03,0-.03.03-.06.03M69.01,43.19s-.06,0-.09-.03c-1.78-3.09-4.03-5.68-6.65-7.71.75,1.12,1.15,3.09,1.06,5.12-.09,2.18-.75,3.96-1.81,4.9l-.03.03h-.03s-.03-.06-.03-.09c.12-.28.25-.56.37-.84.59-1.37,1.28-2.9,1.25-4.71,0-.65-.12-1.28-.31-1.84-.22-.78-.56-1.47-.84-2.12-.12-.28-.25-.56-.37-.84-.03-.09-.09-.22-.16-.31,0-.03,0-.06.03-.06t.06-.03c1.93.72,3.24,2.28,4.43,3.68l.03.03c1.25,1.5,2.43,2.99,3.12,4.77,0,0,0,.03-.03.06M65.55,51.12c.34,0,.94.06,1.25.37t.03.06c-.06.16-.16.19-.25.19-.12,0-.28-.09-.37-.19h0c-.41-.06-.75-.09-1.19,0-.34.06-.59.22-.84.41-.12.09-.28.19-.44.25h-.06s-.03-.03-.03-.06c0-.37.59-.81,1-.9.28-.09.59-.12.91-.12M65.64,88.68c-.03.12-.09.28-.19.41-.09.12-.16.25-.28.37-.25.25-.5.44-.78.44h0s-.06-.03-.06-.03c-.09-.28.12-.37.28-.47.06-.03.12-.06.16-.09.5-.47.66-1.09.41-1.78,0-.03,0-.06.03-.06.03-.03.06-.03.06,0,.41.25.53.72.37,1.22M62.12,48.71l-.03.03h-.34c-.09,0-.22.03-.34.03h0s-.06-.03-.06-.03c0-.03,0-.06.03-.06.16-.12.28-.19.34-.12.16-.03.25-.03.34-.03.03,0,.12,0,.16.06,0,.03-.06.09-.09.12M77.68,60.13c1.06-2.31,2.37-5.18,3.31-8.17.12-.44.25-.9.34-1.34.25-1,.47-2.03,1.06-2.87.03-.03.06-.03.09-.03.91.41,1.03,1.47,1.12,2.46.03.25.06.47.09.69.66,3.9.59,8.95-.09,13.17,0,.03-.03.06-.06.06h0s-.06-.03-.06-.06c.06-.72.09-1.47.16-2.18l.06-1.09c0-.41.03-.84.03-1.25.09-2.09.16-4.27-.06-6.3-.22-1.96-.44-3.71-1.22-4.87-.12.44-.28.87-.41,1.31-1.22,3.84-2.47,7.77-4.4,10.92-.03.03-.06.03-.09.03-.03-.03-.03-.06-.03-.09l.16-.37ZM84.45,49.18s.03-.06.06-.06c.09,0,.16,0,.25.03t.03.03c2.09,2.53,3.12,6.21,3.81,9.48.84,3.87,1.28,7.68,1.28,11.32,0,.03-.03.06-.06.06s-.06-.03-.06-.06c-.78-8.02-1.68-15.07-4.99-20.22,0,1.12.06,2.25.12,3.4.12,2.03.25,4.12-.03,6.36-.03.69-.06.69-.12.69t-.06-.03c-.09-.09-.09-2.31-.09-2.34.06-2.87,0-5.37-.22-8.36.06-.06.06-.19.09-.31M88.26,52.58s.06-.06.06-.06c.12.03.25.09.34.16.41.25.72.78.94,1.25.03.09.06.16.12.25l.06.12c2.37,5.12,3.71,11.54,3.65,17.57-.03,2.99-.47,5.71-.94,8.33l-.12.78c-.09.59-.19,1.22-.28,1.81,0,.03-.03.06-.06.06h0s-.06-.03-.06-.06c.09-.65.22-1.31.28-1.81,1.59-11.01.19-21.37-3.74-27.8.19,1.56.53,3.21.87,4.93.84,4.12,1.81,8.8,1,13.73-.03.19-.06.25-.16.25s-.09-.09-.12-.12v-.03c.5-5.02-.31-10.2-1.19-14.57-.09-.47-.22-.9-.34-1.34-.25-1.22-.53-2.34-.31-3.43M93.81,62.29s.03-.03.03-.03t.06.03c.06.06.09.12.16.16.66.72.94,2.03,1.19,3.18.03.16.06.31.09.47.09.37.16.75.22,1.12,1.09,6.68-.03,15.57-2.81,21.59,0,.03-.03.03-.06.03h-.03s-.06-.06-.03-.09l.09-.28c1.4-4.84,3.37-11.48,2.99-17.81-.12-2.34-.69-4.96-1.59-7.46.53,5.65.37,14.41-1.84,21.25,0,.03-.03.06-.09.03-.03,0-.06-.03-.03-.09,1.37-5.55,2.06-12.54,1.78-17.81-.03-.44-.09-.9-.16-1.34-.19-.97-.34-2,.03-2.93M96.47,81.1s.03.03.03.03c.44.22.34.62.25,1.03-.06.25-.12.5-.09.78t-.03.06c-.06.06-.12.06-.19,0-.09-.09-.06-.34,0-.84.03-.16.03-.31.03-.44-.03.03-.06.09-.09.12-.53.65-.72,1.47-.94,2.37-.09.44-.22.9-.37,1.34-.31.87-.72,1.68-1.12,2.46-.22.44-.47.87-.66,1.28-.03.09-.09.19-.12.28,0,.03-.03.03-.06.03h-.03s-.06-.06-.03-.09c.03-.09.09-.19.12-.28.41-.94.78-2,1.19-3.15.62-1.72,1.25-3.49,2-4.93.06-.06.09-.06.12-.06M90.44,96.82c-3.9,5.21-6.96,7.96-12.1,10.86-3.87,2.18-10.08,4.96-17.81,5.68h0s-.06-.03-.06-.06.03-.06.06-.06c2.53-.41,4.9-.94,7.18-1.59,6.18-1.75,11.42-4.34,15.72-7.8l.03-.03c.06-.03.09-.09.12-.12,5.8-4.74,9.89-11.07,12.35-19.06,0-.03.03-.06.09-.03.03,0,.06.03.06.06-.94,4.65-3.53,9.33-5.65,12.17M9.33,34.77c-.12.12-.16.25-.16.41,0,.09.03.12.06.19.06.09.12.19.03.37,0,.03-.03.03-.06.03h-.03c-.47-.19-.5-.5-.47-.69.09-.5.72-1,1.22-1.03-.03-.31.03-.59.22-.78.25-.28.62-.37,1.06-.25.06-.03.09-.12.09-.22.03-.06.03-.12.06-.16.19-.25.69-.62,1.12-.62.25,0,.44.12.56.34v.06s-.03.03-.06.03c-.12-.03-.25-.03-.34-.03-.72,0-1.06.62-1.12,1.22t-.03.03s-.03.03-.06,0c-.16-.03-.25-.09-.31-.19-.06-.06-.09-.09-.22-.12-.12-.03-.28.03-.41.16-.09.09-.16.22-.16.31,0,.12.06.16.16.25s.22.19.19.37c0,.03-.03.03-.03.03h-.06c-.12-.03-.25-.06-.41-.06-.31.06-.66.16-.84.34M9.17,39.95s-.03.03-.03.03h-.06c-.19-.06-.25-.19-.31-.34-.03-.03-.06-.09-.06-.12-.06-.16-.12-.28-.25-.34-.28-.19-.62-.28-1.09-.28-.22,0-.47.03-.72.03h-.06c-.06.06-.12.09-.19.12-.03,0-.06.03-.09.03s-.03.03-.03.03c-.06.03-.12.09-.16.16-.12.12-.28.28-.5.31-.03,0-.06,0-.06-.03-.06-.09-.06-.19-.03-.28,0-.03.03-.06.06-.09.09-.16.31-.28.41-.31.75-1.03,1.84-3.03,1.28-5.37-.06.16-.09.31-.12.47-.09.31-.16.62-.34.87-.25.37-.91.94-1.03,1.03-.03.03-.06.03-.06.06-.06.06-.12.12-.22.16v.03c-.06.16-.09.31-.19.44-.03,1.22-.09,2.46-.66,3.4-.12.19-.25.41-.41.56-.06.25-.12.47-.25.72-.12.31-.25.65-.31,1.03-.06.47-.09,1-.12,1.47-.03.65-.06,1.31-.22,1.93-.19.78-.41,1.12-.84,1.72-.03.06-.06.09-.12.16-.19.25-.37.56-.56.56-.09,0-.19-.06-.25-.16-.22-.25-.28-.78-.25-1.03.16-.87.97-1.37,1.65-1.53.16-.5.16-1.12.19-1.78,0-.34.03-.72.06-1.03.12-1.22.59-2.15,1-2.74-.53-.41-.81-1.31-.66-2.06.06-.31.25-.53.44-.78.12-.16.25-.31.31-.47,0,0,0-.03.03-.03l.12-.09c.34-.28.69-.56.97-.87,0-.03.03-.03.06-.03v.06-.06s.03,0,.06-.03.09-.06.12-.03c.09-.22.28-.37.44-.53.19-.19.37-.34.47-.59.28-.59.37-1.25.47-2,0-.03.03-.06.06-.06h.09c.25.12.31.41.37.69,0,.03.03.09.03.12s.03.06.03.09c.44,1.43.22,3.77-.75,4.84.03.16-.06.28-.12.37l-.03.03c.16-.03.31-.03.5-.03.78,0,1.47.25,1.81.65.03.03.03.09.06.12.07.34.1.56.07.81M31.54,9.84c.19-.31.66-.5,1.06-.34.12-.41.5-.72.94-.72.19,0,.34.06.53.16.22-.25.59-.47,1.03-.47.09,0,.19,0,.28.03.16.03.44.19.37.5,0,.03-.03.03-.03.06-.12.03-.22-.03-.28-.09-.03-.03-.06-.06-.12-.09-.06-.03-.12-.03-.19-.03-.44,0-.72.37-.81.72,0,.03-.03.06-.06.03-.19,0-.25-.12-.31-.22-.03-.06-.06-.12-.12-.16s-.16-.03-.22-.03c-.16,0-.25.03-.34.12-.12.12-.19.37-.16.75,0,.03,0,.06-.03.06-.06.03-.09.03-.12.03-.12,0-.19-.09-.25-.16-.03-.03-.03-.06-.06-.06-.09-.03-.19-.06-.25-.06-.19,0-.28.12-.41.28-.09.09-.19.22-.31.28h-.03s-.03-.03-.06-.03c-.16-.19-.16-.37-.03-.56M30.54,8.62c-.16.94-.78,1.75-1.25,2.28l-.16.19c-.34.41-.69.78-1.12,1.12.25.09.41.19.69.34,0,0,.03,0,.03.03.03.06.09.12.12.19.12.16.28.37.31.69.03.25-.06.72-.22.9-.06.06-.12.09-.19.09h-.03c-.09,0-.16-.03-.19-.09-.06-.12,0-.28.06-.41.03-.06.03-.09.06-.12.06-.22.03-.37,0-.56,0-.03,0-.06-.03-.09-.12-.22-.44-.41-.87-.56h-.47c-.12,0-.25.06-.37.09-.16.06-.31.09-.47.09s-.28-.06-.34-.22v-.06c.09-.12.22-.19.34-.22.12-.03.25-.06.37-.06.12-.03.22-.03.31-.06.69-.22,1.15-.78,1.59-1.34.25-.31.53-.65.84-.9.09-.16.12-.25.16-.34-.78.34-1.72.59-2.53.62-.53,1.37-1.75,1.93-2.93,2.5-.16.09-.34.16-.5.25-.41.19-.78.41-1.15.65-1.15.94-2,1.96-2.59,3.15v.03c-.66.72-1.65,1-2.56,1.19h-.03s-.03-.03-.03-.03c-.09-.44.03-.81.28-1.15.31-.37.81-.59,1.34-.59.25,0,.47.06.72.12,1.09-1.59,2.4-3.15,4.37-3.93.03,0,.03-.03.06-.03-.03-.09-.03-.16-.03-.25,0-.06-.03-.16-.03-.22,0-.22.03-.41.09-.56.28-.78,1.06-1.25,1.5-1.47h.03c.28-.03.56-.03.84-.03.5-.03,1-.06,1.47-.12.66-.09,1.25-.25,1.72-.59.22-.16.44-.37.59-.62,0-.03.03-.03.06-.03.06,0,.09.03.09.03h.03s.03,0,.06.03c0,0,.03.03.03.06-.06-.03-.09,0-.09.03M91.66,33.55c-2.65-1.62-5.77-2.93-9.11-3.84-.25-.06-.5-.12-.72-.19s-.44-.09-.66-.16c-1.19-.28-2.4-.53-3.62-.72-2-.31-4.03-.47-6.02-.47-3.06,0-5.96.37-8.58,1.09-.19.06-.34.09-.53.16-2.18.59-4.43,1.22-5.3,3.28,2.65,1.4,5.52,3.62,4.59,8.36-.31,1.59-1.15,2.93-1.93,4.06-1.47,1.53-2.25,2.21-2.99,2.5.06.03.12.06.16.12v.06s-.03.03-.06.03c-.12,0-.28,0-.44-.03h-.03s-.09,0-.12-.03h-.06c-.12,0-.28-.03-.41-.03h-.03c-.34-.03-.81-.12-.97-.34v-.06c.12-.16.28-.22.44-.25.03,0,.09-.03.12-.03.37-.12.72-.34,1.03-.56.28-.19.59-.41.94-.53-.06,0-.12-.03-.16-.03-.25-.03-.47-.09-.69-.09h-.22c-.62.06-1.22.22-1.84.37-.72.19-1.47.37-2.22.41-.69.03-1.34-.06-1.93-.31-.12-.06-.31-.12-.44-.22-.03,0-.06-.03-.12-.03-.09,0-.16-.03-.22-.09h-.03c-.03-.06-.03-.12-.03-.19,0-.03.03-.03.03-.03.03-.03.06-.03.09-.03.06-.03.12-.06.22-.06.12,0,.25.03.37.03.12.03.25.03.37.03h.16c.31-.03.59-.22.81-.37-.37-.06-.69-.25-1-.44-.34-.22-.69-.41-1.15-.47h-.34c-.22,0-.47.03-.69.03-.19.03-.37.03-.56.03s-.34,0-.47-.03c-.34-.03-.62-.12-.91-.28-.16-.09-.31-.19-.47-.31l-.03-.03c-.12-.22-.28-.44-.41-.62-.31-.5-.66-1-.87-1.59-.09-.25-.12-.5-.19-.75-.03-.16-.06-.31-.09-.47-.09-.37-.12-.72-.19-1.09-.03-.28-.09-.59-.12-.87v-.03c.06-.28,0-.56-.03-.84-.03-.19-.06-.34-.06-.53v-1.56c0-1.4.31-2.74.62-4.06.25-1.06.47-2.06.53-3.06,0-.03.03-.06.03-.09s.03-.03,0-.09v-.03c.06-.28.12-.53.16-.81.09-.41.19-.81.28-1.19.19-.81.41-1.59.5-2.31v-.06c.03-.31.09-.59.12-.87,0-.03,0-.09.03-.12.06-.44.16-.9.19-1.34.03-.19.03-.41.03-.59v-.56c.03-.34.03-.65.03-.94,0-.47,0-.87-.03-1.25-.03-.53-.09-1-.25-1.4v-.06c.16-.25.03-.5-.06-.72-.06-.09-.09-.22-.12-.31-.03-.16-.06-.25-.09-.41-.06-.19-.12-.34-.22-.53-.03-.06-.06-.12-.09-.19-.03-.09-.06-.19-.09-.25-.06-.19-.12-.31-.16-.47-.03-.09-.06-.16-.09-.25,0-.03-.03-.06-.03-.06-.25-.75-.47-1.31-.94-1.87-.25-.34-.53-.65-.78-.97-.06-.06-.12-.12-.16-.19-.25-.28-.5-.56-.75-.84-.19-.16-.37-.31-.56-.44-.28-.22-.56-.44-.84-.65-.09-.06-.16-.12-.25-.19-.34-.25-.75-.47-1.25-.69h-.03c-.12-.09-.25-.16-.44-.25-.06-.03-.16-.06-.25-.12q-.25-.12-.56-.22c-.12-.03-.28-.06-.44-.09-.16-.03-.34-.09-.5-.16-.03,0-.06-.03-.09-.03-.66-.19-1.31-.41-2-.41h-.25c-.12.19-.06.34.03.5.06.12.16.28.09.47h0s-.03.03-.06.03c-.09,0-.19-.03-.25-.09-.06-.03-.09-.06-.16-.09-.09-.06-.22-.16-.34-.16h-.03c-.12-.03-.25-.03-.37-.03-.19,0-.37.06-.56.16-.28.16-.41.34-.66.65l-.09.12s-.06.03-.09.03c-.06-.03-.12-.09-.16-.19v-.06c.44-.69.94-1.03,1.56-1.09.06,0,.12-.03.19-.03.12,0,.28,0,.44.03.09-1.15.87-1.5,1.59-1.87.16-.06.28-.12.44-.22.78-.41,1.31-.78,1.56-1.4-.34.34-.81.56-1.28.75l-.06.03c-.41.16-.84.25-1.28.34-.62.12-1.22.25-1.72.53-.34.19-.47.25-.87.62-.62.62-1.31,1.25-2.22,2h-.03c-.28.09-.56.28-.87.44-.31.19-.66.37-.97.5-.41.16-.84.28-1.28.37-.22.06-.47.12-.69.19-1.09.31-2.43.78-3.31,1.53-.22.19-.69.65-.62,1.09.03.22.12.37.22.53.03.03.03.06.06.09v.06s-.03.03-.03.03c-.03.03-.09.03-.12.03-.06.03-.16.03-.25.12h-.03c-1.22.5-2,1.53-2.53,2.34l-.03.03c-.25.09-.47.25-.62.47,0,0,0,.03-.03.03-.25.16-.5.28-.78.41-.78.37-1.59.78-1.78,1.68-.06.25-.06.62.03.87h.12c.78,0,1.47-.34,2.09-.72.5-.28,1.09-.65,1.47-1.06.16-.19.31-.44.47-.69.16-.28.34-.56.56-.78.09-.12.34-.34.5-.47l.03-.03c.44-.37.72-.65,1.19-.87.28-.16.59-.28.94-.34.34-.09.69-.12,1.03-.12.81,0,1.59.22,2.28.59.94.5.31,1.96-.03,2.75l-.03.09c-.06.12-.12.22-.19.31-.03.06-.06.09-.09.16-.19.28-.37.59-.56.87-.25.41-.5.81-.75,1.19-.75,1.22-1.43,2.37-2.06,3.43.12.62.44,1.03.97,1.25-.03-.06-.03-.16-.06-.25-.12-.31-.25-.72.06-.94,0,0,.03-.03.03,0t.03.03c.28.37.69.56,1.28.56h.12c-.41-.37-.84-.97-.75-1.84.19-1.5,2.12-1.78,3.24-1.93.75-.09,1.09-.5,1.37-.9-.16.03-.31.06-.5.06s-.37-.03-.56-.03c-.34-.03-.72-.06-1,0-.5.09-.72.25-1.12.65-.03.03-.06.03-.09,0-.03,0-.03-.03-.03-.06.06-.37.16-.59.31-.78.66-.72,1.75-1.28,2.74-1.37.81-.25,1.5-.5,2-1.06-.16.06-.31.06-.53.06-.16,0-.31,0-.5-.03-.12,0-.28-.03-.44-.03h-.06c-.53,0-.91.19-1.28.37-.09.03-.16.09-.25.12-.03.03-.06,0-.09-.03-.19-.31.12-.56.34-.72.03-.03.06-.03.09-.06.59-.5,1.47-1.19,2.28-1.47.06-.03.12-.03.19-.03s.12,0,.16-.03c.16-.03.34-.12.5-.16.31-.12.59-.22.91-.25h.28c.34,0,.66.06.97.12.16.03.31.06.5.09-.12-.22-.34-.34-.56-.5l-.12-.06c-.53-.37-1.34-.84-2.34-.9h-.44c-.12,0-.28,0-.37-.12,0,0-.03-.03-.03-.06v-.06s.03-.03.03-.06c.12-.06.31-.09.53-.12h.09c.28,0,.62.06.87.09.31-.5.87-.78,1.56-.78,1.15,0,2.43.81,2.53,2,.19,0,.37-.03.56-.06.22-.03.47-.06.72-.03.94.09,1.84,1.03,2.06,1.78.12.41-.03.87-.16,1.31-.03.12-.09.28-.12.41.44.16,1.19.53,1.53,1.15.16.25.34.65.37.94.16.94-.59,1.72-1.09,2.18.06.06.09.09.16.16.44.44.87.87.94,1.65v.03c-.25,1.06-.81,1.81-1.68,2.21.06.12.16.28.22.41.28.47.56.97.53,1.65-.03.72-.47,1.68-.78,2.09-.31.44-.62.72-.97.9.56.5.78,1.5.53,2.28-.22.59-.78,1-1.19,1.31.37.34.97.97.94,1.59-.03.94-.78,1.53-1.34,1.93.34.12.59.34.81.56.03,0,.03.03.06.03.12.09.25.22.37.28l.03-.44c0-.09,0-.16.03-.22.12-1.81.22-3.56.56-5.21.19-.97.5-1.9.78-2.81.19-.62.41-1.25.59-1.9.03-.16.06-.34.06-.53.03-.16.03-.31.06-.47.06-.22.09-.47.16-.72.03-.22.09-.41.12-.62.16-.94.31-1.93.34-3.06,0-.19.03-.37.03-.56.03-.12.03-.25.03-.41v-.19c0-.16,0-.28-.03-.47-.03-.28-.09-.59-.16-.9s-.16-.65-.19-1c-.09-.84-.22-1.53-.37-2.09-.06-.25-.12-.47-.22-.69-.09-.25-.19-.5-.31-.72-.06-.12-.12-.22-.16-.34-.12-.25-.22-.44-.37-.65-.53-.65-1.12-1.22-1.75-1.72-.5-.41-1.06-.75-1.62-1.03-.09-.03-.19-.09-.34-.16-.5-.22-1.22-.5-1.59-.5h-.03c-.22.03-.41.12-.59.25-.16.09-.34.19-.53.25-.37.16-1.03.34-1.72.34-.06,0-.09,0-.16-.03-.41-.03-.78-.09-1.06-.25-.03-.03-.03-.06-.03-.09.06-.16.19-.25.34-.25.12,0,.25.03.34.09.09.03.16.06.22.06.16.03.37,0,.59-.03.09,0,.19-.03.28-.03.19-.03.34-.03.53-.06.5-.12.94-.37,1.34-.62.53-.34,1.03-.72,1.5-1.09.34-.31.72-.62,1.12-.87-.41-.28-.87-.34-1.31-.34h-.16c-.69,0-1.37.28-2.03.59-.66.28-1.37.59-2.06.59-.16,0-.31-.03-.47-.03-.03,0-.06-.03-.06-.06,0-.12,0-.19.06-.25.09-.09.25-.12.5-.03.59-.06,1.15-.31,1.78-.56.72-.31,1.43-.62,2.28-.62h.06c.72,0,1.43.25,2.12.69h.03c.12,0,.28,0,.34.12.06.06.06.16.03.28,0,.03-.03.03-.06.06-.12,0-.25,0-.34-.03-.16-.03-.28-.03-.44,0-.5.34-1.4.97-2.03,1.65.75.09,1.4.44,2.06.75.22.09.44.22.62.31.72.53,1.31,1.06,1.81,1.59.47.53.87,1.06,1.19,1.62.12.25.25.47.37.72.12.28.19.59.25.9.03.16.06.31.12.5,0,.03,0,.06.03.09.09.34.19.78.25,1.31.03.25.09.5.16.75.03.12.06.25.09.37l.03.12c.06.28.12.59.16.9.03.25.06.5.06.75s-.03.5-.03.75c-.03.84-.12,1.68-.25,2.5-.12.87-.28,1.75-.47,2.56,0,.06-.03.09-.03.16l-.03.19c-.12.62-.28,1.28-.5,1.93-.03.09-.03.16-.06.25-.06.16-.12.28-.19.41-.09.19-.19.37-.22.59-.06.19-.09.37-.12.59-.19.84-.37,1.68-.5,2.46-.03.22-.06.41-.09.62-.09.62-.16,1.25-.22,1.87,0,.12-.03.28-.03.47-.03.19-.03.41-.06.62-.03.47-.06.97-.03,1.31.03.22.16.31.28.47.06.06.12.12.19.22.06.09.12.19.19.28.09.16.19.28.31.41.03.03.09.09.16.12.16.09.28.22.31.37,0,.09-.03.16-.09.25t-.06.03c-.28-.06-.44-.19-.62-.28-.12-.09-.25-.19-.41-.22.06.53.16.84.28,1.22.41.19.78.44,1.15.69.19.12.34.22.53.34.19.19.34.37.5.59t0,.06h0c.19.28.37.56.56.84.06.12.16.25.22.37.03.03.09.09.16.12.19.12.34.25.37.53t-.03.06s-.03.03-.06,0c-.22-.06-.37-.19-.53-.28-.12-.09-.28-.19-.44-.28-.28-.12-.62-.16-1-.19s-.78-.06-1.12-.22c.41.5.84,1.06,1.37,1.53.5.09,1,.09,1.5.09h.28c.84.03,1.47.44,2.06.84.47.31.87.59,1.43.72.03,0,.06.03.06.06l-.03.22s-.03.06-.06.06c-.19,0-.37-.03-.56-.03-.31-.03-.62-.06-.94-.06h-.03c-.41,0-.72.06-.97.16l.09.03c.53.28,1,.53,1.68.53h.03c.12,0,.25,0,.37-.03.53-.06,1-.22,1.47-.37.5-.16.97-.31,1.5-.34h.16c.25,0,.5.03.78.09.28.06.62.19.87.31.03.03.06.03.09.06,0,0,.03,0,.03.03.22.09.5.25.47.5,0,.03-.03.06-.03.06-.06.03-.16.03-.25.03-.12,0-.22-.03-.34-.06-.12-.03-.25-.06-.34-.06h-.12c-.5.06-.87.34-1.28.65-.19.12-.34.25-.5.34.09,0,.16.03.25.03.28.03.56.03.66.25v.06c-.09.12-.22.19-.41.19-.12,0-.25-.03-.34-.06-.06,0-.09-.03-.12-.03-1.72-.25-3.18-1.03-4.46-1.72-.47-.25-.91-.47-1.34-.69-1.87-1.37-3.18-3.03-4.52-4.8l-.31-.41c-.78-1-1.37-2.15-1.97-3.28-.09-.16-.19-.34-.28-.5-.5-.97-1.03-1.93-1.72-2.74-.06-.09-.12-.19-.16-.28s-.09-.16-.12-.22c-.06-.06-.12-.12-.19-.19-.09-.09-.16-.19-.25-.25-.25-.25-.53-.47-.78-.69-.06-.06-.16-.09-.22-.12-.09-.06-.22-.12-.31-.19-.12-.12-.25-.28-.37-.41-.16-.19-.28-.34-.47-.47-.09-.06-.22-.12-.31-.16s-.22-.09-.31-.12c-.19-.12-.37-.25-.53-.37l-.03-.03c-.19-.16-.41-.31-.62-.44t-.06-.03c-.44-.25-.94-.47-1.5-.69,0,0-.03,0-.03-.03-.12-.12-.31-.22-.53-.28-.16-.06-.34-.12-.47-.22-.34-.09-.69-.19-1.03-.28-.09-.03-.19-.06-.31-.09-.12-.03-.28-.09-.41-.12-.75-.22-1.5-.44-2.31-.53-.34-.06-.69-.06-.97-.06h-.87c-.16,0-.28,0-.41-.03-.22-.03-.44-.03-.66-.03-.59,0-1.12.06-1.68.12-.16.03-.31.03-.47.06-.19.06-.34.12-.53.16s-.34.09-.5.12c-.12.03-.28.06-.41.09-.31.09-.62.16-.94.28-.09.06-.22.09-.37.12-.37.12-.81.28-.94.56-.03.09-.03.19-.03.28s0,.19-.03.25c-.03.09-.09.22-.12.31-.03.12-.09.22-.12.34-.09.19-.19.41-.25.65v.03c-.16.22-.31.41-.47.62-.66.9-1.34,1.84-2.15,2.46l-.06.06c-.34.25-.72.56-1.15.56t-.06-.03v-.06c.12-.34.41-.5.69-.62.16-.06.28-.16.41-.25.25-.34.53-.62.97-.94.19-.41.44-.69.72-1,.09-.09.16-.19.25-.28l.06-.12c.22-.37.47-.78.66-1.22.19-.41.31-.87.37-1.43-.19.16-.34.34-.53.5-.16.16-.31.34-.5.5,0,0-.03,0-.03.03h-.03c-.06,0-.09-.03-.09-.03h-.03c-.09.06-.22.12-.34.19-.41.22-.81.41-1.25.56-1.4.56-2.74,1.09-2.99,2.93,0,.03-.03.03-.03.06-.03,0-.03.06,0,.12,0,.06.03.12-.03.16-.03.03-.06.06-.16.03h-.03c-.25-.12-.16-.34-.12-.5.03-.06.03-.09.03-.16.03-.28.06-.53.06-.84,0-.16-.03-.31-.09-.47-.06-.19-.16-.41-.25-.56-.16-.31-.31-.59-.28-.9.03-.5.44-.94,1.15-1.25-.31-.47-.37-1-.16-1.47.31-.69.78-1.12,1.5-1.4-.44-.78-.12-1.62.12-2.43.19-.56.37-1.06.34-1.56-.03-.28-.12-.56-.34-.84.06.31.09.75,0,1.28-.16.87-.72,1.62-1.31,2.37-.22.28-.47.59-.66.87-.34.5-.62,1.09-.94,1.9-.16.44-.28.97-.41,1.47-.16.72-.34,1.47-.66,2-.03.06-.09.09-.12.12s-.09.06-.09.09c-.34.56-.69,1.03-1.03,1.53-.09.12-.19.25-.28.37-.09.12-.19.28-.28.41-.12.19-.25.37-.37.53-.09.12-.19.25-.28.37-.16.19-.31.37-.44.56-.5.72-.94,2.12-.31,2.74.03.03.09.06.16.09.12.06.25.12.28.25v.06c-.34.44-.78,1.15-.94,2.03-.06.28-.06.56-.06.87,0,.25,0,.47-.03.72-.16,1.09-.66,1.81-1.19,2.5l-.12.19c.03.16-.06.28-.12.41-.03.09-.09.16-.09.25-.12.62.03,1.43.37,1.87l.03-.03c.59-.56,1.06-1.03,1.43-1.84.06-.09.09-.22.16-.34.12-.22.25-.47.28-.65.16-.5.16-1,.19-1.56,0-.22.03-.44.03-.65.03-.53.12-1.15.34-1.75.09-.28.25-.56.41-.78.06-.12.12-.22.22-.34.19-.22.56-.5.84-.62.16-.06.31-.09.47-.09.56,0,1.12.37,1.4.75.56.78.72,1.81.87,2.84.03.31.09.65.16.97.12.72.25,1.43.37,2.15.09.62.19,1.19.28,1.75v.16c0,.19.03.34.16.41,0-.41-.09-.81-.16-1.22-.03-.19-.09-.41-.12-.62-.06-.37-.09-.78-.12-1.15-.03-.31-.06-.59-.09-.9-.03-.22-.06-.41-.12-.62-.03-.12-.06-.22-.09-.34v-.03c-.06-.28-.12-.56-.19-.84-.12-.69-.19-1.47-.22-2.15-.03-.25-.03-.5-.06-.72,0-.03,0-.06.03-.06h.06s.03.03.03.06c.06.06.09.09.12.16.19.34.22.81.25,1.25,0,.12,0,.28.03.41.03.25.06.5.09.75.06.34.12.65.19.97.06.22.09.47.12.69.09.56.19,1.12.25,1.68.03.34.09.69.16,1.03.03.12.03.28.06.41,0,.06,0,.09.03.16.03.12.06.28.09.41.03.12.09.25.09.41v.28c0,.12,0,.22.03.31.16.44.75.59,1.25.59.53,0,1.19-.19,1.43-.59h-.03c-.16.03-.37.09-.59.06-.47-.03-1.12-.28-1.09-.69,0-.03.03-.06.03-.06.47-.16.78-.37.97-.69-.53.06-1.03-.19-1.28-.65-.28-.47-.25-1.09.03-1.56.22-.34.53-.65.87-.97.41-.41.84-.84,1.03-1.31.06-.19.09-.37.12-.56,0-.06,0-.12.03-.19-.28.25-.59.41-.94.56-.41.22-.81.44-1.12.78v.19c0,.16,0,.37-.19.41-.09,0-.16-.03-.19-.09-.12-.16-.09-.47-.06-.72.12-.87.56-1.43,1-1.96.34-.44.69-.87.84-1.43-.09.06-.16.09-.22.16-.06.06-.12.12-.22.19-.22.12-.5.25-.75.31-.31.09-.59.22-.78.37-.09.09-.16.19-.22.28-.09.12-.16.28-.34.37-.03,0-.06,0-.09-.03-.22-.34,0-1.15.03-1.31.12-.37.37-.78.56-1.03.59-.75,1.34-1.09,2.37-1.43.5-.19,1.03-.41,1.59-.69.12-.16.31-.28.47-.37.19-.12.37-.28.5-.44-.56.22-1.34.28-2.28.19h-.19c-.97-.12-2.03.19-2.5.69-.03.03-.06.03-.06.03-.03,0-.03-.03-.03-.06.16-.87,1.56-1.03,2.03-1.06.56-.69,1.09-1.31,1.84-1.96.56-.47,1.25-1,1.97-1.22.81-.44,1.72-.78,2.74-1.03.31-.06.66-.12.97-.16.66-.09,1.34-.16,2.06-.16.25,0,.5,0,.72.03,1.19.06,2.37.53,3.4.94.44.19.84.34,1.22.47,0,0,.03,0,.03.03.22.19.47.37.69.53.34.25.72.5.97.84.28.09.47.28.66.47.06.06.12.12.22.22.19.12.37.28.56.47.78.69,1.43,1.53,2.03,2.31.09.12.19.25.28.34.69.87,1.22,1.81,1.62,2.81v.06h0c.16.34.28.72.37,1.06v.06c.03.12.06.22.06.34.03.16.03.28.09.44.06.12.12.28.22.41.03.03.06.09.09.12.03.06.06.09.09.16.28.56.5,1.06.69,1.59.06.19.16.41.22.59.19.56.37,1.09.59,1.62.84,2.09,1.97,3.96,3.09,5.8l.31.5c.12.22.22.44.34.65.12.25.22.47.34.69.12.19.25.34.37.53.09.12.22.28.31.44.25.34.47.65.72.97.09.12.19.25.28.37,1.03,1.37,2.22,2.9,3.96,3.21h.22c.12,0,.25,0,.31.09.06.06.06.16.03.28t-.03.03s-.06.03-.09.03-.03.03-.06.03c-.06,0-.12,0-.22-.03-.09-.03-.19-.03-.28-.03h-.03c.12.34.41,1.03.81,1.5.03,0,.06.03.09.06.06.03.12.09.22.12.22.16.47.31.75.37.16.03.34.06.47.06h.56c.16,0,.34,0,.5.09.03,0,.03.03.03.06-.03.22-.25.28-.41.28h-.47c.41.72,1.22,1.53,2.31,1.65.12.03.28,0,.44,0,.09,0,.19-.03.28-.03.12,0,.31.03.47.16.03.03.03.06,0,.09-.16.19-.44.19-.75.19.34.9,1.37,1.56,2.47,1.56.34,0,.62-.06.91-.19h.06s.03.03.03.03c0,.03.03.03.03.06.03.06.09.12.06.28,0,.03-.03.03-.06.06-.06,0-.12,0-.19.03-.09,0-.19.03-.28.03.19.41.75.84,1.31,1.09.28.12.53.22.78.25h.41c.06,0,.16,0,.25.06.06-.34.16-.65.28-.97.25-.75.56-1.43.84-2.09.06-.16.12-.28.19-.44h-.03s-.09-.03-.12-.06c0-.03-.03-.06,0-.09-.12-1.12.06-2.65.78-3.56l.03-.03c.12-.06.22-.19.31-.28.12-.19.28-.34.5-.34.03,0,.06.03.06.03v.06c-.84,1.09-1.56,2.31-1.25,3.74.22-.25.41-.5.62-.78.41-.53.81-1.09,1.4-1.4.03,0,.06,0,.09.03s.03.06,0,.09c-.37.56-.87,1.15-1.28,1.65-.19.22-.34.41-.5.59-.03.22-.16.37-.25.5-.06.09-.09.16-.16.25-.37.78-.62,1.53-.84,2.34-.34,1.19-.59,2.43-.81,3.77l-.06.28c-.12.65-.12,1.31-.09,1.96v.9c0,.65-.03,1.28.06,1.87.06.5.19.87.31,1.25.06.16.09.28.16.44.06.19.09.37.16.56.06.19.09.37.16.56.44,1.4,1.5,2.53,2.37,3.46.12.12.28.25.41.34.06.03.12.09.19.12.19.12.34.28.47.5v.06s-.03.03-.06.03c-.25,0-.44-.09-.62-.22-.12-.09-.28-.22-.41-.34s-.25-.22-.37-.31c-.31.53-.62,1.12-.59,1.75,0,.09.03.16.06.25.06.16.12.34,0,.53t-.06.03c-.31-.06-.34-.37-.37-.62,0-.03,0-.06-.03-.12-.28.06-.5.19-.75.34-.12.06-.25.12-.37.19-1.19.56-2.62.75-3.96.94-.75.09-1.47.16-2.28.22-.16,0-.31.03-.47.06-.19.03-.41.06-.62.06-.09,0-.22-.03-.31-.03-.09-.03-.19-.03-.31-.03-.22,0-.44.03-.66.03h-.03c-.41.03-.81.03-1.15,0-.28-.03-.56-.06-.81-.06-.53-.03-1.06-.09-1.56-.19-.28-.06-.59-.16-.87-.25-.25-.09-.5-.16-.78-.22-.59-.16-1.12-.34-1.56-.59-1.5-.81-2.68-1.87-3.68-3.31-.5-.72-.94-1.43-1.31-2.12-.12-.25-.28-.53-.44-.78-.34-.59-.69-1.19-.91-1.84-.75.25-1.37.78-1.65,1.37,0,.03-.03.03-.03.03-.22.09-.34.31-.47.56-.03.03-.03.09-.06.12.19.25.41.5.62.75.78.87,1.78,1.68,2.68,2.4l.09.06c.12.12.28.22.41.34.28.25.56.5.84.65.06.03.16.06.25.09.03,0,.03.03.06.03.19.09.41.19.41.44v.06s-.03.06-.06.06c-.56-.03-.87-.31-1.22-.59-.06-.06-.16-.12-.22-.19-.19-.16-.37-.28-.56-.44-1.09-.84-2.18-1.72-3.03-2.71-.16-.19-.34-.37-.47-.59-.09-.03-.19-.09-.25-.12,0,0,0-.03-.03-.03-.09-.22-.25-.37-.41-.53-.19-.16-.34-.34-.44-.59-.84.97-1.4,2.37-1.53,3.87.31.09.62.16.97.22.06.03.12.03.19.06.84.19,1.72.37,2.4.72l.03.03.03.03s.06.03.06.09c.34.03.66.22.94.37.12.09.28.16.41.22.28.12.62.28,1.09.44.03.03.09.03.16.03.12.03.31.06.41.22v.03c-.03.16-.12.22-.28.22-.12,0-.28-.06-.41-.12-.03,0-.06-.03-.09-.03-.28-.09-.56-.22-.72-.37-.09.03-.19,0-.25-.06-.03-.03-.06-.06-.12-.03h-.06c-1.12-.75-2.62-1.22-3.96-1.5-.81-.19-1.59-.28-2.18-.34-.03.69,0,1.4.03,2.09,0,.09.03.19.03.25.03.59.12,1.15.19,1.68.78-.28,1.9-.59,3.18-.59,1,0,1.87.22,2.62.62.94.5,1.75,1.15,2.37,1.87.34.41.66.78.84,1.25h.03s.16,0,.16.09v.03c-.06.16.09.37.22.5,0,0,.03.03.03.06-.03.28.09.5.19.72v.03c.19.87.03,1.9-.41,2.93.44.22,1,.34,1.59.34h.12c.69,0,1.4-.16,1.97-.41-.5-.75-1.03-1.96-.84-3.03.03-.12.06-.25.12-.37.06-.16.16-.31.12-.5t.03-.06c.16-.16.34-.34.5-.5.09-.09.19-.19.28-.28-.16,0-.31.03-.47.03-.28,0-.56-.03-.84-.06-.78-.12-1.5-.47-1.72-1.09-.06-.12-.19-.72.03-.94.03-.03.06-.03.09,0,.16.12.19.34.19.59,0,.12.03.25.06.34.25.47,1,.72,1.65.81.03,0,.09.03.12.03.28.03.56,0,.81-.03.31-.03.69-.06.94-.03.25.03.5.16.75.28.19.09.41.19.59.25.28.09.53.16.78.25s.47.16.66.22c.97.28,1.93.44,2.99.56.28.03.56.06.84.12,2.22.34,4.3.5,6.24.5,1.22,0,2.37-.06,3.46-.19.87-.19,2.15-.47,3.15-.87.06-.03.12-.06.22-.12.19-.09.37-.22.56-.22.12,0,.22.06.28.16v.06c-.16.19-.37.28-.59.34-.09.03-.19.09-.28.12.31.03.59-.06.81-.12.06,0,.09-.03.12-.03.5-.16.66-.25,1-.47l.09-.06c.09-.06.22-.12.34-.16.12-.06.22-.09.31-.16.06-.03.12-.12.19-.19s.12-.16.19-.22.12-.09.19-.12.09-.06.16-.09c.72-.69.56-1.56.37-2.53-.06-.31-.12-.65-.16-1-.09-1.06.19-2.5.53-3.21.03-.06.09-.12.12-.22.16-.25.28-.47.37-.72,0,0,0-.03.03-.03.47-.41.91-.9,1.31-1.34l.03-.03c.31-.12.59-.31.84-.47.31-.19.62-.41.97-.53.28-.12.59-.22.87-.31.16-.06.28-.09.44-.16.31-.12.66-.25.94-.41.12-.06.25-.12.34-.22.22-.16.47-.31.75-.34.19-.22.41-.34.62-.47.12-.06.22-.12.34-.22.09-.06.19-.16.28-.22.22-.19.47-.37.72-.5.09-.09.16-.19.22-.25.59-.69,1.22-1.37,1.65-2.21.03-.12.06-.25.09-.37.06-.25.09-.53.25-.72.03-.03.06-.03.09,0,.03.03.06.03.09.06.03,0,.03.03.03.06-.19,1.65-1.06,2.56-1.9,3.43-.06.09-.16.16-.22.25.16,0,.28.03.41.06.19.03.34.06.53.06.12,0,.28-.06.47-.09.22-.06.44-.12.62-.12s.28.06.37.16c0,.03.03.03,0,.06,0,.03-.03.03-.03.03-.44.22-.97.34-1.56.34-.41,0-.81-.06-1.19-.19-.19.12-.34.25-.53.37-.37.28-.78.56-1.22.81-.06.03-.09.06-.16.06-.12.06-.22.09-.25.19.34.5.94,1.06,1.62,1.19h.47c.12,0,.22.03.28.06.03,0,.03.03.03.06-.03.22-.16.34-.44.34-.12,0-.25-.03-.37-.03-.06,0-.12-.03-.19-.03h-.03l-.16-.09c-.59-.34-1.22-.69-1.56-1.28-.31.12-.62.28-.91.41-.09.03-.22.09-.31.12-.28.12-.59.25-.87.37-.06,1.28.53,1.93,1.15,2.46.03,0,.09.03.12.03h.03c.12.03.28.06.28.25,0,.03-.03.03-.03.06-.09.06-.19.06-.28.06s-.16-.03-.22-.03c-.22-.09-.37-.25-.53-.41-.09-.09-.16-.16-.22-.22-.59.65-.69,2.06-.37,2.9.03.09.06.19.09.28.03.09.03.19.06.25.09.19.22.31.34.41.12.09.22.22.28.34.03.03.03.06.06.09v.06s-.03.03-.03.03c-.03,0-.09.03-.12.03h-.03c-.25,0-.44-.25-.59-.47-.06-.06-.09-.12-.16-.19-.25.31-.41.75-.5,1.34.03.12.06.25.09.37.09.44.22.84.44,1.15.03.06.09.09.16.12.03.03.06.03.09.06.09.06.16.12.19.25,0,.03,0,.06-.03.06-.06.03-.16.06-.22.06-.09,0-.16-.03-.25-.06-.19-.12-.34-.37-.47-.62-.03-.09-.09-.19-.12-.25-.47.5-1.03,1.84-.84,2.81.03.22.19.41.28.59.03.06.06.09.09.16.03.03.06.09.12.16.03.06.09.09.12.16.09.12.16.31,0,.47-.03.03-.06.03-.06.03-.09-.03-.19-.09-.25-.16-.16-.16-.25-.34-.34-.5-.06-.12-.12-.25-.22-.37-.28.31-1,1.22-.91,2.25,0,.12.06.25.12.34.09.19.19.34.06.56,0,.03-.03.03-.06.03-.25-.03-.34-.25-.41-.44-.03-.06-.06-.16-.09-.22-.09.09-.19.19-.31.28-.12.09-.28.19-.37.34-.41.56-.78,1.56-.69,2.31t-.03.06s-.03.03-.06.03c-.41-.03-.37-.41-.37-.72v-.06c-.87.34-1.53,1.12-1.75,2.15v.16c0,.09,0,.22-.06.31-.03.09-.12.16-.25.19t-.06-.03h0c-.22-.22-.09-.59,0-.94.03-.09.06-.16.06-.22-.78.28-1.37.84-1.62,1.56-.03.09-.03.19-.03.28-.03.22-.03.47-.25.59h-.06c-.25-.12-.19-.37-.12-.62.03-.09.06-.19.06-.28-.87.06-1.31.56-1.72,1.31-.03.06-.06.12-.09.19-.12.28-.28.56-.53.56-.03,0-.06-.03-.06-.06-.03-.31.06-.53.16-.72h0c-.28,0-.47.09-.72.19-.16.06-.31.12-.5.16-.37.31-.69.69-.94,1.15,0,.16-.03.31-.09.44-.03.06-.09.09-.16.12-.03,0-.06,0-.06-.03-.03-.03-.03-.09-.06-.12-.12-.34.06-.72.25-.97-.06,0-.12-.03-.19-.03-.25,0-.5.06-.75.16-.19.06-.37.12-.56.16-.16.09-.28.19-.44.31-.12.09-.25.22-.37.31-.03.03-.06.06-.06.12-.12.19-.28.44-.5.44h-.09s-.06-.03-.06-.09c.03-.12.12-.25.22-.37.03-.06.12-.16.12-.22-.12-.03-.25-.03-.34-.03-.84,0-1.47.41-1.9.72-.03.03-.06.06-.09.09-.16.22-.34.47-.56.47h0s-.06-.03-.06-.06c-.03-.28.12-.44.22-.56.03-.03.06-.06.09-.09-.16-.03-.37-.06-.59-.06-.44,0-.87.09-1.12.22h0v.03s0,.12-.09.16h-.03c-.34,0-.59.31-.81.56-.06.06-.09.12-.16.19,0,0-.03.03-.06.03s-.03,0-.06-.03c-.22-.25.03-.5.19-.69l.12-.12c-.72-.16-1.53-.03-2.12.34-.16.09-.22.22-.31.34s-.19.28-.34.37c-.03.03-.06,0-.09,0-.12-.12-.06-.25,0-.34.03-.06.06-.12.06-.19-.25-.19-.62-.37-.97-.37h-.03c-.81,0-1.4.72-1.81,1.25,0,.03-.03.03-.06.03s-.03,0-.06-.03c-.19-.22-.03-.41.09-.53.06-.09.12-.16.12-.22-.03-.19-.78-.44-1.4-.44-.31,0-.75.09-.94.22-.16.09-.25.25-.34.37-.09.16-.19.31-.44.41h-.06s-.03-.03-.03-.03c-.06-.19.03-.31.09-.44.03-.06.09-.12.09-.22-.28-.25-.78-.41-1.22-.41-.22,0-.44.03-.59.12h0c-.16.19-.31.37-.5.5-.03.03-.03.06-.06.12-.03.12-.09.25-.19.25-.03,0-.06,0-.09-.03l-.03-.03c-.16-.22,0-.41.12-.56.03-.06.09-.12.12-.19-.34-.37-.94-.59-1.53-.59-.31,0-.59.06-.81.19-.09.06-.19.12-.28.22-.12.12-.25.25-.41.25-.03,0-.09,0-.12-.03s-.03-.03-.03-.06c.03-.19.19-.28.28-.37.09-.06.16-.12.19-.19-.53-.25-1.15-.41-1.68-.41-.28,0-.53.03-.72.12-.06.03-.12.06-.19.09-.09.06-.19.12-.28.12-.06,0-.12-.03-.19-.06t-.03-.06c.03-.25.22-.34.37-.44.06-.03.16-.06.22-.12-.12-.06-.25-.12-.34-.22-.12-.09-.28-.19-.44-.25-.37-.12-.84-.22-1.31-.22-.28,0-.56.03-.81.06-.03,0-.06,0-.06-.03-.06-.12-.06-.22,0-.28.09-.12.25-.16.47-.16-.47-.37-.91-.59-1.31-.62-.16,0-.31.03-.47.09-.25.06-.47.12-.62,0-.03,0-.03-.03-.03-.06,0-.28.25-.31.41-.34.06,0,.12-.03.16-.03-.5-.41-.97-.62-1.4-.72-.22-.03-.5-.03-.72.03-.28.03-.53.06-.75,0-.03,0-.03-.03-.06-.06,0-.09.03-.16.06-.22.09-.09.22-.09.37-.09.12,0,.25,0,.28-.06-.16-.34-.5-.53-.87-.75-.06-.03-.16-.09-.22-.12-.19-.06-.41-.09-.69-.09-.16,0-.31,0-.47.03-.25.03-.5.03-.66,0-.03,0-.06-.03-.06-.06,0-.31.25-.34.44-.34.06,0,.09,0,.12-.03-.34-.56-1.12-1.09-2-1.09-.09,0-.16,0-.25.03-.03,0-.09.03-.12.03-.12.06-.28.09-.37-.03v-.03c0-.19.16-.22.25-.25.06,0,.09-.03.12-.06-.19-.5-.66-.97-1.15-1.28-.41-.22-1.06-.41-1.56-.44-.06,0-.12.03-.19.03-.06.03-.12.03-.19.03-.09,0-.16-.03-.22-.09t-.03-.06c.06-.25.34-.25.53-.25h.12c-.09-1.19-1.34-1.53-2.59-1.68-.03,0-.03-.03-.06-.03v-.06c.06-.12.19-.12.28-.16.09,0,.12-.03.12-.06-.31-1-1.19-1.62-2.71-1.84h-.03s-.03,0-.03-.03v-.06s.06-.06.09-.09c.06-.06.16-.12.31-.12s.31.03.47.06c.06.03.16.03.22.03.06-.53-.22-.78-.5-1.03-.03-.03-.06-.06-.09-.09l-.09-.09c-.31-.31-.59-.59-1.12-.65h-.5c-.16,0-.37-.03-.44-.22v-.06s.03-.03.03-.03c.12-.06.34-.06.56-.06.06,0,.16,0,.22-.03,0-.5-.28-1-.59-1.28-.19-.16-.75-.47-1-.53-.06-.03-.16-.03-.25-.03h-.22c-.09,0-.19,0-.25-.03-.12-.03-.25-.06-.34-.16,0,0-.03-.03-.03-.06s0-.03.03-.03c.09-.06.22-.09.34-.12.06,0,.09-.03.16-.03.28,0,.59.06.84.12.03-.5-.19-.78-.44-1.09-.03-.03-.06-.09-.12-.12-.19-.06-.31-.19-.47-.31s-.31-.25-.5-.31c-.16-.06-.31-.09-.5-.16-.28-.06-.56-.12-.81-.31v-.09s0-.03.03-.03c.06-.03.16-.06.25-.06s.19.03.31.03c.16.03.28.03.41.03.09-1.09-.94-1.53-1.75-1.87-.03,0-.06-.03-.09-.03-.06,0-.09-.03-.16-.06-.09-.03-.19-.09-.16-.22,0-.03.03-.06.06-.06h.16c.19,0,.34.06.5.16.19.09.34.16.47.12-.06-.94-.66-1.4-1.28-1.78-.03,0-.03-.03-.06,0s-.06.06-.12.06h-.03s-.03,0-.06-.03v-.12c-.03-.06-.16-.09-.28-.12-.19-.06-.41-.12-.47-.28-.03-.03,0-.06.03-.09.03,0,.03-.03.06-.03,0,0,.03,0,.03-.03v-.06s.03-.03.06-.03.06.03.09.03c.16.06.28.09.47.12.12-.56-.16-1-.41-1.34-.03-.06-.06-.09-.09-.16-.16-.09-.34-.19-.56-.22-.16-.03-.34-.06-.53-.06-.34,0-.69.06-.94.19h-.06s-.03-.03-.03-.06c.06-.72.66-1.06,1.19-1.37.09-.03.16-.09.25-.12-.12-.06-.22-.16-.31-.28-.12-.16-.28-.28-.47-.31-.06,0-.12,0-.19.03-.06,0-.09.03-.16.03-.19,0-.37-.03-.53-.09-.47-.16-.84-.47-1.12-.78.16.62.34,1.19.53,1.75.06.19.12.41.22.59.03.09.06.22.09.31.19.47.34.97.5,1.47.37.56.62,1.25.87,1.9l.06.19c.25.44.5.87.72,1.31.09.19.19.37.31.53.16.31.34.59.5.9.72,1.28,1.43,2.59,2.22,3.84.06.06.09.12.16.19.31.41.62.81.91,1.22h0c.91,1.22,1.87,2.5,2.96,3.62,0,0,.03.03.03.06v.09h0c.41.37.78.78,1.15,1.19t.06.06c.31.31.59.65.94.97.37.34.75.72,1.15,1.06.44.41.87.84,1.25,1.25l.12.12c.31.31.59.62.91.9.09.09.19.16.25.22.28.25.59.5.87.75.19.16.41.34.59.5.09.09.19.16.28.25.28.25.53.47.84.65.12.09.25.19.37.28.09.09.19.16.28.25.06.03.12.06.19.09.06.03.16.06.22.09.19.12.37.28.53.44.03.03.06.06.09.09.19.16.34.31.56.44.09.06.16.09.25.12.28.16.5.28.72.5.09.06.19.09.28.16.78.41,1.4.81,1.9,1.25.19.09.41.22.62.34.53.31,1.06.59,1.65.84.09.03.19.09.28.12,1.22.47,2.62.87,3.84,1.22.47.12.91.25,1.31.34.81.22,1.75.34,2.62.47.19.03.37.06.53.06.25.03.5.06.75.09.78.12,1.5.19,2.18.25.94.09,1.84.12,2.65.12.87,0,1.72-.06,2.5-.16.22-.03.44-.03.62-.06h.03c.06,0,.09.03.12.03.03.03.06.03.09.03.34-.12.72-.16,1-.16h.97c.34,0,.69-.06,1.03-.09.09-.03.22-.03.31-.03.41-.06.81-.12,1.19-.12h.06s.03-.09.09-.09h.03c.84-.16,1.68-.34,2.53-.56.87-.25,1.78-.5,2.65-.81h.09c.22,0,.44-.06.66-.12.12-.03.25-.09.34-.12s.22-.09.31-.12c.44-.16.91-.28,1.37-.44.81-.25,1.62-.5,2.4-.84.34-.16.69-.31,1-.5h.03c.06,0,.09,0,.12-.03.03,0,.09-.03.12-.03.5-.28,1.03-.59,1.56-.9.56-.31,1.15-.65,1.75-.97.12-.06.28-.12.41-.19.19-.09.34-.16.5-.25.19-.09.34-.22.53-.34.84-.56,1.62-1.25,2.4-1.9t.06-.06c.34-.31.72-.62,1.09-.9.03-.03.03-.09.06-.12s.03-.09.06-.12c0-.03.03-.03.03-.03.25-.09.41-.25.56-.44s.31-.37.56-.47c.19-.34.44-.56.72-.75.03-.03.09-.06.12-.09.06-.06.12-.09.19-.16.25-.31.5-.69.78-1.03.19-.25.37-.5.56-.78.09-.12.16-.25.25-.34.16-.22.34-.44.5-.62.47-.59.97-1.19,1.28-1.9.03-.06.06-.12.09-.22.41-.56.81-1.19,1.09-1.93v-.03c.16-.19.28-.44.41-.69.09-.19.16-.41.25-.65,0-.03.03-.03.03-.03.06-.03.09-.12.12-.19.03-.09.09-.19.16-.25,0-.12.03-.22.09-.28.03-.09.09-.19.06-.31,0-.03.03-.06.06-.06,0,0,.03,0,.03-.03.03-.03.06-.09.16-.09h0c.06-.19.12-.41.22-.62.12-.31.25-.62.31-.97t.03-.06c.12-.47.25-.81.34-1.15.06-.16.09-.28.16-.44.06-.22.12-.44.19-.69.09-.34.19-.69.25-1.03.03-.16.06-.31.09-.47.09-.37.16-.78.19-1.15.03-.25.06-.53.12-.78.06-.37.12-.75.19-1.12.06-.41.12-.81.12-1.22,0-.16.03-.34.03-.5.06-.69.09-1.4.12-2.12.06-.53.09-1.12.12-1.59,0-.12,0-.22.03-.31v-.31c-.06.03-.12.09-.19.12-.34.28-.75.81-1.12,1.34-.28.41-.59.84-.91,1.15-.03.03-.06.03-.09.03s-.03-.03-.06-.03v-.06c1.37-2.59,1.65-7.46,0-9.58-.56-.69-1.19-1.34-2.15-1.34-.19,0-.41.03-.59.06-1,.25-1.4,1-2,2.06l-.06.09s-.03.03-.06.03-.06-.03-.06-.03c-.97-3.62-2.15-4.43-3.99-5.43h-.03s-.03,0-.06-.03l-.03-.03c-1.22-.56-2.65-.62-4.15-.65-.22,0-.44-.03-.66-.03-.03,0-.06-.03-.06-.06s.03-.06.06-.06c.56-.06,1.09-.09,1.59-.09,3.93,0,6.46,1.81,7.52,5.4.72-1.03,1.53-1.53,2-1.56,1.22-.09,2.25.37,2.99,1.34,1.43,1.87,1.59,5.27,1.03,7.71.19-.25.41-.47.66-.69.53-.47,1.22-.84,1.93-1.03h.03c.41-.12.81-.16,1.19-.12h.03c.66.06,1.22.31,1.65.75,2.4,3.24.72,8.92-.81,11.57.31-.22.62-.31.97-.31,1.06,0,2.06,1.22,2.12,2.59.19,4.52-4.37,8.3-8.39,10.17.87.37,1.43,1.06,1.68,2.03.34,1.37-.12,3.09-1.06,4.12-1.09,1.19-3.9,2.59-6.55,3.24-1.37.34-2.84.37-4.15.37h-1.75c1.06,1.9.59,3.56-1.4,4.84-2.5,1.62-8.49,2.93-13.35,2.93h-.16c-1.28,0-2.65-.06-3.96-.09-1.31-.03-2.68-.09-3.96-.09-2.06,0-3.59.12-4.77.41,3.96.78,7.99,1.19,11.98,1.19,5.65,0,11.14-.78,16.32-2.28,3.96-1.15,8.46-3.34,11.45-5.55,6.52-4.84,11.26-11.14,14.07-18.75,1.34-3.62,1.97-6.93,1.93-10.45-.03-10.08-3.53-19.81-9.61-26.74-.09-.12-.22-.25-.34-.37-1.53-1.75-4.03-4.65-6.43-5.09-.41.47-.41,1.06-.37,1.65,0,.44.03.9-.16,1.31-1.56,3.18-5.34,5.37-9.39,5.46h-1c-.75,0-1.59-.03-2.25-.22-.22-.06-.47-.19-.72-.28-.12-.06-.28-.12-.44-.19-.06-.03-.12-.03-.19-.06-.25-.06-.56-.16-.56-.5t.03-.06s.03-.03.06,0c.28.06.56.19.84.31.31.12.62.25.94.34.09.03.19.06.28.09.06.03.09.03.16.06.09.03.12.03.19.03.03,0,.06,0,.09.03.12.03.25.03.37.03h1.87c.44,0,.78-.03,1.09-.09-.09-.19-.31-.34-.62-.5-.03,0-.03-.03-.03-.06s.03-.06.06-.06c.28-.06.56-.12.87-.16-.19-.25-.41-.44-.69-.59t-.03-.06s.03-.06.06-.06c.47-.06.91-.12,1.37-.16-.66-.44-1.25-.72-1.9-.9-.41-.09-.87-.16-1.47-.16-.37,0-.75.03-1.09.03-.31,0-.66.03-.97.03h-.03c-.59,0-1.25-.16-1.78-.28-.19-.03-.37-.09-.53-.12h-.25c-.12,0-.41,0-.47-.25v-.06c.06-.09.28-.12.5-.12h.12c.28-.03.5-.16.78-.28.25-.12.5-.25.78-.28-.06-.03-.12-.06-.19-.09-.19-.09-.34-.19-.5-.22-.47-.16-.94-.19-1.53-.16-.03,0-.06,0-.06-.03s0-.06.03-.06c.31-.22.62-.44.91-.65.78-.56,1.43-1.03,1.72-1.15.47-.16.97-.25,1.5-.25,1.03,0,1.93.34,2.53.69-.12-.31-.28-.59-.44-.87-.44-.81-.87-1.68-.75-2.84.22-2.12,1.59-2.56,2.68-2.56,2.15,0,4.96,1.65,5.99,2.9-.28-1.06-.16-2.18.41-2.96.44-.65,1.12-1,1.93-1h.03c3.49.03,6.11,3.84,8.02,6.61.47.69.87,1.31,1.25,1.75.37-1.5,1.22-2.31,2.4-2.31,1.31,0,2.71,1,3.4,2.03,2.09,3.06,3.03,8.3,2.43,13.41.44-.37.94-.56,1.5-.56,1.37,0,2.74,1.15,3.31,2.25,2.12,4.06.25,11.82-2.15,14.94.84-.12,1.47.09,1.9.65.87,1.15.72,3.49.28,5.18-1.22,4.74-4.62,9.45-7.27,12.57-1.62,1.9-3.43,3.46-5.21,4.96-1.65,1.43-3.24,2.78-4.43,4.24,2.37-1.37,4.96-3.31,8.08-6.12,2.96-2.65,5.27-5.12,7.05-7.49,5.3-7.11,8.02-13.88,8.58-21.25.41-5.43-.78-10.73-2.12-15.66-2.44-9.07-8.15-16.43-16.55-21.58M44.71,80.51c1.93.69,3.65-.19,4.15-1.75-.75.03-1.19-.22-1.68-.41-.34,1.25-1.4,1.72-2.46,2.15M23.77,69.93c-.09-.81-.53-1.47-1.15-1.87.03.44-.03.84-.09,1.28-.03.12-.03.25-.06.34-.03.19-.06.34-.09.53-.09.59-.12,1.19.12,1.68.19.19.31.41.47.62.09,0,.16.06.22.09h0c-.09-.53.09-1.03.28-1.47.22-.44.37-.81.31-1.22M16.25,59.73c.56.16,1.09.41,1.59.72.16.09.28.16.44.25.12.09.28.16.41.25l.25.16h.31c.41,0,1.56,0,1.9-.41-.22-.03-.44-.06-.62-.09-.09-.03-.22-.03-.31-.06h-.03c-.34-.28-1.62-1.15-2.78-1.15-.47-.03-.84.09-1.16.34M28.48,48.28c.56-.03.97-.03,1.62.03.5-1.19-.25-2-.87-2.59-.81-.37-1.81-.41-2.71-.31.34.31.87.41,1.19.72.53.47.75,1.25.78,2.15M23.93,65.62s-.03,0-.03-.03c-.09-.16-.25-.28-.37-.41-.16-.12-.31-.28-.44-.47-.25-.37-.41-.81-.56-1.19-.37-.5-.91-1.03-1.97-1.12.09.19.22.34.34.5.09.12.19.25.28.37.09.16.16.31.25.47.19.31.34.65.5,1.03.09.28.22.53.31.81.28.19.59.25.97.25.31,0,.66-.06.97-.19-.03.03-.12,0-.25-.03M13.66,57.73c-.16,0-.28,0-.41.03-.22.03-.47.16-.66.25-.09.03-.16.09-.22.12-.75.31-1.22.72-1.43,1.25.5-.12,1.03-.19,1.59-.22.19,0,.41-.03.59-.03.28,0,.53,0,.78.03.81-.41,1.62-.87,2.06-1.53-.25.09-.53.16-.87.16-.22,0-.47-.03-.69-.03-.28,0-.53-.03-.75-.03M45.11,61.44l-.19-.09c-.41-.19-.78-.41-1.09-.62-.22-.16-.41-.31-.59-.5-.12-.12-.25-.28-.37-.44-.41-.47-.81-.94-1.19-1.4-.59-.78-1.12-1.53-1.59-2.21-.06-.09-.12-.19-.19-.25-.19-.31-.37-.65-.53-.97-.12-.22-.25-.47-.37-.69-.03-.06-.06-.16-.12-.22-.41-.62-.78-1.28-1.19-1.93-.41-.69-.78-1.4-1.15-2.15-.19-.34-.34-.69-.5-1.06-.47-1.03-.87-2.12-1.19-3.24-.12-.12-.22-.28-.28-.47-.03-.09-.09-.22-.12-.31-.03-.06-.03-.12-.06-.19-.06-.19-.12-.37-.19-.53-.03-.09-.09-.12-.12-.22-.06-.09-.12-.16-.16-.25-.06-.16-.09-.31-.09-.47-.03-.09-.03-.22-.06-.31-.09-.31-.19-.62-.34-.94-.12-.28-.22-.53-.34-.81l-.06-.16c-.09-.22-.19-.41-.31-.59-.22-.41-.44-.78-.69-1.09-.31-.41-.66-.87-1.03-1.31-.19-.25-.41-.47-.62-.69-.03-.03-.06-.09-.09-.12-.12-.12-.25-.28-.37-.41-.28-.28-.53-.56-.84-.81-.09-.06-.16-.16-.22-.22s-.12-.16-.19-.19c-.12-.09-.25-.16-.37-.25-.16-.09-.31-.19-.44-.31-.09-.09-.19-.19-.28-.31-.28-.12-.5-.28-.72-.47-.09-.09-.22-.16-.31-.22-.06-.06-.12-.09-.19-.16-.16-.09-.37-.12-.56-.19-.12-.03-.28-.06-.44-.12-.16-.06-.31-.12-.47-.19-.37-.16-.78-.34-1.22-.41h-.03c-.19-.09-.41-.16-.66-.22-.37-.09-.81-.16-1.31-.16-.31,0-.62.03-.91.03-.22.03-.41.03-.62.06-.12,0-.25.03-.34.03h-.31c-.12,0-.25-.03-.34,0-.87.12-1.59.41-2.28.72-.09.03-.19.09-.28.12-.19.06-.34.16-.53.22-.28.12-.53.25-.78.34-.56.28-1.03.56-1.43.9-.53.44-1.03.9-1.4,1.4-.06.09-.12.19-.19.28.06,0,.09.03.16.03.16.03.31.03.53.03h.28c.03-.09.12-.12.16-.12h.03c.37-.94,1.28-1.53,2.31-1.53.41,0,.84.09,1.22.28l.03-.34v-.03c.37-.75,1.06-1.62,2.25-1.65.97-.03,1.87.44,2.34,1.19.16-.06.28-.19.44-.28.34-.25.75-.5,1.28-.56.53-.03,1.37.19,1.68.37.19.12.78.5,1.09.94.22.31.22.62.22,1.03v.03c.06,0,.09-.03.16-.06.09-.03.19-.09.31-.09.5-.06,1.09.16,1.53.31.06.03.12.03.16.06h.03c.34.25,1.34,1.12.78,2.28,1.53.09,2.34,1.15,2.47,2.25t-.03.06h0c.03.44-.03.87-.19,1.28.72.12,1.37.59,1.72,1.28.37.72.37,1.53.03,2.25.75.19,1.37.81,1.68,1.68.34.94.22,1.93-.34,2.68,1.19.37,2.28,1.4,2.12,2.71-.03.28-.12.5-.19.72-.06.16-.12.31-.16.47,1.81.34,2.47,1.68,2.84,2.81v.03l-.06.19c-.09.44-.22.94-.41,1.37,1.65.19,2.78.94,3.34,2.18v.03c0,.22.03.41.03.56.03.25.06.47,0,.75.16-.03.31-.06.47-.09.28-.06.56-.12.84-.12h.19c.59.06,1.09.28,1.56.47.12.06.22.09.34.12-.03-.09-.06-.16-.09-.25,0-.15-.09-.4-.25-.56M8.39,61.01s-.03.03-.03.03c-.28.22-.56.47-.84.65-.03.12-.12.25-.22.34-.03.03-.06.06-.09.09-.09.12-.22.25-.28.37l-.03.03c-.28.12-.41.37-.56.65-.06.12-.12.25-.19.34-.09.16-.19.31-.28.47-.5.75-1,1.5-1.12,2.43.19.19.25.47.25.75,0,.16-.03.31-.06.5.37.22.72.59.84,1.06.06.31.06.65-.06,1.03.06.03.09.06.16.12.06.06.12.09.19.12.34-.25.72-.84.78-1.4.03-.34-.03-.59-.25-.81-.12-.06-.28,0-.41.06-.09.03-.22.09-.31.09s-.16-.03-.25-.09c0-.03-.03-.03-.03-.06.03-.16.12-.31.44-.31h.19c.53-.31,1.09-.62,1.12-1.53-.06,0-.16-.03-.28-.03-.28,0-.66,0-.66-.34,0-.03.03-.06.03-.06.16-.06.41-.06.62,0,.12.03.22.03.34.03.5-.03.94-.28,1.22-.69.25-.34.31-.78.22-1.12-.37-.03-.66-.09-.94-.22h-.03s-.03-.03-.03-.06v-.09c0-.06,0-.12.09-.19h.09c.31.12.69.19,1.06.19.41,0,1.06-.09,1.31-.59-.28-.16-.59-.31-.78-.56v-.06l.03-.03s.06-.09.09-.12.03-.03.06-.03.03,0,.06.03c.47.44,1.22.69,1.9.69.31,0,.59-.06.84-.19-.03-.06-.09-.16-.16-.25-.09-.12-.22-.28-.19-.41.03-.09.09-.16.22-.19h.06s.03.03.03.03c.22.5.75,1.03,1.47,1.03.09,0,.19,0,.31-.03-.09-.22-.22-.69-.09-.9.06-.09.12-.12.25-.12,0,0,.03,0,.06.03,0,0,.03.03.03.06-.06.31.03.59.22.81.31.34.87.5,1.37.34.03-.41.09-.81.47-.87.03,0,.06,0,.06.03s.03.03,0,.06c-.19.37-.19.78,0,1.15s.56.65.97.78c.06-.06.09-.19.16-.28.09-.25.22-.47.44-.47h.03s.06.03.06.06c.03.16-.09.34-.22.5-.03.03-.06.09-.09.12-.09.75.12,1.37.59,1.62.16-.31.41-.72.81-.65h.03s.06.03.06.06,0,.03-.03.03v.03c-.41.25-.62.84-.59,1.43.03.47.25.81.56,1,.19-.22.47-.41.72-.41h.06s.06.03.06.06c0,.25-.16.31-.28.34-.06.03-.12.03-.16.09-.44.41-.69,1.4-.19,2,.06,0,.16,0,.25-.03s.22-.03.31-.03c.12,0,.22.03.25.09v.06c-.09.19-.28.22-.44.22-.09,0-.16,0-.22.03-.53.22-1,.81-.84,1.34.09,0,.19-.03.31-.06s.28-.09.41-.09.22.06.28.12c.03.03.06.09.09.12v.06s-.03.03-.06.03c-.53-.03-1,.16-1.31.47-.22.25-.31.56-.28.9.09,0,.19,0,.25.03.25,0,.44.03.59.19,0,.03.03.03,0,.06,0,.03-.03.03-.03.03-.19.06-.44.06-.69.06-.28,0-.59,0-.87.09l-.06.03c-.34.19-.69.41-.87.75.06.03.12.06.19.09.12.06.28.12.34.28,0,.03,0,.06-.03.06,0,0-.03.03-.03.06-.03.06-.06.12-.16.12t-.03-.03c-.31-.25-.72-.37-1.15-.37-.62,0-1.22.28-1.53.69.03.09.06.12.12.19.09.09.22.19.19.44,0,.03-.03.03-.03.06-.03,0-.06.03-.06.03-.03,0-.06.03-.09.03s-.06,0-.06-.03c-.28-.47-1-.81-1.68-.81-.19,0-.37.03-.56.09.03.09.09.19.12.25.12.19.22.37.16.62,0,.03-.03.03-.06.03-.03.03-.06.03-.12.03-.12-.03-.16-.16-.19-.25s-.06-.16-.16-.16h-.03s-.06-.03-.06-.06c-.16-.75-.87-1.22-1.65-1.09,0,.06.03.09.06.16.09.25.19.53.09.69-.06.06-.12.12-.25.12h0s-.06-.03-.06-.06c-.16-.94-.47-1.78-1.72-1.87-.03.09,0,.22.03.34.03.09.03.19.03.25t-.03.06s-.09.03-.16.03h-.06s-.03.03-.06,0c-.03,0-.03-.03-.03-.06-.09-.81-.44-1.78-1.4-1.9v.09c0,.16,0,.34-.19.37h-.03c-.25-.19-.16-.44-.09-.69.03-.09.06-.19.06-.28.03-.69-.34-1.15-.72-1.4-.09.06-.16.12-.22.22-.06.09-.16.19-.25.28h-.06s-.06-.06-.09-.06c-.03-.03-.06-.09-.06-.12,0-.06.03-.09.03-.16.03-.06.09-.16.16-.22s.12-.12.16-.19c.12-.19.16-.44.19-.65,0-.22-.03-.41-.09-.59-.09-.22-.25-.47-.59-.62-.06.06-.09.12-.16.19-.09.16-.19.31-.41.34t-.06-.03c-.16-.22.03-.41.16-.53.06-.06.12-.12.19-.19.09-.19.12-.37.12-.56,0-.25-.03-.47-.12-.69h-.06c-.12,0-.19-.03-.22-.09v-.03c.06-.16,0-.28-.19-.41t-.06.06c-.06.06-.12.16-.25.16-.03,0-.09,0-.12-.03-.03,0-.06-.03-.03-.06.06-.31.25-.47.41-.65.09-.09.19-.19.25-.28.06-.56.06-1.31-.34-1.53-.09.03-.16.12-.22.22-.09.12-.16.22-.28.22-.06,0-.16-.03-.25-.12-.03-.03-.03-.06,0-.06.09-.16.25-.28.41-.44.22-.19.44-.34.5-.59.16-.5.03-1.06-.34-1.37h0s-.03,0-.06.03-.12.06-.22.03t-.03-.03c-.16-.25.03-.37.16-.5.06-.03.09-.09.12-.12.34-.59.09-1.22-.12-1.56h-.03c-.06.03-.12.03-.19.03-.09,0-.16-.06-.19-.12v-.03c.06-.19.19-.34.28-.5.16-.19.31-.37.28-.65,0-.09-.03-.12-.09-.22-.03-.06-.09-.16-.09-.28-.03,0-.06-.03-.09-.03-.16-.06-.41-.12-.44-.41t.03-.06c.37-.37.81-.87.56-1.5-.03-.09-.09-.16-.16-.22-.09-.06-.16-.16-.22-.28-.22.06-.44.09-.75.09-.22,0-.47-.03-.69-.03-.19-.03-.37-.03-.53-.03h-.03c-.16.62-.12,1.25-.12,1.93,0,.47.03.94-.03,1.43-.03.25.03.56.06.87.03.34.06.69.06.97-.06.56.03,1,.09,1.43.03.19.06.37.06.56.06.62.16,1.25.25,1.84.03.28.09.56.16.84.03.16.06.31.09.47l.03.19c.06.31.09.62.12.9.09.62.16,1.19.34,1.78.03.12.09.25.16.37.09.22.19.41.28.62.06.16.16.31.22.47.03.06.06.12.09.19.12.25.19.53.28.78.12.34.22.65.37.9.12.25.34.5.53.72.09.12.19.22.28.31.09.12.19.25.28.37.03.06.06.09.12.16.09.12.19.25.28.37.06.09.12.16.16.25.06.09.09.19.16.25.03.03.09.06.16.09.06.03.12.03.16.09.09.09.19.19.28.25.16.16.28.31.47.37.03,0,.03.03.03.03.09.25.41.5.69.53h.03c.66.5,1.5.9,2.4,1.22,1.06.34,2.28.53,3.46.53.59,0,1.19-.06,1.75-.16.22-.03.47-.06.66-.12.37-.19.75-.34,1.15-.5.03,0,.06-.03.09-.03.78-.31,1.59-.65,2.18-1.31.25-.25.44-.5.62-.72.03-.06.09-.09.12-.16.19-.25.34-.47.47-.65.03-.03.06-.06.09-.12.09-.12.19-.28.28-.41s.16-.25.25-.34c.16-.22.25-.5.37-.78.06-.12.12-.28.16-.41.06-.12.12-.25.22-.34.09-.12.16-.22.19-.31.09-.25.16-.56.22-.81v-.06c0-.06.03-.12.03-.16.06-.25.09-.53.09-.81,0-.06.03-.16.03-.22,0-.09,0-.16.03-.25.03-.31,0-.59-.03-.87,0-.09-.03-.16-.03-.25v-.03h0c-.09-.78-.19-1.43-.34-2.03-.09-.16-.16-.31-.25-.5-.03-.09-.09-.19-.12-.28-.19-.44-.41-.87-.62-1.25-.12-.22-.25-.41-.41-.59-.41-.44-1.15-1.06-1.65-1.37l-.25-.12c-.16-.09-.34-.22-.53-.34-.34-.22-.72-.44-1.09-.59-.16-.06-.31-.16-.47-.22-1.09-.44-2.25-.65-3.4-.65h-.03c-.41,0-.81.03-1.19.09-1.12.16-2.22.53-3.21,1.09-.06.1-.16.16-.25.26M23.68,48.28c.5-.44,1.09-.56,1.62-.94-.44-1.37-2.96-1.9-4.09-.78-.12.12-.41.5-.37.69,1.18-.47,2.34.28,2.84,1.03M20.34,51.74c.16-.59.34-1.19.5-1.81-1.65-.62-3.03.47-3.34,1.9-.06.25-.19.72-.03,1,.59-.75,1.5-1.25,2.87-1.09M38.41,98.16c1.25-.06,3.03-1.06,2.78-2.5-.34.03-.69.06-1.03.09h-.16c-.34,0-.69-.03-1.06-.12-.09,1.53-1.15,1.96-2.06,2.53.47-.06,1,.03,1.53,0M82.43,81.85s-.03,0,0,0c-.12.44-.22.84-.34,1.25-.09.31-.19.62-.28.9-.09.34-.22.69-.31,1.03-.09.28-.16.53-.22.81.22.41.37.84.5,1.28.22.69.47,1.37.94,1.84-.09-.72.09-1.31.28-1.9.09-.28.16-.56.22-.84.25-1.25.19-2.25-.16-3.46-.12-.12-.22-.28-.28-.44-.12-.16-.22-.31-.34-.47M85.42,76.7c.12-1.4.16-3.71-.66-4.62-.22-.25-.5-.37-.81-.37-.25.28-.34.59-.41.9v.03c-.12,1.06.66,2.25,1.34,3.24.22.28.41.56.53.81M2.06,48.84c.41.56,1.75.62,2.22.19-.59-.09-1.22-.47-1.65-.81-.16.22-.41.37-.56.62M39.9,40.91c-.12-.47-.19-.87-.22-1.28-.19-.03-.41-.03-.59-.03-.44-.03-.87-.03-1.25-.19v.03c.16.37.47,1.12.72,1.28.06.03.16.03.25.03.06,0,.12,0,.19.03.09.03.19.06.28.09.22.03.47.12.62.03M40.15,43.04c.06,0,.12.03.19.09.06.03.12.06.16.06,0,0,.03,0,.03.03.37.31,1.03.34,1.68.34h.5c-.41-.72-.91-1.22-1.68-1.72-.59-.37-1.4-.56-2.22-.72.19.41.47.72.75,1.03.19.22.37.44.56.69v.06h0c0,.06.03.1.03.13M66.17,90.27s-.03-.03-.06-.03c-.47.37-1,.65-1.53.97.09.12.06.25-.03.37.56,1-.31,2.34-.87,3.06,1.84-.5,3.34-2.18,2.5-4.37M64.92,105c.19-.09.41-.19.59-.28l.09-.09c.47-.47,1.03-1,1.06-1.72-.44.22-.84.44-1.25.65-.09.03-.19.09-.28.12-.69.37-1.4.72-2.15,1.03-.25.09-.47.22-.72.31-.41.59-.62,1.22-.72,1.9.59-.62,1.28-1.19,2.28-1.4.28-.16.53-.28.81-.41.1-.03.19-.09.28-.12M83.3,75.45h0c-.03.53-.06.97-.09,1.37-.03.44-.06.87-.12,1.31-.03.25-.06.53-.09.84h0s0,.22.19.28h.03c.66.41.97,1.06,1.22,1.75.03-.28.12-.53.19-.81.06-.22.12-.44.16-.69.25-1.53-.28-2.99-1.47-4.06h0ZM56.91,108.21c.19-.06.34-.12.47-.22t.06-.03s.06,0,.12-.03.12-.09.25-.09h0s.03-.12.09-.12c.72-.41,1.28-1,1.65-1.75-.53.12-1.06.28-1.56.44-.12.03-.28.06-.41.12-.78.25-1.59.47-2.4.65-.25.06-.47.12-.72.16-.5.65-.91,1.37-1.19,2.12,1.19-.65,2.25-1.03,3.28-1.09.09-.06.22-.09.34-.16M46.92,109.93c.19,0,.37-.03.56-.03,2-.19,3.59-.47,4.3-1.93-.44.06-.87.09-1.34.12-.41.03-.81.06-1.22.06-.78.03-1.53.06-2.28.16-.28.03-.56.09-.81.12-.62.62-1.22,1.4-1.56,2.12.16-.06.31-.12.47-.22.19-.09.34-.19.56-.25.44-.12.87-.12,1.31-.16M39.84,39.01c-.06-.06-.12-.12-.16-.16-.09-.09-.19-.19-.28-.31-.09-.06-.19-.16-.28-.22-.12-.12-.28-.22-.44-.34-.56-.44-1.15-.78-2.09-.84.09.19.19.41.28.62.06.16.12.31.19.47.12.22.25.44.44.56.22.16.69.28,1.09.34.12.03.28.03.47.03s.37.03.56.06c.06,0,.09,0,.16.03.09,0,.19.03.31.06h0s-.09-.12-.12-.19c-.06-.03-.09-.09-.12-.12M79.09,90.52c-.22.34-.44.72-.62,1.09-.16.31-.28.62-.34.94-.19,1.12.28,1.9.72,2.4.19-1.09.75-2,1.22-2.71.53-.81.75-1.84.75-3.18,0-.47-.16-.87-.44-1.15,0,0,0,.03-.03.03-.09.12-.16.25-.16.5v.03l-.03.06c-.12.19-.25.41-.34.65-.03.06-.06.12-.06.22,0,0,0,.03-.03.03l-.06.06c-.12.12-.25.25-.22.47v.03c-.13.16-.25.35-.35.53M70.16,101.66c1.09-.65,2.12-1.28,2.28-2.9-.5.56-1.09,1-1.68,1.47-.25.19-.5.37-.75.56-.16.12-.31.25-.47.37-.09.06-.19.12-.25.22-.12.09-.28.19-.41.25-.16.09-.28.16-.37.25-.34.34-.37.97-.28,1.47.44-.81,1.19-1.25,1.94-1.68M76.09,96.85c.06-.09.12-.16.22-.25.16-.19.28-.37.5-.53.12-.41.28-.97.34-1.47-.06-.12-.09-.25-.12-.37-.03-.16-.09-.28-.16-.41-.22.34-.5.69-.78,1.03-.12.16-.25.28-.37.44-.12.16-.25.28-.37.44-.06.06-.09.12-.16.22-.06.09-.16.22-.25.31s-.22.22-.31.31h0c-.22.22-.47.44-.53.62-.19.53-.12,1.81.03,2.43.31-.97.94-1.62,1.53-2.28.16-.19.28-.34.44-.5M32.98,31.03c-.53-.44-1.47-.75-2.22-.75-.5,0-.91.12-1.19.34.44.22.84.41,1.19.62.09.06.16.09.22.16.19.12.37.25.56.37.06-.03.16-.06.25-.06.12,0,.25.03.41.06.19.03.37.06.56.06.31,0,.59-.09.81-.16.03,0,.09-.03.12-.03-.06-.03-.09-.06-.16-.09-.19-.12-.41-.28-.56-.53M25.36,102.94c-.44-.28-.91-.59-1.31-.9t-.06-.03c-.12-.03-.22-.06-.34-.12-.47-.16-1.03-.34-1.62-.41-.5-.06-1.03-.12-1.43-.06.41.25.78.53,1.19.84,1.09.84,2.25,1.72,3.71,1.72.37,0,.78-.06,1.15-.19-.25-.19-.53-.34-.78-.5-.13-.12-.31-.22-.5-.34M40.74,108.27c-.47-.06-.94-.12-1.34-.16-.41-.06-.78-.09-1.15-.16h-.09c-.16-.03-.31-.03-.47-.03-.19,0-.31.03-.47.09-.47.19-.87.59-1.25.94-.03.03-.06.06-.09.09.16,0,.31-.03.47-.03.41,0,.81.06,1.22.09.12.03.25.03.34.03.16.03.31.06.5.09.22.03.47.09.69.09.16,0,.34.03.5.03,1.25,0,2.31-.25,3.4-.84-.78-.1-1.53-.16-2.25-.25M32.76,106.68c-.94-.28-1.87-.56-2.68-.94-.19-.09-.37-.16-.53-.25-1.03,0-1.93.19-2.53.53,1,.16,2,.53,2.93.87,1.25.47,2.43.9,3.68.9.62,0,1.22-.12,1.78-.34-.59-.19-1.22-.34-1.84-.53-.28-.09-.53-.19-.81-.25M19.75,98.66c-.16-.12-.34-.25-.47-.41-.12-.12-.25-.25-.34-.37-.03-.03-.06-.06-.09-.09-.09-.12-.22-.22-.34-.31-.12-.12-.25-.25-.37-.37-.56-.22-1.43-.44-2.15-.44-.19,0-.34,0-.5.03.28.09.5.22.72.34.16.09.31.19.5.28,0,0,.03,0,.03.03.34.41.94.94,1.59,1.34.5.31,1.12.62,1.78.62.12,0,.22,0,.34-.03-.19-.25-.44-.41-.69-.62M15.01,94.17s-.03,0,0,0c-.12-.28-.28-.47-.47-.69-.12-.12-.22-.25-.34-.37-.12-.12-.25-.25-.34-.37-.09-.12-.22-.25-.28-.37h-.03c-.06,0-.12.03-.22,0h-.03c-.47-.37-1.22-.59-1.93-.59-.12,0-.25,0-.34.03.75.47,1.59,1.06,2.12,1.9.62.5,1.28,1.03,2.18,1.03h.22c-.16-.22-.34-.41-.53-.56M7.55,83.88c-.69-1.37-1.37-2.81-3.18-3.03.66.47,1.09,1.12,1.53,1.78.53.84,1.09,1.68,2.12,2.09-.16-.28-.31-.53-.47-.84M34.01,33.43c-.09,0-.22,0-.31.03.16.19.34.34.5.5.37.34.78.69,1,1.19.22.03.44.03.62.06.31.03.59.09.94.09h.25c-.22-.19-.41-.37-.62-.56-.59-.65-1.25-1.31-2.37-1.31M10.92,89.24c-.41-.59-.84-1.19-1.22-1.84h-.03c-.06,0-.12.03-.22,0-.03,0-.03-.03-.03-.03-.03-.06-.03-.12-.03-.19-.06-.03-.12-.06-.19-.12-.47-.28-1.03-.59-1.62-.59h0c.19.12.34.28.5.44.19.19.41.41.62.53.03,0,.03.03.03.03.06.34.31.56.53.81l.25.25c.06.06.09.16.12.22.03.09.09.16.12.25.41.47.97.75,1.62.84-.16-.19-.31-.4-.47-.59M17.84,17.39c.06-.03.12-.03.19-.03.62-.16,1.22-.31,1.56-.75-.12-.03-.25-.03-.37-.03-.65-.06-1.25.31-1.37.81M5.05,78.88c-.19-.37-.34-.84-.47-1.28-.28-.9-.56-1.84-1.25-2.28-.22-.16-.59-.31-.91-.37.56.5.87,1.19,1.15,1.87.34.75.72,1.59,1.47,2.06M1.87,46.56c-.12.19-.25.53-.12.94.47-.34.78-.87.97-1.53-.34.09-.65.31-.84.59M4.55,36.83c-.09.19-.22.34-.34.5-.16.19-.31.41-.34.62-.16.62.12,1.34.5,1.65.03-.06.03-.12.06-.19.31-.75.41-1.65.41-2.59v-.25c-.09.06-.16.12-.25.19l-.03.06ZM26.3,10.18c-.16,0-.34.03-.5.03-.22.09-.5.28-.75.5-.37.34-.66.81-.53,1.47,1-.47,1.9-1,2.34-2.03-.09,0-.19,0-.31.03-.06-.03-.16-.03-.25,0M44.33,47h.09c.19-.09.25-.12.5-.12.12,0,.28-.06.44-.09.19-.06.34-.09.53-.12.06,0,.12,0,.19.03-.62-.72-1.78-1.03-3.53-1.06.34.37.84.72,1.28,1.03.19.13.34.25.5.34M48.58,48.81h.12c.25,0,.5-.06.78-.19.19-.09.41-.25.59-.37.31-.22.66-.47,1.03-.53-.34-.12-.69-.19-1.03-.16-.56,0-1.06.19-1.59.34-.53.19-1.06.34-1.65.37.25.12.47.19.72.31h.03c.44.12.75.19,1,.22M51.04,76.08l.03-.09c.25-.65.59-1.37.91-1.96.37-.72.75-1.28,1.15-1.72.56-.59,1.15-1.03,1.75-1.47.41-.31.81-.62,1.19-.97-.41-.09-.75-.25-1.09-.41-.62-.31-1.12-.72-1.5-1.28h-.06c-1.72,0-2.4-.9-2.87-1.93-.53-.09-.97-.25-1.37-.5-.03,0-.03-.03-.03-.06-.53-.34-.97-.84-1.37-1.56-.56-.06-.97-.34-1.34-.62-.09-.06-.19-.12-.25-.22-.19-.16-.37-.28-.56-.44h-.03c-.56,1.62-.41,3.62-.03,4.84.44,1.37.84,2.5,1.22,3.37.06.12.12.28.19.41.28.34.56.75.81,1.15v.06s0,.03-.03.03c-.06.03-.12.06-.19.06-.25,0-.41-.28-.5-.47-.03-.03-.03-.06-.06-.09-.16-.25-.31-.5-.44-.78-.03-.06-.09-.12-.12-.22-.09-.12-.16-.28-.22-.41v-.03c-.03-.16-.09-.28-.19-.44-.25.56-.37,1.06-.44,1.53,0,.09-.03.22-.03.31s.03.19.03.34c.06.28.09.53,0,.65-.03.06-.16.09-.31.03-.03,0-.03-.03-.03-.03-.12-.41-.12-.87-.09-1.31.03-.34.09-.65.16-.97v-.03c-.12-.09-.28-.19-.47-.22t-.03-.03c-.19-.19-.44-.28-.69-.37-.12-.03-.25-.09-.34-.16-.62-.31-1.22-.69-1.75-1.06-.28-.19-.56-.37-.84-.56-.59-.37-1.22-.78-1.78-1.15-.28-.19-.53-.34-.78-.53-.53-.5-1-.87-1.5-1.22h0c-.31-.37-.69-.72-1.03-1.03-.37-.37-.78-.75-1.15-1.15-.66-.78-1.22-1.62-1.75-2.5l-.03-.03c-1.22-2.21-2.06-5.24-2.31-8.52-.03-.22-.06-.47-.09-.69-.03-.34-.09-.72-.09-1.09,0-.34.06-.65.12-.97.06-.25.09-.47.09-.65-.41-.25-1.03-.37-1.72-.37-.47,0-.91.06-1.22.19.06.31.12.65.16.97.03.16.06.28.06.44.31,1.96.66,3.99,1.75,5.3v.03c0,.06.03.12.09.19.06.09.16.22.06.41,0,.03-.03.03-.03.03h-.06c-.72-.56-1.25-1.4-1.5-2.43-.06-.28-.16-.56-.22-.87-.16-.62-.31-1.25-.44-1.87-.03-.19-.03-.34-.03-.53,0-.16,0-.34-.03-.5,0-.03-.03-.06-.03-.09-.06-.28-.12-.59-.19-.87-.12-.5-.25-1.03-.28-1.56-1.68.09-2.96.69-3.9,1.78.16.16.37.31.53.44.09.06.16.12.25.19.19.16.37.31.53.5.03.06.06.09.09.16.03.06.03.09.09.16.06.09.16.19.25.28.12.12.25.25.34.41.25.41.5.84.72,1.25.22.41.44.84.72,1.25.03.06.09.12.16.19.12.16.28.31.28.56.22.19.37.37.53.59.25.28.47.59.81.75.03,0,.03.03.03.06,0,.06.09.12.19.16.09.06.19.09.22.19.03.06,0,.12-.03.19l-.03.03s-.09.03-.16.03c-.25,0-.47-.22-.59-.31-.22-.19-.47-.47-.84-.9l-.03-.06c-.22-.28-.47-.62-.56-.94-.19-.19-.41-.44-.5-.81-.25-.37-.47-.75-.69-1.15-.44-.75-.84-1.43-1.43-2.06-.09-.09-.19-.19-.31-.25-.22-.19-.47-.34-.72-.5l-.09-.06c-.06-.03-.12-.09-.22-.12-.31-.19-.66-.41-1-.56-.66.9-1.09,2.21-1.28,4.02,1.43.59,2.99,1.56,4.24,2.68.47.41.84.81,1.31,1.37.66.78.94,1.59,1.31,2.53v.03c.69,1.87.09,4.06-.81,5.27l-.03.03c-.16.09-.34.19-.47.34.62.84,2,1.75,3.62,1.75h.25c-.53-.97-.25-2.59.37-3.28-.25-.16-.44-.47-.53-.84-.06-.22-.09-.44-.09-.65,0-.56.22-1,.62-1.22h.09s.03.06,0,.09c-.31.47-.37,1.06-.25,1.56.03.09.03.16.09.25.25.5.72.84,1.31.87.03,0,.03.03.06.03,1.09,2.9,3.21,4.96,5.24,6.99.19.19.37.37.56.56.47.28.84.59,1.15.94.5.19.84.56.94.69.75.47,1.53,1.03,2.31,1.56.75.53,1.53,1.06,2.25,1.53.41.16.81.37,1.19.56.78.41,1.59.81,2.47.9h.31c.06,0,.12,0,.19-.03.12-.03.22-.03.34-.03.09,0,.22.03.31.09.03.03.06.03.09.06v.03c0,.12-.09.22-.22.22h-.12s-.09-.03-.12-.03c-.09,0-.16,0-.25.03h-.06c-.16,0-.28.03-.44.03-.34,0-.62-.03-.84-.12.31.41.81.65,1.37.75.16.03.28.03.41.03,1.37.03,1.81-1.19,2.24-2.31M45.11,36.52c.03-.69-.31-1.28-.87-1.5v.56c-.03,1-.03,1.81.09,2.74.09.09.19.22.28.34.16.22.34.47.56.56-.28-.53-.19-1.25-.12-1.93.03-.28.06-.53.06-.78M45.86,32.52c0-.65-.28-1.22-.87-1.68-.03.28-.12.56-.22.84-.12.41-.25.81-.22,1.19.03.31.22.72.37,1.03.09.19.28.5.53.72-.06-.44.09-.84.22-1.25.09-.31.19-.59.19-.84M45.71,13.71c.06.22.12.41.22.62.09.25.19.5.28.69.06.12.16.19.28.25.06.03.12.09.19.12l.06.06c.28.25.56.47.94.44-.44-.62-.44-.97-.41-1.31,0-.19,0-.34-.03-.53-.37-.75-.87-1.31-1.93-1.5.12.28.22.62.34.97.03.03.03.09.06.19M48.73,35.14c-.03-.22-.25-.62-.47-.69-.03.03-.06.03-.09.03h0c-.06.31-.22.62-.41.94,0,.03-.03.03-.03.06-.09.19-.19.37-.28.56-.03.09-.09.19-.09.28-.22.78.19,1.5,1.22,2.12-.03-.12-.06-.22-.09-.34-.06-.22-.16-.44-.12-.69,0-.25.09-.56.19-.87.13-.47.28-1,.19-1.4M45.71,42.94s.09.03.12.03.06.03.09.03c.19.06.41.12.59.12h.19c-.25-.28-.5-.65-.59-.97,0-.03-.03-.03-.03-.06-.37-1.19-.72-1.4-1.4-1.68.09.56.25,1.06.53,1.62v.09c.12.22.28.47.5.81M48.67,42.72c-.06-.06-.12-.12-.19-.16-.09-.06-.16-.12-.25-.22-.25-.34-.37-.81-.47-1.22-.19-.69-.37-1.34-.97-1.62-.03.62.03,1.19.16,1.84,0,.03,0,.06-.03.06.06.31.12.62.19.94h0c.41.19.84.41,1.37.41.03-.03.12-.03.19-.03M47.33,44c-.06-.16-.16-.34-.22-.5h-.03c-.16.03-.37.06-.62.06-.12,0-.22-.03-.31-.03.25.28.72.47,1.19.47h0ZM45.02,10.28c-.22-.37-.44-.75-.84-.87-.34-.09-.72-.06-1.19.03.16.28.41.56.66.81.16.19.34.37.5.56.12.03.25.09.37.16.34.16.72.28,1.06.28.12,0,.22-.03.34-.06-.44-.12-.69-.53-.9-.9M48.39,6.78c-.03.56.12,1.09.41,1.47.28-.09.59-.19.78-.34-.53-.25-.81-.72-1.19-1.12M52.38,5.35c-.12.53.03.84.06,1.25.25.03.31-.12.53-.09,0-.41-.41-.78-.59-1.15M54.16,6.1c.03-.34-.47-.59-.56-.81-.03-.03-.09-.09-.12-.12h0s0-.03-.03-.03c.06.5,0,1.25.72.97M48.86,8.78c.03.12.09.22.19.28.37-.25.84-.41,1.4-.5.56-.37,1.34-.65,2.18-.97.44-.16.91-.34,1.37-.53.31-.12.69-.25,1.03-.37,1.06-.37,2.15-.75,2.53-1.53.25-.5.25-.94,0-1.31-.31-.5-1-.84-1.84-.87.62.12,1.25.37,1.5.87.22.37.16.84-.19,1.37l-.03.03c-1.47,1.06-3.34,1.72-5.15,2.34-1.03.34-2.06.72-3.03,1.15.03-.03.03,0,.03.03M50.57,7.41c-.12-.56-.28-1.09-.69-1.4.09.41.06.94.16,1.5.25.03.31-.12.53-.09M51.6,6.97c-.19-.47-.22-1.06-.72-1.28-.06.56.31.75.19,1.37.25.06.31-.13.53-.09M61.24,24.25s-.09.06-.12.09c-.06.03-.16.09-.22.12-.81.53-.87,1.47-.75,2.25.28-.41.69-.75,1.06-1.06.69-.59,1.37-1.15,1.47-2.25-.25.16-.59.37-.94.56-.19.09-.34.19-.5.28M72.26,6.72c-.09-.06-.22-.12-.31-.19-.09-.03-.19-.09-.28-.12h0c-.41-.44-.72-.9-.94-1.47-.22-.19-.94-.72-1.68-.72-.06,0-.16,0-.22.03.22.31.47.59.72.87.37.44.78.87,1.06,1.43.28.12.59.19.94.22.09,0,.19.03.31.03.09-.06.25-.06.41-.09M72.47,14.18c.16-.97-.44-1.34-.69-1.47-.03.25-.09.53-.12.78-.09.62-.16,1.19-.37,1.68-.09.25-.31.81-.31,1.09,0,.09-.03.12-.03.16s0,.03.06.16c.09.09.19.22.28.34s.22.28.31.34c-.12-.65.19-1.31.47-1.9.15-.41.34-.81.4-1.19M71.69,8.62s-.03-.03-.06-.03c-.12-.06-.16-.06-.25-.09.22.75.31,1.62.37,2.5v.03c.41.41.84.62,1.4.69-.22-.34-.34-.78-.5-1.25-.03-.16-.09-.31-.16-.47-.12-.59-.34-1.09-.81-1.37M85.79,11.84c-.22-.25-.41-.56-.62-.84-.47-.72-.91-1.37-1.78-1.65-.09.12-.12.37-.12.59v.16c.44.22.87.56,1.25.9.47.37.87.72,1.28.84M3.78,46.5c.5-.09.97.53,1.28.19-.44-.22-.66-.69-1.19-.84.06.31-.22.31-.09.65M60.09,1.67c-.47-.31-1.06-.59-1.59-.59-.25,0-.44.06-.62.19-.12.06-.22.12-.31.25v.06s-.03.06-.03.09,0,.06-.03.09c.5.09,1,.16,1.47.16.41-.06.78-.12,1.12-.25M50.54,31.09c-.22.25-.5.56-.72.87-.03.06-.06.09-.12.16-.12.19-.25.37-.31.56-.31.78.09,1.53.62,2-.09-.75.22-1.31.5-1.87.31-.62.62-1.22.34-2.03l-.03-.03c-.03.09-.16.22-.28.34M46.95,27.62c.06.12.12.25.16.41.5-.37.94-.78,1.4-1.19.62-.56,1.25-1.15,2-1.59.53-.56,1.19-1,1.81-1.4.25-.16.5-.34.75-.53.66-.37,1.31-.81,1.9-1.22l.22-.16.34-.16c2-.94,4.27-2.03,6.3-3.09.16-.09.31-.16.47-.22l.16-.09c.06-.03.09-.06.16-.09.06-.03.12-.09.22-.12.37-.19.66-.37,1.03-.65.41-.31.72-.59,1.06-.97.06-.06.12-.12.19-.19.12-.09.22-.22.31-.34.56-.62,1.25-1.75,1.43-2.96.16-1.15.03-2-.25-2.75,0-.03-.03-.06-.03-.09-.22-.5-.5-.97-.81-1.47,0,.65-.03,1.34-.47,1.84.59.31,1.28.87,1.28,1.72,0,.75-.44,1.37-1.06,1.56.22.62.16,1.31-.19,1.87-.34.59-.97,1-1.65,1.12-.19.03-.37,0-.53-.03s-.31-.06-.44-.03c0,.53-.25,1.09-.66,1.5-.47.47-1.06.72-1.68.72-.44,0-.84-.12-1.19-.34-.16,1.31-1.31,2.31-2.71,2.31-.44,0-.84-.09-1.22-.28,0,.53-.19,1-.53,1.34-.41.44-1,.65-1.59.65-.44,0-.84-.12-1.22-.34,0,.69-.22,1.31-.62,1.75-.53.56-1.31.69-2.12.31.06.75-.12,1.43-.53,1.93-.41.5-1.03.81-1.75.87-.03.18,0,.31.06.4M57.56,26.28h0s-.06.03-.09.06c-.06.03-.09.06-.16.09-.09.06-.22.12-.28.16-.12.09-.12.12-.16.16,0,.03-.03.06-.06.09-.31.41-.37,1.09-.44,1.78,0,.12-.03.28-.03.44.22-.28.5-.53.84-.81.75-.65,1.53-1.37,1.37-2.43-.03.03-.09.03-.16.06-.25.06-.59.22-.84.41M54.13,28.25c-.19.09-.44.22-.66.34-.09.06-.19.12-.25.19-.41.28-.75.65-.81,1.15-.03.41.06.94.31,1.4.22-.53.69-1,1.06-1.37l.03-.03c.31-.31.44-.62.62-1.03l.03-.03s.03-.09.06-.12c.16-.28.25-.53.09-.72-.12.03-.28.13-.5.22M67.58,20.04v.12c-.03.56-.06,1.12.12,1.5.03-.06.09-.09.12-.16.09-.12.22-.28.22-.34v-.03c.19-.25.37-.44.56-.65.28-.31.53-.59.78-1.03.19-.34.37-1,.22-1.31-.69.84-1.34,1.43-2.03,1.9M50.04,2.2c-.41-.06-.81-.16-1.15-.34t-.03-.06c.03-.44.41-.72.91-.72.19,0,.37.03.56.09,0,0,.03,0,.03.03.09.16.22.34.31.59.19,0,.37.03.56.03.72,0,1.47-.09,2.15-.16.72-.09,1.47-.19,2.22-.19.56,0,1.06.06,1.53.16.03-.03.03-.09.06-.16s.03-.12.06-.19c.31-.37.72-.56,1.25-.56.56,0,1.09.22,1.5.47.31.19.56.37.69.47.09.09.19.19.25.25.09.12.19.22.28.28.22.12.72.31,1.15.31.12,0,.22-.03.31-.06.06-.03.09-.06.16-.09.03-.03.09-.09.16-.12.03-.03.06-.03.12-.06h.06s.03.06.06.09c.06.06.09.12.09.22.03.44-.53.94-.59,1-.47.44-1.19.69-1.97.69-.44,0-.87-.09-1.25-.25.06.28.12.78-.03,1.28-.03.12-.12.31-.22.47-.12.16-.28.31-.44.31-.06,0-.09,0-.16-.03-.03,0-.03-.03-.03-.06-.03-.09,0-.19.03-.28.06-.09.12-.19.19-.25.06-.06.12-.12.19-.22.22-.5.12-1.12-.25-1.53-.06-.06-.12-.09-.19-.12-.16-.12-.31-.25-.28-.5,0-.03.03-.06.06-.06.34-.03.59.16.84.34.12.09.28.22.44.28.31.12.66.22,1.03.22.78,0,1.53-.31,1.9-.78h-.06c-1.06,0-1.78-.5-2.22-.97-.41.19-.84.25-1.37.25s-1.09-.09-1.65-.19c-.31-.06-.66-.09-.97-.12-.28-.03-.56-.03-.84-.03h-.19c-.75.03-1.5.09-2.22.19-.84.12-1.72.22-2.53.19-.19-.03-.38-.06-.53-.09M63.61,3.82c.12-.16.34-.22.62-.22.31,0,.59.12.75.31.09.12.16.28.12.47.41-.06.81.06,1.06.31.19.19.25.37.25.62s-.16.59-.44.59c-.09,0-.16-.03-.25-.09-.03,0-.03-.03-.03-.03-.03-.22.09-.28.16-.31s.09-.06.09-.09c0-.12-.03-.25-.12-.34-.12-.16-.37-.19-.56-.19s-.37.03-.56.09h-.06s-.03-.03-.03-.06v-.31c.03-.28.03-.44-.16-.5-.22-.09-.41,0-.56.09-.12.06-.25.12-.37.12-.03,0-.06-.03-.06-.06,0-.16.06-.28.16-.41M51.6,2.82c.69,0,1.34-.09,2-.19.59-.09,1.15-.19,1.75-.19h.12c1.19.03,2.5.62,2.68,1.65.06.31.03.62-.06.9-.12.41-.37.75-.78,1.06-.34.28-.78.5-1.31.72-.31.12-.62.25-.94.34-.41.16-.84.31-1.28.5-.34.16-.62.25-.87.34-.47.16-.91.34-1.31.53-.19.09-.37.16-.56.25-.06.03-.09.03-.16.06-.37.16-.78.31-1.15.41-.09.12-.19.16-.28.22-.09.03-.16.09-.22.19-.12.22-.16.53-.03.81s.37.53.62.65c-.09-.22-.09-.5,0-.75.09-.34.34-.62.59-.75h.06c.16.09.19.25.25.37.03.09.06.19.12.25.22.28.66.47,1.09.47h.03c-.12-.12-.19-.34-.25-.56-.06-.34,0-.72.19-.94.22-.25.5-.41.87-.41.91,0,2,.72,2.37,1.12.22.06.44.16.69.28.34.16.72.31,1.12.37h.28c.56,0,1.03-.19,1.4-.34-.81-.06-1.28-.47-1.75-.84-.41-.34-.81-.65-1.4-.75h-.28c-.09,0-.19-.03-.25-.12-.03-.09-.03-.19.03-.28.22-.31,1.03-.47,1.37-.47h.03c.84,0,1.53.37,2.22.72.62.34,1.25.65,1.93.62-.5-.19-.75-.56-1.03-.94-.37-.5-.75-1-1.65-1h-.12s-.03,0-.03-.03l-.03-.03c0-.12.03-.22.12-.28.22-.22.66-.25.91-.25.22,0,.44.03.59.06.28.06.62.22.87.34.34.19.66.41,1,.65.66.5,1.31,1,2.25,1.03-.81-.78-1.59-1.75-1.56-3.12v-.12c0-.22,0-.47.09-.65.03-.12.12-.22.25-.28.03,0,.06,0,.06.03.06.06.06.12.09.22,0,.12,0,.25-.03.41-.03.19-.06.41-.03.53l.28.12c.66.28,1.22.56,1.84.97.91.62,1.4,1.31,1.93,2.09.16.25.31.47.44.72.25.47.44,1,.56,1.62.03.25.09.56.09.87.03.56-.03,1.15-.19,1.72-.16.62-.37,1.19-.66,1.65-.12.19-.22.41-.34.53-.34.44-.87.97-1.37,1.4-.16.12-.34.28-.56.44-.31.25-.66.5-1.03.75-.03.03-.06.03-.09.06-.41.25-.87.5-1.31.72-.12.06-.25.12-.37.19-.25.12-.47.25-.72.34-.16.06-.28.12-.44.22-.22.12-.47.25-.69.34-.03,0-.03.03-.06.03-.22.09-.41.19-.62.28-.66.28-1.25.56-1.9.87-.22.12-.47.25-.69.37-.03.03-.09.03-.12.06-.12.06-.28.16-.41.22-.09.06-.22.12-.31.16-.66.31-1.28.75-1.84,1.12-.12.09-.25.16-.34.22-.22.16-.44.31-.66.44-.09.06-.19.12-.28.19-.59.37-1.15.81-1.68,1.22-.03,0-.03.03-.06.03-.22.19-.44.34-.69.53-.03.03-.06.06-.09.09-.34.28-.72.62-1.06.94-.34.34-.72.69-1.09.97-.19.12-.34.25-.53.37-.03.19-.06.41-.12.62-.12.59-.28,1.25-.09,1.84.03.06.09.12.16.19.12.12.25.25.19.47,0,.03-.03.03-.06.06h-.12c-1.06,0-1.5-1.03-1.81-1.84-.03-.06-.06-.12-.09-.19-.03.16-.06.31-.09.47-.03.12-.03.22-.06.31.75.47,1.15,1.19,1.19,2.06.03.34-.09.65-.19,1-.12.41-.25.84-.16,1.28.03.16.16.25.28.34.16.12.34.28.28.53,0,.03-.03.03-.06.06-.03,0-.06.03-.12.03-.22,0-.41-.16-.56-.31-.03-.03-.09-.06-.12-.09-.59-.47-.97-.97-1.22-1.53,0,.09-.03.16-.03.22-.06.22-.09.44-.09.69.75.31,1.15.9,1.22,1.78.03.31-.03.62-.06.97-.06.5-.12,1,0,1.43v.06c.06.12.16.25.28.37.16.16.34.31.31.53,0,.03-.03.06-.03.06-.06.03-.16.03-.25.03-.03,0-.06,0-.12-.03-.31-.03-.59-.19-.72-.28-.09-.06-.19-.16-.25-.25-.09-.09-.19-.19-.25-.22,0,.12.03.25.06.37s.06.28.09.44c.44.16,1,.41,1.34.87.16.25.25.5.34.78,0,.03,0,.06-.03.06.03.06.06.12.06.19.09.25.19.5.34.65,0,0,.03.03.06.06.06.09.12.16.16.19-.12-.34-.22-.72-.28-1.12s-.12-.81-.16-1.25c-.09-1.37.06-2.87.47-4.12.06-.12.12-.25.19-.37.12-.28.28-.59.37-.87,0-.03.03-.03.03-.06.25-.62.5-1.22.87-1.72.12-.19.28-.41.44-.59.16-.22.34-.44.5-.65.03-.06.06-.09.12-.16.16-.25.34-.5.56-.75.09-.12.19-.22.28-.34.78-.9,1.75-1.62,2.74-2.28.22-.12.41-.28.62-.41.34-.22.72-.44,1.09-.65.19-.12.34-.22.53-.31.31-.19.62-.34.97-.5.28-.12.56-.28.84-.41l.28-.16.19-.12s.06-.03.09-.06c.84-.47,1.62-.94,2.5-1.34.25-.16.53-.34.78-.5s.5-.31.75-.47c.25-.16.53-.31.78-.47.69-.44,1.4-.87,2.06-1.28,0,0,.03,0,.03-.03.09-.06.16-.09.25-.16.12-.09.28-.16.41-.25.03,0,.03-.03.06-.03.31-.25.59-.44.94-.65l.22-.12s.06-.06.12-.09c.06-.06.12-.09.16-.12.06-.06.16-.12.25-.19.06-.06.12-.09.19-.12.31-.25.62-.47.91-.72.25-.22.5-.44.72-.65.62-.59,1.15-1.25,1.53-2l.03-.03c.09-.06.09-.09.12-.22.19-.34.31-.69.41-1,.22-.59.31-1.15.41-1.81,0-.09.03-.16.03-.25.03-.19.06-.37.09-.56.09-.41.16-.78.12-1.12s-.06-.81-.12-1.31c-.03-.28-.06-.53-.12-.81v-.06c-.12-.56-.34-1.22-.56-1.78-.25-.62-.56-1.09-.91-1.53-.12-.16-.25-.31-.41-.47-.09-.12-.19-.25-.31-.34,0-.03-.03-.03-.03-.06-.06-.09-.12-.19-.22-.28-.16-.19-.28-.41-.47-.56-.66-.59-1.43-.97-2.28-1.34-.03.03-.06.03-.06.06-.09.06-.16.12-.22.22.78.34,1.28.87,1.62,1.59.06.12.12.25.19.41.03.06.06.12.06.19.19.53.34.94.84,1.15.06.03.16.03.25.06.19.03.41.06.53.28v.06c-.19.25-.59.34-.91.41h-.03c-.22.03-.47.06-.72.06-.41,0-.84-.06-1.22-.16-.31-.09-.62-.19-.84-.31-.06-.03-.09-.09-.12-.12s-.03-.06-.06-.06c-.03-.03-.09-.03-.16-.03s-.12-.03-.19-.06c-.25-.16-.44-.34-.66-.53-.41-.41-.81-.78-1.43-.78-.03,0-.09.03-.16.03-.06.03-.12.03-.19.03-.09,0-.16-.03-.19-.09,0-.03-.03-.03,0-.06.09-.22.31-.34.62-.34.09,0,.16,0,.25.03.37.06.78.25,1,.41.16.09.28.22.44.34.06.06.12.09.19.16.28.28.59.53.94.72.06.03.12.06.19.09.06.03.16.03.22.06.44.12.97.25,1.43.25.22,0,.41-.03.56-.09-.59-.25-.78-.81-.97-1.37-.09-.28-.19-.56-.34-.84-.09-.19-.22-.31-.34-.44-.16-.16-.34-.28-.53-.41-.09-.06-.19-.12-.28-.22-.09-.03-.19-.06-.28-.09-.06-.03-.12-.03-.19-.06-.19-.06-.41-.16-.62-.19-.16-.03-.34-.03-.5-.03-.28,0-.53,0-.62-.12-.03-.03-.03-.06,0-.09.12-.16.34-.22.66-.22.34,0,.75.09,1.03.16h.06c.06.03.12.03.16.03.22-.44.75-.72,1.43-.72.56,0,1.06.19,1.37.5.25-.34.72-.53,1.28-.53.41,0,.78.09,1.09.28l.03.03c.12.19.28.31.44.44.37-.28.81-.47,1.4-.56-.41-.12-.81-.34-1.22-.59-.72-.41-1.43-.81-2.31-.84-.62-.03-1.28.06-1.9.19-.41.06-.84.12-1.25.16-.81.06-1.68-.03-2.65-.25-.09-.03-.19-.03-.28-.06-.16-.03-.28-.06-.37-.09-.37-.12-.75-.28-1.12-.47-.56-.25-1.12-.5-1.68-.59-.34-.06-.69-.09-1-.09-.66,0-1.12.12-1.37.41-.06.06-.09.22-.12.34s-.06.25-.12.34t-.06.03c-.34-.12-.72-.19-1.12-.19-.56,0-1.09.12-1.62.25-.5.12-1.03.25-1.56.25-.19,0-.37-.03-.53-.03-.25-.03-.47-.12-.72-.25-.22-.09-.47-.19-.72-.25-.69-.16-1.28-.12-1.78.12-.09.12-.19.25-.28.34-.22.25-.47.5-.53.9.84.31,1.78.53,2.87.65.06-.14.31-.11.56-.11M113.69,54.52c-.03-1.62-.06-3.15-.03-4.62v-.37c.03-1.06.03-2.62-.84-3.15-.09.09-.19.25-.28.37-.19.31-.41.65-.91.65h-.03s-.06-.03-.06-.06c-.19-.75-.06-1.62.06-2.56.16-1.19.28-2.43-.12-3.43-.37.06-.5.47-.59.84-.12.44-.25.87-.72.94-.03,0-.06,0-.06-.03-.25-.62-.19-1.68-.09-2.81.09-1.34.22-2.71-.25-3.49-.37.03-.5.37-.66.72-.16.37-.31.78-.78.81-.03,0-.06,0-.06-.03-.44-.87-.53-2.03-.62-3.18-.12-1.47-.25-2.99-1.12-3.81-.06.09-.09.22-.12.34-.09.28-.16.62-.53.62-.06,0-.12,0-.19-.03-.03,0-.03-.03-.03-.03-.28-.69-.5-1.47-.69-2.18-.41-1.37-.81-2.81-1.62-3.84-.09.12-.12.34-.19.56-.06.31-.09.66-.37.75-.03,0-.06,0-.06-.03-.69-.78-1.06-1.84-1.43-2.87-.44-1.25-.87-2.53-1.9-3.28-.09.06-.09.25-.09.41,0,.25,0,.5-.22.56h-.06c-1.09-.84-1.84-1.96-2.59-3.06-.69-1.03-1.4-2.09-2.4-2.9-.06.16-.03.28-.03.41.03.19.06.34-.16.53-.03.03-.06.03-.09,0-.87-.53-1.56-1.25-2.25-1.93-.84-.87-1.75-1.75-2.99-2.31-.03.06-.03.19-.06.28-.06.28-.12.72-.53.78h-.03c-.91-.25-1.62-.65-2.31-1.06-.37-.22-.75-.44-1.19-.62-.56-.25-1.15-.47-1.9-.56-.06.03-.06.06-.06.09,0,.06.16.12.25.16.16.06.28.12.28.25,0,.09-.09.12-.12.16h-.06c-.47-.12-.87-.34-.75-1,0-.03.03-.03.03-.06.19-.09.41-.12.66-.12.62,0,1.28.28,1.9.56.03,0,.06.03.09.03.28.12.53.25.75.31-.37-.31-.78-.59-1.19-.9-.19-.12-.34-.25-.53-.37-1.68-1.19-3.59-2.31-5.21-3.03-1.43-.62-2.4-.87-3.4-.87-.34,0-.72.03-1.12.09-.28.03-.56.09-.87.16.19.69.56,1.22,1,1.65.37.34.78.65,1.19.9h.12c.19,0,.31-.06.47-.16s.31-.16.53-.16h.16s.03.03.06.03v.06l-.03.03c-.19.28-.28.41-.16.75.31.31.75.47,1.31.47.37,0,.75-.06,1.06-.12.16-.03.31-.06.44-.06t.06.03s.03.03.03.06c-.03.25-.22.28-.37.31-.19.03-.28.06-.28.25.62.69,1.34.65,2.37.62h.03s.03,0,.06.03c.03,0,.03.03.03.06-.03.22-.19.25-.31.28-.09.03-.19.06-.22.12.28.03.62.03.97.06h.25c.47.03.91.03,1.09.06.03,0,.03.03.03.03v.06c-.22.28-.5.41-.94.41-.19,0-.34-.03-.53-.03-.06,0-.12-.03-.19-.03-.25-.03-.47-.06-.66-.06-1.12,0-3.78.12-4.68,1.25.09.06.19.12.31.19.22.09.47.22.5.5t-.03.06c-.19.19-.41.34-.59.53-1.15,1-2.47,2.12-2.59,3.84.22.03.44-.06.62-.12.16-.06.31-.12.47-.12.09,0,.19.03.28.09t.03.06c-.41,2.06-.31,3.9.28,5.02.06.06.09.06.12.06.06,0,.12-.06.19-.16.12-.12.28-.31.53-.25.03,0,.03.03.06.03.47,1.28,1.15,2.25,2.06,2.93.56.41,1.19.72,1.9.94.12-.03.19-.16.25-.31.03-.06.06-.16.09-.22.06-.09.16-.19.34-.19h.16c.41.25.91.47,1.43.62.16.03.34.09.5.12.59.12,1.19.22,1.75.22.59,0,1.12-.09,1.56-.25-.03-.19-.12-.28-.22-.41-.16-.19-.34-.37-.19-.87,0-.03.03-.03.03-.03.22-.06.47-.12.69-.19,1.47-.37,2.84-.72,3.34-2.12-.06-.06-.12-.06-.22-.06s-.22.03-.31.03c-.12.03-.25.06-.37.06-.19,0-.34-.06-.44-.22,0-.03-.03-.03,0-.06.25-.5.62-.9,1-1.28.69-.72,1.34-1.4,1.31-2.87-.09.03-.22.06-.31.06-.22.06-.47.12-.72.12-.12,0-.22,0-.34-.03.03.34.03.65,0,1,0,.09,0,.19-.03.28-.12,1.31-.62,2.5-1.47,3.4,0,0-.03,0-.03.03-.12.12-.25.25-.37.34-.75.65-1.68,1.15-2.71,1.47-.69.19-1.43.28-2.18.28h0c-.87,0-1.78-.12-2.62-.44-.66-.22-1.31-.53-1.9-.9-.87-.59-1.62-1.4-2.09-2.43-.12-.31-.25-.62-.34-.97-.06-.25-.12-.5-.16-.75-.12-.94-.09-1.78.06-2.59s.44-1.56.87-2.21c.19-.28.34-.53.56-.78.16-.19.34-.37.53-.53.53-.47,1.15-.87,1.87-1.15.53-.22,1.12-.41,1.75-.5.5-.09,1.03-.12,1.56-.12.31,0,.66,0,.97.03.31.03.62.06.91.12,1.43.22,2.78.65,3.99,1.25.72.34,1.37.72,2,1.12,1,.65,1.93,1.37,2.78,2.09.91.78,1.72,1.56,2.47,2.31.22.22.44.44.66.65.66.65,1.28,1.31,1.87,2,.72.81,1.4,1.62,2.03,2.43.25.31.47.62.69.94.44.59.81,1.22,1.19,1.84.41.72.81,1.47,1.25,2.25.31.62.66,1.25,1.03,1.87.06.12.12.22.19.34l.03.03c.72,1.22,1.34,2.4,1.93,3.59.5.97.97,1.93,1.37,2.9.28.65.56,1.31.81,1.96.34.9.69,1.81.97,2.68.22.65.41,1.31.59,1.93.22.78.41,1.53.56,2.28.12.53.25,1.09.34,1.62,0,.03-.03.06-.06.06s-.06,0-.06-.03c-.69-2.28-1.4-4.46-2.15-6.49-.06-.09-.09-.22-.12-.34-3.24-8.74-7.18-15.38-12.2-20.59,0,0-.03-.03-.03-.06.03-.22,0-.37-.09-.47l-.03-.03c-2.47-2.46-5.18-5.18-9.02-6.64-.34-.12-.69-.25-1.06-.37-.84-.25-1.75-.47-2.74-.59-.47-.06-.91-.09-1.31-.09-3.46,0-5.8,1.9-6.4,5.21-.28,1.5,0,2.93.72,4.18.12.22.28.44.44.62.03.03.03.06.06.09.78.97,1.87,1.72,3.09,2.12.53.19,1.06.31,1.62.34.16.03.31.03.47.03h.25c.81,0,1.56-.16,2.28-.41.5-.19,1-.47,1.43-.78.31-.25.59-.5.87-.81.12-.16.25-.34.37-.5.41-.56.69-1.15.91-1.84.12-.44.25-.9.31-1.4.09-.75.09-1.53,0-2.34-.12-.06-.28-.12-.41-.22-.22-.12-.44-.22-.62-.31-.12-.06-.28-.12-.41-.19-.44-.19-.91-.31-1.37-.34.22.19.37.37.56.56.12.12.22.28.34.37t.03.06s-.03.03-.06.03h-.16c-.16,0-.25-.06-.34-.09-.06-.03-.12-.06-.19-.09-.03.65.19,1.06.44,1.47.06.12.12.25.19.37v.06s-.06.03-.06,0c-.19-.09-.31-.06-.41.06-.25.34-.12,1.31,0,1.72t-.03.06s-.03.03-.06.03c-.19-.03-.28-.19-.34-.31-.03-.06-.06-.12-.12-.19-.31.37-.31,1.06-.31,1.56,0,.19,0,.37-.03.5,0,.03-.03.06-.06.06-.25-.03-.28-.22-.28-.41-.03-.19-.06-.28-.19-.28h-.06c-.69.12-.94.81-1.15,1.53l-.03.09s-.03.06-.09.03c-.25-.06-.19-.34-.16-.59.03-.09.03-.22.03-.31h-.16c-.84,0-1.43.37-1.9,1.15l-.06.06s-.03.03-.06.03-.06-.03-.06-.06v-.12c.03-.25.12-.44.25-.59.09-.12.16-.22.19-.37-.25-.19-.56-.28-1-.28-.41,0-.84.09-1.19.16-.16.03-.28.06-.41.09-.03,0-.09.03-.12.03s-.06-.03-.06-.03v-.06s.06-.06.09-.09c.12-.09.25-.16.41-.22.22-.09.41-.19.53-.34-.37-.47-1.09-.72-2.15-.84t-.06-.03v-.06c.09-.19.34-.19.56-.19.28,0,.47-.03.47-.22-.09-.56-.41-.97-.75-1.37-.19-.22-.34-.44-.5-.69v-.06s.03-.03.03-.03c.22-.03.41.16.56.31.06.06.16.19.19.19,0,0,.03,0,.06-.12v-.03c.16-.34-.12-1.03-.31-1.5-.03-.09-.06-.16-.09-.22v-.06s.03-.03.06-.03h.03c.25,0,.37.19.47.34.06.09.12.19.19.19.03,0,.09-.03.12-.06.19-.19.25-.62.28-1v-.09c.03-.31.06-.65.19-.87t.06-.03c.19.03.19.19.22.31.03.19.06.25.22.22.53-.25.91-.72,1.28-1.15.09-.12.19-.25.31-.37t.06-.03s.03.03.06.06c.06.34.22.5.5.5.34,0,.78-.22,1.12-.41s.62-.31.75-.25c.03.03.03.06.03.09-.03.09-.09.19-.16.25-.03.06-.06.09-.09.16.56.16.94.19,1.28.19.41,0,.81-.09,1.25-.28h.06s.03.03.03.03c.03.25-.09.31-.19.37-.09.06-.12.09-.12.22.25.19.56.28.97.28.12,0,.25-.03.41-.03.31-.03.62-.09.91-.19.06-.03.12-.03.19-.06.03,0,.06,0,.06.03.03,0,.03.03.03.06-.06.22-.22.31-.37.37-.16.06-.25.12-.31.28.03.03.09.06.12.09.41.31,1.09.47,2.06.47.22,0,.47,0,.75-.03t.06.03s.03.03.03.06c-.03.25-.25.31-.47.34-.22.03-.31.06-.34.22.34.41.94.5,1.53.59.41.06.78.12,1.03.28.03,0,.03.03.03.06s-.03.03-.03.06c-.09.06-.22.06-.34.06s-.25.03-.34.06c.47.37.94.75,1.37,1.12,8.98,7.46,15.19,18.47,18.03,31.98,0,.03,0,.06-.03.06s-.06,0-.09-.03c-.34-1.37-.72-2.68-1.12-3.99-.25-.87-.53-1.72-.81-2.56-.28-.78-.56-1.56-.84-2.34-.19-.5-.37-.97-.56-1.43-.37-.94-.75-1.81-1.15-2.71-.28-.59-.53-1.19-.81-1.75-.56-1.15-1.15-2.25-1.75-3.31-.34-.59-.69-1.19-1.06-1.78-.78-1.22-1.56-2.4-2.4-3.56-.34-.5-.72-.97-1.09-1.43-.5-.62-1-1.22-1.5-1.78-.72-.81-1.43-1.59-2.18-2.34-.34-.34-.69-.65-1.03-1-.81-.75-1.62-1.5-2.5-2.21-.03.19-.19.28-.31.37-.09.06-.16.12-.19.19,0,.03,0,.09.06.16.19.34.56.5.94.65.5.22,1,.44,1.09,1.03,0,.03,0,.06-.03.06-.16.09-.31.12-.5.16-.31.06-.59.12-.66.44.47.44,1.22.65,1.93.84,1.09.31,2.22.59,2.43,1.72,0,.03,0,.06-.03.06-.25.12-.56.12-.87.16-.41.03-.81.06-1,.28.47.59,1.28.9,2.09,1.22,1.09.41,2.22.81,2.5,1.96,0,.03,0,.06-.03.06-.22.09-.59.03-.97-.03-.25-.06-.5-.12-.75-.12-.09,0-.16,0-.25.03.41,1.28,1.59,1.93,2.74,2.59,1.09.59,2.22,1.22,2.71,2.37v.06s-.03.03-.03.03c-.19.06-.37.12-.56.12-.41,0-.75-.16-1.12-.28-.22-.09-.44-.16-.62-.22.25,1.28,1.37,2.06,2.56,2.87,1,.69,2,1.37,2.5,2.4v.06s-.03.03-.03.03c-.09.03-.22.03-.31.03-.44,0-.84-.19-1.25-.41-.28-.16-.59-.31-.91-.37.22.28.44.62.62.9.59.84,1.19,1.75,1.93,2.4.16.12.34.25.53.34.41.22.84.47.91,1.03t-.03.06c-.16.16-.31.22-.47.22-.25,0-.5-.16-.75-.34-.22-.16-.47-.31-.72-.37.37.84,1.06,1.5,1.72,2.15.94.9,1.87,1.84,1.93,3.18,0,.03-.03.06-.06.06-.06,0-.12.03-.19.03-.25,0-.44-.09-.59-.19-.19-.12-.34-.19-.53-.09,2.06,4.4,3.84,8.42,4.8,13.17.16.72.19,1.47.25,2.18.06,1,.12,2.06.44,3.03.43-3.65.37-8.01.31-12.26M65.17,21.82c-.12.09-.28.19-.41.25-.22.12-.41.25-.62.41-.28.47-.37,1.22-.19,1.78.25-.34.66-.65,1-.9.75-.56,1.47-1.06,1.25-2.15-.31.19-.62.41-1.03.62t0,0M81.18,8.69c.12.03.25.09.37.12-.72-.62-1.62-1.25-2.81-1.65.41.78,1.56,1.22,2.43,1.53M23.34,21.79c.09-.28.25-.5.34-.78-.5.16-1.22.19-1.72-.06.19.53.66.78,1.37.84M26.74,15.99c-.44-.12-.62-.47-1.09-.56.12.53.56.78.87,1.12-.03-.28.19-.34.22-.56M24.86,19.26c0-.65-.75-.59-1.22-.78.22.44.69,1.09,1.22.78M25.11,18.42c.31-.06.41-.31.47-.59-.53-.06-.78-.41-1.22-.56,0,.66.56.72.75,1.15M22.53,19.73c.44.31.81.72,1.65.62-.03-.28.28-.37.09-.56-.5.25-1.37-.22-1.75-.06M19.97,17.73c-.06.22-.37.16-.53.28.22.59.97,1.12,1.43,1.09-.53-.22-.56-.97-.9-1.37M24.18,21.35c.06-.09.12-.16.19-.25.12-.16.25-.31.34-.53.28-.34.47-.69.72-1.09.06-.12.16-.25.22-.37.72-1.03,1.37-2.15,1.84-3.18.22-.47.31-.94.28-1.22-.09.34-.25.59-.37.87-.12.25-.25.47-.37.81-.47.72-.91,1.47-1.34,2.18-.59,1.03-1.25,2.06-1.9,3.03-.12.16-.19.25-.19.28s.03.03.06.06l.03.03c.16-.09.28-.25.37-.44.03-.06.09-.12.12-.19M17.94,18.55c.31.81.94,1.53,1.75,1.78-.5-.5-.72-1.25-.94-2-.25.09-.53.16-.81.22M5.52,40.67c-.84.5-1.31,1.47-1.4,2.9.31-.41.53-.97.72-1.47.22-.53.41-1.03.69-1.43M3.18,47.65c.5.22,1.09.34,1.65.44-.25-.56-.97-.62-1.43-.94.12.31-.22.25-.22.5M5.27,45.59c-.19-.47-.59-.72-1.09-.97.03.25-.16.28-.16.5.4.16.87.28,1.25.47M19.84,27.19c-.12.03-.25.06-.37.09-1.47.31-3.12.65-3.43,2.15.41-.12.84-.25,1.28-.34.16-.03.34-.09.5-.12.25-.06.47-.09.69-.12v-.03s0-.12.09-.16c.78-.44,1.25-.97,1.43-1.56,0,0-.03,0-.03.03-.03.03-.09.03-.12.06,0,0-.03,0-.03,0M8.61,32.74c.06.16.12.31.22.47,0,.03.03.03.03.03.03-.03.06-.06.09-.09l.06-.03c.19-.19.37-.37.56-.56h.03c.16-.09.28-.19.44-.28.25-.16.5-.31.81-.47.12-.03.25-.09.41-.12.09-.03.19-.06.25-.06.06-.03.12-.03.16-.06.09-.03.22-.09.34-.16.16-.06.31-.16.47-.22l.12-.06s.06-.03.09-.03c.25-.09.47-.19.56-.31.19-.25.25-.75.31-1.15,0-.09.03-.16.03-.22.16-1.09.94-1.75,1.75-2.25h0c-.44.09-.78.22-1.15.37-.12.06-.25.12-.41.16-.56.44-1.03.84-1.47,1.4-1.09,1.43-2.12,2.68-3.9,3.21.06.12.12.28.19.44M.28,53.24c.25.19.69.22,1.03.22,1.28-.03,2.37-.62,3.15-1.25,1-.84,1.72-1.9,1.78-3.43-.03-.65.22-.87.16-1.31-.03-.16-.31-.5-.34-.65-.03-.22-.09-.56-.09-.81-.03-.53-.03-1.28.12-1.93.22-.97.75-1.78,1.31-2.31-.09-.22-.16-.47-.37-.62-.25.22-.47.44-.66.72-.19-.25-.41-.41-.69-.53,0,.22-.12.25-.12.44.22.09.47.19.69.28-.16.22-.28.47-.41.75-.16-.22-.34-.41-.66-.5-.03.09-.03.25-.12.25-.03.34.28.34.5.47.06,0,.12.03.16.03-.12.31-.19.62-.28.97-.25-.19-.47-.44-.72-.65.09.37-.19.31-.16.62.19.06.53.28.81.31,0,.03-.03.09-.03.12-.19,1.12.12,2.31.09,3.49-.03,1.84-.62,3.15-1.84,3.65-1.15.47-2.56.03-3.15-.78.06.28.19.56.34.75.34.37.91.47,1.28.75-.37.53-1.12.75-1.78.97M26.55,29.43s.09.03.12.03c.25.09.5.16.78.25.09-.03.19-.06.31-.12.59-.22,1.25-.44,1.5-.94-.09.03-.22.03-.31.03-.34,0-.66-.09-1-.19-.16-.06-.31-.09-.47-.12-.44-.09-.87-.06-1.37,0-.09,0-.16.03-.25.03-.06.03-.12.09-.19.12-.22.16-.44.28-.56.5.44.09.81.19,1.15.31.09.03.19.06.28.09M48.7,2.79c-.22-.12-.56-.16-.78-.28-.28.5-.47,1.43-.06,1.87.12-.69.53-1.06.84-1.59M49.51,4.66c-.03-.65.31-.9.37-1.47-.19-.06-.25-.19-.53-.16-.28.41-.25,1.44.16,1.62M48.01,5.85c.16.03.34,0,.5.03.41,0,.5-.09.84-.12,1.37-.12,2.59-.62,3.84-.94.56-.12,1.06-.22,1.53-.22,0,.44-.25,1.06.19,1.15.03-.09.12-.12.28-.09.19-.25-.19-.72-.41-1.03.59,0,1.12.16,1.65.5.19-.12.37-.25.44-.5-.41-.53-1.15-.62-2.06-.65h-.53c.03-.37.25-.5.22-.9-.19,0-.34-.03-.53-.03.03.34,0,.72.12.97-.47.03-.94.09-1.37.19.12-.34.28-.62.37-.97-.22,0-.44-.03-.66-.03.03.31-.09.75-.09,1.09-.62.16-1.22.31-1.72.5-.84.28-1.62.22-2.4.41-.12-.03-.25,0-.41,0-.53,0-1.19-.28-1.5-.53-.59-.47-1.22-1.28-1.15-2.15.03-.34.28-.69.25-.9-.56.25-1.09.72-1.06,1.43,0,.22.25.53-.03.69-.09-.22-.44-.28-.66-.41-.19-.12-.31-.41-.47-.31.09,2.12,2.71,2.97,4.8,2.84M47.39,25.94c-.12-.47-.09-1.03-.06-1.59.06-.97.12-1.9-.69-2.28-.03.16-.06.37-.06.56-.03.19-.03.37-.06.59-.03.16-.06.28-.09.44-.09.34-.16.65-.12.94.09.56.44,1,1.09,1.34M51.1,4.6c0-.59.25-.87.34-1.34-.31-.06-.28.22-.66.09,0,.47-.06,1.03.31,1.25M41.15,8.06s.09.06.12.09c.12.12.25.22.37.28.12.09.28.12.5.12.47,0,1.03-.25,1.25-.5-.47,0-.81-.31-1.12-.56-.09-.09-.19-.16-.28-.25-.25-.12-.56-.19-.84-.19-.22,0-.62.06-.84.37.28.16.56.37.81.59,0,0,.03,0,.03.03M45.61,27.5c-.03.09-.06.19-.09.28-.09.34-.16.65-.12,1,0,.19.12.44.19.65.03.06.03.12.06.19.22.59.41,1.06.78,1.31-.16-.53-.03-1.06.12-1.56.09-.37.19-.72.16-1.06v-.03c-.03-.69-.37-1.19-.91-1.68-.03.31-.09.59-.19.91M21.12,16.92c-.62.59.44,1,.87,1.25.03-.31-.38-1.09-.87-1.25M47.98,18.73c-.09-.69-.81-1.37-1.43-1.62.06.37.09.81.09,1.25v.25c0,.25.03.5.03.72,0,.16.03.28.03.41.09.78.59,1.06,1.19,1.4,0-.09-.03-.19-.06-.28-.03-.12-.09-.25-.09-.41,0-.28.06-.56.12-.84.12-.31.19-.62.12-.88M24.34,14.12s.03-.03.06-.03c.25-.16.47-.34.72-.47-.28.03-.53.09-.78.19-.22.06-.44.16-.62.25-.78.41-1.5,1.06-2.03,1.93.69-.34,1.31-.81,1.9-1.28.22-.19.5-.38.75-.59M23.8,27.31c-.31-.03-.66-.06-.94-.06-.44,0-.75.06-1.03.22-.12.12-.25.22-.37.34-.28.22-.56.41-.62.84h1.59c.28.03.53.03.72.06.03,0,.03-.03.03-.06.03-.06.06-.12.16-.16.81-.19,1.4-.65,2-1.19-.16.03-.31.03-.53.03-.34.03-.69,0-1-.03M20.31,19.76c-.12.09-.44.25-.44.37-.03.16.47.37.41.56.25-.12.53-.34.72-.47.34-.25.72-.59.94-.84.41-.47.62-.81.97-1.22.16-.19.34-.34.47-.53.28-.37.62-.84.91-1.25.16-.22.37-.44.56-.65.62-.62,1.59-.9,2.53-1.15.06-.12.06-.28.09-.44-.09-.03-.06-.12-.19-.12-.53.09-1,.28-1.43.5-.03-.31-.12-.53-.37-.62.03.25-.34.12-.34.34.19.12.34.28.47.41-.12.06-.22.12-.34.19-.19.12-.44.31-.59.44-.09-.16-.16-.28-.16-.53-.37-.06-.5.16-.59.34.19.09.34.25.47.37-.06.06-.12.12-.28.25-.03.03-.22.22-.37.34-.06-.16-.12-.34-.31-.62-.22.06-.53.06-.47.34.16.16.41.25.53.44.03,0,.03.03.03.03-.22.22-.41.47-.59.72-.34-.22-.31-.78-.69-.94-.66.28.06,1.03.59,1.06-.03.03-.06.06-.09.12-.12.12-.31.19-.41.34-.47.72-1.19,1.37-1.78,1.9,0,.16-.09.22-.22.31M20.12,20.82c-.28-.12-.66-.19-.91-.34-.59.12-1.12.34-1.72.28-1.22-.09-1.84-1-2.34-1.81-.16.87.31,1.37.75,1.87.16.19.22.25.41.37-.31.37-1.22.37-1.93.31,1.93.84,4.34.25,5.74-.69M25.08,16.58c.28.31.44.72.87.9-.03-.28.19-.34.22-.59-.37-.03-.75-.66-1.09-.31M36.81,5.66c-.34,0-.62.09-.84.31h.06c.87.19,1.78.41,2.56.75.06-.03.16-.03.22-.06.34-.09.75-.22.91-.59-.12.03-.28.06-.47.06-.41,0-.84-.12-1.28-.25-.34-.09-.78-.22-1.15-.22"/>
</svg>